/* XPM */
static char *b216c7a54a254b44d1844e5d57c28ec6FKRLHMjaOGm6XMOZ[] = {
/* columns rows colors chars-per-pixel */
"49 79 133 2 ",
"   c #000000",
".  c gray6",
"X  c #141414",
"o  c #1C1C1C",
"O  c #242424",
"+  c #2C2C2C",
"@  c #353535",
"#  c #3A3A3A",
"$  c #444444",
"%  c gray29",
"&  c gray36",
"*  c #676767",
"=  c gray50",
"-  c #DC2C00",
";  c #DD3400",
":  c #DF3D02",
">  c #E03F05",
",  c #DF4005",
"<  c #DF430A",
"1  c #DF4710",
"2  c #E04006",
"3  c #E0430B",
"4  c #E14710",
"5  c #E14A13",
"6  c #E24E19",
"7  c #E2521D",
"8  c #E35622",
"9  c #E35A27",
"0  c #E45C2A",
"q  c #E56333",
"w  c #E66739",
"e  c #E66A3D",
"r  c #E76D41",
"t  c #E77147",
"y  c #E77349",
"u  c #E8754B",
"i  c #E9794F",
"p  c #E97C54",
"a  c #E97F58",
"s  c #EB825C",
"d  c #EB8662",
"f  c #EB8A67",
"g  c #EC8C69",
"h  c #ED916F",
"j  c #ED9575",
"k  c #EE9A7C",
"l  c #858585",
"z  c #888888",
"x  c #909090",
"c  c #9A9A9A",
"v  c #A5A5A5",
"b  c gray67",
"n  c gray71",
"m  c #BDBDBD",
"M  c #EE9E81",
"N  c #F09F80",
"B  c #EFA286",
"V  c #F0A285",
"C  c #F0A68B",
"Z  c #F0A88E",
"A  c #F1AD94",
"S  c #F2B39C",
"D  c #F3B7A1",
"F  c #F3BAA5",
"G  c #F4BFAB",
"H  c #F5C1AE",
"J  c #F5C5B4",
"K  c #F6CBBC",
"L  c #C3C3C3",
"P  c #CBCBCB",
"I  c gray83",
"U  c #DBDBDB",
"Y  c #F6CFC0",
"T  c #F7D3C5",
"R  c #F8D2C4",
"E  c #F7D6C9",
"W  c #F8D6CA",
"Q  c #F9DACE",
"!  c #F9DED5",
"~  c #F9E1D7",
"^  c #FAE4DC",
"/  c #FAE6DD",
"(  c #FBE6DF",
")  c #FAE7DF",
"_  c #FAE5DD",
"`  c gray88",
"'  c #E1E1E1",
"]  c #E2E2E2",
"[  c gray89",
"{  c #E6E6E6",
"}  c #E7E7E7",
"|  c gray91",
" . c gray92",
".. c gray93",
"X. c #FAE7E0",
"o. c #FBE7E1",
"O. c #FAE9E2",
"+. c #FBE9E4",
"@. c #FBEAE5",
"#. c #FBEBE6",
"$. c #FCEDE7",
"%. c #FBEAE3",
"&. c #FBEDE8",
"*. c #FCEEE9",
"=. c #FCF1EE",
"-. c #FCF4EF",
";. c #FCF2EE",
":. c gray94",
">. c gray95",
",. c #F3F3F3",
"<. c gray96",
"1. c #F6F6F6",
"2. c gray97",
"3. c #FCF5F0",
"4. c #FDF4F1",
"5. c #FEF7F6",
"6. c #FDF5F2",
"7. c #FDF9F5",
"8. c #FEF8F6",
"9. c #F8F8F8",
"0. c gray98",
"q. c #FBFBFB",
"w. c #FDF9F8",
"e. c #FDFBF9",
"r. c #FEFBFA",
"t. c #FEFCFB",
"y. c #FDFDFD",
"u. c #FEFFFC",
"i. c #FEFEFE",
"p. c #FFFEFE",
"a. c #FEFFFF",
"s. c white",
"d. c #FFFFFF",
/* pixels */
"s.s.s.s.s.s.s.s.s.s.s.s.s.s.s.s.s.s.s.s.s.s.s.s.s.s.s.s.s.s.s.s.s.s.s.s.s.s.s.s.s.s.s.s.s.s.s.s.s.",
"s.s.s.s.s.s.s.s.s.s.s.s.s.s.s.s.s.s.s.s.s.s.s.s.s.s.s.s.s.s.s.s.s.s.s.s.s.s.s.s.s.s.s.s.s.s.s.s.s.",
"s.s.s.s.s.s.s.s.s.s.s.s.s.s.s.s.s.s.s.s.s.s.s.s.s.s.s.s.s.s.s.s.s.s.s.s.s.s.s.s.s.s.s.s.s.s.s.s.s.",
"s.s.s.s.s.s.s.s.s.s.s.s.0.s.s.s.s.s.s.s.s.s.s.s.s.s.s.s.s.s.s.s.s.s.s.s.s.s.s.s.s.s.s.s.s.s.s.s.s.",
"s.s.s.s.s.s.s.s.s.s.s.I     $ ,.s.s.s.s.s.s.s.s.s.s.s.s.s.s.s.s.s.s.s.s.s.s.s.s.s.s.s.s.s.s.s.s.s.",
"s.s.s.s.s.s.s.s.s.s.s.s.L X   $ ,.s.s.s.s.s.s.s.s.s.s.s.s.s.s.s.s.s.s.s.s.s.s.s.s.s.s.s.s.s.s.s.s.",
"s.s.s.s.s.s.s.s.s.s.s.s.s.L X   $  .s.s.s.s.s.s.s.s.s.s.s.s.s.s.s.s.s.s.s.s.s.s.s.s.s.s.s.s.s.s.s.",
"s.s.s.s.s.s.s.s.s.s.s.s.s.s.L X   % U } ` ` ` ` ` ` ` ` ` ` } 0.s.s.s.,.` 0.s.s.s.s.s.s.s.s.s.s.s.",
"s.s.s.s.s.s.s.s.s.s.s.s.s.s.s.L o                           X L s.0.U &   v s.s.s.s.s.s.s.s.s.s.s.",
"s.s.s.s.s.s.s.s.s.s.s.s.s.,...s.m O                           n s.v o     l 1.s.s.s.s.s.s.s.s.s.s.",
"s.s.s.s.s.s.s.s.s.s.s.s.,.x & I s.L O                         z *         z 1.s.s.s.s.s.s.s.s.s.s.",
"s.s.s.s.s.s.s.s.s.s.s.s.U X   # I s.m O                     .             z 0.s.s.s.s.s.s.s.s.s.s.",
"s.s.s.s.s.s.s.s.s.s.s.s.P       # I s.m +                                 z 1.s.s.s.s.s.s.s.s.s.s.",
"s.s.s.s.s.s.s.s.s.s.s.s.n         # I s.m +                               z 1.s.s.s.s.s.s.s.s.s.s.",
"s.s.s.s.s.s.s.s.s.s.s.s.v           # P s.m @                             z 0.s.s.s.s.s.s.s.s.s.s.",
"s.s.s.s.s.s.s.s.s.s.s.0.c             # P s.m #                           z 0.s.s.s.s.s.s.s.s.s.s.",
"s.s.s.s.s.s.s.s.s.s.s.0.c               # P s.L @                         z 1.s.s.s.s.s.s.s.s.s.s.",
"s.s.s.s.s.s.s.s.s.s.s.s.v                 # L s.m #                       z 1.s.s.s.s.s.s.s.s.s.s.",
"s.s.s.s.s.s.s.s.s.s.s.s.n                   # L s.m #                     z 0.s.s.s.s.s.s.s.s.s.s.",
"s.s.s.s.s.s.s.s.s.s.s.s.L                     # L s.L #                   z 1.s.s.s.s.s.s.s.s.s.s.",
"s.s.s.s.s.s.s.s.s.s.s.s.I X                     # m s.L #                 z 1.s.s.s.s.s.s.s.s.s.s.",
"s.s.s.s.s.s.s.s.s.s.s.s.} %                       # L s.L #     X         z 1.s.s.s.s.s.s.s.s.s.s.",
"s.s.s.s.s.s.s.s.s.s.s.s.0.c                         @ L s.L #   X $ X     z 1.s.s.s.s.s.s.s.s.s.s.",
"s.s.s.s.s.s.s.s.s.s.s.s.s.` %                         c s.s.L #   + = $   c s.s.s.s.s.s.s.s.s.s.s.",
"s.s.s.s.s.s.s.s.s.s.s.s.s.s.U v v v v v v v v v v v b ` s.s.s.P #   $ v b  .s.s.s.s.s.s.s.s.s.s.s.",
"s.s.s.s.s.s.s.s.s.s.s.s.s.s.s.s.s.s.s.s.s.s.s.s.s.s.s.s.s.s.s.s.P @   # U s.s.s.s.s.s.s.s.s.s.s.s.",
"s.s.s.s.s.s.s.s.s.s.s.s.s.s.s.s.s.s.s.s.s.s.s.s.s.s.s.s.s.s.s.s.s.I @   o m s.s.s.s.s.s.s.s.s.s.s.",
"s.s.s.s.s.s.s.s.s.s.s.s.s.s.s.s.s.s.s.s.s.s.s.s.s.s.s.s.s.s.s.s.s.s.I n n } s.s.s.s.s.s.s.s.s.s.s.",
"s.s.s.s.s.s.s.s.s.s.s.s.s.s.s.s.s.s.s.s.s.s.s.s.s.s.s.s.s.s.s.s.s.s.s.s.s.s.s.s.s.s.s.s.s.s.s.s.s.",
"s.s.s.s.s.s.s.s.s.s.s.s.s.s.s.s.s.s.s.s.s.s.s.s.s.s.s.s.s.s.s.s.s.s.s.s.s.s.s.s.s.s.s.s.s.s.s.s.s.",
"s.s.s.s.s.s.s.s.s.s.s.s._ F g u r r r r r r r r r r r r r r r r r r e u f G _ s.s.s.s.s.s.s.s.s.s.",
"s.s.s.s.s.s.s.s.s.s._ j q : , 5 7 7 7 7 7 7 7 7 7 7 7 7 7 7 7 7 7 7 7 5 : , q k +.s.s.s.s.s.s.s.s.",
"s.s.s.s.s.s.s.s.s.R e : 4 f J T Q E E E T T T T T T T T T T T T T T T K H d 3 : r T s.s.s.s.s.s.s.",
"s.s.s.s.s.s.s.s.F 5 3 j $.s.;.X.~ O.6.s.s.s.s.s.s.s.s.s.s.s.s.s.s.s.s.s.s.r._ j < 6 G s.s.s.s.s.s.",
"s.s.s.s.s.s.s.Q 5 5 C s.+.Z r 7 5 7 r Z +.s.s.s.s.s.s.s.s.s.s.s.s.s.s.s.s.s.s.s.V 3 5 ^ s.s.s.s.s.",
"s.s.s.s.s.s.w.i : k s.Q w 3 : : : : : 3 i E s.s.s.s.s.s.s.s.s.s.s.s.s.s.s.s.s.s.r.k ; p s.s.s.s.s.",
"s.s.s.s.s.s.S < p s.! 4 : : : 3 2 , > : : q K s.s.s.s.s.s.s.s.s.s.s.s.s.s.s.s.s.s.0.t > F s.s.s.s.",
"s.s.s.s.s.;.p : K w.p ; > > < : 2 2 2 2 : ; d -.s.s.s.s.s.s.s.s.s.s.s.s.s.s.s.s.s.s.J : s 7.s.s.s.",
"s.s.s.s.s.! 8 6 s.J 4 : 2 2 2 2 < : 2 , > : 8 J s.s.s.s.s.s.s.s.s.s.s.s.s.s.s.s.s.s.s.< 8 ^ s.s.s.",
"s.s.s.s.s.K : a s.h > > , , , 2 : < 2 2 , : 3 k 5.s.s.s.s.s.s.s.s.s.s.s.s.s.s.s.s.s.s.i : T s.s.s.",
"s.s.s.s.s.J ; k s.s ; , , 2 2 2 3 > 2 2 2 : 3 g $.s.s.s.s.s.s.s.s.s.s.s.s.s.s.s.s.s.s.j ; K s.s.s.",
"s.s.s.s.s.J - M t.s ; , 2 2 2 2 , 2 , , 2 : < g $.s.s.s.s.s.s.s.s.s.s.s.s.s.s.s.s.s.s.j - K s.s.s.",
"s.s.s.s.s.K : s s.j ; : 2 3 > 2 2 2 2 2 > : 3 k 5.s.s.s.s.s.s.s.s.s.s.s.s.s.s.s.s.s.s.i : E s.s.s.",
"s.s.s.s.a.! 1 9 s.G 3 : 2 , 2 2 2 2 2 2 > > 7 F s.s.s.s.s.s.s.s.s.s.s.s.s.s.s.s.s.s.s.1 1 ~ s.s.s.",
"s.s.s.s.s.&.t < ! =.w : 2 , > > 3 2 > > > : i _ s.s.s.s.s.s.s.s.s.s.s.s.s.s.s.s.s.s.Q : u =.s.s.s.",
"s.s.s.s.s.s.S , a s.E 5 : : > > 2 2 : > : 0 J s.s.s.s.s.s.s.s.s.s.s.s.s.s.s.s.s.s.t.u , D s.s.s.s.",
"s.s.s.s.s.s.O.e 5 S s.D 0 : > : : > : : q F r.s.s.s.s.s.s.s.s.s.s.s.s.s.s.s.s.s.s.A < e =.s.s.s.s.",
"s.s.s.s.s.s.s.J : 8 J s.T s 7 5 5 5 8 s W s.s.s.s.s.s.s.s.s.s.s.s.s.s.s.s.s.s.s.J 7 : R s.s.s.s.s.",
"s.s.s.s.s.s.s.s.A 5 < A $.s.$.J G Y 4.s.s.s.s.s.s.s.s.s.s.s.s.s.s.s.s.s.s.5.~ A , 5 S s.s.s.s.s.s.",
"s.s.s.s.s.s.s.s.7.S 0 : r C E @.*.&.@.o._ _ o.X._ X._ _ X.) _ X._ X._ ! Y V e : 0 S r.s.s.s.s.s.s.",
"s.s.s.s.s.s.s.s.s.s.T u 7 5 7 9 q q q q q q q q q q q q q q q q q q q 9 7 5 7 i E s.s.s.s.s.s.s.s.",
"s.s.s.s.s.s.s.s.s.s.s.s.R k s t r r r r r r r r r r r t r r t r r r r t a M T s.s.s.s.s.s.s.s.s.s.",
"s.s.s.s.s.s.s.s.s.s.s.s.s.s.-.) ~ ^ ^ ~ _ ~ ^ ~ _ ~ _ _ ~ _ _ ~ _ _ ~ O.6.s.s.s.s.s.s.s.s.s.s.s.s.",
"s.s.s.s.s.s.s.s.s.s.s.s.s.s.s.s.s.s.s.s.s.s.s.s.s.s.s.s.s.s.s.s.s.s.s.s.s.s.s.s.s.s.s.s.s.s.s.s.s.",
"s.s.s.s.s.s.s.s.s.s.s.s.s.s.8.6.;.;.;.;.;.;.;.;.;.;.;.;.;.;.;.;.;.;.;.6.r.s.s.s.s.s.s.s.s.s.s.s.s.",
"s.s.s.s.s.s.s.s.s.s.s.s.O.J A B k k k k k k k k k k k k k k k k k k k M S J O.s.s.s.s.s.s.s.s.s.s.",
"s.s.s.s.s.s.s.s.s.s._ A p 8 4 < < 3 < < 3 < < 3 2 3 3 3 3 3 3 < 3 3 3 3 4 8 p S O.s.s.s.s.s.s.s.s.",
"s.s.s.s.s.s.s.s.t.Y s > : > > : , : : : : , , : , , : : : , : : : : : : : : ; > d T s.s.s.s.s.s.s.",
"s.s.s.s.s.s.s.s.J e : : 2 2 : 2 , 2 3 , , 2 , 2 2 2 , 2 2 : : ; 3 0 q 0 3 ; : : : e Y s.s.s.s.s.s.",
"s.s.s.s.s.s.s.! q : : 2 2 2 2 , , 2 : , 2 , , 2 , 2 , 2 : 2 8 f S J T J S d 8 : : : q ~ s.s.s.s.s.",
"s.s.s.s.s.s.;.d ; : 2 2 2 2 , 2 , : , , , , , , , 2 2 : , r S 6.s.s.s.s.s.;.F e > : ; f 6.s.s.s.s.",
"s.s.s.s.s.s.J 4 : 2 2 2 2 2 , 2 , , 2 , 2 2 , , 2 2 : : w J s.s.s.s.s.s.s.s.s.Y 8 : : 5 J s.s.s.s.",
"s.s.s.s.s.4.d : : 2 2 2 2 2 2 , , 2 , , 2 , , 2 , > : 5 S s.s.s.s.s.s.s.s.s.s.s.A 5 : : f 8.s.s.s.",
"s.s.s.s.s.! 9 : 2 2 2 2 2 2 2 , , 2 , , , , , , , : : p _ s.s.s.s.s.s.s.s.s.s.s.*.r : : 0 _ s.s.s.",
"s.s.s.s.s.R , : 2 2 2 2 2 2 2 2 , , 2 , , 2 , , 2 : 2 V 6.s.s.s.s.s.s.s.s.s.s.s.s.j , : 3 E s.s.s.",
"s.s.s.s.s.J ; : 2 2 2 2 2 2 2 , , 2 , 2 2 , 2 2 2 : 6 S t.s.s.s.s.s.s.s.s.s.s.s.s.S 3 : ; K s.s.s.",
"s.s.s.s.s.J ; : 2 2 2 2 2 2 , , , , , , , , , 2 , : 7 S t.s.s.s.s.s.s.s.s.s.s.s.s.D < : - K s.s.s.",
"s.s.s.s.a.Y : : 2 2 2 2 2 2 , 2 , , 2 , , 2 , , 2 : 5 A 8.s.s.s.s.s.s.s.s.s.s.s.s.A < : : T s.s.s.",
"s.s.s.s.s.Q 6 : 2 2 2 2 2 2 2 , , 2 , , 2 , , 2 : : : f &.s.s.s.s.s.s.s.s.s.s.s.5.p > : 7 ! s.s.s.",
"s.s.s.s.s.&.y ; > 2 2 2 2 2 , , , , , , , 2 , , , > > 9 K s.s.s.s.s.s.s.s.s.s.s.K 7 : ; i ;.s.s.s.",
"s.s.s.s.s.s.B : , 2 2 2 2 2 , 2 , , 2 , , 2 , , 2 2 : : d ;.s.s.s.s.s.s.s.s.s.s.u : : > Z s.s.s.s.",
"s.s.s.s.s.s.O.q ; 2 2 2 2 2 2 , , 2 , , 2 , , 2 , 2 , : 3 d ! s.s.s.s.s.s.s.) s 3 : : q &.s.s.s.s.",
"s.s.s.s.s.s.s.J : : > > > > , 2 , , , , , , , , , 2 2 , : < r S ( s.s.s.O.S e < : : : K s.s.s.s.s.",
"s.s.s.s.s.s.s.0.k : : > 3 : , 2 , , , , , , , , 2 2 , : > : : 6 q y p t q 5 : : : : B s.s.s.s.s.s.",
"s.s.s.s.s.s.s.s.5.S 6 ; : : , , , , , , , , , , , 3 : 3 2 , 2 : : , , : : : : ; 6 D 8.s.s.s.s.s.s.",
"s.s.s.s.s.s.s.s.s.s.R u < ; : : : : : : : : : : : : : : : : : : : : : : : ; < i E s.s.s.s.s.s.s.s.",
"s.s.s.s.s.s.s.s.s.s.s.-.R k q < , : : , : : : : : : : : , > : : > : : < q N R 6.s.s.s.s.s.s.s.s.s.",
"s.s.s.s.s.s.s.s.s.s.s.s.s.s.s.s.t.s.s.s.s.s.s.s.s.s.s.s.s.s.s.s.s.s.s.s.s.s.s.s.s.s.s.s.s.s.s.s.s.",
"s.s.s.s.s.s.s.s.s.s.s.s.s.s.s.s.s.s.s.s.s.s.s.s.s.s.s.s.s.s.s.s.s.s.s.s.s.s.s.s.s.s.s.s.s.s.s.s.s."
};
