/* XPM */
static char *result[] = {
/* columns rows colors chars-per-pixel */
"49 79 53 1 ",
"  c white",
". c #E14103",
"X c #DF3500",
"o c #FBE9E1",
"O c #E03C00",
"+ c #E03900",
"@ c #E86D3E",
"# c #E13E00",
"$ c black",
"% c #E03E00",
"& c #FDF3F0",
"* c #F7D4C6",
"= c #EF9C7E",
"- c #E66330",
"; c #E45218",
": c #E3480A",
"> c #DF3900",
", c gray77",
"< c #FDFCFB",
"1 c #FAE5DD",
"2 c #343434",
"3 c #F7CFBF",
"4 c gray97",
"5 c #F6C8B7",
"6 c #E97549",
"7 c #E34F14",
"8 c #A7A7A7",
"9 c #898989",
"0 c #E2E2E2",
"q c #FCEFEA",
"w c #F3B7A0",
"e c #EC855F",
"r c #EA7D53",
"t c #F2B199",
"y c #E55922",
"u c #FEF8F6",
"i c #DE2D00",
"p c #F0A68B",
"a c gray81",
"s c #F9D9CE",
"d c #F9E0D7",
"f c #111111",
"g c #ED8C68",
"h c #EF9675",
"j c #444444",
"k c #F4BEAA",
"l c gray85",
"z c #272727",
"x c #9B9B9B",
"c c gray72",
"v c gray92",
"b c gray36",
"n c #676767",
/* pixels */
"                                                 ",
"                                                 ",
"                                                 ",
"            <                                    ",
"           a$$j4                                 ",
"            ,$$jv                                ",
"             ,f$jv                               ",
"              ,f$jl00000000000v<   404           ",
"               ,f$$$$$$$$$$$$$f,  0b$8           ",
"             4v ,f$$$$$$$$$$$$$c<8f$$94          ",
"            49bl ,z$$$$$$$$$$$$9n$$$$94          ",
"            lf$2l ,z$$$$$$$$$$$$$$$$$94          ",
"            a$$$2l ,z$$$$$$$$$$$$$$$$94          ",
"            c$$$$2a ,z$$$$$$$$$$$$$$$94          ",
"           <8$$$$$2a ,z$$$$$$$$$$$$$$94          ",
"           <x$$$$$$2a ,z$$$$$$$$$$$$$94          ",
"           <x$$$$$$$2a ,2$$$$$$$$$$$$94          ",
"           <8$$$$$$$$2, ,2$$$$$$$$$$$94          ",
"            c$$$$$$$$$2, ,2$$$$$$$$$$94          ",
"            ,$$$$$$$$$$2, ,2$$$$$$$$$94          ",
"            lf$$$$$$$$$$2, ,2$$$$$$$$94          ",
"            vj$$$$$$$$$$$2, ,2$$$$$$$94          ",
"            <x$$$$$$$$$$$$z, ,2$$jf$$94          ",
"             0j$$$$$$$$$$$$x  ,2$z9j$x<          ",
"              l8888888888880   a2$j88v           ",
"                                a2$20            ",
"                                 a2$f,           ",
"                                  lccv           ",
"                                                 ",
"                                                 ",
"            1kg6@@@@@@@@@@@@@@@@@@@6gko          ",
"          oh-%O:;;;;;;;;;;;7;;7;;;7:+%-=o        ",
"         3@X:g5*sss****************3ke.X@*       ",
"        k:.hq &o1o&                  <oh.:k      ",
"       d::p qp@;:;@po                   p.:1     ",
"      ur>= s@#++++O.6*                  <hXr     ",
"      w#r d:>OO##O#OX-3                  <6#k    ",
"     &r>3urX########OXe&                  5Xeu   ",
"     d;7 5:+####%##%#+;5                   .y1   ",
"     3>e hX#%#%##%##%O.=u                  rX*   ",
"     5i= eX%#########O.gq                  hi3   ",
"     5i= rX#####%##%#O.gq                  hi3   ",
"     3Xe hXO#########O.=u                  rX*   ",
"     s7y k.+#%#######+7w                   77d   ",
"     q6%dq@X#%######OX6o                  s+6&   ",
"      t#r *:+O####OO+y5                  <6#w    ",
"      o@.w wyO+++++O-k<                  t.@q    ",
"       5Oy5 *e7:::;es                   5;O3     ",
"        t:.tq q3k3&                  u1pO:w      ",
"        utyO@p*oqqoooooooooooooooood3p@+yw<      ",
"          *67:;y-------------------y;:76s        ",
"            *=r6@@@@@@@@@@@@@@@@@@@6r=*          ",
"              &o1111111111111111111o&            ",
"                                                 ",
"              <&&&&&&&&&&&&&&&&&&&&&<            ",
"            o5t=====================t5o          ",
"          otry:.....................:yrto        ",
"        <3eOX++OOOOOOOOOOOOOOOOO+XX+>+XOe*       ",
"        5@++##%#%%#%%#%%##%%#O>X.y-y.X>>>@3      ",
"       d->O####%%#%%#%%#%#%#OO;gw5*5we;O>+-1     ",
"      &eiO####%%%%%%%%%%%##O%@w&     &w@#Oigu    ",
"      5:+#####%#%%#%%#%%##%X-5<        *;+>:5    ",
"     &eXO######%%#%%#%%#%#>:w           t:++gu   ",
"     dyX######%%%%%%%%%%%O+ro           q@OXy1   ",
"     *#O######%#%%#%%#%%#O.=u            h%+#s   ",
"     5iO#######%%#%%#%%#%+7t<            t.+i3   ",
"     5iO######%%%%%%%%%%%+7w<            w.+i3   ",
"     3XO######%#%%#%%#%%#+:t<            p.+X*   ",
"     s7>#######%%#%%#%%#%O+gq           ur#+7d   ",
"     q6X######%%%%%%%%%%%#+y3           37OX6&   ",
"      p+O#####%#%%#%%#%%##O>eq          6O++p    ",
"      o-X######%%#%%#%%#%#O+.ed       oe.OX-q    ",
"       5++####%#%%#%%#%%%##O+.@wo   ot@.O++3     ",
"       u=X+###%##%##%##%##%%#OO:-6r6-:OOXXp      ",
"        ut7X+##%%#%%#%%#%#%##O#OOOOOOO+X;w<      ",
"          *6.iX+>>+>>+>>+++>++>++>++Xi.6*        ",
"           &*=-.O>OOOOOOOOOOOOOOO>O.-=*&         ",
"                                                 ",
"                                                 "
};
