/* XPM */
static char *b83be417b3f34d60c10cff17a08ee308bVpCLhzngvsmWZOW[] = {
/* columns rows colors chars-per-pixel */
"49 79 198 2 ",
"   c black",
".  c #010101",
"X  c #020202",
"o  c gray1",
"O  c #040404",
"+  c #090909",
"@  c #181818",
"#  c #1D1D1D",
"$  c #202020",
"%  c gray15",
"&  c gray18",
"*  c #434343",
"=  c #555555",
"-  c #565656",
";  c gray35",
":  c #646464",
">  c #656565",
",  c gray40",
"<  c #6F6F6F",
"1  c #00DC00",
"2  c #00DD00",
"3  c #02DC02",
"4  c #02DD02",
"5  c #04DD04",
"6  c #04DE04",
"7  c #06DD06",
"8  c #06DE06",
"9  c #08DD08",
"0  c #08DE08",
"q  c #0ADD0A",
"w  c #0ADE0A",
"e  c #0CDE0C",
"r  c #0CDF0C",
"t  c #0EDE0E",
"y  c #0EDF0E",
"u  c #10DF10",
"i  c #12DE12",
"p  c #12DF12",
"a  c #14DF14",
"s  c #18DF18",
"d  c #14E014",
"f  c #16E016",
"g  c #18E018",
"h  c #1AE01A",
"j  c #1CE01C",
"k  c #1CE11C",
"l  c #1EE01E",
"z  c #1EE11E",
"x  c #20E020",
"c  c #20E120",
"v  c #22E122",
"b  c #22E222",
"n  c #24E124",
"m  c #24E224",
"M  c #26E126",
"N  c #26E226",
"B  c #28E228",
"V  c #2AE22A",
"C  c #2AE32A",
"Z  c #2CE32C",
"A  c #2EE22E",
"S  c #2EE32E",
"D  c #30E330",
"F  c #32E332",
"G  c #32E432",
"H  c #34E334",
"J  c #36E336",
"K  c #34E434",
"L  c #36E436",
"P  c #38E438",
"I  c #3CE53C",
"U  c #3EE53E",
"Y  c #40E540",
"T  c #40E640",
"R  c #42E542",
"E  c #42E642",
"W  c #44E644",
"Q  c #46E646",
"!  c #48E648",
"~  c #48E748",
"^  c #4CE64C",
"/  c #4CE74C",
"(  c #50E750",
")  c #52E752",
"_  c #50E850",
"`  c #52E852",
"'  c #54E854",
"]  c #56E856",
"[  c #5AE95A",
"{  c #5CE95C",
"}  c #5EE95E",
"|  c #5EEA5E",
" . c #62EA62",
".. c #68EA68",
"X. c #68EB68",
"o. c #6AEB6A",
"O. c #6CEB6C",
"+. c #6EEB6E",
"@. c #6EEC6E",
"#. c #70EC70",
"$. c #72EC72",
"%. c #74EC74",
"&. c #76EC76",
"*. c #78ED78",
"=. c #7CED7C",
"-. c #7CEE7C",
";. c gray53",
":. c #888888",
">. c #898989",
",. c #8B8B8B",
"<. c #929292",
"1. c gray58",
"2. c #959595",
"3. c gray60",
"4. c gray61",
"5. c gray62",
"6. c #A4A4A4",
"7. c #A7A7A7",
"8. c gray66",
"9. c #A9A9A9",
"0. c #AAAAAA",
"q. c #AFAFAF",
"w. c #B4B4B4",
"e. c gray73",
"r. c #81EE81",
"t. c #83EE83",
"y. c #85EF85",
"u. c #87EF87",
"i. c #89EF89",
"p. c #8BEF8B",
"a. c #8DEF8D",
"s. c #8DF08D",
"d. c #8FF08F",
"f. c #91F091",
"g. c #97F197",
"h. c #99F199",
"j. c #9BF29B",
"k. c #9DF29D",
"l. c #9FF29F",
"z. c #A1F2A1",
"x. c #A3F3A3",
"c. c #A5F3A5",
"v. c #A7F3A7",
"b. c #B1F4B1",
"n. c #B1F5B1",
"m. c #B3F5B3",
"M. c #B7F5B7",
"N. c #B9F5B9",
"B. c #B9F6B9",
"V. c #BBF6BB",
"C. c #BDF6BD",
"Z. c #BFF6BF",
"A. c #C5C5C5",
"S. c #C8C8C8",
"D. c #D0D0D0",
"F. c gray86",
"G. c #C1F6C1",
"H. c #C1F7C1",
"J. c #C3F7C3",
"K. c #C5F7C5",
"L. c #C7F8C7",
"P. c #C9F8C9",
"I. c #CBF8CB",
"U. c #CFF8CF",
"Y. c #CFF9CF",
"T. c #D1F9D1",
"R. c #D3F9D3",
"E. c #D5F9D5",
"W. c #D7FAD7",
"Q. c #D9FAD9",
"!. c #DBFADB",
"~. c #DDFADD",
"^. c #DFFBDF",
"/. c #E2E2E2",
"(. c #E6E6E6",
"). c gray92",
"_. c #EEEEEE",
"`. c #E1FBE1",
"'. c #E3FBE3",
"]. c #00202f",
"[. c #00202f",
"{. c #00202f",
"}. c #EFFDEF",
"|. c gray94",
" X c #F1F1F1",
".X c gray95",
"XX c gray97",
"oX c #F1FDF1",
"OX c #F3FDF3",
"+X c #F5FEF5",
"@X c #F7FEF7",
"#X c #00202f",
"$X c #FBFEFB",
"%X c gray99",
"&X c #00202f",
"*X c #00202f",
"=X c #00202f",
"-X c #00202f",
/* pixels */
"-X-X-X-X-X-X-X-X-X-X-X-X-X-X-X-X-X-X-X-X-X-X-X-X-X-X-X-X-X-X-X-X-X-X-X-X-X-X-X-X-X-X-X-X-X-X-X-X-X",
"-X-X-X-X-X-X-X-X-X-X-X-X-X-X-X-X-X-X-X-X-X-X-X-X-X-X-X-X-X-X-X-X-X-X-X-X-X-X-X-X-X-X-X-X-X-X-X-X-X",
"-X-X-X-X-X-X-X-X-X-X-X-X-X-X-X-X-X-X-X-X-X-X-X-X-X-X-X-X-X-X-X-X-X-X-X-X-X-X-X-X-X-X-X-X-X-X-X-X-X",
"-X-X-X-X-X-X-X-X-X-X-X-X-X-X-X-X-X-X-X-X-X-X-X-X-X-X-X-X-X-X-X-X-X-X-X-X-X-X-X-X-X-X-X-X-X-X-X-X-X",
"-X-X-X-X-X-X-X-X-X-X-X-X-X-X-X-X-X-X-X-X-X-X-X-X-X-X-X-X-X-X-X-X-X-X-X-X-X-X-X-X-X-X-X-X-X-X-X-X-X",
"-X-X-X-X-X-X-X-X-X-X-X-X-X-X-X-X-X-X-X-X-X-X-X-X-X-X-X-X-X-X-X-X-X-X-X-X-X-X-X-X-X-X-X-X-X-X-X-X-X",
"-X-X-X-X-X-X-X-X-X-X-X-X-X-X-X/.F.F.F.F.F.F.F.F.F.F.F.F.F.F.F.).-X-X-X-X-X-X-X-X-X-X-X-X-X-X-X-X-X",
"-X-X-X-X-X-X-X-X-X-X-X-X-X-X-     O           O               O S.-X-X).;   ;.-X-X-X-X-X-X-X-X-X-X",
"-X-X-X-X-X-X-X-X-X-X-X-X-X7.    O       O   O     O             0.-X0.@     , -X-X-X-X-X-X-X-X-X-X",
"-X-X-X-X-X-X-X-X-X-X-X-X-X*           O   O   O     O   O   O   <.-     O   , -X-X-X-X-X-X-X-X-X-X",
"-X-X-X-X-X-X-X-X-X-X-X-XXX+     O   O       O   O O   O       O   O         , -X-X-X-X-X-X-X-X-X-X",
"-X-X-X-X-X-X-X-X-X-X-X-XD.    O       O   O             O       O           , -X-X-X-X-X-X-X-X-X-X",
"-X-X-X-X-X-X-X-X-X-X-X-Xw.      O       O   O     O       O   O           O , -X-X-X-X-X-X-X-X-X-X",
"-X-X-X-X-X-X-X-X-X-X-X-X3.    O   O   O             O           O   O       , -X-X-X-X-X-X-X-X-X-X",
"-X-X-X-X-X-X-X-X-X-X-X-X,.  O   O   O       O   O         O       O   O   O , -X-X-X-X-X-X-X-X-X-X",
"-X-X-X-X-X-X-X-X-X-X-X-X,.    O           O         O       O           O   , -X-X-X-X-X-X-X-X-X-X",
"-X-X-X-X-X-X-X-X-X-X-X-X1.  O       O             O   O       O       O     , -X-X-X-X-X-X-X-X-X-X",
"-X-X-X-X-X-X-X-X-X-X-X-X0.        O       O   O         O       O   O       , -X-X-X-X-X-X-X-X-X-X",
"-X-X-X-X-X-X-X-X-X-X-X-XA.              O         O       O   O   O O       , -X-X-X-X-X-X-X-X-X-X",
"-X-X-X-X-X-X-X-X-X-X-X-X_.O   O   O   O       O     O       O             O , -X-X-X-X-X-X-X-X-X-X",
"-X-X-X-X-X-X-X-X-X-X-X-X-X&                       O   O   O   O , #       O , -X-X-X-X-X-X-X-X-X-X",
"-X-X-X-X-X-X-X-X-X-X-X-X-X>.      O   O   O   O         O       0..X,       , -X-X-X-X-X-X-X-X-X-X",
"-X-X-X-X-X-X-X-X-X-X-X-X-X.X%   O       O         O       O     w.-X-Xe.$   < -X-X-X-X-X-X-X-X-X-X",
"-X-X-X-X-X-X-X-X-X-X-X-X-X-X).4.1.1.3.1.1.1.1.1.1.1.3.1.1.1.<.7.-X-X-X-X.X4.).-X-X-X-X-X-X-X-X-X-X",
"-X-X-X-X-X-X-X-X-X-X-X-X-X-X-X-X-X-X-X-X-X-X-X-X-X-X-X-X-X-X-X-X-X-X-X-X-X-X-X-X-X-X-X-X-X-X-X-X-X",
"-X-X-X-X-X-X-X-X-X-X-X-X-X-X-X-X-X-X-X-X-X-X-X-X-X-X-X-X-X-X-X-X-X-X-X-X-X-X-X-X-X-X-X-X-X-X-X-X-X",
"-X-X-X-X-X-X-X-X-X-X-X-X-X-X-X-X-X-X-X-X-X-X-X-X-X-X-X-X-X-X-X-X-X-X-X-X-X-X-X-X-X-X-X-X-X-X-X-X-X",
"-X-X-X-X-X-X-X-X-X-X-X-X-X-X-X-X-X-X-X-X-X-X-X-X-X-X-X-X-X-X-X-X-X-X-X-X-X-X-X-X-X-X-X-X-X-X-X-X-X",
"-X-X-X-X-X-X-X-X-X-X-X-X-X-X-X-X-X-X-X-X-X-X-X-X-X-X-X-X-X-X-X-X-X-X-X-X-X-X-X-X-X-X-X-X-X-X-X-X-X",
"-X-X-X-X-X-X-X-X-X-XOXY.h._ V s g s g s s g s s g g g a s g s a g g a s V ^ h.Y.OX-X-X-X-X-X-X-X-X",
"-X-X-X-X-X-X-X-X-X!.@.m 2 2 2 3 2 2 2 2 2 2 2 2 2 3 3 2 2 3 2 3 2 2 3 3 2 3 3 m @.!.-X-X-X-X-X-X-X",
"-X-X-X-X-X-X-X-XC.I 5 2 2 2 2 2 2 2 2 2 2 2 2 2 2 2 2 3 2 2 3 2 2 3 2 2 3 2 2 2 5 I C.-X-X-X-X-X-X",
"-X-X-X-X-X-X-Xv.a 2 2 2 2 x D I L V u 3 2 2 2 2 2 2 2 2 2 2 2 2 2 2 2 2 2 2 2 2 2 2 s v.-X-X-X-X-X",
"-X-X-X-X-X-XE.x 2 3 2 z O.C.'.+XOXE.v.Q 0 3 2 2 3 3 3 2 3 3 2 3 3 2 3 3 2 3 3 2 2 3 2 x E.-X-X-X-X",
"-X-X-X-X-X+X{ 2 2 2 V n.+X-X-X-X-X-X-X^.&.y 2 2 2 2 2 3 2 2 3 2 2 3 2 2 3 2 2 2 2 2 2 2 { +X-X-X-X",
"-X-X-X-X-Xv.a 2 2 s E.-X-X-X-X-X-X-X-X-X-Xi.2 2 2 2 2 2 2 2 2 2 2 2 2 2 2 2 2 2 2 2 2 2 a v.-X-X-X",
"-X-X-X-X}...2 2 0 a.-X-X-X-X-X-X-X-X-X-X-XOXJ 2 3 3 3 2 3 3 2 3 3 2 3 3 2 3 3 2 2 3 2 2 3 ..OX-X-X",
"-X-X-X-XOX..2 2 0 a.-X-X-X-X-X-X-X-X-X-X-XOXJ 2 3 3 3 2 3 3 2 3 3 2 3 3 2 3 3 2 2 3 2 2 3 ..OX-X-X",
"-X-X-X-X^.J 2 2 D E.-X-X-X-X-X-X-X-X-X-X-X-Xk.2 2 2 2 3 2 2 3 2 2 3 2 2 3 2 2 2 2 2 2 2 2 J !.-X-X",
"-X-X-X-XP.u 2 3 o.+X-X-X-X-X-X-X-X-X-X-X-X-XR.m 2 2 2 2 2 2 2 2 2 2 2 2 2 2 2 2 2 2 2 2 2 u P.-X-X",
"-X-X-X-XG.5 2 2 y.-X-X-X-X-X-X-X-X-X-X-X-X-X^.P 3 3 3 2 3 3 2 3 3 2 3 3 2 3 3 2 2 3 2 2 2 5 G.-X-X",
"-X-X-X-XC.2 2 5 y.-X-X-X-X-X-X-X-X-X-X-X-X-X^.T 2 2 2 3 2 2 3 2 2 3 2 2 3 2 2 2 2 2 2 2 2 2 C.-X-X",
"-X-X-X-XK.y 2 2 O.#X-X-X-X-X-X-X-X-X-X-X-X-XE.V 2 2 2 2 2 2 2 2 2 2 2 2 2 2 2 2 2 2 2 2 2 y L.-X-X",
"-X-X-X-XE.S 2 2 T '.-X-X-X-X-X-X-X-X-X-X-X-XM.0 3 3 3 2 3 3 2 3 3 2 3 3 2 3 3 2 2 3 2 2 2 V E.-X-X",
"-X-X-X-X[.' 2 2 y n.-X-X-X-X-X-X-X-X-X-X-X-X' 2 2 2 2 3 2 2 3 2 2 3 2 2 3 2 2 2 2 2 2 2 2 ' [.-X-X",
"-X-X-X-X-Xk.u 2 2 V '.-X-X-X-X-X-X-X-X-X#Xv.2 2 2 2 2 2 2 2 2 2 2 2 2 2 2 2 2 2 2 2 2 2 u k.-X-X-X",
"-X-X-X-X-X'.T 2 2 2 ' E.-X-X-X-X-X-X-X+Xv.m 2 2 3 3 3 2 3 3 2 3 3 2 3 3 2 3 3 2 2 3 2 2 T '.-X-X-X",
"-X-X-X-X-X-XM.5 2 2 5 P z.-X-X-X-X-X{.&.s 2 2 2 2 2 2 3 2 2 3 2 2 3 2 2 3 2 2 2 2 2 2 5 M.-X-X-X-X",
"-X-X-X-X-X-X-Xs.u 2 2 2 2 z ' %.O.T y 2 2 2 2 2 2 2 2 2 2 2 2 2 2 2 2 2 2 2 2 2 2 2 u s.-X-X-X-X-X",
"-X-X-X-X-X-X-XOXf.g 2 2 2 2 2 2 2 2 2 2 2 2 2 2 3 3 3 2 2 2 2 2 3 2 3 2 2 3 2 2 2 s f.OX-X-X-X-X-X",
"-X-X-X-X-X-X-X-X+XN.S 2 2 2 2 2 2 2 2 2 2 2 2 2 2 2 2 3 2 2 2 2 2 3 2 2 3 2 2 2 S C.+X-X-X-X-X-X-X",
"-X-X-X-X-X-X-X-X-X-X+Xn.[ D x z z g z z z g z z z z z s g z z g z s z z x S [ n.+X-X-X-X-X-X-X-X-X",
"-X-X-X-X-X-X-X-X-X-X-X-X-X^.K.N.N.N.N.N.N.N.N.N.N.N.N.N.N.N.N.N.N.N.N.N.K.^.-X-X-X-X-X-X-X-X-X-X-X",
"-X-X-X-X-X-X-X-X-X-X-X-X-X-X-X-X-X-X-X-X-X-X-X-X-X-X-X-X-X-X-X-X-X-X-X-X-X-X-X-X-X-X-X-X-X-X-X-X-X",
"-X-X-X-X-X-X-X-X-X-X-X-X-X-X-X-X-X-X-X-X-X-X-X-X-X-X-X-X-X-X-X-X-X-X-X-X-X-X-X-X-X-X-X-X-X-X-X-X-X",
"-X-X-X-X-X-X-X-X-X-X-X-X-X^.K.N.N.N.N.N.N.N.N.N.N.N.M.N.M.M.N.M.M.N.M.N.K.^.-X-X-X-X-X-X-X-X-X-X-X",
"-X-X-X-X-X-X-X-X-X-X+Xn.[ D x s z z z z g z z z g z z z s z z z z g z g x D [ n.+X-X-X-X-X-X-X-X-X",
"-X-X-X-X-X-X-X-X+XN.S 2 u S T ^ _ _ ) _ _ _ _ _ _ _ ) _ ' _ _ _ ' _ _ / T S u 2 S C.+X-X-X-X-X-X-X",
"-X-X-X-X-X-X-XOXs.s y _ h.!.#X-X-X-X-X-X-X-X-X-X-X-X-X-X-X-X-X-X-X-X-X-X+X!.h._ y g s.OX-X-X-X-X-X",
"-X-X-X-X-X-X-Xf.u y h.[.-X-X-X-X-X-X-X-X-X-X-X-X-X-X-X-X-X-X-X-XOXM.s.y.z.!.-X[.h.0 d f.-X-X-X-X-X",
"-X-X-X-X-X-XM.5 x M.-X-X-X-X-X-X-X-X-X-X-X-X-X-X-X-X-X-X-X-X'.u.y 2 2 2 2 2 ) G.#XM.x 5 M.-X-X-X-X",
"-X-X-X-X-X'.T u g.#X-X-X-X-X-X-X-X-X-X-X-X-X-X-X-X-X-X-X-X!._ 5 2 2 2 2 2 2 2 m z.#Xh.u T '.-X-X-X",
"-X-X-X-X-Xk.d ^ }.-X-X-X-X-X-X-X-X-X-X-X-X-X-X-X-X-X-X-X-X^ 5 2 2 2 2 2 2 2 2 2 s R.OX^ u k.-X-X-X",
"-X-X-X-X[.' 2 G.-X-X-X-X-X-X-X-X-X-X-X-X-X-X-X-X-X-X-X-Xz.2 2 2 2 2 2 2 2 2 3 2 2 Q }.G.3 ' [.-X-X",
"-X-X-X-XE.V g #X-X-X-X-X-X-X-X-X-X-X-X-X-X-X-X-X-X-X-XOX/ 2 2 2 2 2 2 2 2 2 2 2 2 z M.#Xs V E.-X-X",
"-X-X-X-XK.y Q -X-X-X-X-X-X-X-X-X-X-X-X-X-X-X-X-X-X-X-XR.m 2 2 2 2 2 2 2 2 2 2 3 2 5 i.-XQ y P.-X-X",
"-X-X-X-XG.2  .-X-X-X-X-X-X-X-X-X-X-X-X-X-X-X-X-X-X-X-XN.z 2 2 2 2 2 2 2 2 2 2 2 2 2 %.#X .2 C.-X-X",
"-X-X-X-XH.5 { -X-X-X-X-X-X-X-X-X-X-X-X-X-X-X-X-X-X-X-XC.x 2 2 2 2 2 3 2 2 3 2 2 2 2 %.-X{ 5 G.-X-X",
"-X-X-X-XP.d I -X-X-X-X-X-X-X-X-X-X-X-X-X-X-X-X-X-X-X-X!.V 3 2 3 3 2 3 3 2 3 2 3 2 0 f.-XT u P.-X-X",
"-X-X-X-X!.L 0 OX-X-X-X-X-X-X-X-X-X-X-X-X-X-X-X-X-X-X-X#X{ 2 2 2 2 2 2 2 2 2 2 2 2 m K.OX0 J !.-X-X",
"-X-X-X-XOXo.2 v.-X-X-X-X-X-X-X-X-X-X-X-X-X-X-X-X-X-X-X-XK.0 2 3 2 2 3 2 2 3 2 2 3 o.+Xv.5 o.OX-X-X",
"-X-X-X-X-Xv.a T ].-X-X-X-X-X-X-X-X-X-X-X-X-X-X-X-X-X-X-X-XO.2 3 3 2 3 3 2 3 2 2 x ].[.T a v.-X-X-X",
"-X-X-X-X-X+X{ 5 O.OX-X-X-X-X-X-X-X-X-X-X-X-X-X-X-X-X-X-X-XOXr.g 2 2 2 3 2 3 0 / R.}.#.5 { +X-X-X-X",
"-X-X-X-X-X-XE.x a -.#X-X-X-X-X-X-X-X-X-X-X-X-X-X-X-X-X-X-X-X+Xn.' m 0 5 s I a.'.+X-.d x E.-X-X-X-X",
"-X-X-X-X-X-X-Xv.g y @.'.-X-X-X-X-X-X-X-X-X-X-X-X-X-X-X-X-X-X-X-X[.R.L.G.Y.^.#X'.@.y d v.-X-X-X-X-X",
"-X-X-X-X-X-X-X#XC.I 5 d o.N.R.!.!.!.E.!.!.E.!.!.E.!.!.E.!.E.!.!.!.E.!.!.R.N.o.a 5 I C.-X-X-X-X-X-X",
"-X-X-X-X-X-X-X-X-X!.O.m 2 0 x G D L G J L G J L G L G J G L D L L D L G x 0 2 m @.!.-X-X-X-X-X-X-X",
"-X-X-X-X-X-X-X-X-X-XOXY.h.) V s g g g d g g d g g g g g s g g s g g s g Z ) h.Y.+X-X-X-X-X-X-X-X-X",
"-X-X-X-X-X-X-X-X-X-X-X-X-X-X-X-X-X-X-X-X-X-X-X-X-X-X-X-X-X-X-X-X-X-X-X-X-X-X-X-X-X-X-X-X-X-X-X-X-X"
};
