/* XPM */
static char *_d2ece76fd64422af4857f1f626348c7rXUlCYOIglNHoP6G[] = {
/* columns rows colors chars-per-pixel */
"50 51 29 1 ",
"  c None",
". c black",
"X c #010101",
"o c #020202",
"O c gray1",
"+ c #040404",
"@ c gray2",
"# c #060606",
"$ c #070707",
"% c gray3",
"& c #090909",
"* c gray4",
"= c #0B0B0B",
"- c #0C0C0C",
"; c gray5",
": c #0E0E0E",
"> c gray6",
", c #101010",
"< c #111111",
"1 c gray7",
"2 c #131313",
"3 c gray8",
"4 c #151515",
"5 c #161616",
"6 c gray9",
"7 c #181818",
"8 c #191919",
"9 c gray10",
"0 c #202020",
/* pixels */
"                    4,--&.@--,,                   ",
"                 ,&.....@...@.@.&-                ",
"               -...&-4       ,-&...&              ",
"             &..@,               ,&.@&            ",
"           ,..@7                    &..,          ",
"          &.@4                       4@.@         ",
"         @.&                           -.@7       ",
"        @.,                             4..4      ",
"       ..&                               7.@7     ",
"      @.@.&                               7.@     ",
"     &., &.-                               4.@    ",
"    ,.&   &.&                               -.-   ",
"    .@     &.&                               &.7  ",
"   &.4      &.&                               .@  ",
"  4.&        &.&                              -., ",
"  &.          &.&                              .@ ",
"  .&           &.&                             -. ",
" -@,            &.&------------4    4-         ,.-",
" @.              &.....@.....@.-   &.@          .@",
" .&           ,   &.@...@.@....& ,....          -.",
",.-          -.&   &...........@@@...@          ,@",
",.7          -@.&   &.....@.@.........           .",
"-.           @.@.&   &.@.@.@.@.@.@...@           .",
"-.           ...@.&   &...........@...           .",
"@.           ....@.&   &.@.....@...@..           @",
"..           .@.....&   &...@...@...@.           .",
"&.           @...@.@.&   &.@..........           .",
"-.           .........&   &.@.@.@.....           .",
"-.           ....@.....&   &...@.@.@.@           @",
"-.4          -@...@...@.&   &.........           .",
"4.,          ,...@...@...&   &.@...@.@          ,.",
" .&           @.......@...&   &.@4....          -.",
" &.           &............-   &.&0&..          .@",
" -@,           &&@&@&&&@&@@,    -.& ,&         4@-",
"  .&                             &.&           -. ",
"  &.                              &.&          .@ ",
"  ,@&                              -.&        -., ",
"   @.4                              &.&       @@  ",
"    .@                               &.&     @.4  ",
"    -.-                               -.&   -.-   ",
"     @.4                               -.& 4.@    ",
"      @.7                               &.@.@     ",
"      7..7                               &.@4     ",
"       4..4                             4.@,      ",
"         @.-                           -..7       ",
"          &.@4                       7@.&         ",
"           ,..&                     &..-          ",
"             @@.&,               4&..&            ",
"               &.@.&-4       4-&...&4             ",
"                 ,&.....@.....@.&-                ",
"                    ----@.@---&                   "
};
