/* XPM */
static char *_366b783586c4702b2b071424cf4146dTR1tsRPWhVwsIuSB[] = {
/* columns rows colors chars-per-pixel */
"50 50 191 2 ",
"   c black",
".  c #010101",
"X  c #020202",
"o  c gray1",
"O  c #040404",
"+  c gray2",
"@  c #060606",
"#  c #070707",
"$  c gray3",
"%  c #090909",
"&  c gray4",
"*  c #0B0B0B",
"=  c #0C0C0C",
"-  c gray5",
";  c #0E0E0E",
":  c gray6",
">  c #101010",
",  c #111111",
"<  c gray7",
"1  c gray8",
"2  c #151515",
"3  c #191919",
"4  c gray10",
"5  c #1B1B1B",
"6  c gray11",
"7  c #1D1D1D",
"8  c #1E1E1E",
"9  c gray12",
"0  c #202020",
"q  c gray13",
"w  c #222222",
"e  c #232323",
"r  c gray14",
"t  c #252525",
"y  c gray15",
"u  c gray16",
"i  c #2A2A2A",
"p  c #2C2C2C",
"a  c gray18",
"s  c gray19",
"d  c #313131",
"f  c #323232",
"g  c #343434",
"h  c #353535",
"j  c gray21",
"k  c #373737",
"l  c gray22",
"z  c #393939",
"x  c #3A3A3A",
"c  c gray23",
"v  c #3C3C3C",
"b  c gray24",
"n  c #3E3E3E",
"m  c #3F3F3F",
"M  c gray25",
"N  c #414141",
"B  c gray26",
"V  c #434343",
"C  c gray27",
"Z  c #464646",
"A  c gray28",
"S  c #494949",
"D  c gray29",
"F  c #4B4B4B",
"G  c #4C4C4C",
"H  c gray30",
"J  c #4E4E4E",
"K  c gray31",
"L  c gray32",
"P  c #555555",
"I  c #565656",
"U  c gray34",
"Y  c gray35",
"T  c #5A5A5A",
"R  c #5B5B5B",
"E  c #5D5D5D",
"W  c gray37",
"Q  c #5F5F5F",
"!  c #606060",
"~  c gray38",
"^  c #626262",
"/  c gray39",
"(  c #646464",
")  c #656565",
"_  c gray40",
"`  c #676767",
"'  c DimGray",
"]  c #6C6C6C",
"[  c gray43",
"{  c gray44",
"}  c #727272",
"|  c gray45",
" . c gray46",
".. c #767676",
"X. c #777777",
"o. c gray47",
"O. c #797979",
"+. c #7C7C7C",
"@. c gray49",
"#. c #7E7E7E",
"$. c gray50",
"%. c #808080",
"&. c #818181",
"*. c gray51",
"=. c #838383",
"-. c #848484",
";. c gray52",
":. c #868686",
">. c gray53",
",. c #888888",
"<. c #898989",
"1. c gray54",
"2. c gray55",
"3. c #8D8D8D",
"4. c #8E8E8E",
"5. c gray56",
"6. c #909090",
"7. c #929292",
"8. c #939393",
"9. c gray58",
"0. c #959595",
"q. c gray59",
"w. c #979797",
"e. c #989898",
"r. c gray60",
"t. c #9B9B9B",
"y. c gray61",
"u. c #9F9F9F",
"i. c #A0A0A0",
"p. c gray63",
"a. c #A2A2A2",
"s. c gray64",
"d. c #A4A4A4",
"f. c #A5A5A5",
"g. c gray65",
"h. c #A7A7A7",
"j. c gray66",
"k. c #A9A9A9",
"l. c #AAAAAA",
"z. c gray67",
"x. c #AEAEAE",
"c. c #AFAFAF",
"v. c gray69",
"b. c #B1B1B1",
"n. c gray70",
"m. c #B4B4B4",
"M. c gray71",
"N. c #B6B6B6",
"B. c #B7B7B7",
"V. c gray72",
"C. c #B9B9B9",
"Z. c gray73",
"A. c #BBBBBB",
"S. c gray74",
"D. c gray75",
"F. c #C0C0C0",
"G. c #C1C1C1",
"H. c gray76",
"J. c #C3C3C3",
"K. c #C5C5C5",
"L. c #C6C6C6",
"P. c gray78",
"I. c #C8C8C8",
"U. c gray79",
"Y. c #CACACA",
"T. c gray80",
"R. c #CDCDCD",
"E. c gray81",
"W. c #D0D0D0",
"Q. c gray82",
"!. c #D2D2D2",
"~. c LightGray",
"^. c gray83",
"/. c #D5D5D5",
"(. c gray84",
"). c #D7D7D7",
"_. c #D8D8D8",
"`. c gray85",
"'. c #DADADA",
"]. c gray86",
"[. c gainsboro",
"{. c #DDDDDD",
"}. c gray87",
"|. c #DFDFDF",
" X c gray88",
".X c #E1E1E1",
"XX c #E2E2E2",
"oX c gray89",
"OX c #E4E4E4",
"+X c gray90",
"@X c #E6E6E6",
/* pixels */
"l.l.l.l.l.h.l.l.l.l.l.l.l.l.l.l.l.l.l.6.( n e ; #   ; 6 z W <.l.h.l.l.l.l.l.l.l.l.l.l.l.l.l.l.l.l.l.",
"oXOXoXOXoXOXoXoXoXOXoXoXoXoXOXOXx.~ e                         5 T h.|.oXoXoXoXoXoXoXoXoXOXOXOXoXOXoX",
"OXOXOXoXOXoXOXoXOXoXOXoXOX'.<.r       # p P } <.9.9.<.o.T g %       6 o.(.OXOXoXoXoXoXoXoXOXoXOXoXOX",
"OXOXoXOXoXOXoXOXoXOXoXOX3.5     ; P u.'.oXoXoXOXOXOXOXOXoXOX'.l.~ 2     > +.oXoXoXoXoXoXOXoXOXoXOXoX",
"OXoXOXoXOXoXOXoXOXoXP.z     6 =.'.oXOXoXoXoXOXoXOXoXOXoXOXoXoXoXoX|.3.u     u N.oXoXoXOXoXOXoXOXOXOX",
"OXOXoXOXoXOXoXOXoXt.;   ; +.'.OXoXoXoXoXoXoXoXOXoXOXoXOXoXOXOXoXOXoXOXoX6.2   # +.oXOXoXOXoXOXoXOXOX",
"OXoXOXoXOXoXOXoX}     z U.oXOXoXOXoXoXoXoXoXOXoXOXoXOXoXoXOXOXOXoXOXoXoXoX(.H     T |.OXoXOXoXOXoXOX",
"OXOXoXOXoXOX|.~     [ oXoXOXoXOXoXOXoXoXoXOXoXOXoXoXoXoXOXoXOXoXOXoXoXoXoXoXoX;.#   A '.OXoXOXoXOXOX",
"OXOXOXOXOXoX'   # <.OXOXoXoXoXoXOXoXOXoXoXoXOXoXoXOXoXOXoXOXoXOXoXOXoXOXoXOXoXOXa.%   H oXOXoXOXoXOX",
"OXOXoXOXoX<.    <.OXOXOXoXoXoXoXoXOXoXOXoXOXoXoXoXoXOXoXOXoXoXoXOXoXoXoXOXoXOXoXOXh.%   ' oXOXoXOXOX",
"OXoXOXoXN.#   o.OXoXOXOXoXoXOXoXOXoXOXoXOXoXoXOXoXoXoXOXoXOXoXOXoXOXoXOXoXOXoXOXoXoX9.#   t.oXOXoXOX",
"OXOXoX|.r   H oXoXOXoXOXoXoXoXoXoXOXoXOXoXoXOXoXOXoXOXoXOXoXoXoXOXoXOXoXOXoXOXoXOXoXOX'   > T.oXOXOX",
"OXoXOX[   5 (.oXOXoXOXoXOXoXOXoXOXoXoXoXoXOXoXOXoXOXoXOXoXOXoXOXoXOXoXOXoXOXoXOXoXOXoX|.p   L OXoXOX",
"OXOXP.%   t.oXoXoXOXoXOXoXOXoXOXoXOXoXoXOXoXOXoXOXoXOXoXoXoXOXoXOXoXOXoXOXoXOXoXOXoXOXoXN.#   b.OXOX",
"OXoX~   z oXoXoXOXoXOXoXOXoXOXoXoXoXoXoXoXOXoXOXoXOXoXOXoXOXoXOXoXOXoXOXoXOXoXOXoXOXoXOXoXP   B OXOX",
"OX(.%   l.OXoXoXoXOXoXOXoXOXoXoXoXoXOXoXOXoXOXoXoXoXOXoXOXoXoXoXOXoXOXoXOXoXOXoXoXoXOXoXoXP.#   D.oX",
"OX+.  p OXoXOXoXOXoXOXoXoXoXOXU.H.H.H.H.P.H.H.H.H.H.P.H.D.P.U.OXoXoXoXOXU.oXoXOXoXOXoXOXoXOXF   ~ OX",
"OXf   ;.oXOXoXOXoXOXoXoXoXoXH                               # b.oXoX~.H   o.OXoXOXoXOXoXOXoXh.  2 |.",
"~.# # T.OXoXOXoXOXoXoXoXoX6.                                  9.oXt.2     T oXOXOXOXoXOXoXOX|.>   b.",
"9.  p OXoXOXoXOXoXoXoXoXOXn                                   =.H         T OXoXOXoXOXOXOXoXoXF   X.",
"(   ~ OXOXoXOXoXoXoXoXOX'.%     #       #   #                 # #         T oXOXoXOXoXOXoXOXoX;.  A ",
"n   3.OXoXOXoXoXOXoXOXOXC.                                                T OXoXOXoXOXoXoXoXOXl.  6 ",
"e   x.oXOXoXoXOXoXOXoXoXu.                          #                     T oXOXoXOXoXOXoXOXOXU.  # ",
";   H.oXoXoXOXoXOXoXOXoX<.                        #                       W OXoXOXoXOXoXOXoXOX|.#   ",
"    U.oXoXOXoXOXoXOXoXoX+.          #   #                               # T oXoXoXOXoXOXoXoXoXoX%   ",
"    ~.OXOXoXOXoXOXoXOXoX+.                                    #           T oXoXoXoXOXOXoXoXoXoX;   ",
"%   P.OXOXOXoXOXoXOXoXOX;.                                                W oXoXoXOXoXOXoXoXoXoX    ",
"5   b.OXOXoXOXoXOXoXOXOX9.    #                       #             #     T oXoXOXoXOXoXoXoXoX~.  # ",
"g   9.OXoXoXoXoXoXOXoXOXx.          #       #                             T oXOXoXOXOXoXoXoXoXN.  2 ",
"T   } oXOXoXoXoXOXoXOXoX(.#                               #               T OXoXOXoXoXoXoXOXoX3.  z ",
"<.  n oXoXOXoXOXoXOXoXOXoXu #                           #     W 5         T oXOXoXoXoXoXoXoXoXW   ( ",
"D.  % '.OXoXOXoXOXoXOXoXOXX.                      #           9.'.T       T oXoXoXoXoXoXoXoXoXe   a.",
"oX6   u.oXOXoXOXoXOXoXOXoX'.6                                 u.oXOXh.5   ( oXoXOXoXOXOXOXoXC.  % '.",
"OX'   A OXoXOXoXOXoXOXoXOXoX(.<.=.=.=.=.=.=.=.=.;.=.=.;.=.;.6.oXoXoXOX(.<.~.oXOXoXOXoXOXoXOX'   F OX",
"OXH.  # H.OXoXOXOXOXoXOXoXOXoXOXoXOXoXOXoXOXoXOXoXoXoXoXoXOXoXOXoXOXoXoXoXoXOXoXOXoXOXoXOX(.;   a.OX",
"OXoXB   T oXOXoXOXoXOXoXOXoXOXoXOXoXOXoXOXoXOXoXoXoXOXoXOXoXOXoXOXoXoXoXoXOXoXOXoXOXoXOXoXo.  r oXOX",
"oXOXb.  # D.oXOXoXOXoXOXoXOXoXOXoXOXoXOXoXOXoXOXoXoXoXOXoXOXoXOXoXOXOXoXOXoXOXoXOXoXOXoX~.>   3.OXOX",
"OXoXOXF   g oXoXOXoXoXoXOXoXOXoXOXoXOXoXOXoXoXoXOXoXoXoXOXoXOXoXoXOXoXoXoXOXoXOXoXOXoXOXP   p OXoXOX",
"OXOXoXU.;   o.OXoXOXoXOXoXOXoXOXoXOXoXOXoXOXoXOXoXOXoXOXoXoXoXoXoXoXOXoXOXoXoXoXOXoXOX9.  # N.oXOXOX",
"OXOXOXoX3.  # h.OXoXOXoXOXoXOXoXOXoXoXoXOXoXOXoXOXoXOXoXoXOXoXOXoXOXoXOXoXOXoXOXoXOXD.;   [ oXOXoXOX",
"oXoXoXOXoXP   > C.OXoXOXoXOXoXOXoXoXoXOXoXOXoXOXoXOXoXoXoXoXOXoXOXoXOXoXOXoXOXOXOXU.6   z |.OXOXOXOX",
"OXoXOXoXoX|.z   2 C.oXoXOXoXOXoXoXoXoXoXOXoXOXoXOXoXoXOXoXOXOXOXoXOXoXoXoXOXoXOXU.r   e ~.OXoXOXoXOX",
"OXOXoXoXoXOX(.p   > h.oXoXOXoXoXoXOXoXOXoXoXoXoXoXoXOXoXoXoXOXoXOXoXoXoXOXoXOXC.5   e P.OXoXOXOXOXOX",
"OXoXOXoXOXoXOX(.z   # X.oXoXoXoXOXoXOXoXOXoXoXoXoXOXOXOXoXoXoXoXoXOXoXOXoXOX3.%   r P.OXoXOXoXOXOXOX",
"OXOXOXOXoXOXoXOX|.T     f C.OXOXoXOXoXoXOXoXoXoXOXoXOXoXoXoXOXoXoXoXOXoXP.A     B ~.OXoXOXoXOXoXOXOX",
"OXOXOXoXOXoXOXoXOXOX6.>     P H.OXoXOXoXoXOXoXOXoXOXoXOXoXOXoXOXoXOXU.~ %   # +.oXOXoXOXoXOXoXOXOXOX",
"OXOXOXOXoXOXoXOXoXOXoXT.L       B 9.(.oXOXoXOXoXoXoXOXoXOXoXOX'.a.H #     n H.oXOXoXOXoXOXoXOXoXOXOX",
"OXoXOXoXOXoXOXoXOXoXOXoXOXN.F #     # z [ 9.b.P.~.~.P.N.t.} B ;       n h.oXoXoXoXOXoXOXoXOXoXOXOX@X",
"OXOXOXOXoXOXOXOXOXOXOXOXOXOXOXP.} r                             6 ( D.oXOXoXOXoXOXOXOXOXOXOXOXOXOXOX",
"@XOXOXOXOXOXOXoXOXOXOXOXOXOXOXOXOXOXP.6.~ z 6 ; #   % 6 g T ;.H.OX@XOXOXOXOXOXOXOXOXOXOXOXOXOXOXOXOX"
};
