/* XPM */
static char *_527eceffb5045d5bc045cf6846f15eaAA3zJswzTVqsIMfV[] = {
/* columns rows colors chars-per-pixel */
"50 50 205 2 ",
"   c black",
".  c #010101",
"X  c #020202",
"o  c gray1",
"O  c #040404",
"+  c gray2",
"@  c #060606",
"#  c #070707",
"$  c gray3",
"%  c #090909",
"&  c gray4",
"*  c #0B0B0B",
"=  c #0C0C0C",
"-  c gray5",
";  c #0E0E0E",
":  c gray6",
">  c #101010",
",  c #111111",
"<  c gray7",
"1  c #131313",
"2  c gray8",
"3  c #151515",
"4  c gray9",
"5  c #191919",
"6  c gray10",
"7  c #1B1B1B",
"8  c gray11",
"9  c #1D1D1D",
"0  c #1E1E1E",
"q  c gray12",
"w  c #202020",
"e  c gray13",
"r  c #222222",
"t  c #232323",
"y  c gray14",
"u  c #252525",
"i  c #272727",
"p  c #282828",
"a  c gray16",
"s  c #2A2A2A",
"d  c gray17",
"f  c #2D2D2D",
"g  c gray18",
"h  c gray19",
"j  c #313131",
"k  c #323232",
"l  c #343434",
"z  c #353535",
"x  c gray21",
"c  c #373737",
"v  c gray22",
"b  c #393939",
"n  c #3A3A3A",
"m  c gray23",
"M  c #3C3C3C",
"N  c #3E3E3E",
"B  c #3F3F3F",
"V  c gray25",
"C  c #414141",
"Z  c gray26",
"A  c #434343",
"S  c #444444",
"D  c gray27",
"F  c #464646",
"G  c gray28",
"H  c #484848",
"J  c #494949",
"K  c gray29",
"L  c #4B4B4B",
"P  c #4C4C4C",
"I  c gray31",
"U  c #505050",
"Y  c #515151",
"T  c gray32",
"R  c #535353",
"E  c gray33",
"W  c #565656",
"Q  c gray35",
"!  c #5A5A5A",
"~  c #5B5B5B",
"^  c gray36",
"/  c #5D5D5D",
"(  c gray37",
")  c #5F5F5F",
"_  c #606060",
"`  c gray38",
"'  c #626262",
"]  c gray39",
"[  c #646464",
"{  c #656565",
"}  c #676767",
"|  c #686868",
" . c DimGray",
".. c #6A6A6A",
"X. c #6D6D6D",
"o. c gray43",
"O. c #6F6F6F",
"+. c gray44",
"@. c #717171",
"#. c #727272",
"$. c gray45",
"%. c #747474",
"&. c gray46",
"*. c #777777",
"=. c gray47",
"-. c #797979",
";. c gray48",
":. c #7B7B7B",
">. c #7C7C7C",
",. c gray49",
"<. c #7E7E7E",
"1. c gray50",
"2. c gray51",
"3. c #838383",
"4. c gray52",
"5. c #868686",
"6. c gray53",
"7. c #888888",
"8. c #898989",
"9. c gray55",
"0. c #8D8D8D",
"q. c gray56",
"w. c #909090",
"e. c gray57",
"r. c #939393",
"t. c gray58",
"y. c #959595",
"u. c gray59",
"i. c #989898",
"p. c gray60",
"a. c #9A9A9A",
"s. c #9B9B9B",
"d. c gray61",
"f. c #9D9D9D",
"g. c gray62",
"h. c #9F9F9F",
"j. c #A0A0A0",
"k. c gray63",
"l. c #A2A2A2",
"z. c gray64",
"x. c #A4A4A4",
"c. c #A5A5A5",
"v. c gray65",
"b. c #A7A7A7",
"n. c gray66",
"m. c #A9A9A9",
"M. c #AAAAAA",
"N. c gray67",
"B. c #ACACAC",
"V. c gray68",
"C. c #AEAEAE",
"Z. c #AFAFAF",
"A. c gray69",
"S. c #B1B1B1",
"D. c #B2B2B2",
"F. c gray70",
"G. c #B4B4B4",
"H. c #B6B6B6",
"J. c #B7B7B7",
"K. c gray72",
"L. c #B9B9B9",
"P. c gray73",
"I. c #BBBBBB",
"U. c #BCBCBC",
"Y. c gray74",
"T. c gray",
"R. c #C0C0C0",
"E. c #C1C1C1",
"W. c gray76",
"Q. c gray77",
"!. c #C5C5C5",
"~. c #C6C6C6",
"^. c gray78",
"/. c #C8C8C8",
"(. c gray79",
"). c #CACACA",
"_. c #CBCBCB",
"`. c gray80",
"'. c #CDCDCD",
"]. c #CECECE",
"[. c gray81",
"{. c #D0D0D0",
"}. c gray82",
"|. c #D2D2D2",
" X c LightGray",
".X c gray83",
"XX c #D5D5D5",
"oX c gray84",
"OX c #D7D7D7",
"+X c #D8D8D8",
"@X c gray85",
"#X c #DADADA",
"$X c gray86",
"%X c gainsboro",
"&X c #DDDDDD",
"*X c gray87",
"=X c #DFDFDF",
"-X c gray88",
";X c #E1E1E1",
":X c #E2E2E2",
">X c gray89",
",X c #E4E4E4",
"<X c gray90",
"1X c #E6E6E6",
"2X c #E7E7E7",
/* pixels */
"|.|.|.|.|.[.|.|.|.|.|.[.|.|.|.[.|.|.[.k.$.J s 3 #   # > s D O.h.[.[.[.[.|.[.|.[.|.[.|.[.|.|.|.[.|.[.",
">X,X>X,X>X,X>X,X>X,X>X,X>X,X>X>Xh.T >                           = I a.*X>X,X>X,X>X,X>X,X>X,X>X>X>X,X",
",X,X,X>X,X>X,X>X,X>X,X>X,X@X<.0       > V O.r.x.K.U.K.M.y.$.J 3       3 *.XX,X>X,X>X,X>X,X>X,X>X,X>X",
",X,X>X,X>X,X>X,X>X,X>X,X4.3     3 ] B.,X>X,X>X,X,X,X>X,X>X,X>X>XG...6     = <.*X>X,X>X,X>X,X>X,X>X,X",
",X>X>X>X,X>X,X>X,X>XW.c     0 4.*X>X,X>X,X>X,X>X,X>X,X>X,X>X,X>X,X>X>Xr.s     s G.>X,X>X,X>X,X>X,X>X",
",X,X>X>X>X,X>X,X>Xy.$   = :.*X,X,X,X>X,X>X,X>X,X>X,X>X,X>X,X>X,X>X,X>X,X*X9.3   # 4.>X,X>X,X>X,X>X,X",
",X>X,X>X,X>X,X*XO.    c Q.,X,X>X,X>X,X>X,X>X,X>X,X>X,X>X>X>X,X>X,X>X,X>X,X>X|.D     / *X,X,X,X>X,X>X",
",X,X>X,X>X>X>X/     [ >X>X,X>X,X>X,X>X,X>X,X>X,X>X,X>X,X>X,X>X,X>X,X>X,X>X,X>X>X:.    I *X,X,X,X>X,X",
",X,X,X>X,X>X[     = K.>X,X>X,X>X,X>X,X>X,X>X,X>X,X>X,X>X,X>X,X>X,X>X,X>X,X>X,X>X,Xy.$   T *X,X>X,X>X",
",X,X>X,X>X4.    0   > F.>X,X>X,X>X,X>X,X>X,X>X,X>X,X>X,X>X,X>X,X>X,X>X,X>X,X>X,X>X,Xh.#   O.>X,X>X,X",
",X>X,X>XF.#   O.XXk   = F.>X,X>X,X>X,X>X,X>X,X>X,X>X,X>X,X>X,X>X,X>X,X>X,X>X,X>X,X>X,X7.    k.>X>X>X",
">X>X>X*Xe   D >X>X@Xc   = B.>X,X>X,X>X,X>X,X>X,X>X,X>X,X>X>X>X>X>X>X>X>X>X>X>X>X>X,X>X,X/   3 |.>X>X",
",X>X,X..  3 |.*X,X>X@Xm   $ B.>X>X>X>X>X,X>X>X>X>X>X>X>X>X>X>X>X,X>X>X>X>X>X,X>X,X>X,X>X@Xu   E >X>X",
",X,XQ.$   r.>X>X>X>X>X@XV   $ x.>X>X>X>X>X,X>X,X>X>X>X>X>X,X>X>X>X,X>X,X>X,X>X,X>X,X>X,X,XM.#   G.>X",
",X>X/   k >X>X>X,X>X>X>X*XV   $ h.>X>X>X,X>X,X>X>X>X,X>X,X>X>X>X,X>X,X>X,X>X,X>X,X>X,X,X,X>XI   D ,X",
",X|.#   x.,X>X>X>X>X>X,X>X*XD   # h.>X>X>X,X>X,X>X,X>X,X,X,X>X,X>X,X>X,X>X,X>X,X,X,X,X,X,X,XK.    W.",
",X:.  s >X>X,X>X,X>X,X>X,X>X*XJ   # 2.k.x.k.x.x.x.k.x.k.x.k.x.[.,X,X,X>X|.F.,X,X,X>X>X>X,X>X,XM   ..",
",Xs   <.>X>X>X,X>X,X,X,X>X,X,X>XI                             e ,X,X,Xy.>   B.,X>X,X>X,X>X,X>Xy.  6 ",
"[.    (.,X>X,X>X,X>X,X>X,X>X,X,X>XE                           > ,X(.D       h.>X>X>X>X>X>X>X,XXX$   ",
"r.  s ,X>X,X>X,X>X,X,X,X,X4.= 9.>X>X~       #     #     #     > 4.>         h.>X>X>X,X>X,X>X,X>XM   ",
"]   ~ >X,X>X,X>X,X>X,X>X>Xk     4.>X>X/                                     a.,X>X,X>X,X>X,X>X,X$.  ",
"m   4.>X>X>X>X>X>X>X>X>X>X=       2.>X>X[                   #               h.>X,X>X>X>X,X>X,X>Xa.  ",
"e   x.,X>X>X>X>X>X,X>X,X[.          2.,X>X..    #   #           #           a.>X>X>X>X,X>X,X>X,XK.  ",
"=   K.>X,X>X,X>X,X>X,X>XK.    #       :.,X>XO.                              h.>X,X>X,X>X,X>X>X>X[.  ",
"    Q.,X,X,X,X,X>X,X>X,XF.              $.>X>X$.                            a.>X>X>X>X>X>X>X>X,X@X  ",
"    Q.>X,X,X,X,X,X>X,X>XF.            #   O.>X>X:.                    #     h.>X>X>X,X>X,X>X>X>X@X  ",
"=   U.,X>X,X>X,X>X,X>X>XK.      #           ..>X>X<.        #       #       h.>X>X>X>X,X>X>X>X,X[.  ",
"0   M.>X,X>X,X,X,X>X,X>X[.                    [ >X>X2.                      h.>X,X>X,X>X,X>X,X>XK.  ",
"m   4.,X>X>X>X>X>X>X>X,X>X$                     / >X>X4.#                   a.,X>X,X>X,X>X,X>X,Xh.  ",
"/   ] >X,X>X>X>X>X>X,X>X,Xk           #   #       ~ >X>X9.                  h.>X,X>X,X>X,X>X,X>X$.  ",
"9.  s ,X>X,X>X,X>X,X>X>X>X..                        E >X>Xr.#     #         a.,X>X,X>X,X>X,X,X,XM   ",
"Q.#   [.,X>X,X>X,X>X,X>X,XK.#                         T >X>Xy.#   g c #     h.>X,X>X,X>X,X>X,X@X$   ",
",Xs   4.>X,X>X,X>X,X>X,X>X,X]                         = *X,X>Xa.#   J 2.=   M.,X>X,X>X,X>X,X>Xy.  6 ",
",X:.  g ,X>X,X>X,X>X,X>X,X>X,XM.a.y.a.y.a.a.a.y.a.y.a.U.,X>X,X>Xh.$   D Q.x.,X,X,X>X,X>X,X>X,XV   [ ",
">X[.#   B.,X>X,X>X,X>X,X>X,X>X,X>X,X>X,X>X,X>X,X>X,X>X,X>X,X>X,X>Xk.$   V *X>X,X>X,X>X,X>X,XK.    U.",
",X>XE   m >X,X>X,X>X,X>X,X>X,X>X,X>X,X>X,X>X,X>X,X>X,X>X,X>X,X>X,X>XM.$   M @X>X,X>X,X>X,X>XJ # V >X",
",X,XW.#   h.>X,X>X,X>X,X>X,X>X,X>X,X>X,X,X,X>X,X>X,X>X,X>X,X>X,X>X,X>XM.$   m @X>X,X>X,X>XB.    F.,X",
",X>X,X]   0 @X>X,X>X,X>X,X>X,X>X,X>X,X>X,X>X,X>X,X>X,X>X,X>X,X>X,X>X,X>XF.=   c XX>X,X>X*Xe   E ,X>X",
",X,X>X@X6   I ,X>X,X>X>X>X,X>X,X>X,X>X,X>X,X>X,X>X,X>X,X>X,X>X,X>X,X>X,X>XF.=   k XX>X,X/   3 |.>X,X",
"2X>X,X>XM.#   <.,X>X,X>X,X>X,X>X,X>X,X>X,X>X,X>X,X>X,X>X,X>X,X>X>X>X>X>X,X>XG.>   g |.7.    a.>X,X>X",
",X,X>X,X>X:.  # y.,X>X,X>X,X>X,X>X,X>X,X>X,X>X,X>X,X>X,X>X,X>X,X>X,X>X,X>X,X>XK.>   e #   [ >X,X>X,X",
",X>X,X>X,X*X~     r.,X>X,X>X,X>X,X>X,X>X,X>X,X>X,X>X,X>X,X>X,X>X,X>X,X>X,X>X,X>XW.>     J >X,X>X,X>X",
",X,X>X,X>X,X*XT     *.,X>X,X>X,X>X,X>X,X>X,X>X,X>X,X>X,X>X,X>X,X>X,X>X,X>X>X>X>X<.    V @X,X>X,X>X,X",
",X>X,X>X,X>X,X>X]     D |.>X,X>X,X>X,X>X,X>X,X>X,X>X,X>X,X>X>X>X,X>X,X>X,X>XXXI     E *X,X>X,X>X,X>X",
",X,X>X,X>X,X>X,X>X4.$   > 9.>X,X>X>X>X,X>X,X>X,X>X,X>X,X>X,X>X,X>X,X>X,X>Xr.3     :.>X,X,X,X>X,X>X,X",
",X>X,X>X,X>X,X>X,X>XK.s     s y.*X>X,X>X,X>X,X>X,X>X,X,X>X>X,X>X,X>X>Xa.g     e F.>X,X>X,X>X,X>X,X>X",
",X,X>X,X>X,X>X,X>X,X>X*X<.>     0 $.K.,X>X,X>X,X,X,X>X,X>X>X>X>XK.*.0     $ *.@X>X>X>X,X>X,X>X,X>X,X",
",X>X,X>X,X>X,X>X,X>X,X>X,X|.$.3       3 I :.h.F.Q.Q.Q.G.h.:.T 0       > ..[.,X>X>X>X>X>X,X>X,X>X>X>X",
",X2X>X,X>X,X>X,X>X>X>X,X>X,X>X*Xy.D $   #                       $ V r.@X>X,X>X,X>X>X>X,X>X,X>X,X>X>X",
"*X@X*X@X*X@X*X@X*X@X@X@X*X@X*X@X*X@XXXk.$.D s > # # # > s D O.h.|.@X*X@X@X@X*X@X*X@X@X@X*X@X*X@X*X@X"
};
