/* XPM */
static char *_bda0c321aad4020ac713d34b17007170XSvFgtPczIfen0l[] = {
/* columns rows colors chars-per-pixel */
"50 50 125 2 ",
"   c None",
".  c black",
"X  c #010101",
"o  c #020202",
"O  c gray1",
"+  c #040404",
"@  c gray2",
"#  c #060606",
"$  c #070707",
"%  c gray3",
"&  c #090909",
"*  c gray4",
"=  c #0B0B0B",
"-  c #0C0C0C",
";  c gray5",
":  c #0E0E0E",
">  c gray6",
",  c #101010",
"<  c #111111",
"1  c gray7",
"2  c #131313",
"3  c gray8",
"4  c #151515",
"5  c gray9",
"6  c #191919",
"7  c gray10",
"8  c #1B1B1B",
"9  c gray11",
"0  c #1D1D1D",
"q  c #1E1E1E",
"w  c gray12",
"e  c #202020",
"r  c gray13",
"t  c #222222",
"y  c #232323",
"u  c gray14",
"i  c #252525",
"p  c #272727",
"a  c #282828",
"s  c gray16",
"d  c #2A2A2A",
"f  c gray17",
"g  c #2D2D2D",
"h  c gray18",
"j  c gray19",
"k  c #313131",
"l  c #323232",
"z  c #343434",
"x  c #353535",
"c  c gray21",
"v  c #373737",
"b  c gray22",
"n  c #393939",
"m  c #3A3A3A",
"M  c gray23",
"N  c #3C3C3C",
"B  c #3E3E3E",
"V  c #3F3F3F",
"C  c gray25",
"Z  c #414141",
"A  c gray26",
"S  c #434343",
"D  c #444444",
"F  c gray27",
"G  c #464646",
"H  c gray28",
"J  c #484848",
"K  c #494949",
"L  c gray29",
"P  c #4B4B4B",
"I  c #4C4C4C",
"U  c gray31",
"Y  c #505050",
"T  c #515151",
"R  c gray32",
"E  c #535353",
"W  c gray33",
"Q  c #565656",
"!  c gray35",
"~  c #5A5A5A",
"^  c #5B5B5B",
"/  c gray36",
"(  c #5D5D5D",
")  c gray37",
"_  c #5F5F5F",
"`  c #606060",
"'  c gray38",
"]  c #626262",
"[  c gray39",
"{  c #646464",
"}  c #656565",
"|  c #676767",
" . c #686868",
".. c DimGray",
"X. c #6A6A6A",
"o. c #6D6D6D",
"O. c gray43",
"+. c #6F6F6F",
"@. c gray44",
"#. c #717171",
"$. c #727272",
"%. c gray45",
"&. c #747474",
"*. c gray46",
"=. c #777777",
"-. c gray47",
";. c #797979",
":. c gray48",
">. c #7B7B7B",
",. c #7C7C7C",
"<. c gray49",
"1. c #7E7E7E",
"2. c gray50",
"3. c gray51",
"4. c #838383",
"5. c gray52",
"6. c #868686",
"7. c gray53",
"8. c #888888",
"9. c #898989",
"0. c gray55",
"q. c #8D8D8D",
"w. c gray56",
"e. c #909090",
"r. c gray57",
/* pixels */
"                                        &.J f 4 # . % , f F @.                                      ",
"                                  W , . . . . . . . . . . . . . - I                                 ",
"                            ,.w . . . , C @.r.            @.J 4 . . . 4 &.                          ",
"                        8.4 . . 4 }                               ..8 . . , ,.                      ",
"                      v . . w 8.                                        f . . f                     ",
"                    - . - ,.                                              w.4 . % 5.                ",
"                +.. . v                                                       J . . (               ",
"              ( . . }                                                           ,.. # J             ",
"            } . . -                                                                 # . T           ",
"          5.. . w . ,                                                                 # . +.        ",
"          # . +.  l . -                                                               8.. #         ",
"        r . F       v . -                                                               ( . 4       ",
"      ... 4           m . %                                                               p . ^     ",
"      % .               C . %                                                               . .     ",
"    ^ . l                 C . %                                                             I . J   ",
"    % .                     J . %                                                             . .   ",
"  >.. f                       I . # 4.                                                        C . } ",
"  f . ,.                        T . . . . . . . . . # . . . . r         4 .                     . 8 ",
"  . .                             W . . # . . . . . . . . # . ,     F . . .                     % . ",
"r.. f                     5.- w.    ^ . . . . . # . . . . . . , 5., . . . .                     N # ",
"] . (                     l . # 8.    ( . . # . . . . . . . . # # . . . . .                     @.. ",
"m . 8.                    - . . . 4.    } . . . . # . . . . . . . . . . . .                       . ",
"r .                       . . . . # ,.    ... . . . . . . # . . . . . . # .                       . ",
"% .                       . . . . . . >.    +.. . . . . . . . . . . . . . .                       . ",
"# .                       . # . . . . . @.    @.# . . . . . . . . . . . . .                       . ",
". .                       . . . . . . # . @.    >.. . . . # . . . # . . . #                       . ",
"- .                       . . . # . . . # . ..    ,.. . # . . . . . . . . .                       . ",
"w .                       . . . . . . . . . . }     4.. . . . . . . . . . .                       # ",
"m . 8.                    % # . . . . . . . . . (     5.# . . . . . . . # .                       . ",
"( . ]                     l . . . . . # . . . # . ^     8.# . . . . . # . .                     @.. ",
"w.. g                     ... . . . . . . . . . . . W     r.# . . % . . . .                     C . ",
"  . .                       # . . . . . . . # . . . . W       # . g v . . .                     % . ",
"  p . 5.                    ] . . . . . . . . . # . . -         # . J 4.- .                     . 8 ",
"  >.. g                                                           % . F                       C . } ",
"    # .                                                             % . C                     . .   ",
"    W . N                                                             % . N                 I . C   ",
"      # .                                                               - . m               . .     ",
"      } . w                                                               - . v           p . T     ",
"        8 . I                                                               , . v       ( . 4       ",
"          # . 4.                                                              , . g   8.. .         ",
"          >.. #                                                                 , . r # . ..        ",
"            ^ . # r.                                                              , . . J           ",
"              W . . &.                                                          ,.# . F             ",
"                ] . . F                                                       J . . T               ",
"                  5.% . 4 w.                                                4 . # >.                ",
"                      g . . f                                           g . . p                     ",
"                        ,.- . . 8 @.                              &.r . . - &.                      ",
"                            @.4 . . . 8 I >.              >.T w . . . , ..                          ",
"                                  F - . . . . . . . . . . . . . % C r.                              ",
"                                        @.J f 4 # . % , f J +.                                      "
};
