/* XPM */
static char *_978c21b90604009e1b1ce998226aec5T9FIziu1Wa6IDJ07[] = {
/* columns rows colors chars-per-pixel */
"50 50 27 1 ",
"  c None",
". c black",
"X c #010101",
"o c #020202",
"O c gray1",
"+ c #040404",
"@ c gray2",
"# c #060606",
"$ c #070707",
"% c gray3",
"& c #090909",
"* c gray4",
"= c #0B0B0B",
"- c #0C0C0C",
"; c gray5",
": c #0E0E0E",
"> c gray6",
", c #101010",
"< c #111111",
"1 c gray7",
"2 c #131313",
"3 c gray8",
"4 c #151515",
"5 c #161616",
"6 c gray9",
"7 c #181818",
"8 c #191919",
/* pixels */
"                    62:2++:::6                    ",
"                 2:............*:                 ",
"               :...+::2    62:*...*6              ",
"             ++.+2              2*..+             ",
"           2..*                    :..:           ",
"          +.+                        +.+          ",
"        8..2                          2..2        ",
"       2..8                             ++:       ",
"      6++                                +.2      ",
"      ..                                  +.6     ",
"     +.8                                   ..     ",
"    *.2                                    8.+    ",
"   6.*                                      :.2   ",
"   +.                                        +.   ",
"  2.:                                        2.2  ",
"  +.                                          .+  ",
"  .:                                          :.6 ",
" :+           2+.....+.+...+..+    2.6         .+ ",
" ..           .....++.+.+.+....   *..*         +. ",
" .:          :.+.+.....+.+...+. 2....:         2.6",
"2.2          +..+.+.+...+.+.+.+.+....*          .:",
":.           ++..+...+.+.......+...+.*          .:",
"*.           .+...+...+...+.+...+.+..*          .+",
":.           ..+.+.+.+...+.....+.....:          +.",
"..           .+...........+.....+...+*          :.",
"..           ....+.+.+.+.+...+.+...+.:          :.",
":.           ...+...+...........+.+..*          ++",
"*.           +.+.+.+...+.+.+.+.+.+...:          .+",
"*.           .+.......+.....+.+.+....*          .*",
"2.2          +...+.+.+...+.+...+...+.*          .:",
" .:          :+.+.......+.+...+6+....*         2.2",
" .*          6.....+.+.+...+...  6+..:         :. ",
" *.           *...+...+...+.+..    *.:         .+ ",
" 2.2                                          6.: ",
"  .+                                          ++  ",
"  2.6                                        6.*  ",
"   .+                                        +.   ",
"   2.:                                      6.:   ",
"    +.6                                     .+    ",
"     +.                                    +.6    ",
"     2.+                                  *.:     ",
"      :.+                                *.*      ",
"       *++                              *.*       ",
"        :.+6                           +.*        ",
"         2..:                        2..:         ",
"           *.+2                    6+.+           ",
"            2...:                2.+.2            ",
"              2+..+:2        22+...:              ",
"                6*.....+.+...+..*2                ",
"                    2**:..:*::                    "
};
