/* XPM */
static char *_3917b864f2d4ba1d0c63ed25e0aeb88xTGRcnay9XfQEWGJ[] = {
/* columns rows colors chars-per-pixel */
"70 70 44 1 ",
"  c black",
". c #060606",
"X c gray3",
"o c gray6",
"O c #131313",
"+ c #151515",
"@ c #1B1B1B",
"# c gray12",
"$ c #232323",
"% c gray14",
"& c gray17",
"* c #2F2F2F",
"= c #323232",
"- c #373737",
"; c #393939",
": c #3C3C3C",
"> c gray25",
", c #444444",
"< c #494949",
"1 c gray31",
"2 c gray32",
"3 c gray33",
"4 c #585858",
"5 c gray37",
"6 c gray39",
"7 c #676767",
"8 c gray42",
"9 c gray43",
"0 c gray44",
"q c #747474",
"w c #797979",
"e c #7C7C7C",
"r c #808080",
"t c gray52",
"y c #888888",
"u c #8D8D8D",
"i c #929292",
"p c gray59",
"a c gray60",
"s c gray61",
"d c #A0A0A0",
"f c #A4A4A4",
"g c gray66",
"h c gray68",
/* pixels */
"00     00q001 .    @9000999989898888888878778777o      66666:    36556",
"0.   X00q00o     <000000095=@          +*887777777&     *66666    >655",
"     q00qq  . .;q0q000q:                   .;8787776X     76656    -55",
"   %0qqq&  . Oqqqqqq2                          3777777     26666    ,6",
"  %qqq0@. . 4qwwqw- .    .  ><59988884<%         >77767#    *6665    3",
" .0qqq.   .wwwwwq  .  ..@0q0009998988888888#       677676     6665    ",
"o0qqq.  .#weeww.... .$qq0q00009998998888878787o     +77666    $6666   ",
"0qqqX ..=eere3X.X..@wwqwqq0009#+@XX@++8888788778@     57767.   O5663  ",
"qqq . .>eeerXXXXX+reeewqq6.   .           48887787.    &7666X   >6663 ",
"qq$ ..-errtOXooX0ttrreqo..  .               @577777<     6667    >556o",
"q@ ..#rrtroXXooyyytttXX..  .    ====           677777    .6666    5655",
"8.. @erttoXoo*uuuuyXoXX...#qqq00998989888@       77777O    7666    556",
" . XerttXooO8piii;oooXXX6ewwqq00999898888881      ;7776*    6665   O65",
". .erttoooo0ppapOOOooOytreeqqqq099998889888878      77765    6666   56",
" .3rrt@XoO2aass+++OOuuytrre6=          %18888781     7767;   #666+   5",
"..err<ooO<asdd+@+++aiiuyt%... ..          +878778     6767#   >666   O",
" eerrXoo@asds@@@@0ssapyoXXX....              68777=    6776    6656   ",
":erroooOasdf@@@#iffsa>OooXXX@:q0099899>+      #87875    7666   X665+  ",
"wer<oXouasd@@@@dggfs+OoooX0eqw0q0099988885      78774    7675   1666  ",
"werXXo1pas@@@#iggga@+OOo9yrewwqq009999988888     17784   @667@   655+ ",
"ee$Xooipa0@@#9hhhi@@@O>iytrrwq-@.   +*8888887&    1777>   -666   *666 ",
"we.XXyipa@@@=hhhh@@@+apuytr>X.           887878    7767+   766,   655@",
"w+XXXuup++@#gggg#@#+saiiy-XX...   .       #87878    4776    766   ;656",
"w.XXeyup+++uggg#@@@dsaiuooXX.  *2222%       87878    7775   6661   565",
"2..XtyuoOO$dfg:@@@psap9oXXXX-qq000999986     :7787   o767    666   556",
" ..6tyuOOOssdd@@@8dap6OooX=ewwq0009998888>    $877<   5777   666&   55",
" ..ert%ooOass@@+@ssaioooorewqqqq0>>99888888    -777    776    666   65",
"..OertXooiia9+++aapuOooXrreww2        *88887X   4777   =667   666   56",
" .6we8oXouipOOO#ppiOoootrew2. .         *8888    777*   767   ,66:  X6",
"  wwe.XXryyioOOpiu4ooXrrre%. .            8788   .777   766;   666   6",
"..qww.XXtyy%oo$uuyooX:rre= ...$009888$     7783   777&  .666   665   6",
"  qww...rrtoXoeyy8oXXrre5..  0099999888$   $778X  %777   667   666.  >",
" 7qw*..-errXXotttoXXreww.. .000099989888$   8777   777   666#  O56-  :",
" 0qq@. ,ee9XXXrrrXXXeew@. .0009<    ;9888o   787   776.  >66-  O665   ",
" q0q  .qweX..0ee:X..ewq. .8000o       8888   777-  O777   766   566   ",
" 000. .qqw ..wew%..;ww6.  q00          789X  #877   767   766   656   ",
" 000 . qqw ..qww. .qqq. .3009    69;   ;787   777   777   766   566   ",
" 000   qqq ..qqw ..qqq . 009%  @9898:   888   777   767   666   655   ",
" 000.  q0q . qqq   qq0.  009   998898   878   777   767   666   666   ",
" 000   000  .0q0.. 000   909   999898   878   877   676   666   565   ",
" 999   000  .000   000   099   988889   987   877   677   666   665   ",
" 999   990   000   000.  899%  .9989%   888   777   767   666   565   ",
" 999   990   990 . 990   @990    ->O . 3888   777   676   666   656   ",
" 999   999   709%  *995   999=        X888X  >776   767   666   655   ",
" 999   999   699<   999   <009>       9885   877@  O676   666   655   ",
" 788%  *985   999   999#   09099 .. 79888   .877   776.  >66-  O566   ",
" 599=  #999   999   &999    000000099999o   7771   776   666   ,65.  >",
"  898   899   <992   9996 .. 4000000999    ,877   ;667   666   656.  >",
"  988   899#   999    9900.  . 909000 .    8871   776   X666   665   5",
"  899   #888   9899   10001...........   -8878   %677   666o  +556   5",
"  ;892   899   X899    70000. .....  . .59888    776@   666   365:  X5",
"   888   2885   7998 .. 90q0qqOX ....X508988    7676   1662   566   65",
"   888O   888.   9999  ..30qqqqqqqqqq000998    5767    666   +656   55",
"   O888   8888   $9998   .o0qwqqwqqqq0009o    5777=   6566   656+  +55",
"1   898o   888:   ,9908......5wwwqwqq08% ..  17764   &666   @656   555",
"8   <888   1888    49900. ...X..#===..... . 77774    666:   555-   555",
"8o   878    8888    0000q0.X.X.X..X...... 687787    6666   &556   4555",
"78   <889    8888   .;0000q9o.X..X......>88887:    6666    565%   555X",
"87=   8884   @8887    X0qqqqqq84=XX=370099898X    3766$   4556   1554 ",
"788    887=   *8889  .. &0qqqqwqqqqqq009998<     7666;   >666    555  ",
"8786   <787o   :8888#  .  =qqqwwwqqqq0009=     O6666:    655:   3555  ",
"#777    8787    *88896  .....+,qqqqq0,+. ..   46766=    6566   O555   ",
" 7787    7888    +88889% . ........ .....   #76776$    6566    555<   ",
"  7785   +7778     889999>... ....... .  .:777766     6565    3555   %",
"  =877O   O8778     :98999998..... . . 78877776+     5655O   4555    5",
"   7777+   =7877*     <9889999999909998887777<     %6656#   %555*   54",
"    7777    +78782      *999999999998887877#      35665o    5552   $55",
"7    7778     77778% .     -698998888876*       @66655    O5555    544",
"7<   o7777     777777$    .    .. .           @666562    #5555    4554",
"77*   o7777+    *777778=     ..    ... .    2766556O    &5555    2554."
};
