/* XPM */
static char *_69cd927873d491be25456ff1a6c87de39tZuGrJTP4PGH5H[] = {
/* columns rows colors chars-per-pixel */
"70 50 44 1 ",
"  c #020202",
". c #040404",
"X c #090909",
"o c #0E0E0E",
"O c #101010",
"+ c #161616",
"@ c gray10",
"# c gray12",
"$ c #222222",
"% c gray14",
"& c #2A2A2A",
"* c gray18",
"= c #323232",
"- c #353535",
"; c gray23",
": c #3F3F3F",
"> c #434343",
", c gray28",
"< c #494949",
"1 c #4E4E4E",
"2 c #535353",
"3 c #565656",
"4 c #5B5B5B",
"5 c gray37",
"6 c gray39",
"7 c #656565",
"8 c DimGray",
"9 c gray43",
"0 c gray44",
"q c #767676",
"w c gray47",
"e c gray50",
"r c #808080",
"t c #848484",
"y c #8B8B8B",
"u c #8D8D8D",
"i c #909090",
"p c gray59",
"a c #9A9A9A",
"s c #9D9D9D",
"d c gray64",
"f c gray65",
"g c gray66",
"h c gray68",
/* pixels */
"04    +00005:    o+&0009998643333333323458878778$+X    <4666,O   >4555",
"*    <00qq*.   $,6000001**%+X          .O&&*1887771:.   O&6665;   @,56",
"   $00q0&    Oqqq00q2                          2777777     26665    ,5",
"  >0q0,O   =7wwqq<$     X**&23698988853:&&&o     &:6776:%   @;666%   =",
"X40qq@ ..@6weww#@.. .@556000099999988898888422o    O%77761    *6561   ",
"00q5. .O>wee7,X..X$*wwqqq94544@OOXXOO+3332788878&O    <4766@   o4653o ",
"qq> ..%7err:XXXX,3rrrew-=&                $&;67887>*   o&766:   +1655X",
"q@ ..#errtXXoooyyyytrXX....     *==*           578787     6666    5565",
">. .>rrt3ooo=3iiu84ooXXX&->qq000999999888;&#     :3877-O   ;666%   >55",
" ..7rtt%ooo5uppp&@OOoo98wewwqq0099988889988623    XO8774<   O7661   56",
"..5erw+oo#6aasr@++O*iuutr971&          #:3488882O    2777>.  +566%   1",
" 1etr%oO+wass1@@+28apiu::+X...            X&&7888:#   %677,   @665;  .",
";werXooOpsdd@@@@ifdsa>ooXX..@:0q999989>+      #77776    7767   .665+  ",
"wer=Xo&ias8@@#<fgfs8+OOo=:wewwq00999989886&&    >5776$   ,765X  =665. ",
"we=XXotpaw@@@5ghha-+++;qttreww>&@+++%-9888882$   o2776-   :762   -562 ",
"w8XXouipr+@#<hhhu#@@=apuuq8-.            348887+   2777%   176<   465&",
"wXXX1yup++@5fgg3#@@8saii:#X... #===*+     X&8788:   $777;   666*  +655",
"3..XtyuoO+$dfg;@@@asap0oXX.X-wq009999987     :8878   o777    666   456",
"...9ry6oO+ass9@@+rsap>Ooo;2wwq000549898882&   O2872   ;777   ;66:   66",
" .OerrOooqpaw+++raau&ooX8eeww4@@+oo+++;88883.  X5772   ;771   666   55",
"  7ee2Xo%uii+OO-ppyooo$rre8>.           %3888+   278;   777X  -66>  X5",
"  qwwX.Xryy2oO#iuu&oo&rre1O.  +,>>>:>+    &888-   877@  *672   666   5",
"  qqw..XrrtooXryy7XoXree5... 0999898888#   #878X  %777   676   665   >",
" 8qw%..:eewXXXtrrXXXrew2...=0096>>>>4988:.  >877   777.  376%  O66,  %",
" 00q.  9ww#..6ee1X..wwwX .3099$o    XO9884   788&  $772  o664   656   ",
" 000  .qww...qww#..<ww2  O009    O+X   698#  +887   776   666   566   ",
" 000   q0q. .qww  .qq0   700:  o>884$  +887   777   777   666   565   ",
" 000   00q   0qq   q00   090   898998   888   877   776   666   665   ",
" 999   900   000   000   999   998989   888   887   777   666   565   ",
" 999   900   909   900   899@  +9999-   988   778   777   666   666   ",
" 999   900   999.  690O  O999X   %-X   4883  X787   776   666   555   ",
" 899   909   699:  O998   3093%.      ,887   487-  X776   665   665   ",
" 799$  &995   999   999@   90999  . 79898   .878   676X  >66-  O655   ",
" ;99<  O998   599#  @990%   ,7000000999>.  @877*  +776   666   256.  >",
"  988   888+  o888   +9994   +@000009@+    6882   576+  .666   555   3",
"  689O  @998   4999   :9903@. ......    +>8882   =772   666X  %563   5",
"  +886   489;   899>   &90q0,,o.. ...X;,7988&   ;776X  *663   456+  ;5",
"   889+   889.   8899    30qqq0qqqqq0099999    5776    656   +565   55",
"#  X888.  >898+  O5998* ..X<<9qqqq0q0092>X   #6776#  o666;  X565X  =55",
"6   2983   3886   o59995.....@##*>>:##@X    26775O   366>   265:   555",
"8$   688+   2898+   3700q0@#.....X.X....O+688752   +6661   =662   454<",
"88#  #888-   ;888:   +=00qq011>;$..#-><,59888*@   -666-   =555o  *554.",
"888    888=   *8889     %00qqqqqqqqqq009999<     6666;   >565    555  ",
"<887   *888=   $2889;& ...#,,16qqqqq051,>#    $=6661%   %665%  .355-  ",
".7872   +7883   X%88883# ....XO#@@#@@O..    +26776*X   1656O   1551   ",
"  5876   O3878O    2699991@@@.. .......+++,877731    O5651   O355<   =",
"  O878,X  .,888:@   +&3889999,>,,,,>,>>8888773%.   +;655;.  +455:   -4",
"    8787    +78782      *989999999898988877#      35566o    5552   $54",
"7#   >778&    :7778:&o     #:>:>>>>:>::;#     X%-6654-   X*555;   $444",
"76$   #7772+   +;778742&                    :136656$o   $2555O   :544+"
};
