/* XPM */
static char *_89d4ac26fb344a7d35c606bcf263cc7C3ZGMbYob5K1IJ2t[] = {
/* columns rows colors chars-per-pixel */
"70 50 172 2 ",
"   c None",
".  c black",
"X  c #010101",
"o  c #020202",
"O  c gray1",
"+  c #040404",
"@  c #060606",
"#  c #070707",
"$  c gray3",
"%  c #090909",
"&  c gray4",
"*  c #0B0B0B",
"=  c gray6",
"-  c #111111",
";  c gray7",
":  c #131313",
">  c gray8",
",  c #151515",
"<  c #1D1D1D",
"1  c #1E1E1E",
"2  c #202020",
"3  c gray13",
"4  c #222222",
"5  c #252525",
"6  c #2A2A2A",
"7  c gray17",
"8  c #2C2C2C",
"9  c #2D2D2D",
"0  c #2F2F2F",
"q  c gray19",
"w  c #353535",
"e  c gray21",
"r  c #373737",
"t  c gray22",
"y  c #3A3A3A",
"u  c gray23",
"i  c #3C3C3C",
"p  c gray24",
"a  c #3E3E3E",
"s  c #3F3F3F",
"d  c gray25",
"f  c #434343",
"g  c #444444",
"h  c gray28",
"j  c #4B4B4B",
"k  c #4C4C4C",
"l  c gray30",
"z  c #4E4E4E",
"x  c gray31",
"c  c #515151",
"v  c gray32",
"b  c #535353",
"n  c gray33",
"m  c #555555",
"M  c gray34",
"N  c #585858",
"B  c gray35",
"V  c #5A5A5A",
"C  c #5D5D5D",
"Z  c gray37",
"A  c #5F5F5F",
"S  c #606060",
"D  c gray38",
"F  c #626262",
"G  c gray39",
"H  c #646464",
"J  c gray40",
"K  c #676767",
"L  c #6A6A6A",
"P  c gray42",
"I  c #6C6C6C",
"U  c #6D6D6D",
"Y  c gray44",
"T  c #727272",
"R  c #747474",
"E  c gray46",
"W  c #767676",
"Q  c #777777",
"!  c gray47",
"~  c #797979",
"^  c gray48",
"/  c #7B7B7B",
"(  c #7C7C7C",
")  c gray49",
"_  c #7E7E7E",
"`  c gray50",
"'  c #808080",
"]  c #818181",
"[  c gray51",
"{  c #838383",
"}  c #848484",
"|  c gray52",
" . c gray53",
".. c #888888",
"X. c #898989",
"o. c gray54",
"O. c gray55",
"+. c #8D8D8D",
"@. c #8E8E8E",
"#. c gray56",
"$. c gray57",
"%. c #929292",
"&. c #939393",
"*. c gray58",
"=. c #979797",
"-. c #989898",
";. c #9A9A9A",
":. c #9B9B9B",
">. c gray61",
",. c #9F9F9F",
"<. c #A0A0A0",
"1. c gray63",
"2. c #A4A4A4",
"3. c #A5A5A5",
"4. c gray65",
"5. c #A7A7A7",
"6. c #AAAAAA",
"7. c gray67",
"8. c #ACACAC",
"9. c gray68",
"0. c #AEAEAE",
"q. c #AFAFAF",
"w. c gray69",
"e. c #B1B1B1",
"r. c #B2B2B2",
"t. c gray70",
"y. c #B4B4B4",
"u. c #B7B7B7",
"i. c gray72",
"p. c gray73",
"a. c #BBBBBB",
"s. c #BCBCBC",
"d. c gray74",
"f. c #C1C1C1",
"g. c gray76",
"h. c #C3C3C3",
"j. c gray77",
"k. c #C6C6C6",
"l. c gray78",
"z. c #C8C8C8",
"x. c gray79",
"c. c #CDCDCD",
"v. c #CECECE",
"b. c gray81",
"n. c #D2D2D2",
"m. c LightGray",
"M. c gray83",
"N. c gray84",
"B. c #D8D8D8",
"V. c gray85",
"C. c gray86",
"Z. c gainsboro",
"A. c gray87",
"S. c #DFDFDF",
"D. c #E1E1E1",
"F. c #E2E2E2",
"G. c #EAEAEA",
"H. c #ECECEC",
"J. c gray93",
"K. c #EEEEEE",
"L. c #EFEFEF",
"P. c #F3F3F3",
"I. c gray96",
"U. c #F6F6F6",
"Y. c gray97",
"T. c #F8F8F8",
"R. c #F9F9F9",
"E. c #FBFBFB",
"W. c gray99",
"Q. c #FDFDFD",
"!. c #FEFEFE",
"~. c white",
/* pixels */
"    ~.~.~.~.P @ . . . . . . & S g.~.~.~.~.~.~.~.~.[ = . . . . . . . l u.~.~.~.~.~.~.~.K.~ . . . . . . . . j w.T.~.~.~.~.~.~.U.*.. . . . . . ",
"  ~.~.~.~.~.P @ . . . . . . & Z g.~.~.~.~.~.~.~.~.[ - . . . . . . . l w.~.~.~.~.~.~.~.G.~ . . . . . . . . j w.T.~.~.~.~.~.~.T.*.. . . . . . ",
"  ~.~.~.~.~.P @ . . . . . . & Z g.~.~.~.~.~.~.~.~.[ = . . . . . . . l w.~.~.~.~.~.~.~.K.` . . . . . . . . l w.T.~.~.~.~.~.~.T.*.. . . . . . ",
"  ~.~.~.~.~.P @ . . . . . . & Z g.~.~.~.~.~.~.~.~.[ - . . . . . . . l w.~.~.~.~.~.~.T.K.~ . . . . . . . . j u.T.~.~.~.~.~.~.T.*.. . . . . . ",
"  l.l.l.l.l.R i t r t t t t i U 3.l.l.l.l.l.x.x.l.` f r t t t t t r J -.l.l.l.l.l.l.l.i.` t t t t t t t t S -.g.l.l.l.l.l.l.g.X.t t t t t t ",
"  g f f f f X.i.i.d.d.i.i.d.u.#.S g f f f f f g f ` w.i.d.i.d.i.i.d.*.P f f f f f g g l [ i.d.i.d.i.d.i.d.-.P g f f f f f f j R d.i.d.i.i.d.",
"  . . . . . *.T.~.~.~.~.~.~.U.<.i . . . . . . . . ` K.~.~.~.~.~.~.~.w.l . . . . . . @ - [ ~.~.~.~.~.~.~.~.w.l @ . . . . . . @ P ~.~.~.~.~.~.",
"  . . . . . *.T.~.~.~.~.~.~.U.<.i . . . . . . . . ` K.~.~.~.~.~.~.~.w.l . . . . . . . - [ ~.~.~.~.~.~.~.~.w.l & . . . . . . @ P ~.~.~.~.~.~.",
"  . . . . . *.T.~.~.~.~.~.~.U.<.f . . . . . . . . ` K.~.~.~.~.~.~.~.w.l . . . . . . . - [ ~.~.~.~.~.~.~.~.w.l @ . . . . . . & P ~.~.~.~.~.~.",
"  . . . . . *.U.~.~.~.~.~.~.U.<.i . . . . . . . . ` K.~.~.~.~.~.~.~.w.l . . . . . . . > [ ~.~.~.~.~.~.~.~.w.j & . . . . . . @ P ~.~.~.~.~.~.",
"  . @ . . @ &.U.~.~.T.~.T.~.P.,.i . . . . . . . . ` K.T.~.T.~.T.T.~.w.l . @ @ . . . @ > | ~.T.~.~.T.~.T.~.w.l & . . . . . . & P ~.~.T.~.T.~.",
"  l l l l l | q.q.w.w.w.w.w.7.#.J c l l l c c l l ` q.w.w.w.w.w.w.w.&.U l l l l c l c m | w.w.w.w.w.w.w.w.&.U c l c c l c c c R w.w.w.w.w.w.",
"  ~.~.~.~.~.P @ . . . . . . & Z g.~.~.~.~.~.~.~.~.[ = . . . . . . . l w.~.~.~.~.~.~.T.K.~ . . . . . . . . l w.T.~.~.~.~.~.~.T.*.. . . . . . ",
"  ~.~.~.~.~.P @ . . . . . . & Z g.~.~.~.~.~.~.~.~.[ = . . . . . . . l w.~.~.~.~.~.~.~.K.` . . . . . . . . l w.T.~.~.~.~.~.~.T.*.. . . . . . ",
"  ~.~.~.~.~.P @ . . . . . . & Z g.~.~.~.~.~.~.~.~.[ = . . . . . . . l u.~.~.~.~.~.~.~.G.~ . . . . . . . . l w.T.~.~.~.~.~.~.T.*.. . . . . . ",
"  ~.~.~.~.~.P @ . . . . . . & Z g.~.~.~.~.~.~.~.~.[ - . . . . . . . l w.~.~.~.~.~.~.~.G.~ . . . . . . . . l w.T.~.~.~.~.~.~.T.*.. . . . . . ",
"  ~.~.~.~.~.P @ . . . . . . & Z g.~.~.~.~.~.~.~.~.` = . . . . . . . l w.~.~.~.~.~.~.~.K.~ . . . . . . . . l w.T.~.~.~.~.~.~.T.*.. . . . . . ",
"  ~.~.~.~.~.P @ . . . . . . & Z g.~.~.~.~.~.~.~.~.[ = . . . . . . . l w.~.~.~.~.~.~.T.G.` . . . . . . . . l w.T.~.~.~.~.~.~.T.*.. . . . . . ",
"  <.<.<.<.,.~ Z Z V Z Z Z Z Z R &.<.<.<.<.<.<.<.,.` S Z Z Z Z Z Z Z T #.<.<.<.<.<.<.<.,.` V Z Z Z Z Z Z Z T #.,.<.<.<.<.<.<.,.| Z V Z Z Z Z ",
"  < < < < < &.Z.F.F.F.F.F.F.C.-.j < < < < < < < < ` C.Z.F.F.F.F.F.F.3.V < < < < < < < 7 [ F.F.F.F.F.F.F.F.3.m 4 < < < < < < 4 T F.F.F.F.F.F.",
"  . . . . . *.T.~.~.~.~.~.~.U.<.i . . . . . . . . ` K.~.~.~.~.~.~.~.w.l . . . . . . . > [ ~.~.~.~.~.~.~.~.w.l @ . . . . . . @ P ~.~.~.~.~.~.",
"  . . . . . *.T.~.~.~.~.~.~.U.,.f . . . . . . . . ` K.~.~.~.~.~.~.~.w.l . . . . . . @ - [ ~.~.~.~.~.~.~.~.w.l @ . . . . . . @ P ~.~.~.~.~.~.",
"  . . . . . *.T.~.~.~.~.~.~.U.,.i . . . . . . . . ` K.~.~.~.~.~.~.~.w.l . . . . . . . - | ~.~.~.~.~.~.~.~.w.l @ . . . . . . @ P ~.~.~.~.~.~.",
"  . . . . . *.T.~.~.~.~.~.~.U.,.i . . . . . . . . ` K.~.~.~.~.~.~.~.w.l . . . . . . @ - [ ~.~.~.~.~.~.~.~.w.l & . . . . . . @ P ~.~.~.~.~.~.",
"  . . . . . *.U.~.~.~.~.~.~.U.,.i . . . . . . . . ` K.~.~.~.~.~.~.~.w.l . . . . . . . - | ~.~.~.~.~.~.~.~.w.l @ . . . . . . @ P ~.~.~.~.~.~.",
"  [ | [ | [ ` ` ~ ` ` ~ ~ ` ` ` [ | [ [ | [ [ [ | ` ` ~ ~ ` ` ~ ~ ` ` [ [ | [ [ [ [ [ [ ` ` ~ ` ~ ` ~ ` ` ` [ [ | [ [ [ | [ [ [ ~ ` ` ~ ~ ` ",
"  ~.~.~.~.~.P @ . . . . . . @ Z g.~.~.~.~.~.~.~.~.[ = . . . . . . . l w.~.~.~.~.~.~.~.G.~ . . . . . . . . j u.T.~.~.~.~.~.~.U.*.. . . . . . ",
"  ~.~.~.~.~.P @ . . . . . . & Z g.~.~.~.~.~.~.~.~.[ = . . . . . . . l w.~.~.~.~.~.~.~.K.~ . . . . . . . . l w.T.~.~.~.~.~.~.T.*.. . . . . . ",
"  ~.~.~.~.~.P @ . . . . . . & Z g.~.~.~.~.~.~.~.~.[ = . . . . . . . l w.~.~.~.~.~.~.~.G.~ . . . . . . . . l w.T.~.~.~.~.~.~.T.*.. . . . . . ",
"  ~.~.~.~.~.P @ . . . . . . & Z g.~.~.~.~.~.~.~.~.` = . . . . . . . l w.~.~.~.~.~.~.T.K.` . . . . . . . . j w.T.~.~.~.~.~.~.T.*.. . . . . . ",
"  ~.~.~.~.~.P @ . . . . . . & Z g.~.~.~.~.~.~.~.~.[ = . . . . . . . l w.~.~.~.~.~.~.~.G.~ . . . . . . . . l w.T.~.~.~.~.~.~.T.*.. . . . . . ",
"  m.M.M.M.M.T 0 7 7 7 7 7 7 0 P 7.M.M.M.M.M.M.M.m.[ w 7 0 7 7 7 7 0 Z <.M.M.M.M.m.m.m.l.` 7 7 7 7 7 7 7 0 S <.c.M.M.M.M.M.m.c.#.7 7 7 7 7 7 ",
"  l j l j j | q.w.w.w.w.w.w.q.#.S l j l l l l l j ` q.w.w.w.w.w.w.w.*.U l l j l l j l c [ w.w.w.w.w.w.w.w.*.P l l l l l j l l R w.w.w.q.w.w.",
"  @ . @ . @ *.U.~.~.~.T.~.T.P.,.f @ . @ . . @ . . ` K.T.~.~.~.T.T.~.w.l . @ @ . @ . @ > [ ~.T.~.~.~.T.~.~.w.l & @ . @ . . @ & U ~.T.~.~.T.~.",
"  . . . . . *.T.~.~.~.~.~.~.U.<.i . . . . . . . . ` K.~.~.~.~.~.~.~.w.l . . . . . . . - [ ~.~.~.~.~.~.~.~.w.l @ . . . . . . @ P ~.~.~.~.~.~.",
"  . . . . . *.T.~.~.~.~.~.~.U.<.i . . . . . . . . ` K.~.~.~.~.~.~.~.w.l . . . . . . @ > [ ~.~.~.~.~.~.~.~.w.l @ . . . . . . @ P ~.~.~.~.~.~.",
"  . . . . . *.T.~.~.~.~.~.~.U.<.i . . . . . . . . ` K.~.~.~.~.~.~.~.w.l . . . . . . . - [ ~.~.~.~.~.~.~.~.w.l @ . . . . . . @ P ~.~.~.~.~.~.",
"  . . . . . *.T.~.~.~.~.~.~.U.<.i . . . . . . . . ` K.~.~.~.~.~.~.~.w.l . . . . . . . > | ~.~.~.~.~.~.~.~.w.j @ . . . . . . @ P ~.~.~.~.~.~.",
"  < 4 < 4 < #.C.Z.Z.Z.F.Z.F.C.*.l 4 4 4 4 < < 4 < ` m.Z.Z.F.Z.F.Z.F.3.V < 4 4 < < 4 < 0 [ Z.Z.F.Z.Z.F.Z.F.3.V 5 4 < 4 < 4 < 5 T Z.F.Z.Z.Z.F.",
"  x.x.x.l.x.R t r r r r r t t U 3.l.x.l.l.x.x.l.x.[ i r r r r t r r J -.x.l.x.x.x.l.x.d.` r r t t r r r r S -.l.x.x.l.x.l.l.l.X.r r t r r r ",
"  ~.~.~.T.~.P @ . . @ . . @ & Z g.~.T.~.~.T.~.~.~.` - . . @ . . . . l w.~.T.~.~.~.T.T.K.` . . . . @ . . . j w.T.~.~.T.~.~.T.U.*.. . @ . . @ ",
"  ~.~.~.~.~.P @ . . . . . . & Z g.~.~.~.~.~.~.~.~.[ = . . . . . . . c w.~.~.~.~.~.~.~.K.~ . . . . . . . . l u.T.~.~.~.~.~.~.T.*.. . . . . . ",
"  ~.~.~.~.~.P @ . . . . . . & Z g.~.~.~.~.~.~.~.~.[ - . . . . . . . l w.~.~.~.~.~.~.T.K.` . . . . . . . . l w.T.~.~.~.~.~.~.T.*.. . . . . . ",
"  ~.~.~.~.~.P @ . . . . . . & Z g.~.~.~.~.~.~.~.~.[ = . . . . . . . l w.~.~.~.~.~.~.~.G.~ . . . . . . . . l w.T.~.~.~.~.~.~.T.*.. . . . . . ",
"  ~.~.~.~.~.P @ . . . . . . & Z g.~.~.~.~.~.~.~.~.[ = . . . . . . . l w.~.~.~.~.~.~.~.K.~ . . . . . . . . l w.T.~.~.~.~.~.~.U.*.. . . . . . ",
"  u.w.w.w.u.R l j l l j l l l T -.u.w.w.w.w.u.w.w.` c l l j l j l l U *.u.w.u.w.u.w.w.7.` l j j l l j l l P &.w.w.u.w.w.w.u.w.X.l j l j l j ",
"  7 7 7 7 0 #.c.m.m.m.m.m.m.c.*.m 7 7 7 7 7 7 7 7 ` l.m.m.m.m.m.M.m.<.Z 7 7 7 7 7 7 0 t [ m.m.m.m.m.m.m.m.<.V w 0 7 7 7 7 7 w U m.m.m.m.m.m.",
"  . . . . . *.T.~.~.~.~.~.~.U.<.i . . . . . . . . ` K.~.~.~.~.~.~.~.w.l . . . . . . . - [ ~.~.~.~.~.~.~.~.w.j @ . . . . . . @ P ~.~.~.~.~.~.",
"  . . . . . *.T.~.~.~.~.~.~.U.<.i . . . . . . . . ` K.~.~.~.~.~.~.~.w.l . . . . . . . > [ ~.~.~.~.~.~.~.~.w.l @ . . . . . . @ P ~.~.~.~.~.~.",
"  . . . . . *.U.~.~.~.~.~.~.U.<.i . . . . . . . . ` K.~.~.~.~.~.~.~.u.l . . . . . . . - [ ~.~.~.~.~.~.~.~.w.l & . . . . . . @ P ~.~.~.~.~.~."
};
