/* XPM */
static char *_e87409587894a46bb2d49b564648185XQhIu2bFnVNBEtnV[] = {
/* columns rows colors chars-per-pixel */
"50 73 125 2 ",
"   c None",
".  c #1E0D00",
"X  c #1F1003",
"o  c #200E01",
"O  c #211205",
"+  c #251509",
"@  c #26180D",
"#  c #2A1A0E",
"$  c #2C1D12",
"%  c #31210F",
"&  c #2F2115",
"*  c #2F2318",
"=  c #312315",
"-  c #33251A",
";  c #372A1E",
":  c #382A1F",
">  c #372B20",
",  c #3A2C21",
"<  c #3D3126",
"1  c #3E3228",
"2  c #42342B",
"3  c #45382E",
"4  c #463B31",
"5  c #493C33",
"6  c #4B4036",
"7  c #4E433A",
"8  c #51453C",
"9  c #52483F",
"0  c #564B42",
"q  c #594E45",
"w  c #5B5046",
"e  c #5D534A",
"r  c #60554E",
"t  c #635951",
"y  c #695F56",
"u  c #6C635B",
"i  c #70665F",
"p  c #6E6760",
"a  c #6F6861",
"s  c #746C65",
"d  c #766F68",
"f  c #796F69",
"g  c #777069",
"h  c #7A736C",
"j  c #7E7671",
"k  c #807670",
"l  c #837B75",
"z  c #867E79",
"x  c #86807A",
"c  c #8A847D",
"v  c #8E8681",
"b  c #8E8883",
"n  c #918A85",
"m  c #948E89",
"M  c #96918C",
"N  c #99928D",
"B  c #9C9793",
"V  c #9D9793",
"C  c #9A9691",
"Z  c #9C9893",
"A  c #9D9993",
"S  c #9D9A93",
"D  c #9F9994",
"F  c #9D9894",
"G  c #9F9C98",
"H  c #A19D97",
"J  c #A09B96",
"K  c #A39C98",
"L  c #A39D98",
"P  c #A29D99",
"I  c #A49F9A",
"U  c #A49E9B",
"Y  c #A5A19C",
"T  c #A7A19D",
"R  c #A6A29E",
"E  c #A6A19D",
"W  c #A8A29E",
"Q  c #ABA6A1",
"!  c #AAA7A4",
"~  c #ADA7A5",
"^  c #AAA4A0",
"/  c #ACA8A4",
"(  c #ADA9A5",
")  c #AFAAA6",
"_  c #AEAAA7",
"`  c #ADACA7",
"'  c #ADA9A5",
"]  c #AFABA8",
"[  c #AFACA9",
"{  c #B0ABA6",
"}  c #B0ACA8",
"|  c #B1ACA9",
" . c #B1ADAA",
".. c #B1ADA9",
"X. c #B3B0AC",
"o. c #B5B1AF",
"O. c #B5B2AE",
"+. c #B5B2AF",
"@. c #B5B3AF",
"#. c #B7B2AF",
"$. c #B7B3AF",
"%. c #B5B2AF",
"&. c #B8B4AF",
"*. c #B5B3B0",
"=. c #B6B3B0",
"-. c #B6B5B2",
";. c #B7B5B3",
":. c #B7B4B0",
">. c #B9B5B1",
",. c #BAB7B3",
"<. c #BBB7B3",
"1. c #BAB7B4",
"2. c #BAB7B4",
"3. c #BBB9B6",
"4. c #BDBAB5",
"5. c #BCB9B6",
"6. c #BEB8B6",
"7. c #BEBBB7",
"8. c #BDBCB8",
"9. c #BFBEBC",
"0. c #BEBCB9",
"q. c #C1BEBA",
"w. c #C4C1BF",
"e. c #C3C0BE",
"r. c #C3C3C3",
/* pixels */
"                                                                                                    ",
"                                                                                                    ",
"                                                                                                    ",
"                                              0.:.;.                                                ",
"                                    4.h 4 + . . . . . . & q n                                       ",
"                                n , . . . . . . . . . . . . . . 9 )                                 ",
"                            N = o . . . . . . . . . . . . . . . . . 3 =.                            ",
"                          5 . . . . . . o ; q s z c z g e > O . . . . . u                           ",
"                       .$ . . . . O w D                       C 8 . . . o <                         ",
"                    D O . . . # l                                 w.q o . . # >.                    ",
"                  I o . . O p                                         W $ o . + >.                  ",
"                0.+ . . = o.                                              1 . . #                   ",
"                - . . 2                                                     1 X . <                 ",
"              t . . 2                                                         = . . u               ",
"            o.X . $                                                           o.O . X <.            ",
"            5 . o ]                                                             s . . 5             ",
"          :.. . e                                                                 $ . o X.          ",
"          e . O                                                                   z . . q           ",
"          + . 7                                                                     O . O           ",
"        ~ . . n                                                                     7 . . P         ",
"        h . .                                                                       z o . i         ",
"        9 . O                                   } P ,.                              ) o . 5         ",
"        > . $                       [ i i s 5 # > d u 7 x                             . . -         ",
"        $ . =                     t n     ) e } $ :.    D 7                           . . @         ",
"        # . @                   l c 4.    d :.  x u   h i M 3 [                       . . +         ",
"        = . .                   u     [   Q t   s l   Z     d                         . . #         ",
"        2 . . ~                 z R   m     l , e     ! m S e                       R . . :         ",
"        t . . d                   P j                     :.          9.            h . . 0         ",
"        n . . :             o.                                      s               2 . . l         ",
"          . . . }             z                                   e                 X . . o.        ",
"          4 . . 5             d F                               m t               h . . $           ",
"          D . . . N             -                               $                 # . . s           ",
"            , . . @             l 3                           h 9               s + % =             ",
"            3.O . . 1             # n                         + R             3.O % = h             ",
"              n . . . 9           j $                       l =               , O % <               ",
"                s . . . t           O z                     = s             0 O . = H               ",
"                  r . . o s         e *                   R . r.          q = . . u                 ",
"                    9 . . . z       | . U                 0 2           q . . . 4                   ",
"                      2 . . o U       = q                 O b         e . . . >                     ",
"                        - . o @       s +               n O         s . . . $                       ",
"                        6.O . . 9     :.. ]             7 9       Y . . . + 4.                      ",
"                          l . . . ^     $ j             O F       & . . . n                         ",
"                            ; . . 5     e q           Q +       v . . . 7                           ",
"                            c . . O     n ,           h e       7 . . . >.                          ",
"                            r.. . . :.  0.$           5 R       * . . >                             ",
"                              . . . H     @           $         O . . u                             ",
"                              . . . C     1           e         + . X x                             ",
"                              . . . C     y         ^ I         # . . b                             ",
"                              o . . C     n         M           : . . n                             ",
"                              $ . . C               1.          5 . . N                             ",
"                              3 . . m                           8 . . H                             ",
"                              u . . l                           2 . o ..                            ",
"                              R . . q                           o . .                               ",
"                                $ . @  .                    0.2 . . -                               ",
"                                S . . . O ; 0 y g j h u 4 + . . . . z                               ",
"                                  v + . . . . . . . . . . . . . . 5                                 ",
"                                      l 3 # . . o . o . . . . $ f                                   ",
"                                    o.          q.,.o.o.o.:.    w.2 ;                               ",
"                                  t . u                       u X . . w.                            ",
"                                  u . . 7 V         0.D s < . . . $ D                               ",
"                                    2 . . . . . . . . . . . . # f                                   ",
"                                      l ; o . o o . . O - r D                                       ",
"                                      J     } P G Q q.        z = z                                 ",
"                                      . - z ) 0.q.&.R v u < X . + m                                 ",
"                                      a X . . . . . . . . O 4 v                                     ",
"                                          c s y y s z C 1.  Q                                       ",
"                                        6.$ l          .j , . 7                                     ",
"                                          $ . . X . . . X O e                                       ",
"                                            z 0 5 5 q s H                                           ",
"                                                  z x e m                                           ",
"                                                  P b :.                                            ",
"                                                                                                    ",
"                                                  r.r.r.                                            "
};
