/* XPM */
static char *b98dffa1c83e4fc7d52d40db21c7e72cuDnuoChN4TL0eXo4[] = {
/* columns rows colors chars-per-pixel */
"52 82 139 2 ",
"   c None",
".  c #1E0D00",
"X  c #1F1002",
"o  c #200F03",
"O  c #211104",
"+  c #25150A",
"@  c #2A1A0C",
"#  c #2C1D11",
"$  c #322315",
"%  c #382716",
"&  c #392B16",
"*  c #33251B",
"=  c #3E2F1C",
"-  c #3A2C22",
";  c #3C3127",
":  c #42311B",
">  c #473A1D",
",  c #44382E",
"<  c #453A32",
"1  c #544528",
"2  c #5A4C2C",
"3  c #5F522F",
"4  c #4D4338",
"5  c #504534",
"6  c #54473E",
"7  c #6A5D31",
"8  c #6F613F",
"9  c #544940",
"0  c #594F46",
"q  c #5C5047",
"w  c #5E544C",
"e  c #665B40",
"r  c #60564D",
"t  c #655A51",
"y  c #6B604A",
"u  c #7A6D4A",
"i  c #6D645C",
"p  c #796C53",
"a  c #70665F",
"s  c #756C59",
"d  c #736B63",
"f  c #786E66",
"g  c #7C736C",
"h  c #7F7973",
"j  c #81754A",
"k  c #807771",
"l  c #837B74",
"z  c #877F7B",
"x  c #FF8406",
"c  c #FF8905",
"v  c #FF8F0C",
"b  c #FD960E",
"n  c #FD9A0E",
"m  c #FE9F11",
"M  c #FBAA0E",
"N  c #FABA0F",
"B  c #FCA315",
"V  c #FAAF11",
"C  c #F9A718",
"Z  c #F9B210",
"A  c #F9B41D",
"S  c #F6BF1C",
"D  c #F8B818",
"F  c #FBA323",
"G  c #FAAA23",
"H  c #FCA82E",
"J  c #F9B222",
"K  c #FAAD39",
"L  c #FAB233",
"P  c #F7C61C",
"I  c #F9C31B",
"U  c #F7C91C",
"Y  c #F5DB16",
"T  c #F7DE1D",
"R  c #F5E416",
"E  c #F4E41B",
"W  c #F6CC24",
"Q  c #FFD227",
"!  c #F5D62D",
"~  c #FFD229",
"^  c #F3DD2B",
"/  c #F5C035",
"(  c #FDCE34",
")  c #F6C738",
"_  c #F6CB3C",
"`  c #FDCE3C",
"'  c #FED333",
"]  c #FED43B",
"[  c #F5DB3E",
"{  c #F2E421",
"}  c #F3E12D",
"|  c #F3E433",
" . c #F3E43C",
".. c #958B5E",
"X. c #9D935B",
"o. c #A4995E",
"O. c #ABA15D",
"+. c #B8AE5F",
"@. c #8E8262",
"#. c #938960",
"$. c #89837C",
"%. c #ACA162",
"&. c #B2A864",
"*. c #F5CD45",
"=. c #F7CC4D",
"-. c #FED544",
";. c #F4D74E",
":. c #FDD74B",
">. c #FCD84E",
",. c #FDD852",
"<. c #F3E643",
"1. c #D1C770",
"2. c #D0C976",
"3. c #8F8781",
"4. c #8E8982",
"5. c #918B83",
"6. c #9B9383",
"7. c #96928C",
"8. c #9B958F",
"9. c #9E9994",
"0. c #A29D98",
"q. c #B0A783",
"w. c #B8B08C",
"e. c #A6A29E",
"r. c #A8A29D",
"t. c #AFAA9A",
"y. c #B5B09E",
"u. c #A8A4A1",
"i. c #ADA8A3",
"p. c #B1AEAA",
"a. c #B4B1AF",
"s. c #B6B3B0",
"d. c #B8B5B1",
"f. c #BEBBB8",
"g. c #C0B684",
"h. c #C0B88A",
"j. c #C1BEBC",
"k. c #CBC482",
"l. c #C6C1C1",
/* pixels */
"                                                                                                        ",
"                                                                                                        ",
"                                                                                                        ",
"                                                                                                        ",
"                                                                                                        ",
"                                                                                                        ",
"                                                                                                        ",
"                                                                                                        ",
"                                                                                                        ",
"                                                                                                        ",
"                                                                                                        ",
"                                                                                                        ",
"                                                                                                        ",
"                                        ] Q ~ ~ ~ ~ ~ ~ ~ ~ Q '                                         ",
"                                    ~ ~ ~ ~ Q ~ ~ ~ ~ ~ ~ ~ ~ ~ ~ ~ >.                                  ",
"                                ] ~ ~ ~ ~ ~ Q ' :.        -.~ ~ ~ ~ ~ Q                                 ",
"                              ~ ~ ~ ~ ~                           ] Q ~ ~ ]                             ",
"                            ~ Q ~ ~                                   ] ~ ~ ~                           ",
"                          Q ~ Q                                           ~ ~ ~                         ",
"                        ~ ~ ]                                               ~ ~ ~                       ",
"                      Q ~ ]                                                   ~ ~ ]                     ",
"                    ' ~ ]                                                       ~ ~                     ",
"                    ~ ~                                                         :.~ ~                   ",
"                  ~ ~                                                             ~ ~ >.                ",
"                  ~ '                                                               ~ ~                 ",
"                ~ ~                                                                 ~ ~                 ",
"                Q ~                                                                 ] ~ '               ",
"                ~ '                              . .|  .<.                            ~ ~               ",
"                ~ -.                           .} P D S ! <.                          ~ ~               ",
"              :.~ >.                    L G J B c x Z N M C [                         Q ~               ",
"              ] ~ ,.                  H ;.   .b Y Z m E T A v /                       Q ~               ",
"              -.~ -.                K =.=._  .m E Y v E V W [ F                       ~ ~               ",
"              :.~ ~                 K     _  .S n n M R I [ <.F                       Q ~               ",
"                ~ ~                   H L _ <. .W U E { ^ A G *.                      ~ ~               ",
"                ~ ~                           <. .| } |  .          1.o.            -.~ Q               ",
"                ~ ~ ]             X.              <.<.<.            3               ~ ~ ]               ",
"                ] ~ ~             j O.                            7 %.              ~ ~                 ",
"                  ( Q ]             & 2.                        +.:               ' ~ ~                 ",
"                  *.` `             ..2                         > X.              ~ ~ >.                ",
"                    ] ( '             : X.                    &.@               ~ ~ Q                   ",
"                      ` ' `           @.%                     1 8             ] ~ Q                     ",
"                        ( ` (           @ ..                k.X g.          :.~ ~ ]                     ",
"                          ( ~ '         e =                 u :           -.~ ~ ~                       ",
"                            ~ ~ ]       w.. h.              @ @.        >.~ ~ ~                         ",
"                            -.Q Q -.      $ p             q.O           ~ ~ ~                           ",
"                              ] ~ ~       s =             y 5         ~ ~ ~                             ",
"                                Q ~ ~     p.X             $ 6.      ~ Q Q :.                            ",
"                                  ~ ~       + t.          O         ~ ~ ~                               ",
"                                  Q ~ '     4 5.        5.0       ~ ~ ~                                 ",
"                                  ~ ~ Q     g g         r 0.      ~ ~ ~                                 ",
"                                  ' ~ Q     u.d         ;         ~ ~ ~                                 ",
"                                  ~ ~ Q       d         w         ~ ~ ]                                 ",
"                                  ] Q Q       h         0.        ~ ~ ]                                 ",
"                                  -.~ ~       u.      a.          ~ ~ ]                                 ",
"                                    ~ ~                           ~ ~ -.                                ",
"                                    ~ Q                           ~ ~ ,.                                ",
"                                    ~ ~                           ~ ~                                   ",
"                                    ] ~ :.                      -.~ ~                                   ",
"                                      ~ ~ ~ ] ,.            ~ ~ ~ ~ '                                   ",
"                                        ' Q Q Q ~ ~ ~ ~ ~ ~ ~ ~ ~ ~                                     ",
"                                              :.] ' ~ ~ ~ ~ ~ ]                                         ",
"                                      j.l                         t . i                                 ",
"                                      < . w                 d.i + o X $.                                ",
"                                      7.. . + 6 d g f t , + . . . - i.                                  ",
"                                        5.# . . . . . . . . + 9 0.                                      ",
"                                            e.g t w t d 4.s.    p.d                                     ",
"                                        s.O g           f.9.d * . +                                     ",
"                                          ; o o . O o . . . o - l                                       ",
"                                            0.f t t i g 3.i.  u.                                        ",
"                                            k - e.    l.r.f * . z                                       ",
"                                            i.+ . . . . . O * $.                                        ",
"                                                8.h g $.8.d.                                            ",
"                                                    q , ; u.                                            ",
"                                                                                                        ",
"                                                                                                        ",
"                                                                                                        ",
"                                                                                                        ",
"                                                                                                        ",
"                                                                                                        ",
"                                                                                                        ",
"                                                                                                        ",
"                                                                                                        "
};
