/* XPM */
static char *a1bb7fe39460478cf10d03d8ac711d218TLHFkP9LEQEoY9H[] = {
/* columns rows colors chars-per-pixel */
"70 70 221 2 ",
"   c #005696",
".  c #00579A",
"X  c #055A98",
"o  c #00599C",
"O  c #00609E",
"+  c #005CA3",
"@  c #005FA8",
"#  c #0064A5",
"$  c #096AA6",
"%  c #0065AB",
"&  c #006AAE",
"*  c #1372AA",
"=  c #0066B0",
"-  c #006CB2",
";  c #0072B5",
":  c #0275B9",
">  c #0A76BC",
",  c #017BBC",
"<  c #2978B0",
"1  c #057DC1",
"2  c #0A7DC3",
"3  c #0181BE",
"4  c #0A81BD",
"5  c #3D89BA",
"6  c #4185B9",
"7  c #5993BC",
"8  c #0384C3",
"9  c #0982C6",
"0  c #0489C6",
"q  c #0A85C9",
"w  c #068CC9",
"e  c #0B8BCD",
"r  c #1487CA",
"t  c #0791CC",
"y  c #0992CE",
"u  c #0D8ED0",
"i  c #148ED2",
"p  c #0C94D2",
"a  c #0C9AD5",
"s  c #0D9CD9",
"d  c #1194D4",
"f  c #1299D6",
"g  c #1A9AD7",
"h  c #139DDB",
"j  c #3498CD",
"k  c #259AD5",
"l  c #0EA4DC",
"z  c #0FA8DF",
"x  c #12A2DE",
"c  c #19A3DD",
"v  c #18A9DF",
"b  c #29A7DC",
"n  c #3DA4D9",
"m  c #3CABDE",
"M  c #1B9DE0",
"N  c #0FAAE2",
"B  c #14A5E1",
"V  c #1AA4E2",
"C  c #13ABE4",
"Z  c #1AABE5",
"A  c #1EA6E8",
"S  c #16AEE8",
"D  c #1CACEA",
"F  c #02BCE5",
"G  c #0ABBE6",
"H  c #12B1E7",
"J  c #14B4EA",
"K  c #1AB4EC",
"L  c #15BBEE",
"P  c #17BDF1",
"I  c #1BBCF3",
"U  c #22ACE5",
"Y  c #22ACED",
"T  c #38ADE6",
"R  c #25B0EC",
"E  c #38B6E8",
"W  c #26B8F5",
"Q  c #3ABBF5",
"!  c #4E8FC2",
"~  c #4797C7",
"^  c #5995C3",
"/  c #599AC5",
"(  c #569BC9",
")  c #599DCB",
"_  c #59A2CE",
"`  c #4CA9D9",
"'  c #57A6D1",
"]  c #5AA5D1",
"[  c #5BAAD4",
"{  c #5BADD5",
"}  c #5CAED7",
"|  c #5FACD8",
" . c #5DB1D9",
".. c #5EB3DB",
"X. c #5FB8DF",
"o. c #68A6CB",
"O. c #60AAD7",
"+. c #61AEDA",
"@. c #62B2DE",
"#. c #6DB5DD",
"$. c #61B8DF",
"%. c #76B2D5",
"&. c #54AFE2",
"*. c #46B7E9",
"=. c #5BB9E6",
"-. c #63B5E1",
";. c #63BBE3",
":. c #6ABAE6",
">. c #67BEE9",
",. c #69BEE9",
"<. c #76BCE4",
"1. c #04C3EA",
"2. c #09C4EC",
"3. c #05C9ED",
"4. c #0ACAEE",
"5. c #0DC6F2",
"6. c #0BCBF2",
"7. c #12C5F4",
"8. c #1AC2F6",
"9. c #12CAF6",
"0. c #1DC5F9",
"q. c #16CBFA",
"w. c #1BCCFC",
"e. c #0ED0F6",
"r. c #14D2FC",
"t. c #1CD3FD",
"y. c #1CDAFE",
"u. c #23C4FB",
"i. c #23CCFE",
"p. c #2AC8FC",
"a. c #36CAFA",
"s. c #24D3FE",
"d. c #2BD5FE",
"f. c #23DBFE",
"g. c #2ADFFF",
"h. c #36D7FE",
"j. c #2BE1FF",
"k. c #53C2EB",
"l. c #5BD3EE",
"z. c #4DC9FA",
"x. c #53C2F9",
"c. c #52CDFB",
"v. c #46D8FD",
"b. c #5EDAF3",
"n. c #53D1FD",
"m. c #5CD6F8",
"M. c #64C0E7",
"N. c #66C4EB",
"B. c #6AC3ED",
"V. c #6AC9EF",
"C. c #78C7EB",
"Z. c #6DC6F1",
"A. c #6CCBF3",
"S. c #68CFF7",
"D. c #71CEF5",
"F. c #71CFF9",
"G. c #61D6F5",
"H. c #6DD1F6",
"J. c #62DBF7",
"K. c #6ED5F9",
"L. c #65DCF9",
"P. c #6ADEFD",
"I. c #78D3F7",
"U. c #73D4FC",
"Y. c #75DBFE",
"T. c #79DCFE",
"R. c #4CE4FE",
"E. c #5AE6FE",
"W. c #6BE3FE",
"Q. c #68E7FE",
"!. c #74E3FE",
"~. c #7AE4FE",
"^. c #73ECFE",
"/. c #7BEAFE",
"(. c #76F0FE",
"). c #7AF2FE",
"_. c #88C7E8",
"`. c #95CDEC",
"'. c #9CCEE9",
"]. c #88D0EF",
"[. c #93D3ED",
"{. c #9BD2EE",
"}. c #86D8F8",
"|. c #9DD3F1",
" X c #98DDF8",
".X c #AED7EE",
"XX c #A4D3F0",
"oX c #ACD5F0",
"OX c #A8DFF5",
"+X c #B7D8F1",
"@X c #BCDAF2",
"#X c #89E6FE",
"$X c #83ECFE",
"%X c #96E3FE",
"&X c #94EBFD",
"*X c #9AE8FC",
"=X c #85F5FE",
"-X c #8AF6FE",
";X c #87FBFE",
":X c #9AF7FE",
">X c #AAE5FB",
",X c #B6E7F9",
"<X c #A8F6FE",
"1X c #B4F3FD",
"2X c #BEF8FE",
"3X c #C4DEF3",
"4X c #C8E6F6",
"5X c #D7E9F6",
"6X c #DBECF7",
"7X c #C3F6FD",
"8X c #CBF2FE",
"9X c #D5F4FD",
"0X c #DBF5FD",
"qX c #D4FAFD",
"wX c #DEFAFE",
"eX c #E3F5FD",
"rX c #EDF7FB",
"tX c #E4F9FE",
"yX c #ECFAFD",
"uX c #F4FCFE",
"iX c #FEFFFF",
/* pixels */
"+XoX{.o./ 7 7 7 7 7 / / / / 7 / ^ ^ ^ ) ) ) ) ^ ^ ^ ) ) _ _ _ ^ ) ^ ( ^ ] _ _ ) ^ ^ ^ ^ ) ) ) ) / ^ ^ 7 ^ / / / / 7 7 7 7 7 / _ '.'..X3X4X5X",
"XX`./ / 7 7 7 7 7 / / / / 7 7 7 ^ ^ ) ] ) ) ^ ) ) ^ _ _ _ ] ^ ) ) ) ) ' ' _ ] ^ ) ^ ) _ ] ) ) / ^ ^ ^ ^ ) / / / ^ 7 7 7 7 / 7 7 7 %.XX.X3X3X",
"'._ / 7 7 7 7 7 / / / / 7 ^ 7 / ^ _ ) ) ) ^ ^ ^ ^ _ ] ] ] / ) / ( ) ] ] ] _ ) ( / / _ _ ) _ ( ( ^ ^ ^ ) ) ) ^ ^ 7 ^ 7 ^ / / _ 7 7 7 %.XX+X3X",
"_ 7 7 7 7 7 7 / / / / 7 ^ 7 7 _ _ ) _ ) / / / ) ' ' ] ] _ ) ) ) ) | [ ] ] ) ) ) ) ' _ _ ] ) ^ ^ ^ / ) ) ) / ^ ^ ^ 7 ^ / / _ 7 7 7 7 7 _..X+X",
"7 7 7 7 7 7 / / / / ^ ^ ^ 7 ) _ _ _ ) ( / / ) ' ' ' ] ) _ _ _ ] | | [ | _ ) ) ) ' ' ' ' ) ) / / ( _ ) ) ) ^ ^ ^ 7 / / ^ / / 7 7 7 7 / 7 |..X",
"7 7 7 7 7 / / / ) 7 ^ ^ ^ _ _ _ _ ) ) ) ) ) ' ' ' [ ] ) _ _ ' [ [ } } ] ] ] ] [ { [ ' ] ) ) ) _ _ ' ] _ ( / ^ ^ / / _ _ 7 7 7 7 7 7 / / %.XX",
"7 7 7 7 / / / _ ^ ^ ^ ^ / ) _ _ _ ) ) ) _ ] [ [ [ ] ] ] | | } @.=.@.+.O.] ] | | { | ] ) _ ) _ ' ' ' _ ) ^ ^ ^ ) _ / _ 7 7 7 7 7 / / / 7 7 [.",
"7 7 7 / / / / 7 ^ ^ ^ / _ _ _ _ ) ) ) _ } } { [ ] ] ] ] O.+.-.=.@.+.+.+.O.@.@.&.| O.] ] ] ] [ ' | ' ) / ^ ) _ _ _ _ _ 7 ^ 7 7 / / / / 7 7 _.",
"7 7 / / ) / ^ ^ 7 ^ _ _ _ ' _ ) ) ] _ } }  . .+.] | | } X.=.;.;.-.XX<.#.;.=.@.X. .] | ] [  . . .| _ ) ) ) ) ] ) _ / ^ ^ ^ ^ / / / / 7 7 7 o.",
"7 / / ( / 7 ^ ^ ^ ) _ _ _ _ / _ ) _ O. ...@.+.} O.O. .$.;.;.;.-.eXiXiXC.>.;.;.@.@.{ O.+.@.@.@. .] ] ] ) ] ' ' ' ) ^ ^ ^ ^ / ) / ^ ^ 7 7 7 7 ",
"/ / / / ^ ^ ^ ^ ) _ _ ' ] ) ) _ _ }  .X.;.+.+.+.+.-.;.;.;.M.-.:.iXiXiXOXN.>.-.-.@.@.@.;.;.;.;.O.O.] ] ] ' ' ] _ / ^ ^ ^ ) ) ) ) ^ 7 7 7 7 7 ",
"/ / / 7 ^ ^ ^ ( _ _ _ _ ) ) ) _ } { X.-.@.<._.-.-.M.M.>.N.;.:.:.iXiXiX,XB.>.>.;.-.-.M.>.C.].+.+.O.O.} } ' ' ] ) ) / / _ ) _ / ^ 7 ^ 7 ^ / / ",
"/ / ^ ^ ^ ^ ( _ _ ] ' ) ) ) _ |  . .;.@.<.iXiXeXN.N.N.N.:.,.,.B.iXiXiX,XB.,.,.:.,.N.N.].iXiX6X@.+.@. .} [ ' ) ) ) / _ ) _ _ ^ ^ ^ 7 ^ / / / ",
"/ ^ ^ ^ ^ ) ) ] ' _ ) ) ) _ [ |  .X.@.@.'.iXiXiX].A.A.B.Z.Z.Z.U.iXiXiX,XZ.Z.Z.B.A.B.V.uXiXiXuX-.-.-. .} [ ] _ ) ) ' ' ] _ ^ ^ ^ 7 ^ / / / / ",
"7 ^ ^ ^ / _ _ ] _ ( ) _ _ } {  .=.+.-.-.:.iXiXiXuXA.Z.A.A.A.K.Y.eXiXiX}.F.A.F.K.H.H.>XiXiXiXXX,.M.=.X. .] ] ) ] ] [ ] ' ) ^ ^ ^ ^ _ ) / / 7 ",
"^ ^ ^ ^ ) _ _ _ ) ) ) ] [ } } =.+.@.-.-.>.OXiXiXiX>XA.F.F.Y.Y.Y.Y.>X}.Y.U.U.Y.U.K.U.iXiXiXiXN.N.M.;.-.} ] ] ' [ [ [ ] _ / / ^ / ) / ) / 7 ^ ",
"^ 7 / ) _ _ _ ) ) _ ] } .. .X.+.+.-.-.>.A.A.uXiXiX0XF.U.Y.Y.Y.~.Y.Y.T.Y.Y.Y.!.T.Y.}.iXiXiX}.S.V.N.>.@.@.| }  .|  .{ _ ) ) ) ^ ) _ ) / ^ 7 ^ ",
"^ ^ ) _ _ _ / ) ) ] | ..X.-.@.+.-.-.>.V.A.H.}.iXiX}.T.T./././.~.T.#XT.T././.~.~.Y.U.eXiX8XK.A.Z.A.;.-.+. .;.$. . .' _ ) ) ) _ ] _ ) ^ 7 ^ 7 ",
"^ ) _ _ ) ) ) _ _ }  .@.=.@.@.-.;.>.V.S.H.U.K.U.T.T.~./.$X1XeXuXiXiXiXiXuX8X#XT.T.T.U.T.Y.K.K.Z.N.:.;.-.;.;.;. .+.] ] _ _ ] _ _ ) ^ ^ ^ 7 / ",
") _ _ ) ) ) ) _ [  .X.X.@.@.:.:.,.Z.A.H.H.F.U.Y.Y./.$XwXiXiXiXiXiXiXiXiXiXiXiXuX*XT.!.!.Y.Y.K.Z.B.B.,.N.N.;.;.@.O.] O.) ] ] ] _ ^ ^ ^ ^ / / ",
") ) _ ^ ) ( ) | }  .;.@.`.iXrXC.V.A.A.U.F.U.U.T./.2XiXiXiXiXiXiXiXiXiXiXiXiXiXiXiXrX$X/.Y.Y.K.A.B.Z.Z.V.,XuX6X@.+.] | } [ ' ] / ^ ) ^ ) ) / ",
") ) ) ) ( ) ] |  .@.@.-.uXiXiXiX9XK.U.F.U.Y.T./.tXiXiXiXiXiXiXiXuXtXyXiXiXiXiXiXiXiXiX&X/.U.U.F.D.U. XiXiXiXiX_.+.}  .} [ ' ) ) / ^ / ) ) / ",
") ( ^ ) ) ' ] | } } +.@.6XiXiXiXiXiXT.U.Y.T.$XyXiXiXiXiXiXwX=X).).).)././.<XiXiXiXiXiXiX%XT.Y.U.U.eXiXiXiXiXiX<.-.-.&.} [ ) ) ) / _ ) ) / / ",
"^ ^ ^ ) ' ' { { | O.+.@.:.,XiXiXiXiX,XU.T./.tXiXiXiXiXtX-X=X:X).).^.!.!.!.!.^.<XiXiXiXiXuX#XT.Y.Y.iXiXiXiXrXC.@.;.;...| ) ) ) ) _ _ _ _ / ^ ",
"! ) ) ] ' [ { [ ] O.@.@.N.N.D.0XiXiX}.Y./.1XiXiXiXiX7X;X2XiX:X(.(.!.!.!.P.!.^.).=XiXiXiXiXuX/.!.Y.yXiXuX|.N.>.M.;.X.@._ _ ) ) ' _ _ _ / ^ 6 ",
"@ = ~ _ ' ' _ ] [ O.@.M.N.V.V.Z.I.I.Y.!./.iXiXiXiX7X;XwXiXiX-X(.!.W.P.P.W.W.^.^.^.$XiXiXiXiX1X!.!.U.I.D.B.M.N.M.=.X.[ O.] ) ] ' O._ / < @ + ",
"@ ; ; : r ( ) O.[ +.;.M.N.N.B.A.H.U.Y./.2XiXiXiXuX;XqXiXiXiX-X!.W.P.L.L.W.W.Q.!.!.!.*XiXiXiXiX/.Y.U.K.A.Z.V.N.N.;.+.} ] ] [ ' ' j > @ @ + @ ",
"- ; : , - - : 2 ' $.=.M.N.M.B.A.K.Y.!./.uXiXiXiX=X:XiXiXiX=X^.W.W.J.J.J.b.L.P.W.!.^./.yXiXiXiX#XT.Y.K.H.H.V.B.M.@.@.} [ } j 4 , - % % @ + & ",
"; ; : ; - - ; 1 0 t a m =.M.Z.A.U.!././.iXiXiXuX;XuXiXiX<X^.W.W.L.b.b.b.b.J.J.P.P.!.^.:XiXiXiX1XY.U.U.K.H.Z.V.;.=.` j 0 8 3 , : % % % @ - & ",
"; : - = - ; : 0 t t p e p d c E c.P.!.$XiXiXiX7X;XiXiXyX(.^.W.L.L.b.b.b.l.m.G.L.P.^.^.).iXiXiX0X~.Y.Y.P.l.*.g d q 8 0 w 0 3 , & - % % - - & ",
"; & % - - : 9 w t y e e p f B J L I I c.iXiXiX:X:XiXiX:X^.Q.W.J.E.b.l.l.l.l.G.J.W.^.^.).iXiXiXyXa.u.P J Z f d p e u t w w , ; - & % ; ; & - ",
"& % % - ; 8 0 w t e n n m T E K L I W n.iXiXiXE.:XiXiXh.t.q.9.6.4.2.G G G G G 7.9.r.t.w.uXiXiXrX0.I I J U T m n T k p e 9 : - - & : ; - - # ",
"% % % - 1 8 0 w 9 6XiXiXiXiXiX,XL K I z.iXiXiXQ.<XiXyXs.r.e.e.4.1.1.F F F F 1.2.6.r.t.w.uXiXiXeXw.I L R iXiXiXiXiXiXb 0 > : - - , : ; - # + ",
"% % - , , 8 0 2 q iXiXiXiXiXiXrXZ D I a.iXiXiX$X&X&Xs.r.r.e.6.3.1.1.F F F 1.4.4.9.q.w.i.iXiXiX1X0.8.S V.iXiXiXiXiXiX@.9 > , ; 1 , : ; % % + ",
"@ = , , 1 8 1 1 2 '.iXuXiXiXiXZ.B K I i.iXiXiXtXd.f.t.t.r.e.6.3.1.1.F F 1.3.4.9.9.q.w.v.iXiXiXP.0.K S Z rXiXiXiXiXrXr 9 > : 8 , : : = @ + @ ",
"= ; , , , ; : 1 2 p g c v v h B S S 8.w.9XiXiXiXf.s.y.r.r.e.6.F 1.F F 1.3.4.4.9.q.w.i.8XiXiXiXp.I J Z B C Z v x g e 9 1 1 8 8 , , = = @ @ % ",
"; : , , - : : 1 w p a s s h s B B L 8.w.m.iXiXiX7Xt.y.y.r.e.5.1.1.1.1.3.3.4.6.q.q.w.d.iXiXiXeXI K S Z N N N l s e e 8 1 0 8 , , - = % @ # ; ",
"; ; : - - ; : 9 w p a a p d h s J J P w.u.uXiXiXiXE.y.y.r.5.5.1.F 1.3.3.4.6.5.q.w.s.tXiXiXiXc.I L S H H N B s u e q 8 w 0 8 3 - - % % % - & ",
"; ; % - - - 1 0 w t t e p p a C H J P K I n.iXiXiXiXR.y.r.q.5.5.3.3.3.6.5.5.q.w.t.9XiXiXiXyXI I S J H H N l p u q 2 w 0 8 8 ; - = % & ; - & ",
"; % % - - , 8 0 0 w q w e p z C H J S J I 8.9XiXiXiXuXh.w.q.7.6.6.6.6.5.5.9.q.t.wXiXiXiXiXp.I I L L H C N p u u q p w 0 8 ; - - - & ; - ; & ",
"% % = - ; , 8 8 0 1 0 e u l z C H N C J K 8.s.uXiXiXiXuXd.w.r.6.6.6.6.5.5.q.t.1XiXiXiXiXY.I I P 2.J H C s p p w p t 0 0 : - - - & : ; ; & + ",
"@ % % ; , , 3 8 : 1 9 q a s z v D.*.N S P 8.w.v.iXiXiXiX0Xt.t.r.w.6.7.q.q.t.E.iXiXiXiX8X0.P P P J K ].T s d e a p t 0 1 ; - - - , : ; & + + ",
"@ % - , , , , : : 1 8 p s l N.uXiXiXT H P 0.w.w.#XiXiXiXiXQ.y.r.w.q.q.0.w.y.iXiXiXiXrXu.P 8.7.L J rXiXiX5Xg s a t w 1 : - - ; 1 : : - @ + + ",
"@ - ; : , , - ; : 1 t a b rXiXiXiXiXk.H L P 8.I u.0XiXiXiXiXf.t.w.w.w.w.t.<XiXiXiXiXa.0.8.8.L J H uXiXiXiXiX].a p 0 , ; ; ; , : ; : @ @ + + ",
"% ; : : : - - ; : w p p uXiXiXiXiX0XN H J L L I u.p.iXiXiXiX!.s.t.w.s.f.f.iXiXiXiX>Xu.w.0.L L H v =.iXiXiXiXiX` q 2 : : : , , , ; @ @ @ + % ",
"- ; : ; & - - - 8 0 w p uXiXiXrX*.N N H H C J I I s.2XiXiXiX9Xs.s.s.f.f.R.iXiXiXiXp.u.w.8.L H B x s g ,XiXiXiX` 8 2 : , 1 , , : % % @ @ & % ",
"& ; - % % - - 8 8 0 w q j 4X<.a l l N N x B S I w.i.h.iXiXiXiXd.d.j.j.j.&XiXiXiX8Xi.w.0.8.J B s s a l l b ,X#.q 2 1 , 8 , , : % @ @ @ & & & ",
"& & @ % = % , 1 8 0 8 1 1 9 t s l l l s h B S I u.s.d.uXiXiXiXd.j.j.g.g.1XiXiXiXv.s.i.0.L B B s a l s l s e q 1 1 1 8 3 , : - % % # & & & % ",
"& # @ % % , , , 3 , 1 1 1 0 p a a s p a s B K a.a.i.p.0XiXiXiXuXuXiXuXiXiXiXiXiXd.i.p.a.K B h s l l s a e 9 8 1 1 0 3 , , = % % % & & & & # ",
"+ + + % ; : : , ; ; ; 1 1 w t p p u p a s C }.iXuXm.u.8XiXiXiXiXiXiXiXiXiXiXiXiXd.i.rXiXuXB h z l s a w 8 8 1 1 8 8 3 , - - % % - - - & # o ",
"+ + @ - : : , - - - ; > 0 0 w t q e w p x Z iXiXiX>Xu.U.iXiXiXiXiXiXiXiXiXiXiXyXd.a.iXiXiX].x l s s w 8 1 1 , 8 8 3 , - - % % - - & % % + o ",
"+ + - - - ; - - - - ; 8 8 0 0 8 1 0 e a B ,XiXiXiX*.W p.#XwXtXtXtXeXtXeXtXtX,Xh.i.W eXiXiXiXv l s e 9 1 1 , 0 8 , , - - = = - - - & % o o o ",
"o % & - ; & = % - - , 3 3 3 : , 1 8 p a b iXiXiX8XD W i.m.%X%X%X%X%X X%X%X&X#Xa.W W E uXiXiX4Xh t 8 1 1 , 8 3 3 , - - & % ; ; - & % o + o o ",
"% & & & % @ % % - , , , , ; : : , w p a {.iXiXiXA D u.m.iXiXiXiXiXiXiXiXiXiXiX0XW Y Y ,XiXiXuXy q 8 1 , 8 8 3 , - - = % - ; - - % + + o o # ",
"% & & # + % % % : , , , - - ; : 8 w t y b iXiX<.V K W %XiXiXiXiXiXiXiXiXiXiXiXiXY A D U uXiX@Xq 9 1 8 8 3 3 , - - = % ; ; ; - % + o + O # # ",
"# & + + + + % - : : , - - - - 1 8 0 t w 9 r g d B S K Q iXiXiXiXiXiXiXiXiXiXiX].Y K Z B x g q 9 2 1 0 8 3 , - - - % ; : - - & + + + o # # & ",
"% + o + + # - ; ; ; = = - - , , 8 0 8 1 1 q e s h B A Y Y Q *.c.n.n.n.c.x.x.W Y D Z B h p q 8 1 1 8 8 0 , - - - = ; ; ; - % + + o + # # # # ",
"+ o o + + & & - & % % = = : , , 1 1 ; : 1 1 t p s h d M T iXiXiXiXiXiXiXiXiX4XA Z x s e q 1 1 1 8 8 8 , - - % % ; ; ; - & + + + + # & # # o ",
"o . o o & & & & # @ % % ; , , , 1 - ; ; : 0 w e p u i g Z.iXiXiXiXiXiXiXiXiXuXD h h u 2 2 1 1 8 8 3 , - - = & ; ; ; - & + o o + # & # # o X ",
"  . o & # & & + + % @ - ; : , , - - - ; 8 0 0 0 q 2 q i b uXiXiXiXiXiXiXiXiX,Xx h u 2 2 : > 8 3 3 , - = - = ; : ; - & + + + + % & # # X X   ",
"  o # # % % + + + + & ; ; : ; & - - - , , 8 8 1 1 2 2 i h A *.4XiXiXiXiX*.E M h e 2 1 : , 3 3 , , - & = % ; ; ; - & + + + o % % # & X   X X ",
"o # # & % o o + + & & - ; & % % % & : , , , - - - 1 1 u p h M &.iXiXiXeXV h f e 2 > : : 3 , , , - - = % ; ; ; & & + + + + % & # # o       ! ",
"# # # # o o o o # & & - - @ @ % % : , : , - - - - , 0 e u i r i r i h h f d r 2 > : : , , , , = = = % - ; ; - % + + + + & # # #         o _.",
"O # #   . . o # % & & % + + + % ; ; ; : & - - - : 1 1 8 2 2 2 2 r i d i u 2 1 > : : , , , , - % % % ; ; - - & + + + o & # & # o       X $ |.",
"O #         O # % % # + + + # - ; ; ; % = % = - , , 1 , > 2 2 > w e e e 9 > > > - , , : : % % % % - ; - - & o + + o & & # # o       O O #.oX",
"O         O # # % # o + o + & & - - % % % % = ; : , : - - - : 1 9 9 9 > ; : - - , , : : % % % % - - - & % + o + o & # # # o       O O * XX.X",
"5       O # # # # o o o + % & & & % + + # % ; ; ; ; % = = - > , , 1 > - = - - : : : : % % @ % & - - & % + + + o & # # # o       X O $ [..X+X",
"|.5     O # # # . . . o % % & # + + + + # ; & ; ; % % @ % ; : ; : - = = % & > : ; - @ % % + & & - & % + o + o % # # & X   X   o O O [.XX+X4X",
".X{.6 O O # O O   o o # # & & O + + + % & & & - @ @ # % - ; ; ; % % % @ % ; ; - - # % @ + % & & % # + + + o % % # # o       X # $ _.XX+X3X5X",
"@X.XOX_.* O       o # # # # o o o o + % & & & + + + + & - - - % + % @ % - - - - + + + + % - & & % + o o o # # # # X X     o O ~ '.oX+X3X4X6X"
};
