/* XPM */
static char *_36a8523747f4ad3d5d2a0c7e99c2498X2Kfo3MTGWeZuFxU[] = {
/* columns rows colors chars-per-pixel */
"52 82 197 2 ",
"   c #1E0D00",
".  c #1F1002",
"X  c #200F03",
"o  c #211104",
"O  c #25150A",
"+  c #2A1A0C",
"@  c #2C1D11",
"#  c #352618",
"$  c #3E2F1C",
"%  c #3A2C22",
"&  c #3C3127",
"*  c #45361C",
"=  c #44382E",
"-  c #453A32",
";  c #57492A",
":  c #5F522F",
">  c #524639",
",  c #6A5D31",
"<  c #6F613F",
"1  c #574C43",
"2  c #5C5047",
"3  c #5E544C",
"4  c #655A51",
"5  c #73674A",
"6  c #6D645C",
"7  c #756A59",
"8  c #736B63",
"9  c #786E66",
"0  c #7C736C",
"q  c #7F7973",
"w  c #81754A",
"e  c #837B74",
"r  c #847B76",
"t  c #FF8706",
"y  c #FD960E",
"u  c #FD9A0E",
"i  c #FBAA0E",
"p  c #FABA0F",
"a  c #FAAA14",
"s  c #F8B817",
"d  c #F9B41D",
"f  c #FBA323",
"g  c #FBA926",
"h  c #F9B222",
"j  c #FAAD39",
"k  c #FAB233",
"l  c #F8C61C",
"z  c #F6DC18",
"x  c #F5E416",
"c  c #F4E41B",
"v  c #F6CC24",
"b  c #FFD227",
"n  c #FFD229",
"m  c #F4DA2C",
"M  c #FDCE34",
"N  c #F6C739",
"B  c #FDCE3C",
"V  c #FED333",
"C  c #FED43B",
"Z  c #F5DB3E",
"A  c #F3E327",
"S  c #F3E433",
"D  c #F3E43C",
"F  c #958B5E",
"G  c #9D935B",
"H  c #A4995E",
"J  c #B2A85E",
"K  c #8E8262",
"L  c #938960",
"P  c #89837C",
"I  c #AFA563",
"U  c #F6CC4A",
"Y  c #FED544",
"T  c #F4D74E",
"R  c #FDD74B",
"E  c #FCD84E",
"W  c #F4DB55",
"Q  c #FDD954",
"!  c #FCD95C",
"~  c #F3E543",
"^  c #F3E64B",
"/  c #F3E754",
"(  c #F3E853",
")  c #F3E75C",
"_  c #D2C974",
"`  c #F4DB66",
"'  c #FBDB64",
"]  c #FBDC6B",
"[  c #E4DC75",
"{  c #F6D877",
"}  c #FADD74",
"|  c #F5DD7B",
" . c #FADE7B",
".. c #F4E764",
"X. c #F4E864",
"o. c #F3E769",
"O. c #F2E86D",
"+. c #EDE779",
"@. c #F3E376",
"#. c #F1E973",
"$. c #F1E97C",
"%. c #8F8882",
"&. c #918B83",
"*. c #9A948B",
"=. c #9E9994",
"-. c #A29D98",
";. c #B4AD8F",
":. c #A6A29E",
">. c #ACA69C",
",. c #A8A4A1",
"<. c #ADA8A3",
"1. c #B3B0AD",
"2. c #B8B5B2",
"3. c #CDC684",
"4. c #D6CC84",
"5. c #F7DF85",
"6. c #E4DE95",
"7. c #E1DB9F",
"8. c #F4DE96",
"9. c #ECE683",
"0. c #EFE980",
"q. c #ECE48C",
"w. c #F3E384",
"e. c #F1E983",
"r. c #F5E28B",
"t. c #F9E08A",
"y. c #F1E98B",
"u. c #ECE493",
"i. c #ECE49D",
"p. c #F6E394",
"a. c #F8E297",
"s. c #F2EA94",
"d. c #F7E49C",
"f. c #F1EA9B",
"g. c #D9D2A8",
"h. c #D3CDB9",
"j. c #ECE5A5",
"k. c #EBE5AD",
"l. c #EEEAAD",
"z. c #F6E5A3",
"x. c #F8E4A5",
"c. c #F1EBA4",
"v. c #F5E6AB",
"b. c #F1EBAC",
"n. c #ECE6B6",
"m. c #EFEAB4",
"M. c #EAE6BD",
"N. c #EEE9BB",
"B. c #F5E7B4",
"V. c #F2EBB3",
"C. c #F3E7BB",
"Z. c #F2ECBB",
"A. c #C5C2C0",
"S. c #CCCAC7",
"D. c #CDCDCC",
"F. c #D1CECC",
"G. c #D3D3D3",
"H. c #D9D8D7",
"J. c #DDDCDC",
"K. c #E2DFD9",
"L. c #E9E6C7",
"P. c #EEEBC5",
"I. c #EEEDCC",
"U. c #F1EDC4",
"Y. c #F1ECCB",
"T. c #EFEDD3",
"R. c #E2E2DD",
"E. c #EBE8DF",
"W. c #F1EDD3",
"Q. c #F1EEDB",
"!. c #E4E4E3",
"~. c #EBECE6",
"^. c #ECEDEC",
"/. c #F1EEE4",
"(. c #F0EEEB",
"). c #F0EFEE",
"_. c #EDF0EF",
"`. c #EFF0EE",
"'. c #EFF0EF",
"]. c #F0F0EF",
"[. c #F2F2EF",
"{. c #EFEFF0",
"}. c #F0EFF0",
"|. c #EFF0F0",
" X c gray94",
".X c #F2F2F0",
"XX c #F3F3F0",
"oX c #F5F4F0",
"OX c #F6F5F1",
"+X c #F8F6F2",
"@X c #F8F7F2",
"#X c #FAF9F2",
"$X c #FCFBF3",
"%X c #FEFCF3",
"&X c #FDFBF4",
"*X c #FDFCF4",
"=X c #FFFCF5",
/* pixels */
"'.'.'.'.'.'.'.'.'.'.'.'.'.'.'.'.'.'.'.'.'.'.'.'.'.'.'.'.|.|.'.'.'.'.'.'.'.'.'.'.'.'.'.'.'.'.'.'.'.'.'.'.",
"'.'.'.'.'.'.'.'.'.'.'.'.'.'.'.'.'.'.'.'.'.'.'.'.'.'.'.].|.|.'.'.'.'.'.'.'.'.'.'.'.'.'.'.'.'.'.'.'.'.'.'.",
"'.'.'.'.'.'.'.'.'.'.'.'.'.'.'.'.'.'.'.'.'.'.'.'.'.'.'..X.X|.|.{.'.'.'.'.'.'.'.'.'.'.'.'.'.'.'.'.'.'.'.'.",
"'.'.'.'.'.'.'.'.'.'.'.'.'.'.'.'.'.'.'.'.'.'.'.'..X'.'..X.X^..X{.'.'.'.'.'.'.'.'.'.'.'.'.'.'.'.'.'.'.'.'.",
"'.'.'.'.'.'.'.'.'.'.'.'.'.'.'.'.|.'.'..X|.^.{..X#X]..XOXOX.X.X^.'.'.'.'.'.'.'.'.'.'.'.'.'.'.'.'.'.'.'.'.",
"'.'.'.'.'.'.'.'.'.'.'.'.'.'.'.'.|.|.'.$X.X.X|.#X*X@X#X*X#X.X.X.X.X#X.X'.'.'.'.'.'.'.'.'.'.'.'.'.'.'.'.'.",
"'.'.'.'.'.'.'.'.'.'.'.'.].].'.'.|.|.OX=X*X*X=X=X*X*X=X=X*X=X&X#X%X%X.X'.|.'.'.'.].'.'.'.'.'.'.'.'.'.'.'.",
"'.'.'.'.'.'.'.'.'.'.'.'..X@X'.'.OX#X=X=X*X*X=X*X*X*X=X=X*X*X*X=X*X*XOX].'.'.].OX].'.'.'.'.'.'.'.'.'.'.'.",
"'.'.'.'.'.'.'.'.'.'.'.'..X*X&X#X*X*X*X*X*X=X*X*X*X&X*X*X*X*X*X*X*X=X=X*X#X#X&X}.}..X^.{.'.'.'.'.'.'.'.'.",
"'.'.'.'.'.'.'.]..X'.'.}.].*X*X*X*X*X*X*X*X*X#XOX@XXX@XOX@X#X#X%X*X*X=X*X*X*X&X}.}.}.|.|.'.'.'.'.'.'.'.'.",
"'.'.'.'.'.'.'.'.@X.X^.OX#X=X*X*X&X*X&XOX}.|.|.|.}.|.'.'.}.|.'.'..XOX=X=X*X*X*X*X]..X|.|.'.'.'.'.'.'.'.'.",
"'.'.'.'.'.'.'.'.@X$XOX*X=X*X*X*X&X.X^.).}.}..X^.'.|.'.^.'.|.'..X|.|.|.OX*X*X*X*X*X$XOX|.'.].'.'.'.'.'.'.",
"'.'.'.'.'.'.'.OX*X=X*X*X=X=X&X.X.X^.{..X^.Y.d.@.' Q Q ! @.p.C./..X{..X^..XOX*X*X*X*X*X.XXX.X|.'.'.'.'.'.",
"'.'.'.'.'.'..X%X*X*X*X*X=XOX.X{..X^.T.t.Y n n n n n n n n n n V ] V.^..X|.{..X*X=X*X*X*XOX}.|.|.'.'.'.'.",
"'.'.'.'.|.|..X*X=X=X*X*X].|.^..XQ.} n n n n b n n n n n n n n n n n Q V.}..X{..X&X*X*X*X)..X).^.'.].'.'.",
"'..X'.'.|.^..X*X=X=X%X.X].{.^.d.V n n n n n b V R Q ' ' Q Y n n n n b b ' Q.^.|..X&X*X*XXX.X{..X.X].'.'.",
"'.'.'..X|.|.OX*X*X$X.X^.OX~.' n n n n V Q t.V.Y.Y.Y.Y.Y.Y.Y.I.c.} C n n n C C.|.^..X*X*X&X@X.X@XOX|.'.'.",
"'.'.'.'.#X%X*X*X%X.X.X'./.Q n b n V @.Z.I.Y.U.U.Z.Z.Z.U.Z.U.U.I.Y.Y.p.V n n n z.|.|.OX*X*X*X&X&X.X].'.'.",
"'.'.'.'.#X*X*X*XOX|.|./.Q b n n ] U.Y.Y.Z.Z.Z.V.V.V.V.V.V.V.V.Z.U.U.T.Y.] n n n z.|.^.OX*X*X*XXX|.'.'.'.",
"'.'.].OX&X*X&X&X'.|.'.' b b V z.W.Y.U.Z.Z.V.b.b.b.c.c.c.b.b.b.V.Z.Z.U.I.W.t.n n V B.{..X&X*X&X.X'.'.'.'.",
"|..XOX=X*X=X*XXX]..Xp.n n C Z.T.P.U.Z.Z.b.c.f.f.f.f.s.f.f.f.f.b.b.V.Z.U.I.T.t.n n C Q.]..X*X*X&XOX.X.X.X",
"|.|.|.OX*X*X@X.X].W.V n C Z.W.I.Z.Z.b.c.c.f.s.s.y.y.y.y.y.s.f.f.c.b.V.Z.P.I.Q.@.n n ! '.].#X*X*X*X#X.X|.",
"|.'.|.#X*X&X.X^.].' n n b.W.T.U.Z.V.b.f.s.s.y.e.e.$.$.e.e.e.y.s.f.c.b.V.Z.U.I.W.R n n v.}.OX*X*X$X].]..X",
".X*X=X=X=X&X^..XY.n n @.Q.I.U.Z.V.b.f.f.y.e.$.$.#.#.#.#.#.$.e.e.y.s.c.b.Z.Z.Y.T.V.n n E }..X*X*X%XXX.X^.",
"^.OX&X*X%XOX'.'.} n V W.Q.Y.Z.V.c.f.s.y.e.$.O.O.o.o.X.X.O.#.#.$.e.s.s.c.b.V.U.I.Q.' b n B.|.#X*X*X*X#X.X",
".X.X=X=X$X].'./.n n } Q.I.U.Z.b.c.f.s.e.$.#.o.X.) ( ) ( ) ..o.#.$.y.s.f.b.V.Z.I.W.v.n n ] |.XX*X*X*X@X.X",
"@X*X=X=X#X].].V.n n v.Q.I.U.V.b.f.s.e.$.#...) ( ^ ~ ^ ^ ^ / ..o.#.$.y.s.c.b.Z.U.Y.Q.C n V (..X*X*X*X].'.",
".XOX*X=X@X'.'.t.n n Q.T.I.Z.V.c.f.y.e.#.o.) ( ^ ~ D S D ~ ^ ( ..O.$.e.s.f.b.m.Z.Y.Q.o.b n Y.].*X*X*X#XOX",
"{.{.OX&XXX}.'.' n Y Q.T.I.Z.b.c.s.y.$.O.../ T S A l d s m ~ ^ ) O.#.0.y.f.b.V.Z.I.T.r.n n x.}.*X*X*X&XOX",
"'.'..X*X].'.'.R n E Q.T.U.V.b.c.s.y.$.o.k g h a t t p s a a ~ / X.#.$.y.s.c.m.Z.I.T.z.b n 5.}.*X*X*X{.{.",
"'.'.#X*X].].].Y n Q Q.T.U.V.b.f.s.e.` f T ^ D y z a i c z d y j ( O.$.y.f.c.b.Z.I.T.v.b n  .}.*X*X&X.X.X",
"OX#X*X*X].].|.C n Y Q.I.U.Z.b.f.s.e.j U U N ~ u c z t c a v Z a W ..#.y.s.c.b.Z.P.T.z.n n  .}.*X*X&X@X}.",
"^..X.X*X].'.{.E n V T.I.U.Z.l.f.u.| j o.) N D d u u i x l m ~ f ) #.@.w.s.c.V.Z.I.T.r.n n t.).*X*X=X#X.X",
".X].].*X].|.}.' n n V.T.P.Z.l.c.y.5.` k k N ~ D v l c c m d d U ..#.e._ u.c.V.Z.I.W.] n n d..X*X*X*X#X^.",
"|.|..X@X].].).t.n n  .T.P.M.m.c.4.y.$.#.O.) ^ ~ D S S S ~ ~ ^ ) o.#._ H f.c.V.U.I.Q.Y n n U..X*X*X&X&X.X",
"'.'.^.OXOX.X).U.b n C T.L.P.n.l.3.G y.#.O.X.) ^ ^ ~ ~ ~ ^ / ) o.#.[ : q.c.b.V.U.Y.C.n n V '.@X*X&X}..XOX",
"'.{..XOX@X^.}.^.C n n 8.L.L.M.l.c.w H $.$.O.X.) ( ^ ( ( ( ) o.#.#.< I s.c.V.Z.I.W. .n b ] '.&X*X@X^.'.'.",
"^..X^.|..X}.).}.8.M b V L.L.N.m.b.6.$ _ $.$.O.o.X.X.) ) o.o.#.+.J $ s.c.b.V.Z.I.Y.V n b V.'.&X*X#X.X'.'.",
"^.^.~.{.@X{.^.!.E.U B B ! L.P.n.k.j.F ; 9.9.+.+.#.O.#.O.#.#.$.0.* G f.b.V.Z.U.T. .n n E }..X*X*X*X].|.'.",
"^.!.^.~.}.).~.(.~.n.C M n 5.L.M.n.l.7.$ G 6.u.9.9.#.$.$.$.0.y.J + u.c.V.Z.U.Y.b.n b b v.}.@X%XOXOX].'.'.",
"^.!.'.!.{.^.!.{.^.!.8.B M B 5.L.N.n.j.K # 6.6.q.y.9.y.q.y.y.s.; < c.b.V.U.Y.Z.C n n ' '.].%X@X].'.'.'.'.",
"^.!.^.!.^.^.^.|.^.~.~.{ V B M 8.P.P.m.g.+ L i.d.u.u.u.s.s.s.3.. ;.b.V.U.Y.U.Y n n C Q.'.].%X].].'.'.'.'.",
"{.^.{.^.^.^.{.{.'.^.^.^.' M n B z.L.Z.N., * k.j.c.j.f.f.c.c.5 $ V.Z.U.I.P.Y n b n B.].'.OXOX'.'.'.'.'.'.",
"{.{.{.{.|.'.{.{..X^.].'./.! n n V b.Y.U.;.o ;.V.b.V.l.l.V.k.@ K Z.U.I.U.E n b b a.'.].].#XOX'..X'.'.'.'.",
"'.'.'.'.'.'.'.'.'.'.'.'.^./.Y n n C Y.I.L.# 7 Z.Z.Z.Z.Z.I.I O g.I.I.Y.Q n n b 5.'.'.'.].].].'.'.'.'.'.'.",
"'.'.'.'.'.'.'.'.'.'.'.'..X{.W.V n b ] Q.T.7 $ U.U.P.U.U.Y.5 > Y.T.Q.@.n n n ] '.'.'.'.'.'.].'.'.'.'.'.'.",
"'.'.'.'.'.'.'.'.'.'.'.'.^..X].v.n n b C.Q.>.o M.T.T.I.I.I.@ P Q.Q.V.n n n E ^.].'.'.'.'.'.'.'.'.'.'.'.'.",
"'.'.'.'.'.'.'.'.'.'.'.'.'.|.'.'.! n b ../.R.O >.Q.Q.Q.E.h.O K./.OX) b b n Y.].].'.'.'.'.'.'.'.'.'.'.'.'.",
"'.'.'.'.'.'.'.'.'.'.'.'.'.'.'.'.B.n n V /.'.- &./.'././.&.2 '.'./.n n n ] '.'.'.'.'.'.'.'.'.'.'.'.'.'.'.",
"'.'.'.'.'.'.'.'.'.'.'.'.'.'.'.'./.n n n Y.'.e 0 .X).|.|.3 -.'.'.Y.n n n B.'.'.'.'.'.'.'.'.'.'.'.'.'.'.'.",
"'.'.'.'.'.'.'.'.'.'.'.'.'.'.'.|.(.n n b U.].:.8 '.'.'.'.& R.'.'.B.n n n (.|.'.'.'.'.'.'.'.'.'.'.'.'.'.'.",
"'.'.'.'.'.'.'.'.'.'.'.'.'.'.'.'.'.n n b C.].S.8 '.'.'.R.3 '.'.'.C.n n C |.|.'.'.'.'.'.'.'.'.'.'.'.'.'.'.",
"'.'.'.'.'.'.'.'.'.'.'.'.'.'.'.'.'.V n n C.].!.q '.'.'.A.-.'.'.'.Y.b n C ^..X|.'.'.'.'.'.'.'.'.'.'.'.'.'.",
"'.'.'.'.'.'.'.'.'.'.'.'.'.'.'.'.|.Y n n C.].^.,.'.'.|.1.!.'.'.'.Q.n n C ].|.'.'.'.'.'.'.'.'.'.'.'.'.'.'.",
"'.'.'.'.'.'.'.'.'.'.'.'.'.'.'.'.|.! n n C.].'.!.'.'.'.J.'.'.'.'./.n n Y ^..X'.'.'.'.'.'.'.'.'.'.'.'.'.'.",
"'.'.'.'.'.'.'.'.'.'.'.'.'.'.'.'.|. .n n z.'.'.].'.'.'.'.'.'.'.'.Q.n n Q '.'.'.'.'.'.'.'.'.'.'.'.'.'.'.'.",
"'.'.'.'.'.'.'.'.'.'.'.'.'.'.'.'.|.B.n n t.^.].].'.'.'.'.).}.^.{.C.n n ] }.'.'.'.'.'.'.'.'.'.'.'.'.'.'.'.",
"'.'.'.'.'.'.'.'.'.'.'.'.'.'.'.'.|./.C n R W.^.'.'.'.'.).{.}.(.U.Y n b d.|.'.'.'.'.'.'.'.'.'.'.'.'.'.'.'.",
"'.'.'.'.'.'.'.'.'.'.'.'.'.'.'.'.|.'.z.n n b V Q ] } 5.5. .Q V b n n V Q.'.'.'.'.'.'.'.'.'.'.'.'.'.'.'.'.",
"'.'.'.'.'.'.'.'.'.'.'.'.'.'.'.'.|.|..Xd.V b n n n n n n n n n n n n x.'.'.'.'.'.'.'.'.'.'.'.'.'.'.'.'.'.",
"'.'.'.'.'.'.'.'.'.'.'.'.'.'.'.'.'.'.'..XQ.p.] R C V n n b n n V ' U.D.~.'.|.|.'.'.'.'.'.'.'.'.'.'.'.'.'.",
"'.'.'.'.'.'.'.'.'.'.'.'.'.'.'.'.'.'.'.2.r !.'.'.'.'./.'.(./.(.}.H.4   8 ^..X'.'.'.'.'.'.'.'.'.'.'.'.'.'.",
"'.'.'.'.'.'.'.'.'.'.'.'.'.'.'.'.|.|.{.-   3 J.].'.'.'.'.}.!.2.6 O X   r ].'.'.'.'.'.'.'.'.'.'.'.'.'.'.'.",
"'.'.'.'.'.'.'.'.'.'.'.'.'.'.'.'.|.^.{.*.    O > 8 0 9 4 = O     X # <.^.'.'.'.'.'.'.'.'.'.'.'.'.'.'.'.'.",
"'.'.'.'.'.'.'.'.'.'.'.'.'.'.'.'.'.'.'.^.&.@                 O > =.~.|.|.|.|.'.'.'.'.'.'.'.'.'.'.'.'.'.'.",
"'.'.'.'.'.'.'.'.'.'.'.'.'.'.'.'.'.'.'.|.^.S.:.0 4 3 4 8 %.2.!.^.1.8 J.|.|.|.'.'.'.'.'.'.'.'.'.'.'.'.'.'.",
"'.'.'.'.'.'.'.'.'.'.'.'.'.'.'.'.'.'.'.'.2.o q A.J.!.!.G.2.=.8 #   O A.'.|.'.'.'.'.'.'.'.'.'.'.'.'.'.'.'.",
"'.'.'.'.'.'.'.'.'.'.'.'.'.'.'.'.'.'.'.'.H.&       o     o     % r G.'.'.'.'.'.'.'.'.'.'.'.'.'.'.'.'.'.'.",
"'.'.'.'.'.'.'.'.'.'.'.'.'.'.'.'.'.'.'.'.'.~.:.8 4 4 4 9 %.<.F.:.H.^.|.'.'.'.'.'.'.'.'.'.'.'.'.'.'.'.'.'.",
"'.'.'.'.'.'.'.'.'.'.'.'.'.'.'.'.'.'.'.'.|.|.0 % ,.D.H.A.,.9 #   P '.|.'.'.'.'.'.'.'.'.'.'.'.'.'.'.'.'.'.",
"'.'.'.'.'.'.'.'.'.'.'.'.'.'.'.'.'.'.'.'.|.|.<.O             % P !.|.'.'.'.'.'.'.'.'.'.'.'.'.'.'.'.'.'.'.",
"'.'.'.'.'.'.'.'.'.'.'.'.'.'.'.'.'.'.'.'.'.'.'.H.*.q 0 %.*.2.^.{.'.'.'.'.'.'.'.'.'.'.'.'.'.'.'.'.'.'.'.'.",
"'.'.'.'.'.'.'.'.'.'.'.'.'.'.'.'.'.'.{.{.|.|.|.{.{.^.1 & & ,.|.|.|.|.|.|.|.|.'.'.'.'.'.'.'.'.'.'.'.'.'.'.",
"'.'.'.'.'.'.'.'.'.'.'.'.'.'.'.'.'.'.{.{.'.|.|.{.{.{.^.!.|.|.|.|.|.|.|.|.'.|.'.'.'.'.'.'.'.'.'.'.'.'.'.'.",
"'.'.'.'.'.'.'.'.'.'.'.'.'.'.'.'.'.'._._.^.~.!.!.H.H.G.D.D.G.H.J.!.!.^.^.'.|.|.'.'.'.'.'.'.'.'.'.'.'.'.'.",
"'.'.'.'.'.'.'.'.'.'.'.'.'.'.'.'.|.^._.!.!.H.H.G.G.D.D.D.D.D.G.G.H.H.J.!.~.^.|.'.'.'.'.'.'.'.'.'.'.'.'.'.",
"'.'.'.'.'.'.'.'.'.'.'.'.'.'.'.'.|.'.'.^.~.!.!.!.R.R.R.J.J.J.!.!.!.!.~.^.^.'.'.'.'.'.'.'.'.'.'.'.'.'.'.'.",
"'.'.'.'.'.'.'.'.'.'.'.'.'.'.'.'.|.'.'.'.'.'.|.|._.{.{.^.'.'._._.^.'.|.|.'.'.'.'.'.'.'.'.'.'.'.'.'.'.'.'.",
"'.'.'.'.'.'.'.'.'.'.'.'.'.'.'.'.'.'.'.'.'.'.|.|.{.{.'.'.{.^._._.'.'.'.'.'.'.'.'.'.'.'.'.'.'.'.'.'.'.'.'.",
"'.'.'.'.'.'.'.'.'.'.'.'.'.'.'.'.'.'.'.'.'.'.'.|.|.{.'.|.|.{.{.{.'.'.'.'.'.'.'.'.'.'.'.'.'.'.'.'.'.'.'.'.",
"'.'.'.'.'.'.'.'.'.'.'.'.'.'.'.'.'.'.'.'.'.'.'.'.'.'.'.'.'.'.'.'.'.'.'.'.'.'.'.'.'.'.'.'.'.'.'.'.'.'.'.'.",
"'.'.'.'.'.'.'.'.'.'.'.'.'.'.'.'.'.'.'.'.'.'.'.'.'.'.'.'.'.'.'.'.'.'.'.'.'.'.'.'.'.'.'.'.'.'.'.'.'.'.'.'."
};
