/* XPM */
static char *_92482c943c5423faaaa0bab69bd9255JErc9jwYjo9KxOlO[] = {
/* columns rows colors chars-per-pixel */
"50 73 116 2 ",
"   c #1E0D00",
".  c #1F1003",
"X  c #200E01",
"o  c #211205",
"O  c #251509",
"+  c #26180D",
"@  c #2A1A0E",
"#  c #2C1D12",
"$  c #31210F",
"%  c #2F2115",
"&  c #2F2318",
"*  c #312315",
"=  c #33251A",
"-  c #372A1E",
";  c #382A1F",
":  c #372B20",
">  c #3A2C21",
",  c #3D3126",
"<  c #3E3228",
"1  c #42342B",
"2  c #45382E",
"3  c #463B31",
"4  c #493C33",
"5  c #4E433A",
"6  c #51453C",
"7  c #52483F",
"8  c #564B42",
"9  c #594E45",
"0  c #5B5046",
"q  c #5D534A",
"w  c #60554E",
"e  c #635951",
"r  c #695F56",
"t  c #6C635B",
"y  c #70665F",
"u  c #6F6861",
"i  c #746C65",
"p  c #766F68",
"a  c #796F69",
"s  c #777069",
"d  c #7A736C",
"f  c #7E7671",
"g  c #807670",
"h  c #837B75",
"j  c #867E79",
"k  c #86807A",
"l  c #8A847D",
"z  c #8E8681",
"x  c #8E8883",
"c  c #918A85",
"v  c #948E89",
"b  c #96918C",
"n  c #99928D",
"m  c #9B9691",
"M  c #9D9994",
"N  c #9F9C98",
"B  c #A09B97",
"V  c #A39E9A",
"C  c #A6A19D",
"Z  c #A8A29E",
"A  c #AAA5A1",
"S  c #ADAAA6",
"D  c #AFABA8",
"F  c #B0ABA6",
"G  c #B1ADA9",
"H  c #B5B2AF",
"J  c #B8B4AF",
"K  c #B7B4B1",
"L  c #BAB6B3",
"P  c #BDB9B6",
"I  c #BEBCB9",
"U  c #C1BEBA",
"Y  c #C3C1BE",
"T  c #C5C4C3",
"R  c #C9C6C4",
"E  c #CBC9C6",
"W  c #CDCCCA",
"Q  c #D1CFCD",
"!  c #D2D1CE",
"~  c #D5D4D2",
"^  c #D7D8D5",
"/  c #D9D8D6",
"(  c #DCDCDA",
")  c #E0DEDC",
"_  c #DFE0DE",
"`  c #E2E2DF",
"'  c #E3E3E2",
"]  c #E4E3E2",
"[  c #E4E4E2",
"{  c #E5E5E4",
"}  c #E6E5E5",
"|  c #E7E6E5",
" . c #E6E7E5",
".. c #E7E9E7",
"X. c #E9E8E7",
"o. c #E9E7E8",
"O. c #E8E8E9",
"+. c #EAEAE9",
"@. c #EBEBEA",
"#. c #EBECEA",
"$. c #ECECEB",
"%. c #EBECEC",
"&. c #ECECEC",
"*. c #EDECEC",
"=. c #ECEEEC",
"-. c #F0EFEF",
";. c #EDF0EF",
":. c #EDF1EF",
">. c #EFF0EE",
",. c #EFF0EF",
"<. c #F0F0EF",
"1. c #EEEFF0",
"2. c #EFEFF0",
"3. c #F0EFF0",
"4. c #EFF0F0",
"5. c gray94",
/* pixels */
",.,.,.,.,.,.,.,.,.,.,.,.,.,.,.,.,.,.,.,.,.,.,.,.,.,.,.,.,.,.,.,.,.,.,.,.,.,.,.,.,.,.,.,.,.,.,.,.,.,.",
",.,.,.,.,.,.,.,.,.,.,.,.,.,.,.,.,.,.,.,.,.,.,.,.,.,.,.,.,.<.,.,.,.,.,.,.,.,.,.,.,.,.,.,.,.,.,.,.,.,.",
",.,.,.,.,.,.,.,.,.,.,.,.,.,.,.,.,.,.5.5.,.,.,.,.,.,.,.,.5.5.,.,.,.,.,.,.,.,.,.,.,.,.,.,.,.,.,.,.,.,.",
",.,.,.,.,.,.,.,.,.,.,.,.,.,.,.,.,.,.4.5.&.@.! I K K Y ( &.&.,.,.,.,.,.,.,.,.,.,.,.,.,.,.,.,.,.,.,.,.",
",.,.,.,.,.,.,.,.,.,.,.,.,.,.,.,.&.&.P d 3 O   X X       % 9 c ! &.,.,.,.,.,.,.,.,.,.,.,.,.,.,.,.,.,.",
",.,.,.,.,.,.,.,.,.,.,.,.,.,.5.' c > X                         . 6 S #.,.,.,.,.,.,.,.,.,.,.,.,.,.,.,.",
",.,.,.,.,.,.,.,.,.,.4.4.4.&.n * X                                   2 H ,.,.,.,.,.,.,.,.,.,.,.,.,.,.",
",.,.,.,.,.,.,.,.,.,.4.4.Q 4             o = 9 i j l k s q : .         . t ` ,.,.,.,.,.,.,.,.,.,.,.,.",
",.,.,.,.,.,.,.,.,.,.2.G #       . o 0 M ^ ,.,.,.,.,.,.,.,.,./ m 6         , R ,.,.,.,.,.,.,.,.,.,.,.",
",.,.,.,.,.,.,.,.5.&.M X       @ g / ,.4.,.,.,.,.,.,.,.,.,.,.,.,.&.T 8 o     # L <.,.,.,.,.,.,.,.,.,.",
",.,.,.,.,.,.,.,.5.C o     . t ( <.,.,.,.,.,.,.,.,.,.,.,.,.,.,.,.,.,.-.Z #     O L 5.,.,.,.,.,.,.,.,.",
",.,.,.,.,.,.,.,.P O     * K 5.4.,.,.,.,.,.,.,.,.,.,.,.,.,.,.,.,.,.,.,.,.! <     @ R ,.,.,.,.,.,.,.,.",
",.,.,.,.,.,.,.( =   X 1 ~ ,.,.,.,.,.,.,.,.,.,.,.,.,.,.,.,.,.,.,.,.,.,.,.,.( < .   , ` ,.,.,.,.,.,.,.",
",.,.,.,.,.,.,.e     1 ( 4.4.,.,.,.,.,.,.,.,.,.,.,.,.,.,.,.,.,.,.,.,.,.,.,.-.~ *     t ,.,.,.,.,.,.,.",
",.,.,.,.,.,.H .   % ! 5.,.,.,.,.,.,.,.,.,.,.,.,.,.,.,.,.,.,.,.,.,.,.,.,.,.,.&.J o   . L <.,.,.,.,.,.",
",.,.,.,.,.&.3   X S ,.,.,.,.,.,.,.,.,.,.,.,.,.,.,.,.,.,.,.,.,.,.,.,.,.,.,.,.5.5.i     4 &.,.,.,.,.,.",
",.,.,.,.,.K     q <.,.,.,.,.,.,.,.,.,.,.,.,.,.,.,.,.,.,.,.,.,.,.,.,.,.,.,.,.,.,.[ #     H ,.,.,.,.,.",
",.,.,.,.4.q   o R ,.,.,.,.,.,.,.,.,.,.,.,.,.,.,.,.,.,.,.,.,.,.,.,.,.,.,.,.,.,.,.,.j     0 ,.,.,.,.,.",
",.,.,.,.[ O   5 ,.,.,.,.,.,.,.,.,.,.,.,.,.,.,.,.,.,.,.,.,.,.,.,.,.,.,.,.,.,.,.,.-.~ o   o ( ,.,.,.,.",
",.,.,.,.S     x ,.,.,.,.,.,.,.,.,.,.,.,.,.,.,.,.,.,.,.,.,.,.,.,.,.,.,.,.,.,.,.,.,.<.5     N ,.5.,.,.",
",.,.,.,.s     T ,.,.,.,.,.,.,.,.,.,.,.4.,.5.<.,.,.4.,.,.,.,.,.,.,.,.,.,.,.,.,.,.,.,.j     y ,.5.,.,.",
",.,.,.5.8   o } ,.,.,.,.,.,.,.,.,.,.,.4.&.&.,.' G N L } ,.,.,.,.,.,.,.,.,.,.,.,.,.,.S X   4 &.5.,.,.",
",.,.,.&.:   # %.,.,.,.,.,.,.,.,.4.&.S t y i 3 @ - s t 5 k O.,.,.,.,.,.,.,.,.,.,.,.,.R     = &.,.,.,.",
",.,.<.&.#   * &.,.,.,.,.,.,.,.,.} e v } 5.S q F # K ,.:.M 5 W #.&.,.,.,.,.,.,.,.,.,.~     @ &.,.,.,.",
",.,.,.#.@   + #.<.,.,.,.,.,.,.,.f l I R 5.s K 4.k y 4.d t b 3 D E } 4.,.,.,.,.,.,.,.!     O $.<.,.,.",
",.,.,.$.%     / ,.,.,.,.,.,.,.[ t 4.,.D [ A e R i f ,.m ,.,.s ( ,.` ( 4.,.,.,.,.,.,.Y     # &.5.,.,.",
",.,.,.&.1     S ,.,.,.,.,.,.} ^ j C [ v #.&.h > q _ ,.A b M 0 %.,.5.[ } ,.,.,.,.<.<.C     = &.5.,.,.",
",.<.5.5.e     p ,.,.,.,.,.,.` ,.&.V f T ,.,.,.,.4.,.:.4.T K ..,.,.&.~ U ,.,.,.,.5.5.d     8 5.5.,.,.",
",.,.,.,.v     ; $.,.,.,.,.&.H ,.5.5.4.,.,.,.,.,.,.,.,.,.4.4.,.,.5.( i ,.,.,.,.,.,.&.<     g ,.,.,.,.",
",.,.,.,.W     X F ,.,.,.,.,.T j <.4.,.,.,.,.,.,.,.,.,.,.,.,.,.,.&.q T 4.,.,.,.,.,.W .     H ,.,.,.,.",
",.,.,.,.,.2     4 #.,.,.,.,.<.p M 5.4.,.,.,.,.,.,.,.,.,.,.,.,.:.b e 4.&.#.5.,.,.,.d     % } ,.,.,.,.",
",.,.,.,.,.m       n ,.,.,.,.,.( % R 4.,.,.,.,.,.,.,.,.,.,.,.,.( # R 4.&.} &.4.,.( @     s 4.,.,.,.,.",
",.,.,.,.&.#.>     + E 4.,.,.,.4.h 2 @.,.,.,.,.,.,.,.,.,.,.<.<.s 6 $...@.} 2.O.@.i O $ * ! <.@.@.@.&.",
",.,.,.,.5.5.L o     < _ ,.,.,.,.( @ x 5.,.,.,.,.,.,.,.,.,.&.( O C #.@.@...O...P o $ $ d @.$.X.@.@.} ",
",.,.,.,.4.,.,.x X     7 } 4.,.,.4.f # ) ,.,.,.,.,.,.,.,.,.,.h % [ } &.#.@.O./ > o * , ~ ,.$.} $.@...",
",.,.,.,.,.,.5.&.i       e &.,.,.4.~ o j 4.,.,.,.,.,.,.,.,.X.= i &.#.@.@.@.' 9     * B @.#.#.X.@.O...",
",.,.,.,.,.,.,.,.#.q X     i &.,.4.,.q % } ,.,.,.,.,.,.,.5.Z . Y 4.O.@.@.' 8 * o   t @.@.@.&.@.#.O.O.",
",.,.,.,.,.,.,.,.&.X.8       k 2.2.4.G   C <.,.,.,.,.,.,.&.7 1 <.4.2.2...8       3 } &.,.&.,.,.,.4.2.",
",.,.,.,.,.,.,.,.,.5.( 3     X C ,.,.@.% 0 5.,.,.,.,.,.,.~ o x 5.4.,.O.q       : / ,.,.,.4.4.,.,.4.4.",
",.,.,.,.,.,.,.,.,.,.4.~ =     + W ,.2.i O [ ,.,.,.,.,.,.v o / ,.4.%.i       # W <.,.,.,.,.,.,.,.5.5.",
",.,.,.,.,.,.,.,.,.,.,.,.P o     6 &.4.K . D ,.,.,.,.,.-.5 6 ,.,.4.C       o P 5.4.,.,.,.,.,.,.,.,.,.",
",.,.,.,.,.,.,.,.,.,.,.,.5.g       A 5.} @ g ,.,.,.,.<.( O M 4.5._ %       v %.5.,.,.,.,.,.,.,.,.,.,.",
",.,.,.,.,.,.,.,.,.,.,.,.5.} -     4 -.5.q 9 <.,.,.,.<.S O ' -.5.z       5 %.,.,.,.,.,.,.,.,.,.,.,.,.",
",.,.,.,.,.,.,.,.,.,.,.,.,.,.l     o ( &.c > ,.,.,.,.,.s q &.&.5.5       K ,.,.,.,.,.,.,.,.,.,.,.,.,.",
",.,.,.,.,.,.,.,.,.,.,.,.,.<.Y       K ,.I # #.&.,.,.,.4 C ,.,.#.&     > ,.,.,.,.,.,.,.,.,.,.,.,.,.,.",
",.,.,.,.,.,.,.,.,.,.,.,.,.<.! .     N ,.` + @.5.,.,.} # ' ,.,.` o     t ,.,.,.,.,.,.,.,.,.,.,.,.,.,.",
",.,.,.,.,.,.,.,.,.,.,.,.,.,.~       n 4.4.1 } &.,.,.R q ,.,.,.' O   . k ,.,.,.,.,.,.,.,.,.,.,.,.,.,.",
",.,.,.,.,.,.,.,.,.,.,.,.,.,.(       m 4.4.r #.4.,.,.A B ,.,.,.#.+     x ,.,.,.,.,.,.,.,.,.,.,.,.,.,.",
",.,.,.,.,.,.,.,.,.,.,.,.,.,.X..     m ,.,.x ,.,.,.<.b } ,.,.,.,.-     v ,.,.,.,.,.,.,.,.,.,.,.,.,.,.",
",.,.,.,.,.,.,.,.,.,.,.,.,.,.&.#     m ,.4.Y ,.,.,.<.L 4.,.,.,.4.4     b ,.,.,.,.,.,.,.,.,.,.,.,.,.,.",
",.,.,.,.,.,.,.,.,.,.,.,.,.,.,.2     v ,.5.&.5.,.,.,.@.,.,.,.,.4.6     N 5.,.,.,.,.,.,.,.,.,.,.,.,.,.",
",.,.,.,.,.,.,.,.,.,.,.,.,.,.<.t .   g 4.,.,.,.,.,.,.,.,.,.,.,.&.1     G ,.,.,.,.,.,.,.,.,.,.,.,.,.,.",
",.,.,.,.,.,.,.,.,.,.,.,.,.,.,.C     0 4.<.5.,.<.,.,.,.,.,.,.,.Q X     W ,.,.,.,.,.,.,.,.,.,.,.,.,.,.",
",.,.,.,.,.,.,.,.,.,.,.,.,.,.,.[ #   + G ) &.,.5.,.,.,.4.,.[ I 2     = &.,.,.,.,.,.,.,.,.,.,.,.,.,.,.",
",.,.,.,.,.,.,.,.,.,.,.,.,.,.,.,.M       o - 6 r s f d t 2 O         k 5.,.,.,.,.,.,.,.,.,.,.,.,.,.,.",
",.,.,.,.,.,.,.,.,.,.,.,.,.,.,.,.,.z O                             4 } <.,.,.,.,.,.,.,.,.,.,.,.,.,.,.",
",.,.,.,.,.,.,.,.,.,.,.,.,.,.,.,.,.,.! g 4 + o   X             @ a ' &.&.4.,.,.,.,.,.,.,.,.,.,.,.,.,.",
",.,.,.,.,.,.,.,.,.,.,.,.,.,.,.,.,.} H o.3.&.( W U L H H H L E @.Y 1 - ( 4.4.,.,.,.,.,.,.,.,.,.,.,.,.",
",.,.,.,.,.,.,.,.,.,.,.,.,.,.,.,.4.e   t &.<.<.2.<.,.<.,.&.&.T t .     Y ,.,.,.,.,.,.,.,.,.,.,.,.,.,.",
",.,.,.,.,.,.,.,.,.,.,.,.,.,.,.,.2.r     6 m R / ( ~ I M i 1       # m 2.,.,.,.,.,.,.,.,.,.,.,.,.,.,.",
",.,.,.,.,.,.,.,.,.,.,.,.,.,.,.,.,.( 1                 X       @ s ( ,.,.,.,.,.,.,.,.,.,.,.,.,.,.,.,.",
",.,.,.,.,.,.,.,.,.,.,.,.,.,.,.,.,.,.} h = X X X       X = w M ] #.&.,.,.,.,.,.,.,.,.,.,.,.,.,.,.,.,.",
",.,.,.,.,.,.,.,.,.,.,.,.,.,.,.,.,.,.&.B ~ ! G B B A U ( &.3.~ j % j 4.,.,.,.,.,.,.,.,.,.,.,.,.,.,.,.",
",.,.,.,.,.,.,.,.,.,.,.,.,.,.,.,.5.5.Q X = j S I U K Z z t ,     O v ,.,.,.,.,.,.,.,.,.,.,.,.,.,.,.,.",
",.,.,.,.,.,.,.,.,.,.,.,.,.,.,.,.,.,.&.u X                 O 4 l ^ ,.,.,.,.,.,.,.,.,.,.,.,.,.,.,.,.,.",
",.,.,.,.,.,.,.,.,.,.,.,.,.,.,.,.,.,.,.,.E l i r t i h m L ( Z T ,.,.,.,.,.,.,.,.,.,.,.,.,.,.,.,.,.,.",
",.,.,.,.,.,.,.,.,.,.,.,.,.,.,.,.,.,.,.,.P # j W ` ' Q D f :   7 ,.,.,.,.,.,.,.,.,.,.,.,.,.,.,.,.,.,.",
",.,.,.,.,.,.,.,.,.,.,.,.,.,.,.,.,.,.,.,.W #             . o q R ,.,.,.,.,.,.,.,.,.,.,.,.,.,.,.,.,.,.",
",.,.,.,.,.,.,.,.,.,.,.,.,.,.,.,.,.,.,.,.,./ j 8 4 3 8 p B ^ ,.,.,.,.,.,.=.4.4.4.,.,.,.,.,.,.,.,.,.,.",
",.,.,.,.,.,.,.,.,.,.,.,.,.,.,.,.,.,.,.,.,.4.,.,.R k k q v ,.,.,.,.4.,.,.4.4.4.4.,.,.,.,.,.,.,.,.,.,.",
",.,.,.,.,.,.,.,.,.,.,.,.,.,.,.,.,.,.,.,.,.5.,.,.@.N x K &.&.,.,.%.4.,.:.4.4.4.4.,.,.,.,.,.,.,.,.,.,.",
",.,.,.,.,.,.,.,.,.,.,.,.,.,.,.,.,.,.,.,.&.4.&.#.O.O.} @.#.#.&.&.:.,.,.:.4.4.4.4.,.,.,.,.,.,.,.,.,.,.",
",.,.,.,.,.,.,.,.,.,.,.,.,.,.,.,.4.%.O.( ( ^ ~ W E T Y T T W ~ ^ ( _ { O.4.4.4.4.4.4.4.4.1.2.2.4.,.,."
};
