/* XPM */
static char *result[] = {
/* columns rows colors chars-per-pixel */
"64 64 110 2 ",
"   c #A6D785",
".  c #A7D786",
"X  c #A7D887",
"o  c #A8D888",
"O  c #A9D889",
"+  c #A9D98A",
"@  c #AAD98B",
"#  c #ABD98C",
"$  c #ACDA8D",
"%  c #ACDA8E",
"&  c #ADDA8F",
"*  c #AEDB90",
"=  c #AFDB91",
"-  c #B0DB92",
";  c #B0DC93",
":  c #B1DC94",
">  c #B3DD96",
",  c #B3DD97",
"<  c #B4DD98",
"1  c #B5DE99",
"2  c #B5DE9A",
"3  c #B6DE9B",
"4  c #B7DF9C",
"5  c #B7DF9D",
"6  c #B8DF9E",
"7  c #B9DF9F",
"8  c #BAE0A0",
"9  c #BAE0A1",
"0  c #BBE0A2",
"q  c #BDE1A5",
"w  c #BEE2A6",
"e  c #BFE2A7",
"r  c #C0E3A8",
"t  c #C1E3A9",
"y  c #C2E4AB",
"u  c #C3E4AC",
"i  c #C3E4AD",
"p  c #C4E4AE",
"a  c #C5E5AF",
"s  c #C5E5B0",
"d  c #C6E5B1",
"f  c #C7E6B2",
"g  c #C8E6B4",
"h  c #C9E7B5",
"j  c #CAE7B7",
"k  c #CBE8B8",
"l  c #CCE8B9",
"z  c #CDE9BB",
"x  c #CEE9BC",
"c  c #CFEABD",
"v  c #D0EABE",
"b  c #D1EABF",
"n  c #D1EAC0",
"m  c #D2EBC1",
"M  c #D3EBC3",
"N  c #D4ECC4",
"B  c #D5ECC6",
"V  c #D6ECC7",
"C  c #D7EDC8",
"Z  c #D8EDC9",
"A  c #D9EECA",
"S  c #D9EECB",
"D  c #DAEECC",
"F  c #DBEFCD",
"G  c #DBEFCE",
"H  c #DCEFCF",
"J  c #DDF0D0",
"K  c #DDF0D1",
"L  c #DEF0D2",
"P  c #DFF1D3",
"I  c #E0F1D4",
"U  c #E0F1D5",
"Y  c #E1F2D6",
"T  c #E2F2D7",
"R  c #E2F2D8",
"E  c #E4F3DA",
"W  c #E4F3DB",
"Q  c #E5F3DC",
"!  c #E6F4DD",
"~  c #E7F4DE",
"^  c #E9F5E0",
"/  c #E9F5E1",
"(  c #EAF6E2",
")  c #EBF6E3",
"_  c #ECF7E5",
"`  c #EEF7E7",
"'  c #EEF7E8",
"]  c #EFF8E9",
"[  c #F0F8EA",
"{  c #F0F8EB",
"}  c #F2F9ED",
"|  c #F2F9EE",
" . c #F3FAEF",
".. c #F4FAF0",
"X. c #F5FAF1",
"o. c #F5FBF2",
"O. c #F6FBF3",
"+. c #F7FBF4",
"@. c #F7FCF4",
"#. c #F8FCF5",
"$. c #F9FCF6",
"%. c #F9FCF7",
"&. c #FAFDF8",
"*. c #FBFDF9",
"=. c #FCFDFA",
"-. c #FCFEFB",
";. c #FDFEFC",
":. c #FEFEFD",
">. c #FEFFFE",
",. c white",
/* pixels */
",.,.,.,.,.,.,.,.,.,.,.,.,.,.,.,.,.,.,.,.,.,.,.,.,.,.,.,.,.,.,.,.,.,.,.,.,.,.,.,.,.,.,.,.,.,.,.,.,.,.,.,.,.,.,.,.,.,.,.,.,.,.,.,.",
",.,.,.,.,.,.,.,.,.,.,.,.,.,.,.,.,.,.,.,.,.,.,.,.,.,.,.,.,.,.,.,.,.,.,.,.,.,.,.,.,.,.,.,.,.,.,.,.,.,.,.,.,.,.,.,.,.,.,.,.,.,.,.,.",
",.,.,.,.,.,.,.,.,.,.,.,.,.,.,.,.,.,.,.,.,.,.,.,.,.,.,.,.,.,.,.,.,.,.,.,.,.,.,.,.,.,.,.,.,.,.,.,.,.,.,.,.,.,.,.,.,.,.,.,.,.,.,.,.",
",.,.,.,.,.,.,.,.,.,.,.,.,.,.,.,.,.,.,.,.,.,.,.,.,.,.,.,.,.,.,.,.,.,.,.,.,.,.,.,.,.,.,.,.,.,.,.,.,.,.,.,.,.,.,.,.,.,.,.,.,.,.,.,.",
",.,.,.,.,.,.,.,.,.,.,.,.,.,.,.,.,.,.,.,.,.,.,.,.,.,.,.,.,.,.,.,.,.,.,.,.,.,.,.,.,.,.,.,.,.,.,.,.,.,.,.,.,.,.,.,.,.,.,.,.,.,.,.,.",
",.,.,.,.,.,.,.,.,.,.,.,.,.,.,.,.,.,.,.,.,.,.,.,.,.,.,.,.,.,.,.,.,.,.,.,.,.,.,.,.,.,.,.,.,.,.,.,.,.,.,.,.,.,.,.,.,.,.,.,.,.,.,.,.",
",.,.,.,.,.,.,.,.,.,.,.,.,.,.,.,.,.,.,.,.,.,.,.,.,.,.,.,.,.,.,.,.,.,.,.,.,.,.,.,.,.,.,.,.,.,.,.,.,.,.,.,.,.,.,.,.,.,.,.,.,.,.,.,.",
",.,.,.,.,.,.,.,.,.,.,.,.,.,.,.,.,.,.,.,.,.,.,.,.,.,.,.,.,.,.,.,.,.,.,.,.,.,.,.,.,.,.,.,.,.,.,.,.,.,.,.,.,.,.,.,.,.,.,.,.,.,.,.,.",
",.,.,.,.,.,.,.,.,.,.,.,.,.,.,.,.,.,.,.,.,.,.,.,.,.,.,.,.,.,.,.,.,.,.,.,.,.,.,.,.,.,.,.,.,.,.,.,.,.,.,.,.,.,.,.,.,.,.,.,.,.,.,.,.",
",.,.,.,.,.,.,.,.,.,.,.,.,.,.,.,.,.,.,.,.,.,.,.,.,.,.,.,.,.,.,.,.,.,.,.,.,.,.,.,.,.,.,.,.,.,.,.,.,.,.,.,.,.,.,.,.,.,.,.,.,.,.,.,.",
",.,.,.,.,.,.,.,.,.,.,.,.,.,.,.,.,.,.,.,.,.,.,.,.,.,.,.*.^ S c j j c S ^ *.,.,.,.,.,.,.,.,.,.,.,.,.,.,.,.,.,.,.,.,.,.,.,.,.,.,.,.",
",.,.,.,.,.,.,.,.,.,.,.,.,.,.,.,.,.,.,.,.,.,.,.,.-.P w o                 o w P -.,.,.,.,.,.,.,.,.,.,.,.,.,.,.,.,.,.,.,.,.,.,.,.,.",
",.,.,.,.,.,.,.,.,.,.,.,.,.,.,.,.,.,.,.,.,.,.:.S *     . 3 f m Z Z m f 3 .     * S :.,.,.,.,.,.,.,.,.,.,.,.,.,.,.,.,.,.,.,.,.,.,.",
",.,.,.,.,.,.,.,.,.,.,.,.,.,.,.,.,.,.,.,.,.' 3     2 D +.,.,.,.,.,.,.,.,.@.D 2     3 ' ,.,.,.,.,.,.,.,.,.,.,.,.,.,.,.,.,.,.,.,.,.",
",.,.,.,.,.,.,.,.,.,.,.,.,.,.,.,.,.,.,.,.L O   ; Y >.,.,.$.Q Z b Y ,.,.,.,.,.>.Y ;   O L ,.,.,.,.,.,.,.,.,.,.,.,.,.,.,.,.,.,.,.,.",
",.,.,.,.,.,.,.,.,.,.,.,.,.,.,.,.,.,.,.C     d *.,.>.T q X       O ,.,.,.,.,.,.,.*.d     C ,.,.,.,.,.,.,.,.,.,.,.,.,.,.,.,.,.,.,.",
",.,.,.,.,.,.,.,.,.,.,.,.,.,.,.,.,.,.J     V ,.,._ 3     X 8 j n E ,.,.,.,.,.,.,.,.,.V     J ,.,.,.,.,.,.,.,.,.,.,.,.,.,.,.,.,.,.",
",.,.,.,.,.,.,.,.,.,.,.,.,.,.,.,.,._ o   C ,.,.Z X   = A $.,.,.,.,.,.,.,.,.,.,.,.,.,.,.C   o _ ,.,.,.,.,.,.,.,.,.,.,.,.,.,.,.,.,.",
",.,.,.,.,.,.,.,.,.,.,.,.,.,.,.,.-.,   h ,.,.n     k *.,.,.,.,.,.,.,.,.,.,.,.,.,.,.,.,.,.h   > -.,.,.,.,.,.,.,.,.,.,.,.,.,.,.,.,.",
",.,.,.,.,.,.,.,.,.,.,.,.,.,.,.,.N   , =.,.K   . J ,.,.,.,.,.,.,.,.,.,.,.,.,.,.,.,.,.,.,.=.,   N ,.,.,.,.,.,.,.,.,.,.,.,.,.,.,.,.",
",.,.,.,.,.,.,.,.,.,.,.,.,.,.,.%.#   ! ,.| +   S ,.,.,.,.,.,.,.,.,.,.,.,.,.,.,.,.,.,.,.,.,.!   # %.,.,.,.,.,.,.,.,.,.,.,.,.,.,.,.",
",.,.,.,.,.,.,.,.,.,.,.,.,.,.,.Z   0 ,.,.y   u ,.,.,.,.,.,.,.,.,.,.,.,.,.,.,.,.,.,.,.,.,.,.,.9   C ,.,.,.,.,.,.,.,.,.,.,.,.,.,.,.",
",.,.,.,.,.,.,.,.,.,.,.,.,.,.,.4   Y ,.} . O o.,.,.,.,.,.,.,.,.,.,.,.,.,.,.,.,.,.,.,.,.,.,.,.Y   3 ,.,.,.,.,.,.,.,.,.,.,.,.,.,.,.",
",.,.,.,.,.,.,.,.,.,.,.,.,.,.X.  + -.,.o.: n ,.,.,.,.,.,.,.,.,.,.,.,.,.,.,.,.,.,.,.,.,.,.,.,.-.+   X.,.,.,.,.,.,.,.,.,.,.,.,.,.,.",
",.,.,.,.,.,.,.,.,.,.,.,.,.,.I   w ,.,.,.,.,.,.,.,.,.,.,.,.,.,.,.,.,.,.,.,.,.,.,.,.,.,.,.,.,.,.w   I ,.,.,.,.,.,.,.,.,.,.,.,.,.,.",
",.,.,.,.,.,.,.,.,.,.,.,.,.,.c   b ,.,.,.,.,.,.,.,.~ ` ,.,.,.,._ _ ,.,.,.,.` ~ ,.,.,.,.,.,.,.,.b   c ,.,.,.,.,.,.,.,.,.,.,.,.,.,.",
",.,.,.,.,.,.,.,.,.,.,.,.,.,.a   J ,.,.) +.,.,.,. .    0 ~ >.C X X C >.~ 0      .,.,.,.,.,.,.,.K   a ,.,.,.,.,.,.,.,.,.,.,.,.,.,.",
",.,.,.,.,.,.,.,.,.,.,.,.,.,.e   E ,.{   w ,.,.,.:.<       o         o       < :.,.,.,.,.,.,.,.E   e ,.,.,.,.,.,.,.,.,.,.,.,.,.,.",
",.,.,.,.,.,.,.,.,.,.,.,.,.,.e   W ,.`   2 ,.,.,.,.T     $   % U U %   $     T ,.,.,.,.,.,.,.,.Q   e ,.,.,.,.,.,.,.,.,.,.,.,.,.,.",
",.,.,.,.,.,.,.,.,.,.,.,.,.,.u   I ,.O.  $ ,.,.,.,.>.2   F o.;.,.,.;.o.F   2 >.,.,.,.,.,.,.,.,.I   u ,.,.,.,.,.,.,.,.,.,.,.,.,.,.",
",.,.,.,.,.,.,.,.,.,.,.,.,.,.l   B ,.,.&   } ,.,.,.,.L   2 ,.,.,.,.,.,.2   L ,.,.,.,.,.,.,.,.,.B   l ,.,.,.,.,.,.,.,.,.,.,.,.,.,.",
",.,.,.,.,.,.,.,.,.,.,.,.,.,.F   p ,.,.i   C ,.,.,.,.-.%   _ ,.,.,.,._   % -.,.,.,.,.,.,.,.,.,.a   F ,.,.,.,.,.,.,.,.,.,.,.,.,.,.",
",.,.,.,.,.,.,.,.,.,.,.,.,.,.'   * >.,.T   r ,.,.,.,.,.k   z ,.,.,.,.z   k ,.,.,.,.,.,.,.,.,.>.*   ' ,.,.,.,.,.,.,.,.,.,.,.,.,.,.",
",.,.,.,.,.,.,.,.,.,.,.,.,.,.>.=   ( ,.>.H [ ,.,.,.,.,.^   > ,.,.,.,.>   ^ ,.,.,.,.,.,.,.,.,.(   = >.,.,.,.,.,.,.,.,.,.,.,.,.,.,.",
",.,.,.,.,.,.,.,.,.,.,.,.,.,.,.x   d ,.,.,.,.,.,.,.,.,.:.@   X.,.,.X.  @ :.,.,.,.,.,.,.,.,.,.d   z ,.,.,.,.,.,.,.,.,.,.,.,.,.,.,.",
",.,.,.,.,.,.,.,.,.,.,.,.,.,.,.| . X | ,.,.,.,.,.,.,.,.,.w   Y ,.,.Y   w ,.,.,.,.,.,.,.,.,.| o . } ,.,.,.,.,.,.,.,.,.,.,.,.,.,.,.",
",.,.,.,.,.,.,.,.,.,.,.,.,.,.,.,.d   r ,.,.,.,.,.,.,.,.,.c   b ,.,.b   c ,.,.,.,.,.,.,.,.,.t   s ,.,.,.,.,.,.,.,.,.,.,.,.,.,.,.,.",
",.,.,.,.,.,.,.,.,.,.,.,.,.,.,.,.o.@   J ,.,.,.,.,.,.,.,.L   i ,.,.i   K ,.,.,.,.,.,.,.,.J   @ o.,.,.,.,.,.,.,.,.,.,.,.,.,.,.,.,.",
",.,.,.,.,.,.,.,.,.,.,.,.,.,.,.,.,.H   + ] ,.,.,.,.,.,.,./   7 ,.,.7   / ,.,.,.,.,.,.,.[ +   H ,.,.,.,.,.,.,.,.,.,.,.,.,.,.,.,.,.",
",.,.,.,.,.,.,.,.,.,.,.,.,.,.,.,.,.,.a   > %.,.,.,.,.,.,.}   : ,.,.:   } ,.,.,.,.,.,.%.>   a ,.,.,.,.,.,.,.,.,.,.,.,.,.,.,.,.,.,.",
",.,.,.,.,.,.,.,.,.,.,.,.,.,.,.,.,.,.*.2   w :.,.,.,.,.,.$.  # ,.,.#   #.,.,.,.,.,.:.w   2 *.,.,.,.,.,.,.,.,.,.,.,.,.,.,.,.,.,.,.",
",.,.,.,.,.,.,.,.,.,.,.,.,.,.,.,.,.,.,. .&   g ,.,.,.,.,.:.  . ,.,..   ;.,.,.,.,.,.h   % | ,.,.,.,.,.,.,.,.,.,.,.,.,.,.,.,.,.,.,.",
",.,.,.,.,.,.,.,.,.,.,.,.,.,.,.,.,.,.,.,.( O   b ,.,.,.,.,.X   -.-.  X ,.,.,.,.,.M   O / ,.,.,.,.,.,.,.,.,.,.,.,.,.,.,.,.,.,.,.,.",
",.,.,.,.,.,.,.,.,.,.,.,.,.,.,.,.,.,.,.,.,.R .   S ,.,.,.,.+   %.&.  + ,.,.,.,.H   . Y ,.,.,.,.,.,.,.,.,.,.,.,.,.,.,.,.,.,.,.,.,.",
",.,.,.,.,.,.,.,.,.,.,.,.,.,.,.,.,.,.,.,.,.,.G   . Q ,.,.,.$   %.%.  $ ,.,.,.^ X   A ,.,.,.,.,.,.,.,.,.,.,.,.,.,.,.,.,.,.,.,.,.,.",
",.,.,.,.,.,.,.,.,.,.,.,.,.,.,.,.,.,.,.,.,.,.,.v   & #.,.,.$   $.$.  $ ,.,.&.-   l ,.,.,.,.,.,.,.,.,.,.,.,.,.,.,.,.,.,.,.,.,.,.,.",
",.,.,.,.,.,.,.,.,.,.,.,.,.,.,.,.,.,.,.,.,.,.,.>.7   c ,.,.2 $ =.=.% 2 ,.,.V   1 ;.,.,.,.,.,.,.,.,.,.,.,.,.,.,.,.,.,.,.,.,.,.,.,.",
",.,.,.,.,.,.,.,.,.,.,.,.,.,.,.,.,.,.,.,.,.,.,.,.Q   ; ,.,.*.$.,.,.$.*.,.,.4   P ,.,.,.,.,.,.,.,.,.,.,.,.,.,.,.,.,.,.,.,.,.,.,.,.",
",.,.,.,.,.,.,.,.,.,.,.,.,.,.,.,.,.,.,.,.,.,.,.,.;.O   @.,.,.,.,.,.,.,.,.;.X   $.,.,.,.,.,.,.,.,.,.,.,.,.,.,.,.,.,.,.,.,.,.,.,.,.",
",.,.,.,.,.,.,.,.,.,.,.,.,.,.,.,.,.,.,.,.,.,.,.,.,.,   C U U U U U U U U F   % ,.,.,.,.,.,.,.,.,.,.,.,.,.,.,.,.,.,.,.,.,.,.,.,.,.",
",.,.,.,.,.,.,.,.,.,.,.,.,.,.,.,.,.,.,.,.,.,.,.,.,.5                         : ,.,.,.,.,.,.,.,.,.,.,.,.,.,.,.,.,.,.,.,.,.,.,.,.,.",
",.,.,.,.,.,.,.,.,.,.,.,.,.,.,.,.,.,.,.,.,.,.,.,.,.T a a a a a a a a a a a a K ,.,.,.,.,.,.,.,.,.,.,.,.,.,.,.,.,.,.,.,.,.,.,.,.,.",
",.,.,.,.,.,.,.,.,.,.,.,.,.,.,.,.,.,.,.,.,.,.,.,.,.,.,.,.,.,.,.,.,.,.,.,.,.,.,.,.,.,.,.,.,.,.,.,.,.,.,.,.,.,.,.,.,.,.,.,.,.,.,.,.",
",.,.,.,.,.,.,.,.,.,.,.,.,.,.,.,.,.,.,.,.,.,.,.,.,.,.-.-.-.-.-.-.-.-.-.-.-.-.,.,.,.,.,.,.,.,.,.,.,.,.,.,.,.,.,.,.,.,.,.,.,.,.,.,.",
",.,.,.,.,.,.,.,.,.,.,.,.,.,.,.,.,.,.,.,.,.,.,.,.,.g                         g ,.,.,.,.,.,.,.,.,.,.,.,.,.,.,.,.,.,.,.,.,.,.,.,.,.",
",.,.,.,.,.,.,.,.,.,.,.,.,.,.,.,.,.,.,.,.,.,.,.,.,.l .                     . l ,.,.,.,.,.,.,.,.,.,.,.,.,.,.,.,.,.,.,.,.,.,.,.,.,.",
",.,.,.,.,.,.,.,.,.,.,.,.,.,.,.,.,.,.,.,.,.,.,.,.,.,.,.,.,.,.,.,.,.,.,.,.,.,.,.,.,.,.,.,.,.,.,.,.,.,.,.,.,.,.,.,.,.,.,.,.,.,.,.,.",
",.,.,.,.,.,.,.,.,.,.,.,.,.,.,.,.,.,.,.,.,.,.,.,.,.,.,.$.+.+.+.+.+.+.+.+.$.,.,.,.,.,.,.,.,.,.,.,.,.,.,.,.,.,.,.,.,.,.,.,.,.,.,.,.",
",.,.,.,.,.,.,.,.,.,.,.,.,.,.,.,.,.,.,.,.,.,.,.,.,.,.P                     P ,.,.,.,.,.,.,.,.,.,.,.,.,.,.,.,.,.,.,.,.,.,.,.,.,.,.",
",.,.,.,.,.,.,.,.,.,.,.,.,.,.,.,.,.,.,.,.,.,.,.,.,.,.! & $ $ $ $ $ $ $ $ & ! ,.,.,.,.,.,.,.,.,.,.,.,.,.,.,.,.,.,.,.,.,.,.,.,.,.,.",
",.,.,.,.,.,.,.,.,.,.,.,.,.,.,.,.,.,.,.,.,.,.,.,.,.,.,.,.,.,.,.,.,.,.,.,.,.,.,.,.,.,.,.,.,.,.,.,.,.,.,.,.,.,.,.,.,.,.,.,.,.,.,.,.",
",.,.,.,.,.,.,.,.,.,.,.,.,.,.,.,.,.,.,.,.,.,.,.,.,.,.,.,.$.............$.,.,.,.,.,.,.,.,.,.,.,.,.,.,.,.,.,.,.,.,.,.,.,.,.,.,.,.,.",
",.,.,.,.,.,.,.,.,.,.,.,.,.,.,.,.,.,.,.,.,.,.,.,.,.,.,...O             O ..,.,.,.,.,.,.,.,.,.,.,.,.,.,.,.,.,.,.,.,.,.,.,.,.,.,.,.",
",.,.,.,.,.,.,.,.,.,.,.,.,.,.,.,.,.,.,.,.,.,.,.,.,.,.,.$.6 : : : : : : 5 #.,.,.,.,.,.,.,.,.,.,.,.,.,.,.,.,.,.,.,.,.,.,.,.,.,.,.,."
};
