/* XPM */
static char *result[] = {
/* columns rows colors chars-per-pixel */
"64 64 2 1 ",
"  c orange",
". c #00202f",
/* pixels */
"...............................  ...............................",
"...............................  ...............................",
"...............................  ...............................",
"...............................  ...............................",
"..................  ...........  ...........  ..................",
"..................  ...........  ...........  ..................",
"...................  ......................  ...................",
"...................  ......................  ...................",
".................... ...................... ....................",
"................................................................",
"..............................    ..............................",
"..........................            ..........................",
"........................       ..       ........................",
"......................    ............    ......................",
"........   ..........   ....... ........   ..........   ........",
".........    .......   ....      ........   .......    .........",
"...........  ......  ....       ...........  ......  ...........",
"..................  ....   .................  ..................",
".................   ..    ..................   .................",
".................  ...  .....................  .................",
"................  ...  .......................  ................",
"................  ..   .......................  ................",
"...............  ...  .........................  ...............",
"...............  ...  .........................  ...............",
"...............  ..............................  ...............",
"..............   ..............................   ..............",
"..............  .........   ...  ...   .........  ..............",
"..............  ...  ....              .........  ..............",
"..............  ...  .....     ..     ..........  ..............",
"..............  ...  .....  ........  ..........  ..............",
"..............  ...  ......  ......  ...........  ..............",
"...............  ..  ......  ......  ..........  ...............",
"...............  ...  .....   ....   ..........  ...............",
"...............  ...........  ....  ...........  ...............",
"...............   ..........  ....  ..........   ...............",
"................  ..........  ....  ..........  ................",
"................   .........   ..   .........   ................",
".................  ..........  ..  ..........  .................",
"..................  .........  ..  .........  ..................",
"..................   ........  ..  ........   ..................",
"...................   .......  ..  .......   ...................",
"....................   ......  ..  ......   ....................",
".....................   .....  ..  ......  .....................",
"......................  .....  ..  .....  ......................",
".......................  ....  ..  ....  .......................",
".......................   ...  ..  ...   .......................",
"........................   ..  ..  ...  ........................",
".........................  ..........  .........................",
".........................  ..........  .........................",
".........................  ..........  .........................",
".........................              .........................",
"..........................            ..........................",
"................................................................",
"................................................................",
".........................              .........................",
".........................              .........................",
"................................................................",
"................................................................",
"...........................          ...........................",
"...........................          ...........................",
"................................................................",
"................................................................",
"............................        ............................",
"............................        ............................"
};
