/* XPM */
static char *result[] = {
/* columns rows colors chars-per-pixel */
"80 80 5 1 ",
"  c #00DD5E",
". c #00DD5F",
"X c #00DE5E",
"o c #00DE5F",
"O c #00202f",
/* pixels */
"OOOOOOOOOOOOOOOOOOOOOOOOOOOOOOOOOOOOOOOOOOOOOOOOOOOOOOOOOOOOOOOOOOOOOOOOOOOOOOOO",
"OOO ooooo OOOOOOOOOOOOOOOOOOOOOOOOOOOOOOOOOOOOOOOOOOOOOOOOOOOOOOOOOOOOOOOOOOOOOO",
"OOo   .o.  oOOOOOOOOOOOOOOOOOOOOOOOOOOOOOOOOOOOOOOOOOOOOOOOOOOOOOOOOOOOOOOOOOOOO",
"O......Xo...X.OOOOOOOOOOOOOOOOOOOOOOOOOOOOOOOOOOOOOOOOOOOOOOOOOOOOOOOOOOOOOOOOOO",
"Ooo.ooo oooo .ooOOOOOOOOOOOOOOOOOOOOOOOOOOOOOOOOOOOOOOOOOOOOOOOOOOOOOOOOOOOOOOOO",
"oXooXoo. XXo. XXooOOOOOOOOOOOOOOOOOOOOOOOOOOOOOOOOOOOOOOOOOOOOOOOOOOOOOOOOOOOOOO",
"oooooooXooooXooooXo.OOOOOOOOOOOOOOOOOOOOOOOOOOOOOOOOOOOOOOOOOOOOOOOOOOOOOOOOOOOO",
"o.o                  oOOOOOOOOOOOOOOOOOOOOOOOOOOOOOOOOOOOOOOOOOOOOOOOOOOOOOOOOOO",
"o.o.o..Xooo Xo.o Xo.o..oOOOOOOOOOOOOOOOOOOOOOOOOOOOOOOOOOOOOOOOOOOOOOOOOOOOOOOOO",
"ooo.ooo oooo . oo . ooo..oOOOOOOOOOOOOOOOOOOOOOOOOOOOOOOOOOOOOOOOOOOOOOOOOOOOOOO",
"XXooXooXXXooXooooXooooXooooXOOOOOOOOOOOOOOOOOOOOOOOOOOOOOOOOOOOOOOOOOOOOOOOOOOOO",
"oooooooX.oooXXoooXXoooooooooo.OOOOOOOOOOOOOOOOOOOOOOOOOOOOOOOOOOOOOOOOOOOOOOOOOO",
"o.o                   X.   X.  oOOOOOOOOOOOOOOOOOOOOOOOOOOOOOOOOOOOOOOOOOOOOOOOO",
"oo.o.o.o..ooo..ooo..o.oo.o.oo.o.ooOOOOOOOOOOOOOOOOOOOOOOOOOOOOOOOOOOOOOOOOOOOOOO",
" o.o o.o. ooo.oooo.oo.o oo.o oo.o ooOOOOOOOOOOOOOOOOOOOOOOOOOOOOOOOOOOOOOOOOOOOO",
"XXooXooXXXooXooooXooooXooooXooooXoooooOOOOOOOOOOOOOOOOOOOOOOOOOOOOOOOOOOOOOOOOOO",
"oooooooX.oooXXoooXXoooooooooooooooooooooOOOOOOOOOOOOOOOOOOOOOOOOOOOOOOOOOOOOOOOO",
"o.o                   X.   X.   X.   X.  oOOOOOOOOOOOOOOOOOOOOOOOOOOOOOOOOOOOOOO",
"oo.o.o.o..ooo..ooo..o.oo.o.oo.o.oo.o.oo.ooooOOOOOOOOOOOOOOOOOOOOOOOOOOOOOOOOOOOO",
" o.o o.o. ooo.oooo.oo.o oo.o oo.o oo.o oo.ooooOOOOOOOOOOOOOOOOOOOOOOOOOOOOOOOOOO",
"XXooXooXXXooXooooXooooXooooXooooXooooXooooXXooooOOOOOOOOOOOOOOOOOOOOOOOOOOOOOOOO",
"oooooooo.ooooooooooooooooooooooooooooooo.oooo.ooooOOOOOOOOOOOOOOOOOOOOOOOOOOOOOO",
"o X XX X XXoXXXXoXXXX   XX   XX   XX   X            oOOOOOOOOOOOOOOOOOOOOOOOOOOO",
"o..o......o.. .o.. .o.o..o.o..o.o..o.o..oooo.oooo.oooo.OOOOOOOOOOOOOOOOOOOOOOOOO",
" o.o o.o. ooo.oooo.oo.o oo.o oo.o oo.o oo.ooXo.ooXo.oooooOOOOOOOOOOOOOOOOOOOOOOO",
"XXooXooXXXooXooooXooooXooooXooooXooooXooooXXoooXXoooXXoooXoOOOOOOOOOOOOOOOOOOOOO",
"oooooooo.ooooooooooooooooooooooooooooooo.oooo.oooo.oooo.oooo OOOOOOOOOOOOOOOOOOO",
"o X XX X XXoXXXXoXXXX   XX   XX   XX   X                      oOOOOOOOOOOOOOOOOO",
"o..o......o.. .o.. .o.o..o.o..o.o..o.o..oooo.oooo.oooo.oooo.oooo OOOOOOOOOOOOOOO",
" o.o o.o. ooo.oooo.oo.o oo.o oo.o oo.o oo.ooXo.ooXo.ooXo.ooXo.oo.o OOOOOOOOOOOOO",
"XXooXooXXXooXooooXooooXooooXooooXooooXooooXXoooXXoooXXoooXXoooXXoooXoOOOOOOOOOOO",
"oooooooo.ooooooooooooooooooooooooooooooo.oooo.oooo.oooo.oooo.oooo.oooo OOOOOOOOO",
"o X XX X XXoXXXXoXXXX   XX   XX   XX   X                               X.OOOOOOO",
"o..o......o.. .o.. .o.o..o.o..o.o..o.o..oooo.oooo.oooo.oooo.oooo.oooo.ooooOOOOOO",
" o.o o.o. ooo.oooo.oo.o oo.o oo.o oo.o oo.ooXo.ooXo.ooXo.ooXo.ooXo.ooXo.ooooOOOO",
"XXooXooXXXooXooooXooooXooooXooooXooooXooooXXoooXXoooXXoooXXoooXXoooXXoooXXooo OO",
"oooooooo.ooooooooooooooooooooooooooooooo.oooo.oooo.oooo.oooo.oooo.oooo.oooo.oo.O",
"o X XX X XXoXXXXoXXXX   XX   XX   XX   X                                       O",
"o..o......o.. .o.. .o.o..o.o..o.o..o.o..oooo.oooo.oooo.oooo.oooo.oooo.oooo.ooooX",
" o.o o.o. ooo.oooo.oo.o oo.o oo.o oo.o oo.ooXo.ooXo.ooXo.ooXo.ooXo.ooXo.ooXo.oo ",
"ooooooooooooo.oooo.oooXooooXooooXooooXooooXooooXooooXooooXooooXooooXooooXooooXo.",
"ooo.oooooooooooooooooooooooooooooooooooooooXooooXooooXooooXooooXooooXooooXooooX ",
"o X XX X XXoXXXXoXXXX   XX   XX   XX   X                                      XO",
"X . oX o oXXo  XXo  X o  X o  X o  X o  o oooo oooo oooo oooo oooo oooo oooo ooO",
"Xo..oXoX.oooX oooX oo.o oo.o oo.o oo.o oo.o oo.o oo.o oo.o oo.o oo.o oo.o oo oOO",
"ooooooooooooo.oooo.oooXooooXooooXooooXooooXooooXooooXooooXooooXooooXooooXoooOOOO",
"ooo.oooooooooooooooooooooooooooooooooooooooXooooXooooXooooXooooXooooXoooo..OOOOO",
"o X XX X XXoXXXXoXXXX   XX   XX   XX   X                               ooOOOOOOO",
"X . oX o oXXo  XXo  X o  X o  X o  X o  o oooo oooo oooo oooo oooo ooooOOOOOOOOO",
"Xo..oXoX.oooX oooX oo.o oo.o oo.o oo.o oo.o oo.o oo.o oo.o oo.o oo.oXOOOOOOOOOOO",
"ooooooooooooo.oooo.oooXooooXooooXooooXooooXooooXooooXooooXooooXooooOOOOOOOOOOOOO",
"ooo.oooooooooooooooooooooooooooooooooooooooXooooXooooXooooXoooo.oOOOOOOOOOOOOOOO",
"o X XX X XXoXXXXoXXXX   XX   XX   XX   X                     XoOOOOOOOOOOOOOOOOO",
"X . oX o oXXo  XXo  X o  X o  X o  X o  o oooo oooo oooo ooooOOOOOOOOOOOOOOOOOOO",
"Xo..oXoX.oooX oooX oo.o oo.o oo.o oo.o oo.o oo.o oo.o oo.o.OOOOOOOOOOOOOOOOOOOOO",
"ooooooooooooo.oooo.oooXooooXooooXooooXooooXooooXooooXooo.OOOOOOOOOOOOOOOOOOOOOOO",
"ooo.oooooooooooooooooooooooooooooooooooooooXooooXooooo OOOOOOOOOOOOOOOOOOOOOOOOO",
"o X XX X XXoXXXXoXXXX   XX   XX   XX   X           ooOOOOOOOOOOOOOOOOOOOOOOOOOOO",
"X . oX o oXXo  XXo  X o  X o  X o  X o  o oooo ooooOOOOOOOOOOOOOOOOOOOOOOOOOOOOO",
"Xo..oXoX.oooX oooX oo.o oo.o oo.o oo.o oo.o oo.ooOOOOOOOOOOOOOOOOOOOOOOOOOOOOOOO",
"ooooooooooooo.oooo.oooXooooXooooXooooXooooXooooOOOOOOOOOOOOOOOOOOOOOOOOOOOOOOOOO",
"ooo.ooooooooooooooooooooooooooooooooooooooo  OOOOOOOOOOOOOOOOOOOOOOOOOOOOOOOOOOO",
"o X XX X XXoXXXXoXXXX   XX   XX   XX   X  oOOOOOOOOOOOOOOOOOOOOOOOOOOOOOOOOOOOOO",
"X . oX o oXXo  XXo  X o  X o  X o  X o ooOOOOOOOOOOOOOOOOOOOOOOOOOOOOOOOOOOOOOOO",
"Xo..oXoX.oooX oooX oo.o oo.o oo.o oo.o OOOOOOOOOOOOOOOOOOOOOOOOOOOOOOOOOOOOOOOOO",
"ooooooooooooo.oooo.oooXooooXooooXoo oOOOOOOOOOOOOOOOOOOOOOOOOOOOOOOOOOOOOOOOOOOO",
"ooo.ooooooooooooooooooooooooooooo XOOOOOOOOOOOOOOOOOOOOOOOOOOOOOOOOOOOOOOOOOOOOO",
"o X XX X XXoXXXXoXXXX   XX   XX.oOOOOOOOOOOOOOOOOOOOOOOOOOOOOOOOOOOOOOOOOOOOOOOO",
"X . oX o oXXo  XXo  X o  X o oOOOOOOOOOOOOOOOOOOOOOOOOOOOOOOOOOOOOOOOOOOOOOOOOOO",
"Xo..oXoX.oooX oooX oo.o oo.oOOOOOOOOOOOOOOOOOOOOOOOOOOOOOOOOOOOOOOOOOOOOOOOOOOOO",
"ooooooooooooo.oooo.oooXooXOOOOOOOOOOOOOOOOOOOOOOOOOOOOOOOOOOOOOOOOOOOOOOOOOOOOOO",
"ooo.ooooooooooooooooooooOOOOOOOOOOOOOOOOOOOOOOOOOOOOOOOOOOOOOOOOOOOOOOOOOOOOOOOO",
"o X XX X XXoXXXXoXXXo OOOOOOOOOOOOOOOOOOOOOOOOOOOOOOOOOOOOOOOOOOOOOOOOOOOOOOOOOO",
"X . oX o oXXo  XXo  OOOOOOOOOOOOOOOOOOOOOOOOOOOOOOOOOOOOOOOOOOOOOOOOOOOOOOOOOOOO",
"Xo..oXoX.oooX oooXOOOOOOOOOOOOOOOOOOOOOOOOOOOOOOOOOOOOOOOOOOOOOOOOOOOOOOOOOOOOOO",
"Ooooooooooooo.ooOOOOOOOOOOOOOOOOOOOOOOOOOOOOOOOOOOOOOOOOOOOOOOOOOOOOOOOOOOOOOOOO",
"OXo.ooooooooo OOOOOOOOOOOOOOOOOOOOOOOOOOOOOOOOOOOOOOOOOOOOOOOOOOOOOOOOOOOOOOOOOO",
"OOX XX X XooOOOOOOOOOOOOOOOOOOOOOOOOOOOOOOOOOOOOOOOOOOOOOOOOOOOOOOOOOOOOOOOOOOOO",
"OOOX X o.oOOOOOOOOOOOOOOOOOOOOOOOOOOOOOOOOOOOOOOOOOOOOOOOOOOOOOOOOOOOOOOOOOOOOOO",
"OOOOOOOOOOOOOOOOOOOOOOOOOOOOOOOOOOOOOOOOOOOOOOOOOOOOOOOOOOOOOOOOOOOOOOOOOOOOOOOO"
};
