/* XPM */
static char *result[] = {
/* columns rows colors chars-per-pixel */
"48 48 3 1 ",
"  c black",
". c #000000",
"X c #00202f",
/* pixels */
"XXXXXXXXXXXXXXXXXXXXXXXXXXXXXXXXXXXXXXXXXXXXXXXX",
"XXXXXXXXXXXXXXXXXXXXXXXXXXXXXXXXXXXXXXXXXXXXXXXX",
"XXXXXXXXXXXXXXXXXXXXXXXXXXXXXXXXXXXXXXXXXXXXXXXX",
"XXXXX.......................................XXXX",
"XX.......... .. .. .. ........................XX",
"X......... .................... ..... .. .. .. X",
"X..XXXXXXXXXXXXXXXXXXXXXXXXXXXXXXXXXXXXXXXXXX. X",
"XXXXXXXXXXXXXXXXXXXXXXXXXXXXXXXXXXXXXXXXXXXXXXXX",
"XXXXXXXXX....... ..XXXXXXXXXX    .. ...XXXXXXXXX",
"XX..... .. ........XXXXXXXXXX.................XX",
"X..... .. .........XXXXXXXXXX .................X",
"X..................XXXXXXXXXX..................X",
"X...  .............XXXXXXXXXX .................X",
"X ........... .. ..XXXXXXXXXX ..................",
"..... .............XXXXXXXXXX ..................",
"....  .............XXXXXXXXXX ..................",
"  ........... .. ..XXXXXXXXXX ................. ",
"..... .............XXXXXXXXXX ..................",
"....  .............XXXXXXXXXX ..................",
". ........... .. ..XXXXXXXXXX ..................",
"..... .............XXXXXXXXXX ..................",
"....  .............XXXXXXXXXX ................. ",
"  ........... .. ..XXXXXXXXXX ................. ",
"..... .............XXXXXXXXXX ..................",
". ........ .... . .XXXXXXXXXXX.... .............",
"..  . .....XXXXXXXXXXXXXXXXXXXXXXXXXX ......... ",
" ...........XXXXXXXXXXXXXXXXXXXXXXXX ...........",
". ...........XXXXXXXXXXXXXXXXXXXXXX............ ",
"..  . ....... XXXXXXXXXXXXXXXXXXXX..............",
"...............XXXXXXXXXXXXXXXXXX ............. ",
". ..............XXXXXXXXXXXXXXXX................",
"..  . ...........XXXXXXXXXXXXXX.................",
"..................XXXXXXXXXXXX..................",
". ................ XXXXXXXXXX.................. ",
"..  . ..............XXXXXXXX................... ",
".....................XXXXXX.....................",
". ....................XXXX..................... ",
" .  . .................XX.......................",
"............................................... ",
"X ..............................................",
"X.  . .........................................X",
"X..............................................X",
"X .............................................X",
"XX. . ........................................XX",
"XXXX.. ..... ................. .. ....... ..XXXX",
"XXXXXXXXXXXXXXXXXXXXXXXXXXXXXXXXXXXXXXXXXXXXXXXX",
"XXXXXXXXXXXXXXXXXXXXXXXXXXXXXXXXXXXXXXXXXXXXXXXX",
"XXXXXXXXXXXXXXXXXXXXXXXXXXXXXXXXXXXXXXXXXXXXXXXX"
};
