/* XPM */
static char *_afce3ac29974138f6510a9381a3a69frQ0xPyzZSVCDrgIc[] = {
/* columns rows colors chars-per-pixel */
"50 50 109 2 ",
"   c #646B75",
".  c #656D78",
"X  c #686F78",
"o  c #697077",
"O  c #6B737A",
"+  c #737A7E",
"@  c #DFC97A",
"#  c #747C85",
"$  c #7EBEBD",
"%  c #7FC0BC",
"&  c #828A92",
"*  c #899097",
"=  c #80BFBD",
"-  c #8DC6B7",
";  c #83C1BC",
":  c #8BC5BB",
">  c #97CBB7",
",  c #99CCB7",
"<  c #90C7BB",
"1  c #94C9BC",
"2  c #9CCDBB",
"3  c #A0CFBF",
"4  c #A4D1BC",
"5  c #ACD5BC",
"6  c #B4D9BD",
"7  c #BADCBF",
"8  c #EADBA6",
"9  c #ECDFAE",
"0  c #8CC5C0",
"q  c #94C9C1",
"w  c #9CCDC3",
"e  c #A0CFC5",
"r  c #A4D2C4",
"t  c #ACD6C3",
"y  c #ACD6C9",
"u  c #B4D9C3",
"i  c #BBDDC4",
"p  c #B0D7CA",
"a  c #B4DACA",
"s  c #BCDECD",
"d  c #BEDED0",
"f  c #C0DFCD",
"g  c #C0DFD0",
"h  c #C4E1C4",
"j  c #C9E4C6",
"k  c #C3E1CB",
"l  c #CCE5CC",
"z  c #D0E7CB",
"x  c #D2E9CD",
"c  c #C4E2D2",
"v  c #CCE5D4",
"b  c #CFE7D8",
"n  c #D3E9D3",
"m  c #DBEDD4",
"M  c #D0E7D8",
"N  c #D4EAD9",
"B  c #DCEEDC",
"V  c #E2F0D6",
"C  c #E4F1DB",
"Z  c #E3F1DC",
"A  c #E3F1DF",
"S  c #E5F2DF",
"D  c #E7F3DF",
"F  c #E9F4DE",
"G  c #DDDFE0",
"H  c #DEEFE0",
"J  c #E2E4E6",
"K  c #E0EFE1",
"L  c #E5E7E9",
"P  c #E2F1E0",
"I  c #E5F2E3",
"U  c #E6F2E2",
"Y  c #E7F3E5",
"T  c #E8F4E0",
"R  c #EAF4E2",
"E  c #ECF5E3",
"W  c #EBF5E4",
"Q  c #E8F4E6",
"!  c #EAF5E6",
"~  c #EDF6E5",
"^  c #EDF6E9",
"/  c #EFF7E9",
"(  c #F0F7E7",
")  c #F1F8E6",
"_  c #F0F7E8",
"`  c #F1F8E8",
"'  c #F1F8E9",
"]  c #F3F9EA",
"[  c #F1F8EC",
"{  c #F3F9ED",
"}  c #F4F9EC",
"|  c #F4FAEC",
" . c #F5FAED",
".. c #F7FBEF",
"X. c #F8FCEF",
"o. c #F2F3F4",
"O. c #F5FAF0",
"+. c #F6FBF2",
"@. c #F8FCF3",
"#. c #FAFCF3",
"$. c #F9FCF5",
"%. c #FBFDF6",
"&. c #FBFDF7",
"*. c #FCFDF7",
"=. c #FCFEF8",
"-. c #FCFEF9",
";. c #FDFEFB",
":. c #FEFEFC",
">. c white",
/* pixels */
">.>.>.>.>.>.>.>.>.>.>.>.>.>.>.>.>.>.>.>.>.>.>.>.>.>.>.>.>.>.>.>.>.>.>.>.>.>.>.>.>.>.>.>.>.>.>.>.>.>.",
">.>.>.>.>.>.>.>.>.>.>.>.>.>.>.>.>.>.>.>.>.>.>.>.>.>.>.>.>.>.>.>.>.>.>.>.>.>.>.>.>.>.>.>.>.>.>.>.>.>.",
">.>.>.>.>.>.>.>.>.>.>.>.>.>.>.>.>.>.>.>.>.>.>.>.>.>.>.>.>.>.>.>.>.>.>.>.>.>.>.>.>.>.>.>.>.>.>.>.>.>.",
">.>.>.>.>.>.>.>.>.>.>.>.>.>.>.>.>.>.>.=.=.=.=.=.=.=.=.=.=.>.=.>.>.>.>.>.>.>.>.>.>.>.>.>.>.>.>.>.>.>.",
">.>.>.>.>.>.>.>.>.>.>.>.>.>.>.>.=.>.$.=.*.$.=.#.#.$.#.$.*.=.*.=.=.>.>.>.>.>.>.>.>.>.>.>.>.>.>.>.>.>.",
">.>.>.>.>.>.>.>.>.>.>.>.>.>.>.=.*.*.#.$. . .` ` ` ) _ _  . .#.$.=.$.=.>.>.>.>.>.>.>.>.>.>.>.>.>.>.>.",
">.>.>.>.>.>.>.>.>.>.>.>.=.>.=.$.#. .) ~ R S C S S A A S T ~ ( ` #.#.*.=.=.>.>.>.>.>.>.>.>.>.>.>.>.>.",
">.>.>.>.>.>.>.>.>.>.>.>.=.$.#. .~ R U m m n l l l l l n n m V R W ` X.*.=.=.>.>.>.>.>.>.>.>.>.>.>.>.",
">.>.>.>.>.>.>.>.>.>.>.=.$.X.` R C m z k i i u u t u u u i k l n m S W  .#.*.>.>.>.>.>.>.>.>.>.>.>.>.",
">.>.>.>.>.>.>.>.>.=.=.#.X.W S m l k u t 4 4 4 2 2 2 2 4 4 5 u i k n A R _ X.=.=.>.>.>.>.>.>.>.>.>.>.",
">.>.>.>.>.>.>.>.>.=.$. .~ B n k u t 4 2 1 1 : < : : : > 1 > 2 4 t i l N S ~ O.=.=.>.>.>.>.>.>.>.>.>.",
">.>.>.>.>.>.>.>.=.$. .W B v i t 2 1 < : : ; ; ; ; ; ; ; ; : : 1 2 4 a k n S ` O.=.=.>.>.>.>.>.>.>.>.",
">.>.>.>.>.>.>.=.=. .W B v u t 1 1 : ; ; ; $ $ $ $ $ $ $ ; ; ; ; : 1 2 t s n P ^ $.=.>.>.>.>.>.>.>.>.",
">.>.>.>.>.>.>.=.#.^ B l u r 1 : ; ; $ $ $ $ $ $ $ $ $ $ $ $ $ ; ; : 1 w t f n Y  .$.=.>.>.>.>.>.>.>.",
">.>.>.>.>.>.=.$.[ P v s r 1 # O O   @ @ @ @ @ @ @ @ @ @ @ @ @ @ o O + + w t k B W O.=.>.>.>.>.>.>.>.",
">.>.>.>.>.>.*.O.Y N s r q + O .     @ @ @ @ @ @ @ @ @ @ @ @ @ @   . O + # w t v H _ $.=.>.>.>.>.>.>.",
">.>.>.>.>.=.=.^ L g y q $       X . @ @ @ @ @ @ @ @ @ @ @ @ @ @   #     # $ e a G Y O.=.>.>.>.>.>.>.",
">.>.>.>.>.>.O.Y N a w 0 $ #     X . @ @ 9 9 9 9 9 9 9 9 9 9 @ @         # $ q y g H ^ $.=.>.>.>.>.>.",
">.>.>.>.>.$.[ H g y = $ $     # . . @ @ @ @ @ @ @ @ @ @ @ @ @ @           $ $ q a b ^ o.$.>.>.>.>.>.",
">.>.>.>.>.O.^ H d e $ $ $ #     . . @ @ 8 8 8 8 8 8 8 8 8 8 8 @ #     #   $ $ 0 y v Y O.$.>.>.>.>.>.",
">.>.>.>.>. .Q b p q 0 = $       . . @ @ @ @ @ @ @ @ @ @ @ @ @ @   #     # $ $ 0 e g H ^ $.>.>.>.>.>.",
">.>.>.>.=.O.U c y q = $ $   #   . . @ @ @ @ @ @ @ @ @ @ @ @ @ @           $ $ 0 w d H ^ $.=.>.>.>.>.",
">.>.>.=.=.O.K g y 0 = = $       . . @ @ @ @ @ @ @ @ @ @ @ @ @ @           $ $ 0 q a N ^ O.>.>.>.>.>.",
">.>.>.>.=.o.H d w 0 = = $ #     . . @ @ @ @ @ @ @ @ @ @ @ @ @ @ #     #   $ $ 0 q y b Q o.>.>.>.>.>.",
">.>.>.>.$.[ H d e 0 $ $ $ #   # . . @ @ @ @ @ @ @ @ @ @ @ @ @ @ . . . . . $ $ ; q y b Y O.=.>.>.>.>.",
">.>.>.>.$._ H a e 0 = $ $       .                               . . . . . $ $ = q y v Y #.=.>.>.>.>.",
">.>.>.>.=.[ H d e 0 $ $ $       . . . .     . .                 . . . . . $ $ $ q y v Y O.>.>.>.>.>.",
">.>.>.=.=.[ H d e 0 = $ $   #   . . . . . . . .                 . . . . . $ $ 0 q y N Y +.=.>.>.>.>.",
">.>.>.>.=.O.H c r q = $ $ . . . . . =.o.J H J >.>.>.>.>.>.>.>.>.. . . . . $ $ 0 w a N ^ $.=.>.>.>.>.",
">.>.>.>.=.O.Q v p q 0 = $ . . . . . >.# # # # * >.>.>.>.>.>.>.>.. . . . . $ = 0 w d H [ *.=.>.>.>.>.",
">.>.>.>.=.+.^ N s w 0 = $ . . . . . =.# # # # & >.>.>.>.>.>.>.>.. . . . . = ; q y d H O.$.>.>.>.>.>.",
">.>.>.>.>.$.[ H g r q = $ . . . .   >.# # # # & >.>.>.>.>.>.>.>.. . . . X = : w p v W O.*.>.>.>.>.>.",
">.>.>.>.=.=.O.U v u w : ; X X . . . >.# # # # & >.>.>.>.>.>.>.>.  . . . . ; q r s B ` $.=.>.>.>.>.>.",
">.>.>.>.>.=.$.^ B f r 1 ; O   . . X >.# # # # & >.>.>.>.>.>.>.>.X X . X + 1 w a v A [ $.>.>.>.>.>.>.",
">.>.>.>.>.>.$.[ U v i r < + O     X =.# # # # & >.>.>.>.>.>.>.=.X   X O # 1 t k B ~ $.=.>.>.>.>.>.>.",
">.>.>.>.>.>.=.#.^ B v t 2 < + O O   >.$.G G L >.>.>.>.>.>.>.>.#.X o O + 1 r i b A ` $.>.>.>.>.>.>.>.",
">.>.>.>.>.>.>.$. .W m k t 2 1 : ; ; $ $ $ $ $ $ $ $ $ $ $ $ $ = ; ; : > r i v V _ #.*.>.>.>.>.>.>.>.",
">.>.>.>.>.>.>.=.$.` U n k t 2 1 - ; ; ; $ $ $ $ $ $ $ $ $ $ = ; - : 2 r i l V ~ O.=.=.>.>.>.>.>.>.>.",
">.>.>.>.>.>.>.=.=.$.` U n k u 4 , > - - - ; ; % ; ; ; $ ; - - - > 2 5 i l B R +.*.=.>.>.>.>.>.>.>.>.",
">.>.>.>.>.>.>.>.=.$.#.) F m j i 5 , > > - - - - ; - - - - > > , 4 u h x V W [ $.=.>.>.>.>.>.>.>.>.>.",
">.>.>.>.>.>.>.>.>.=.=.#.` F m x h 7 6 5 4 , , , , , , , , 4 5 6 i j m C ~  .#.*.>.>.>.>.>.>.>.>.>.>.",
">.>.>.>.>.>.>.>.>.>.=.=.$. .) C m x h 7 6 6 6 5 5 5 5 5 6 7 h j m m F )  .*.=.>.>.>.>.>.>.>.>.>.>.>.",
">.>.>.>.>.>.>.>.>.>.>.=.*.#.` ` F C V x z j j h h h h j z z m V C E  .X.$.=.=.>.>.>.>.>.>.>.>.>.>.>.",
">.>.>.>.>.>.>.>.>.>.>.>.*.*.*.#.X.) F F V V m m m x m V V F F ) ) X.#.*.=.>.>.>.>.>.>.>.>.>.>.>.>.>.",
">.>.>.>.>.>.>.>.>.>.>.>.>.>.*.=.*.#. . .) ) ) F F F F ) ) ) X.X.#.*.=.=.>.>.>.>.>.>.>.>.>.>.>.>.>.>.",
">.>.>.>.>.>.>.>.>.>.>.>.>.>.>.>.=.*.*.#.#.X.X.X.X.X.X.X.#.#.#.*.*.*.>.>.>.>.>.>.>.>.>.>.>.>.>.>.>.>.",
">.>.>.>.>.>.>.>.>.>.>.>.>.>.>.>.>.>.=.=.*.*.*.*.*.*.X.#.*.=.=.=.>.>.>.>.>.>.>.>.>.>.>.>.>.>.>.>.>.>.",
">.>.>.>.>.>.>.>.>.>.>.>.>.>.>.>.>.>.>.>.>.=.>.=.=.>.=.*.>.>.>.>.>.>.>.>.>.>.>.>.>.>.>.>.>.>.>.>.>.>.",
">.>.>.>.>.>.>.>.>.>.>.>.>.>.>.>.>.>.>.>.>.>.>.>.>.>.>.>.>.>.>.>.>.>.>.>.>.>.>.>.>.>.>.>.>.>.>.>.>.>.",
">.>.>.>.>.>.>.>.>.>.>.>.>.>.>.>.>.>.>.>.>.>.>.>.>.>.>.>.>.>.>.>.>.>.>.>.>.>.>.>.>.>.>.>.>.>.>.>.>.>."
};
