/* XPM */
static char *_9c8362fb8644371b41fba317c9dd4cbdoignqKoB1X10JTs[] = {
/* columns rows colors chars-per-pixel */
"50 50 29 1 ",
"  c None",
". c #626974",
"X c #656D78",
"o c #DFC97A",
"O c #DFC97B",
"+ c #DFCA7D",
"@ c #E0CA7D",
"# c #747C85",
"$ c #7BBDBA",
"% c #7CBDBB",
"& c #7DBDBB",
"* c #7BBCBC",
"= c #7BBEBC",
"- c #7CBDBC",
"; c #7DBDBC",
": c #7DBDBD",
"> c #7DBEBD",
", c #818991",
"< c #858C94",
"1 c #899097",
"2 c #EADBA6",
"3 c #ECDFAE",
"4 c #DDDFE0",
"5 c #E1E3E5",
"6 c #E4E5E7",
"7 c #E5E7E9",
"8 c #F2F3F4",
"9 c #FDFDFD",
"0 c white",
/* pixels */
"                    >>>>>>>>>>                    ",
"                *>>>>>>>>>>>>>>>>$                ",
"              >>>>>>>>>>>>>>>>>>>>>>              ",
"            >>>>>>>>>>>>>>>>>>>>>>>>>>            ",
"           >>>>>>>>>>>>>>>>>>>>>>>>>>>>           ",
"         >>>>>>>>>>>>>>>>>>>>>>>>>>>>>>>>         ",
"        >>>>>>>>>>>>>>>>>>>>>>>>>>>>>>>>>>        ",
"       >>>>>>>>>>>>>>>>>>>>>>>>>>>>>>>>>>>>       ",
"      >>>>>>>>>>>>>>>>>>>>>>>>>>>>>>>>>>>>>>      ",
"     >>>>>>>>>>>>>>>>>>>>>>>>>>>>>>>>>>>>>>>>     ",
"     >>>>>>>>>>>>>>>>>>>>>>>>>>>>>>>>>>>>>>>>     ",
"    >>>>>>>>>>>>>>>>>>>>>>>>>>>>>>>>>>>>>>>>>>    ",
"   >>>>>>>>>>>>>>>>>>>>>>>>>>>>>>>>>>>>>>>>>>>>   ",
"   >>>>>>>>>>>>>>>>>>>>>>>>>>>>>>>>>>>>>>>>>>>>   ",
"  >>>>>>>>>>>>XXXXooooooooooooooXXXX>>>>>>>>>>>>  ",
"  >>>>>>>>>>>XXXXXooOOOOOOOOOoooXXXXX>>>>>>>>>>>  ",
" &>>>>>>>>>>>XXXXXooooooooooooooXXXXX>>>>>>>>>>>& ",
" >>>>>>>>>>>>XXXXXo@3333333333@oXXXXX>>>>>>>>>>>> ",
" >>>>>>>>>>>>XXXXXoooooooooooOooXXXXX>>>>>>>>>>>> ",
" >>>>>>>>>>>>XXXXXo@2222222222OoXXXXX>>>>>>>>>>>> ",
">>>>>>>>>>>>>XXXXXooooooooooooooXXXXX>>>>>>>>>>>>>",
">>>>>>>>>>>>>XXXXXooooooooooooooXXXXX>>>>>>>>>>>>>",
">>>>>>>>>>>>>XXXXXooooooooooooooXXXXX>>>>>>>>>>>>>",
">>>>>>>>>>>>>XXXXXooooooooooooooXXXXX>>>>>>>>>>>>>",
">>>>>>>>>>>>>XXXXXooooooooooooooXXXXX>>>>>>>>>>>>>",
">>>>>>>>>>>>>XXXXXX............XXXXXX>>>>>>>>>>>>>",
">>>>>>>>>>>>>XXXXXXXXXXXXXXXXXXXXXXXX>>>>>>>>>>>>>",
">>>>>>>>>>>>>XXXXXXXXXXXXXXXXXXXXXXXX>>>>>>>>>>>>>",
">>>>>>>>>>>>>XXXXX08556000000000XXXXX>>>>>>>>>>>>>",
">>>>>>>>>>>>>XXXXX0####100000000XXXXX>>>>>>>>>>>>>",
" >>>>>>>>>>>>XXXXX0####,00000000XXXXX>>>>>>>>>>>> ",
" >>>>>>>>>>>>XXXXX0####,00000000XXXXX>>>>>>>>>>>> ",
" >>>>>>>>>>>>XXXXX0####,00000000XXXXX>>>>>>>>>>>> ",
" *>>>>>>>>>>>XXXXX0####,00000000XXXXX>>>>>>>>>>>> ",
"  >>>>>>>>>>>XXXXX0####<00000000XXXXX>>>>>>>>>>>  ",
"  >>>>>>>>>>>>XXXX00447000000000XXXX>>>>>>>>>>>>  ",
"   >>>>>>>>>>>>>>>>>>>>>>>>>>>>>>>>>>>>>>>>>>>>   ",
"   >>>>>>>>>>>>>>>>>>>>>>>>>>>>>>>>>>>>>>>>>>>>   ",
"    >>>>>>>>>>>>>>>>>>>>>>>>>>>>>>>>>>>>>>>>>>    ",
"     >>>>>>>>>>>>>>>>>>>>>>>>>>>>>>>>>>>>>>>>     ",
"     >>>>>>>>>>>>>>>>>>>>>>>>>>>>>>>>>>>>>>>>     ",
"      >>>>>>>>>>>>>>>>>>>>>>>>>>>>>>>>>>>>>>      ",
"       >>>>>>>>>>>>>>>>>>>>>>>>>>>>>>>>>>>>       ",
"        >>>>>>>>>>>>>>>>>>>>>>>>>>>>>>>>>>        ",
"         >>>>>>>>>>>>>>>>>>>>>>>>>>>>>>>>         ",
"           >>>>>>>>>>>>>>>>>>>>>>>>>>>>           ",
"            >>>>>>>>>>>>>>>>>>>>>>>>>>            ",
"              >>>>>>>>>>>>>>>>>>>>>>              ",
"                &>>>>>>>>>>>>>>>>>                ",
"                    >>>>>>>>>&                    "
};
