/* XPM */
static char *result[] = {
/* columns rows colors chars-per-pixel */
"80 80 5 1 ",
"  c #78001E",
". c #79001E",
"X c #78001F",
"o c #79001F",
"O c #00202f",
/* pixels */
"OOOOOOOOooooooooooooooo.oooX oo   Xo   X.o o .o ooooXoooooooooooooooooooOOOOOOOO",
"OOOOOoooooooooooooooooo oooo oooo oooo ooooooooooooooooooooooooooooooooooooOOOOO",
"OOOOo X X             X    X    X    X    X    X    X    X    X    X    X   OOOO",
"OOOXXXXoXXXXo XXXo XXoX XXoX XXoX XXoX XXXXoXXXXoXXXXoXXXXoXXXXoXXXXoXXXXoXXoOOO",
"OO Xo.X.Xooo.oXoo.oXo.o.Xo.o.Xo.o.Xo.o.Xooo..ooo..ooo..ooo..ooo..ooo..ooo..oo OO",
"Oo. .oo. .... .... .. o .. o .. o .. o .oooo.oooo.oooo.oooo.oooo.oooo.oooo.ooooO",
"Ooooooo.Xooo.oooo.oooooooooooooooooooooooooooooooooooooooooooooooooooooooooooooO",
"OX                    X    X    X    X   oXo  oXo  oXo  oXo  oXo  oXo  oXo  oXoO",
"X o XoXoXXX ooXX ooXX.X.XX.X.XX.X.XX.X.XXoX XXoX XXoX XXoX XXoX XXoX XXoX XXoX X",
"oooXo.X.Xooo.oXoo.oXo.o.Xo.o.Xo.o.Xo.o.Xooo..ooo..ooo..ooo..ooo..ooo..ooo..ooo. ",
"oooo.o .X....oo...oo..o.o..o.o..o.o..o.ooooooooooooooooooooooooooooooooooooooooX",
"ooooooo Xooo oooo oooooooooooooooooooooooooooooooooooooooooooooooooooooooooooooX",
"oX                    X    X    X    X   oXo  oXo  oXo  oXo  oXo  oXo  oXo  oXoo",
"oXo oooXXooXXXXoXXXXo oXXo oXXo oXXo oXXoooX oooX oooX oooX oooX oooX oooX oooX.",
"oo.Xoo.oooooooXooooXooo Xooo Xooo Xooo Xooo. ooo. ooo. ooo. ooo. ooo. ooo. ooo.X",
"oooo.o .X....oo...oo..o.o..o.o..o.o..o.ooooooooooooooooooooooooooooooooooooooooX",
"ooooooo Xooo oooo oooooooooooooooooooooooooooooooooooooooooooooooooooooooooooooo",
"oX                    X    X    X    X   oXo  oXo  oXo  oXo  oXo  oXo  oXo  oXo.",
".Xo oooXXooXXXXoXXXXo oXXo oXXo oXXo oXXoooX oooX oooX oooX oooX oooX oooX oooX.",
"oo.Xoo.oooooooXooooXooo Xooo Xooo Xooo Xooo. ooo. ooo. ooo. ooo. ooo. ooo. ooo..",
"oooo.o .X....oo...oo..o.o..o.o..o.o..o.oooooooooooooooooooooooooooooooooooooooo ",
"oXoXooooXoooooooooooooXooooXooooXooooXooXXXXXXXXXXXXXXXXXXXXXXXXXXXXXXXXXXXXXXXo",
"o . .. . ............................... ...  ...  ...  ...  ...  ...  ...  ...X",
"o .Xoo. Xoo   Xo   Xo o Xo o Xo o Xo o XoooXXoooXXoooXXoooXXoooXXoooXXoooXXoooX.",
"oo.Xoo.oooooooXooooXooo Xooo Xooo Xooo Xooo. ooo. ooo. ooo. ooo. ooo. ooo. ooo..",
"oooo.o .X....oo...oo..o.o..o.o..o.o..o.ooooooooooooooooooooooooooooooooooooooooo",
"oXoXooooXoooooooooooooXooooXooooXooooXooXXXXXXXXXXXXXXXXXXXXXXXXXXXXXXXXXXXXXXXo",
"o . .. . ............................... ...  ...  ...  ...  ...  ...  ...  ... ",
"o .Xoo. Xoo   Xo   Xo o Xo o Xo o Xo o XoooXXoooXXoooXXoooXXoooXXoooXXoooXXoooX.",
"Xo.Xoo.oooooooXooooXooo Xooo Xooo Xooo Xooo. ooo. ooo. ooo. ooo. ooo. ooo. ooo..",
"oooo.o .X....oo...oo..o.o..o.o..o.o..o.ooooooooooooooooooooooooooooooooooooooooo",
"oXoXooooXoooooooooooooXooooXooooXooooXooXXXXXXXXXXXXXXXXXXXXXXXXXXXXXXXXXXXXXXXo",
"o . .. . ............................... ...  ...  ...  ...  ...  ...  ...  ... ",
"o .Xoo. Xoo   Xo   Xo o Xo o Xo o Xo o XoooXXoooXXoooXXoooXXoooXXoooXXoooXXoooX.",
"Xo.Xoo.oooooooXooooXooo Xooo Xooo Xooo Xooo. ooo. ooo. ooo. ooo. ooo. ooo. ooo..",
"oooo.o .X....oo...oo..o.o..o.o..o.o..o.ooooooooooooooooooooooooooooooooooooooooo",
"oXoXooooXoooooooooooooXooooXooooXooooXooXXXXXXXXXXXXXXXXXXXXXXXXXXXXXXXXXXXXXXXo",
"o . .. . ............................... ...  ...  ...  ...  ...  ...  ...  ... ",
"o .Xoo. Xoo   Xo   Xo o Xo o Xo o Xo o XoooXXoooXXoooXXoooXXoooXXoooXXoooXXoooX.",
"Xo.Xoo.oooooooXooooXooo Xooo Xooo Xooo Xooo. ooo. ooo. ooo. ooo. ooo. ooo. ooo..",
"oooXooXoXooooXooooXooo oooo oooo oooo oooo oooo oooo oooo oooo oooo oooo oooo oo",
"oXXXooooooooooooooooooXXoooXXoooXXoooXXoooXXoooXXoooXXoooXXoooXXoooXXoooXXoooXXo",
"o . .. . ............................... ...  ...  ...  ...  ...  ...  ...  ... ",
"o   .. o . .o   .o    o    o    o    o  ..oo...oo...oo...oo...oo...oo...oo...ooo",
"oo X..o X.oo  ooo  ooXo ooXo ooXo ooXo oooo oooo oooo oooo oooo oooo oooo oooo o",
"oooXooXoXooooXooooXooo oooo oooo oooo oooo oooo oooo oooo oooo oooo oooo oooo oo",
"oXXXooooooooooooooooooXXoooXXoooXXoooXXoooXXoooXXoooXXoooXXoooXXoooXXoooXXoooXXo",
"o . .. . ............................... ...  ...  ...  ...  ...  ...  ...  ... ",
"o   .. o . .o   .o    o    o    o    o  ..oo...oo...oo...oo...oo...oo...oo...ooo",
"oo X..o X.oo  ooo  ooXo ooXo ooXo ooXo oooo oooo oooo oooo oooo oooo oooo oooo o",
"oooXooXoXooooXooooXooo oooo oooo oooo oooo oooo oooo oooo oooo oooo oooo oooo oo",
"oXXXooooooooooooooooooXXoooXXoooXXoooXXoooXXoooXXoooXXoooXXoooXXoooXXoooXXoooXXo",
"o . .. . ............................... ...  ...  ...  ...  ...  ...  ...  ... ",
"o   .. o . .o   .o    o    o    o    o  ..oo...oo...oo...oo...oo...oo...oo...ooo",
"oo X..o X.oo  ooo  ooXo ooXo ooXo ooXo oooo oooo oooo oooo oooo oooo oooo oooo o",
"oooXooXoXooooXooooXooo oooo oooo oooo oooo oooo oooo oooo oooo oooo oooo oooo oo",
"oXXXooooooooooooooooooXXoooXXoooXXoooXXoooXXoooXXoooXXoooXXoooXXoooXXoooXXoooXXo",
"o . .. . ............................... ...  ...  ...  ...  ...  ...  ...  ...X",
"o   .. o . .o   .o    o    o    o    o  ..oo...oo...oo...oo...oo...oo...oo...ooo",
"oo X..o X.oo  ooo  ooXo ooXo ooXo ooXo oooo oooo oooo oooo oooo oooo oooo oooo .",
"oooXooXoXooooXooooXooo oooo oooo oooo oooo oooo oooo oooo oooo oooo oooo oooo o.",
"oXXXooooooooooooooooooXXoooXXoooXXoooXXoooXXoooXXoooXXoooXXoooXXoooXXoooXXoooXXo",
"o . .. . ............................... ...  ...  ...  ...  ...  ...  ...  ...o",
"o   .. o . .o   .o    o    o    o    o  ..oo...oo...oo...oo...oo...oo...oo...ooo",
"oo X..o X.oo  ooo  ooXo ooXo ooXo ooXo oooo oooo oooo oooo oooo oooo oooo oooo X",
"oooXooXoXooooXooooXooo oooo oooo oooo oooo oooo oooo oooo oooo oooo oooo oooo oo",
"oXXXooooooooooooooooooXXoooXXoooXXoooXXoooXXoooXXoooXXoooXXoooXXoooXXoooXXoooXXo",
"o . .. . ............................... ...  ...  ...  ...  ...  ...  ...  ...X",
"o   .. o . .o   .o    o    o    o    o  ..oo...oo...oo...oo...oo...oo...oo...ooo",
"oo X..o X.oo  ooo  ooXo ooXo ooXo ooXo oooo oooo oooo oooo oooo oooo oooo oooo X",
"oooXooXoXooooXooooXooo oooo oooo oooo oooo oooo oooo oooo oooo oooo oooo oooo o ",
"oXXXooooooooooooooooooXXoooXXoooXXoooXXoooXXoooXXoooXXoooXXoooXXoooXXoooXXoooXXo",
"O . .. . ............................... ...  ...  ...  ...  ...  ...  ...  ...O",
"O   .. o . .o   .o    o    o    o    o  ..oo...oo...oo...oo...oo...oo...oo...ooO",
"OX X..o X.oo  ooo  ooXo ooXo ooXo ooXo oooo oooo oooo oooo oooo oooo oooo oooooO",
"OO.XooXoXooooXooooXooo oooo oooo oooo oooo oooo oooo oooo oooo oooo oooo oooo.OO",
"OOO ooooooooooooooooooXXoooXXoooXXoooXXoooXXoooXXoooXXoooXXoooXXoooXXoooXXoo.OOO",
"OOOO . . ............................... ...  ...  ...  ...  ...  ...  ...  OOOO",
"OOOOOo.o . .o   .o    o    o    o    o  ..oo...oo...oo...oo...oo...oo...oooOOOOO",
"OOOOOOOOoXoXo.Xoo...o.Xooo.o.oo.o.oo.o.oooo oooo oooo oooXooo.oooo o XXoOOOOOOOO"
};
