/* XPM */
static char *b8e88b5b77c44313956f1422fc93e190nxG6EetawLTc6yuY[] = {
/* columns rows colors chars-per-pixel */
"70 65 129 2 ",
"   c #1E1E1E",
".  c gray13",
"X  c gray18",
"o  c #323232",
"O  c #343434",
"+  c gray22",
"@  c #3E3E3E",
"#  c #414141",
"$  c #434343",
"%  c #464646",
"&  c gray28",
"*  c #484848",
"=  c #4B4B4B",
"-  c gray30",
";  c #505050",
":  c #535353",
">  c gray33",
",  c gray34",
"<  c #585858",
"1  c #5A5A5A",
"2  c #5B5B5B",
"3  c gray36",
"4  c #5D5D5D",
"5  c #5F5F5F",
"6  c #606060",
"7  c gray39",
"8  c #636265",
"9  c gray40",
"0  c #676767",
"q  c #686868",
"w  c gray42",
"e  c #6C6C6C",
"r  c #6F6F6F",
"t  c #6E6D71",
"y  c gray44",
"u  c #727173",
"i  c gray45",
"p  c #747474",
"a  c #767676",
"s  c #777777",
"d  c gray47",
"f  c #7B7B7B",
"g  c gray49",
"h  c #808080",
"j  c #818181",
"k  c #808083",
"l  c #838383",
"z  c #868686",
"x  c gray53",
"c  c #868588",
"v  c #888888",
"b  c #898989",
"n  c #8B8B8B",
"m  c gray55",
"M  c #8D8D8D",
"N  c #8C8C8E",
"B  c gray56",
"V  c #909090",
"C  c #939393",
"Z  c gray58",
"A  c #949496",
"S  c gray59",
"D  c #979797",
"F  c #979798",
"G  c #989898",
"H  c #9B9B9B",
"J  c gray61",
"K  c #9F9F9F",
"L  c #9E9DA0",
"P  c #A0A0A0",
"I  c #A2A2A2",
"U  c gray64",
"Y  c #A4A3A6",
"T  c #A4A4A4",
"R  c #A7A7A7",
"E  c #A6A5AA",
"W  c gray66",
"Q  c gray67",
"!  c #ACACAB",
"~  c #AAAAAC",
"^  c #ACACAC",
"/  c #AFAFAF",
"(  c #AFAFB1",
")  c gray69",
"_  c gray70",
"`  c #B4B4B4",
"'  c #B5B4B5",
"]  c gray71",
"[  c #B7B7B7",
"{  c gray72",
"}  c #BBBBBB",
"|  c #BCBCBC",
" . c gray75",
".. c #C0C0C0",
"X. c #C1C0C1",
"o. c gray76",
"O. c #C3C3C3",
"+. c gray77",
"@. c gray78",
"#. c #C8C8C8",
"$. c #CBCBCB",
"%. c gray80",
"&. c gray81",
"*. c #CECDD0",
"=. c #D0D0D0",
"-. c LightGray",
";. c #D2D2D4",
":. c gray83",
">. c #D7D7D7",
",. c #D8D8D8",
"<. c gray86",
"1. c gainsboro",
"2. c gray87",
"3. c #DFDFDF",
"4. c gray88",
"5. c gray89",
"6. c #E4E4E6",
"7. c #E7E7E7",
"8. c gray91",
"9. c #EAEAEA",
"0. c gray92",
"q. c #ECECEC",
"w. c #EFEFEF",
"e. c gray94",
"r. c gray95",
"t. c #F4F4F4",
"y. c gray96",
"u. c #FBFBFB",
"i. c #FEFEFE",
/* pixels */
"9.| | %.i #.W i b b ^ W ) ^ W q.&.i i X q @.J S 4.z o.O J @.>.} w : #.#.g a C S S j <.J @.S W | } ) =.M > M y.4.@.<.o.P } g J z - >.G b b i ",
"e T ) >.g ) 2.g o.} W > a | #.>.1 9 P J ^ S ) J J J 9.^ G / M W q %.W %.>.=.b z } >.4.2.=.S T W e o.q G >.i @.S W n T P W C P z >.#.o.<.o.W ",
"W #.} b C %.g O | 9.%.} u.#.} e <.o.#.b ) } S | C o.R $.4.q.S J q.o.y.q P ^ C R a  .W ] ^ C J ^ T W | 2.b %.} G | P 9.g | >.=.) G S M A W <.",
") q.] } J T ] O P } } C g @.#.@ , b ) Q C B 9.#.$.n [ S @.^ 9.G y.M W } ] ) >.O.1 >.1 ] #.M } z u.= 7.>.@.@.} o.%.} 2.3.9.P S j | 6 9 %.C 1 ",
"g W T J W %.=.o.^ #.g j 7.^ o | T z | d S b : 9.| ] %.4.<.2.<.^ #.G [ >.9.^ ] T 7.i P C T %.W G U | 2.i 9.9.J ] T ^ T &.<.9.J ^ r.$.o.^ ] o.",
"] W | z | z e T y.<.%.o.} 2.>.- %. .B 2.9.7.} <.] J | ) O.@.=.J ) } S >.P e 3.| J 4.-.e u.C W 9 ^ 2.@.W o.@.q.J o.o.} } C M r i.m % ] ) o S ",
"@.z o.| J %.>.z | b a e d : z >.| <.%.4.7.=.^ 7.$.g } n C j o.<.W M G [ 3.@.S C O.} 0.M %.S _ @.7.d J e g $.%.) i g ] W >.U J ) W | 2.^ o.T ",
"S =.g S #.>.} C S %.=.) T 9.2.#.<.@.T | o._ <.#.@.} s 9.7.j 4 <.2.= g S ] 2.b } 5 @.) M b G | 5.%.C f i.>.} : d ^ #.-.) P g ] P T ] @.S u ~ ",
"W ] =.@.W b ] | d 4 4 ^ G #.d 2.R %.%.<.o.| b C ] #.4 %.] u.@.z P ) W x %.W x ^ > @.P @.} ^ %.9 o.l ) T W [ S M o.| e | %.@.W o.C W 9 ] t T ",
"%.<.=.^ J z g C y.J ^ ^ 7.^ > - G d ] >.| #.G b <.q.W | y.) W 4.#.T T 9 M | #.) G W <.d i @.j U S a z ) 5.T ) d =.<.g >.U 9.^ j } | } ^ ^ b ",
"j 6 #.T @.r.S %.@.P #.#.#.^ 7.%.W G g | 4.[ ^ @.T T #.T >._ j o.J #.i P G K =.7.J R P x @.G j 7.T 3./ @.] | M o.$.4.r.b P o.#.4.<.o.b | W % ",
"#.<.j ^ G | 9 } P =.j i %.=.e b T | | ) ^ u.9 7.%.W o.#.| 3.} ) 2.o.^ W P w.0.Q r.o.M 4 G $.b b <.O.] M } }  .r } 5.o.J > ] r.g d 2.o.} z 6 ",
"=.o.z ] o.] 9.G q.| o.=.2.^ G S | j 2.O.} | W =.b ^ J #.2.T j >./ J y.%.} G U K 6 ) y.T T 1 d | q | 4 u.W @.>.<.[ %.M o.g z j s ] 7.T d a g ",
"9 g o.q 4 W @.9.T q ] } S =.=.S ] %.] W U @.z T b P /  .} S C j G n W d i %.| a } q.&.d ] <.@.T b 2.@.| M O.@.| 4.| | } 9.S a @.} <.#.>.T S ",
"G C ^ = W #.J 7.> - q.<.o.^ G ] 2.] C S S G %.7 y.| P =.[ >.C o.j G >.l a } G ^ U S J ! W O.O.g 5.R } ] b S ] 2.g o.o.7.} W g <.J <.| o.P #.",
"9.) %.1 | T P ) @.b =.^ W o.o.] =.w.r.#.=. .q } U z W e 1 = G } o.) 4.G z w T | Q G =.y.] 1 @.#.j g o.[ | =.^ J P M } q >.a 1 o.%.| q.j r.| ",
"@.=.^ 4.W | W M @ >.M %.4.S @.<.=.^ M a } ) j } i P %.S z 3.q.K ] W J @.^ W M [ ] #.@.} G J z W | $ r.1 T | %.^ 2.f <.9.u.J q.J T G ) ] W G ",
"#.} W z >.=.j <.#.} M >.] M T d J S @.4.d o.7.b J _ M B q.%.| G z g B Q } ^ o.^ 0.^ } i J j #.- a r 3.M 9 P &.T z = a 7.T W i.j %.o.2.) G #.",
"^ a } @.| ] =.C i S ) J b @.G y.G j ) ] ] ] ^ 2.] g } | &.U 7.) _ P P } $./ o.} G 4 4.T ] | &.^ >.%./ ) >.#.4.| - P ^ : #.M W P >.G S 4.7.M ",
"C o.: >.) #.4.T } ^ ] 9.W ] W o.} a ) o.q z q.<.2 >.& %.>.W r d 7.@.@.J U ^ e =.} J #.y.%.W } $.@.G >.C P } | C a o.| 7.y.9.z j j 4.W o.@.=.",
"C T ^ W T e 2.S 2.P @.b | j T g W r.P @.S @.%.4 j | M } 2.^ | d G ) C #.a a J J G z =.d 4.C S  .S #.z M | ^ =.P d M _ #.b 9.) ) z #.| =.G S ",
"J ] %.J ^ o.P ) M W | 2.>.| P ] <.P T } 2.J 4.a o.| @.b [ W ^ =.#.q ) &.%.@.#.P 5 M b q o.J : _ #.] M P G >.P 7.C [ K : q.) M a 4.7.W J <.o.",
"T g ) } P o.) r.^ =.g W o.9 ^ =.S <.M 2.g > >.d G P =.) g i P ^ 9 9.4.#.#.) P #.-.d G P ) O.} i | > a M % %.G ^ T g ] P # } &.7.^ } M @.#.S ",
"P | %.@.G %.C W q.e G P S %.P W T M %.] G >.d o.M } e T | J G P W G b @.Q T o.j ] %.S ^ i >.W %.%.b } >.^ S R ] ^ @.%.j q e #.z d 4.=.=.r.z ",
"M 7.q 9 4.P 4.%.J | ] J <.4.T M d <.g o.t 4 e =.l =.T | ) %.9.) } q #.>.] o.o.C 4.2.) S %.) $.7.2.q.W W T W a %.7.7.b 9 9.: G _ ] >.W ] 9 P ",
"C P %.j ^ 9.z W P =.] J P } 4 g S C C J 1 ^ %., <.@.M r.%.9.w 4.2 M d C G : <.} P 7.C #.l S S -.4.B C %.#.4.7.P S <.$.@.] @.W o.z 2.} b 4.| ",
"W e G T C 4 . ] : J P 4.=.#.b z >.| q.7.j a 0.G %.l @.C a T G ] d 7.<.f   J q >.@.P j P T >.j W -.$.r.R u.d r.@ S b 7.n J W r.o.S %.z J @.u.",
"O M %.q a 1 4.S ) J >.S a e z G M i.M > ~ ) G j =.z 6 T | 4 }  .S i g r.g | ] #.} } <.a | 9.W r.7.4.z T ) s g %.@.@.} 9.q.) %.J #.J ^ | } W ",
"} j e q G %.G 4.o.J W >.G ) a ) o.j 4.^ | F @.P L Z M y ..Z e C ^ S 4 S j >.4.g M q.J $.>.7.f > >.J 3.i B g x 7.<.r.^ U G <.] G o.P G C g P ",
"| j o.r.} 9.@.7.9.o.o.4.) j g M ) = ^ 9 c ( F 4.} S K @.Z 7.<.a J K y.9.G 0 7./ S a @.@.^ ] T j z # z / ) } } >.W %.>.7.w.G w.) #.j G 7.6 J ",
") ) W G ) # S M >.^ P W q M } ] } ] 2.^ M *.A L } | } | ! ] i G <.4 W #.C P d J J o.J #.4.4.P % @ J G W <.C T ^ } ) P  .2 @.W 2.J C G z | C ",
") <.| ^ o.=.4.S i b G G 9.P @.#.| <.% 9.' } - $.%.7.=.7.z ! h ] b P j S } z ^ W T o.J 7.M } $.S o.) %.4.] G W | 0 G o.J -.e C S S #.| d @.C ",
"P J C S } <.b 4.| = o.9.j g 7.} | P %.] ) P ^ C o.>.g P | >.e } ^ %.) } | j J ^ C C %.z J M R <.q.P =.} j r.} w =.G } G } i x $.9 %.T C | | ",
"] >.#.^ d - j 9 C 4.@.] %.>.P W #.) #.=.>.b d 7.z b %.M >.| ) q ) o.J C } b g z <.j >.G z j 7.J >.5 T | o.b h @.] Q ^ P =.P [ # <.>.T >.P #.",
"@.| g ] i J : T M 2.2.j W | M %.o.g M 1 ^ %.=.] @.| u.4.| 9.P 7.| i 2.r.<.4.T B =.#.U %.$.S _ M S o.W T ) T W ^ P 9.] 2.M M ] %.j j %.S d 9.",
"J M ^ J a ) | j S j C P | #.] @.W ^ 1 q.r.%.G T M T > | M 4 #.: T P | T z >.@.@.<.#.M ) ^ S <.4.@.^ 9.C W 2.#.C e @.J o.=.= 7.G =.^ @.G T S ",
">.7.] G 4.%.o j %.] g @.9 ) >.@.9 @.W @.> J 7.2.^ b <.o.z P ) P %.S 1 9.] ] #.} d M o.W 2.%.U 7.7.^ | r.i W M @.h G > J @.U | & } e 4.2.] J ",
"i i %.>.) ^ : } 7.| o.] ] J %.%.@.C 2.} C a G ) S 7.S M <.J J >.S 2.y.S #.3.@.M q.} q.%.C %.q.z ] <.K 1 j G M q ) P %.S 9 j J 2.%.T a J 2.4 ",
"| o.G <.C r.4.9 u.j J C } W T 4.%.| j } ] > ] P 9 z <.] o.1 i T o.i Q T o.q.=.G 9.W ^ 3.M 1 9.- o.<.r.#.Q e o.=.P >.j 9.J 2.} @.^ S } C 9.g ",
"o.| % | P %.r.G | 4.=.q u.C ] 2.#.} C 6 1 q.] q d i W <.G 2.^ d ) 7.B C } #.M @.[ d W ) S 1 T W W T y.#.g w S 2.b z 3.#.4.J 2.>.7.z ) | C d ",
">.i ^ @ W T @.q.) 2.] #.} J j } @.T ) y.4.T ] M #.q ^ S @.C W T =.=.@.%.) z ] <.4.j W z J ) e Q - $.= Q | G ^ g S <.] 1 z %.9.C 9 <.2.#.) a ",
"2.T W >.J %.C z >.2.) C <.a b | 2.] e W J C } M @.C a <.} 4.o.S @.J W } G % o.} ) ] & z ] 2.C | a 9 @.R M a i @.O.o.@./ %.e <.T ] ^ > S %.] ",
">.4.| 6 <.J > W > <.] <.4.) =.T #.J P o.b ^ | ) } >.#.i ) 2.^ =.| 6 d 7.] J @.#.^ P J T W @.R C #.$.=.] b | G o.2.J M ] r.4.>.o.r.b b ) y.S ",
"#.q z 9 P #.=.^ i r.o.T >.#.W 6 4.] q @.i #.] q.W T | 9 j ^ W T %.J o.5 =.U #.#.T C b } <.0.P <.9.7.b r.a =.) %.) <.M U @.) %.z 9.%.<.S } b ",
"J W | ^ W >.#.%.=.} =.i ] =.#.M <.o.<.| z M >.] %.S J C P ] o.] a G W ] G P %.o.o.] U d | #./ ^ %.1 T S >.#.>.J } | =.| o.J o.J W 2.| #.a | ",
">.4.T %.=.9.@ z S W P | J 4.} J T ] T b C >.} 4.#.M | | g } P b : >.j ) &.J C T >.W <.| y.7.#.S M T =.] #.] W #.J #.j G W j / r.o.6 ^ i ] 7.",
"J <.} W 2.=.T r.) q.z M S W J d j } >.b 9.7.M W e ) b r.T =.W ] q ] S #.<.T P 4.r.G O.7.d <.o.@.4.=.9.j R T #.%.J %.=.P ] e W ^ ^ 1 o.<.) ] ",
"W #.Z %.4.o.M @ @.) a G g ^ | =.J G ] 4.e 1 >.g M o.g 9.>.} | =.2.S >.g % 2.^ u.>.9.} $.S P %.M W G ) T | ) } ] s >.4.6 e 5 #.<.z M C j <.W ",
"G r.+.a P 8.J ] a i 7.T b 4.W | > i 7.=.W b @.2.=.| 7.} T ) P C P 4.=.=.- - >.@.j | M i M E *.h Q R P z B o.G [ W e C @.} 2.W ] J C | M q S ",
"W J = : C P r.^ d S P } 4.g l ] e C S | ) J #.#.G r.z r.q.} ) u.=.] 4.2.} | g #.@.q.W 1 e 9 } ( G M #.| G q 7.%.| + >.b %.b #.q.% z S T | j ",
"T ] J p <.P S G ) G ] M C C M #.z 7.S T ] G g T %.4.W 2.J <.>.a i 4.q.P #.} C M ) W 4.z f E L 7.d R g ] ! >.%.o.U % <.2.=.] ] J q.T j | T P ",
"^ a >.W h 4.j P P v m W #.>.=.q =.>.J <.] z | : W a } G =.e ) j J q ) W W - 2.a } o.S ^ j ) ;.S 6 j : 7.5.2 w.1 @./ #.>.&.W J w o.u.r.G T @.",
"W S g 1.e l j =.| o.>.>.4.e ^ C 4 g C b M T T P | ) } >.W #.q @.=.> J ] 2.W W } a ^ ^ 7.g 8 c i = M u.J @.] ) #.C o.U ) @.5.^ =.) a o.i | <.",
"r.9.J $ y.4.M z P z o.p o.j j T } %.> } } =.} W b ] J | | M | 9 G 6 T ) d C J 2.2.W =.#.j } ) C e u.) o.0.M W ^ >.] P @.9 7.r.%.^ <.%.@.<.S ",
") > P ] #.} ) <.} C g ^ G 9.J W q ^ #.i b J W M %.#.) | 7.^ } 9 z 7.W 2.#.@.^ 9 P o.o.z } @.] g ^ M @.J >.n W | o.i W / ^ C S @.1 <.=.b a C ",
"..@.#.a @.W g ) 2.b %.h 9 J ^ ,.@.) =.) g q i o.| P q.4.G G b W i M o.T 7.e = >.: } ) g [ | =.J 9.q ^ > b r >.G | P 2.] 2.j = K #.e %.j i 9.",
"o.#.M o.4.r.=.) =.) b o.G l q =.b 4 P #.2.] >.W T >.q P J ) C d g 4.] q.) W - P J ) z S ) ^ S M <.@.<.W P S C P ] d W ] W q ] o.e @.P J W g ",
"M J W g M C j ] d ) J #.4.^ 4 %.7.>.%.^ W r.P ] ] =.o.C J T J } q.2.b J C d z @.2.@.) J 3.] S ^ o.=.j >.U a W T 7.z } C T G G ] J g 9 C ) d ",
"} T ) #.W <.7.^ 9.%.g 4.W #.} >.>.| <.#.C 4.C C z W o.%.^ ] a | =.^ 2.i P ] q.#.G u./ o.T | o.g #.4.Q M w 2.e %.C g 5.M w.z @.>.T 2.4.G %.S ",
"2.> @.e @.} @.z W ^ 2.1.} >.- z P } 7.o.=.y.] %.a } ^ d =.S g o.G a %.6 d d ^ o.M + #.J >.| =.o.} T >.j r.: J >.x ) | 6 4.j | P 6 = =.T S <.",
"2.o.S ] 4.#.d - P C r.P P P G S b | W 2.X z d g #.b z <.T W 4.b ) | ^ q.G ^ T b e ] ) g C d #.T ) G a %.2.| P ) q P G 1 7.e #.] 9.| W G C J ",
"@.} W 4.2.) S q.^ ] @.>.4 o.S @ ) 6 e r.^ T @.} @.M 9 9.2.>.g 1 %.^ P : =.C } ^ %.4.T S ^ ) G %.d } #.#.d ^ J G S y.=.G M 9.j T <.@.q | j o.",
") | o.o.<.z | C @.C 4.} Q ] i ] 7.1 7.b d T @.7.r.] ) b 9 z #.b a =.] >.G M C } J ) j 7.P b } z C ] =.] ^ b 2.#.-.W z >.o.>.@.3.] G ^ G | q ",
"C z >.] 4.] e M G G G S a { 2.S } %.^ #.u.=.@.j } ] e d W } g M =.W G b ^ a @.o.T b %.s J G ^ J z T ) @./ g z W g W b 9.<.) ] P P @.P 2.W S ",
"^ W C P ) W #.j d M P q.^ P ] J @.M # ^ } 4.W W P >.W ] W T ^ T } 6 #.| 7.J C } | o.<.o.%.} j ] W J q T 7.@.>.| j P 2.^ =.| %.#.>.9.<.P ^ } "
};
