/* XPM */
static char *_f20fab4eeea4932be37faf1fb78fbbfxWxso8mbLpl5pOEG[] = {
/* columns rows colors chars-per-pixel */
"70 50 255 2 ",
"   c #25133B",
".  c #2A3236",
"X  c #5A2227",
"o  c #6B3531",
"O  c #1D6919",
"+  c #04583B",
"@  c #246634",
"#  c #3D7034",
"$  c #545624",
"%  c #705035",
"&  c #587439",
"*  c #776F38",
"=  c #221B57",
"-  c #322C54",
";  c #512A4D",
":  c #6B2845",
">  c #703253",
",  c #551460",
"<  c #68156D",
"1  c #503271",
"2  c #6E2E70",
"3  c #205652",
"4  c #345354",
"5  c #126F45",
"6  c #2F6F56",
"7  c #157376",
"8  c #31706F",
"9  c #4D5551",
"0  c #6C5852",
"q  c #4F6F4C",
"w  c #6E694D",
"e  c #4B5070",
"r  c #705773",
"t  c #4F726D",
"y  c #6C7772",
"u  c #8F1706",
"i  c #85392A",
"p  c #A63124",
"a  c #D90411",
"s  c #D52629",
"d  c #B85516",
"f  c #B4721A",
"g  c #904E33",
"h  c #B3502B",
"j  c #8F722B",
"k  c #B2712B",
"l  c #CB6919",
"z  c #D1532B",
"x  c #A31154",
"c  c #862E46",
"v  c #A0255E",
"b  c #D13360",
"n  c #8B534D",
"m  c #92754F",
"M  c #AB644F",
"N  c #915270",
"B  c #AE546B",
"V  c #916D70",
"C  c #B06E72",
"Z  c #D45748",
"A  c #D54F6A",
"S  c #DD5F64",
"D  c #2E9210",
"F  c #17A31A",
"G  c #1D9826",
"H  c #2EAF2F",
"J  c #768D0C",
"K  c #65AB16",
"L  c #538C2B",
"P  c #739130",
"I  c #4DAE38",
"U  c #77A836",
"Y  c #18D021",
"T  c #0AE723",
"R  c #5DD501",
"E  c #65CC0D",
"W  c #4BCA30",
"Q  c #6FCA28",
"!  c #2D9756",
"~  c #128875",
"^  c #2E8A6F",
"/  c #09AB71",
"(  c #2FA766",
")  c #538F55",
"_  c #6A924F",
"`  c #50AC4C",
"'  c #74AD46",
"]  c #4F906D",
"[  c #598A7C",
"{  c #709072",
"}  c #51AF6D",
"|  c #70AA70",
" . c #2CD062",
".. c #54D04A",
"X. c #5CDB62",
"o. c #6CCB6D",
"O. c #7CF277",
"+. c #909115",
"@. c #B28A11",
"#. c #89A81D",
"$. c #8F8D28",
"%. c #AC932C",
"&. c #8BAD33",
"*. c #B6AD32",
"=. c #D08814",
"-. c #CA9527",
";. c #B5CD04",
":. c #91D432",
">. c #ACD137",
",. c #C9C830",
"<. c #989B53",
"1. c #B89556",
"2. c #92AE4E",
"3. c #948D6D",
"4. c #959364",
"5. c #B08E73",
"6. c #8FB173",
"7. c #ABAD74",
"8. c #C39959",
"9. c #CF936A",
"0. c #96C847",
"q. c #91CC55",
"w. c #AAD44C",
"e. c #92CF72",
"r. c #AEC572",
"t. c #85F166",
"y. c #311090",
"u. c #352F8F",
"i. c #2908A5",
"p. c #3728AF",
"a. c #742E97",
"s. c #5A25A0",
"d. c #134A9B",
"f. c #26679E",
"g. c #4E518F",
"h. c #6E5691",
"j. c #4E6B8A",
"k. c #766E8D",
"l. c #534CAE",
"z. c #754AAD",
"x. c #4F6FB3",
"c. c #6F67B2",
"v. c #292CCE",
"b. c #2C2CD4",
"n. c #2120DD",
"m. c #1506EE",
"M. c #0A1BEC",
"N. c #1619E5",
"B. c #4F2ED3",
"V. c #6324CE",
"C. c #4E1AE3",
"Z. c #5312EB",
"A. c #305FDB",
"S. c #0956F5",
"D. c #5551D2",
"F. c #6D4ECD",
"G. c #516ACF",
"H. c #6A6FD1",
"J. c #5D50E2",
"K. c #851F95",
"L. c #8D2E8E",
"P. c #AF2D90",
"I. c #8F33AD",
"U. c #AF2AAA",
"Y. c #CE2D8C",
"T. c #D83992",
"R. c #D72AA5",
"E. c #904E90",
"W. c #AF518E",
"Q. c #AD5492",
"!. c #90728F",
"~. c #AF738E",
"^. c #9052B1",
"/. c #AF4BAC",
"(. c #9470AF",
"). c #B170AF",
"_. c #CC4D91",
"`. c #EE5E94",
"'. c #D57490",
"]. c #C954AC",
"[. c #CE6DB1",
"{. c #E66EA1",
"}. c #8B30D3",
"|. c #9013E8",
" X c #A919E0",
".X c #D92AC2",
"XX c #9D65D1",
"oX c #DD5AC7",
"OX c #CA57D7",
"+X c #D654DE",
"@X c #D26ACB",
"#X c #E769D6",
"$X c #C75EE1",
"%X c #2A978D",
"&X c #2AA19E",
"*X c #32AD93",
"=X c #0885AC",
"-X c #3A8BAF",
";X c #559193",
":X c #6F8E8D",
">X c #68AF91",
",X c #4E8FAF",
"<X c #708BAD",
"1X c #48ABA9",
"2X c #60ADA6",
"3X c #30D792",
"4X c #1ED7AB",
"5X c #4ED692",
"6X c #74CE8A",
"7X c #6FEB8A",
"8X c #53CCA9",
"9X c #63D9A8",
"0X c #6AE4B5",
"qX c #1993C9",
"wX c #38B8CB",
"eX c #778BD5",
"rX c #55ACD8",
"tX c #73B9CB",
"yX c #23D5CC",
"uX c #2BD2EF",
"iX c #71D0CF",
"pX c #71E3C2",
"aX c #6DE6DB",
"sX c #5CDEE7",
"dX c #908D93",
"fX c #AB9095",
"gX c #93B290",
"hX c #AFAC93",
"jX c #938FB2",
"kX c #AF92AD",
"lX c #95B0B2",
"zX c #AEB1AB",
"xX c #C88C93",
"cX c #C2AE9C",
"vX c #C988AC",
"bX c #CDAFB2",
"nX c #99D898",
"mX c #AEC896",
"MX c #90F186",
"NX c #92CFB2",
"BX c #B1CCB3",
"VX c #CDCCB4",
"CX c #E2CEB1",
"ZX c #898DD2",
"AX c #B291CD",
"SX c #91AFCB",
"DX c #A4ADCC",
"FX c #A4AED9",
"GX c #82A8E5",
"HX c #CD8ECC",
"JX c #CDB5CF",
"KX c #DCA1E2",
"LX c #9DDBD2",
"PX c #B0CBC4",
"IX c #C0C0C0",
/* pixels */
"IXIXIXIXDXIXIXPXIXIXJXzXIXBXIXIXPXJXBXJXbXPXJXbXPXIXIXIXPXIXIXJXIXIXzXIXIXIXIXIXBXJXIXBXDXIXPXbXPXIXIXIXIXIXIXbXPXIXIXIXIXIXIXIXIXIXIXIXIXIX",
"IXIXzXgXgXgXhXkXkXkXjXjXjXjXjXkXfX).kXfXfXcXcXhXhXkXlXkXAXAXAXAXAXAXAXAXbXzXlXzXlXzXhXmXmXmXBXlXlXlXBXDXkXkXxXxXxXxXxXxXBXIXBXVXzXhXhXcXIXIX",
"IXIXe.L # q 0 N < < , = = = = , x x x x x p h h h 0 e u.|.|.|.|.|.|. XW.C <.q ) ) L ` K U ..1X1X&X1X1X,XB s a a a a a s 5.mXBXBXhXf d 9.IXIX",
"IXIX6.U B U..X.XU.< < , = =   , < x x x p z d d d g r l.|.|.|.|.I.L.n g J E E Q Q Q Q Q Q ..;X*X1X2X<XjX[.b s a a a a a s 7.mXhX4.f d 1.IXIX",
"IXIXhXV R..X.X.XR.< ,   =   - ; 0 N v x p d d d d C lXeXZXXX^.v v n j J E R R Q K Q Q :.2.3.dX<X<XjXjX).).`.S A b b z Z 1.nXe.6.m n o V IXIX",
"IXIXkXP..X.X.X.XU.,       = # ! ` ) 0 0 p d d d M lXGXLXLXGXdXn g j K E R R E U <.4.fX'.[.[.oX@X).).vX[.{.`.`.`.`.S hXMXMXMXe.6._ o X V IXIX",
"IXIXkX/.].]..XU.L..       + + 5 5 5 5 3 q q q w g.l.l.G.eXeX<XV j K R R R R E P V [.oXoX@XoXoXoXoXxX9.9.'.`.`.`.`.`.mXt.MXMX7X} ! . X V IXIX",
"IXIXhX2.0.2.2.' ! G ! ;Xk.8 + + + + + + 5 ! ! ^ u.y.y.y.p.p.p.g.L E R R R R r.5.~.].oXoXoXoXoXoX'.9.,.,.9.S `.`.`.xXhXMXMX6X*X^ ^ 4 X V IXIX",
"IXIXnX:.:.:.:.&.&.U | 2XSX<X3 + + + + 5 ! ! ! ! 8 u.y.y.i.y.y.1 e _ ' _ _ _ { ) q y ).^.^./.^./.5.,.,.,.,.8.5.C C '.cXmX6X%X7 7 7 3 X V IXIX",
"IXIXr.:.:.:.>.2.8.*.4.lXSXSX,X6 + + + 5 ~ ! ! ( ! 6 d.y.y.y.y.1 1 k.k.k.k.q @ @ @ 6 k.g.l.g.g.g.<.;.,.,.,.2.) 7 8 :XzXbXgX%X~ 7 7 7 3 k.IXIX",
"IXIXr.:.:.:.>.*.*.2.X.8XSXSXSX;X4 3 3 6 ! ( ! ! ! ) 8 1 - : o i g N !.k.h.@ @ @ @ @ 6 g.g.g.g.j.w %.+.%.&.) ~ 7 ~ %XfXbXNX5X*X%X7 7 7 >XIXIX",
"IXIXhX*.:.:.:.o.X.3X3X3X8X<XtXeXF.I.V.f.7 ^ ! ! ` ) P % i o i i o 0 N r 0 @ @ @ @ @ @ e g.r h.m j +.$.$.L ~ ~ ~ ~ ^ dXbXNX5X5X3X*X] t dXIXIX",
"IXIXfXB 6.o.X.3X3X3X4X ./ %X*X,XB.Z.m.m.m.p.d.) P *.-.l % o o o i i p i o X $ O @ @ 4 g h M z z k $.$.$.! ^ ~ ~ ~ 7 :XbXNX5X5X5X| m 4.gXIXIX",
"IXIX[.E.wXwXwXiXiXtX1X*X/ / / %Xf.m.m.m.m.m.b.N k =.=.=.. . . X X X u u u u u o o e L.b z z z z z k 2.o.} %X~ ~ ~ %X:XbXhX>X>XV 4.m m fXIXIX",
"BXJXlX,XwXwXwXtXtXtX*X/ / /  .5X*XA.m.m.m.m.n.E.-.-.=.-.$ . .   . . X u u u u u i P.U.P.Z l l l l 1.o.7X7X9X8X8X8X2XlXfXC B N M m m m hXIXIX",
"JXPXSXwXwXwXwX2X:X2X*X/ / ( 5XX.5X1XN.m.m.m.n.z.Z =.=.=.* . =   . X X u u u u u x K.U.K.M *.*.*.*.2.7X9X0X0XpXpXpXpXNXfXA A C 3.m <.4.hXIXIX",
"BXbXNXwXwX1X,X[ y [ ] y V C 6.>X6X2Xx.N.m.m.m.p.n n g g o : ; ; - , < < 1 , s.s.a.]./.n J +.#.+.#.&.o.9X0XpXpXpXpXpXNXfXA S 7.t.:.O.q.r.zXIX",
"IXPXNXgX>X;X[ y y y V B S A A {.).kX(.}.V.K.a.s.1 > > : : : : : o p.v.b.b.v.v.b.F.@X#X9.$.J J J J U o.pXpXpXpXpXpXpXpXkXS q.t.t.t.O.O.nXIXIX",
"IXIXmXr.e.{ { t [ y V A A A A A ].].T.P.Y.P.P.1 a.1 1 > : : o : : p.b.b.b.b.b.B.F.#XHX#X~.$.J J P | pXaXaXaXpXpX0XNXLXNXq.t.O.t.t.t.t.nXIXIX",
"IXIXBX7.r.6.>X*X*X*X:XC A A Z A A Y.Y.Y.Y.Y.P.1 1 1 1 1 2 : : : : p.b.n.b.b.b.B.XX#X{.#X{.S k @.6.pXaXaXaXaXaX8X] >XtXNXe.O.t.O.t.t.o.mXIXIX",
"IXIXmXr.gX8X4XyXyXyX&Xt & 9 w 0 N P.Y.Y.Y.Y.Y.K.g.1 1 1 1 ; o : : p.n.n.n.v.b.B./.{.`.S S Z z Z gXaXaXaXaXaXiX1X@ @ ! X.5X0X5X5X` ) @ { IXIX",
"IXbXmXq.5XyXyX4X4X&X8 4 9 q & 9 0 b Y.Y.Y.R.Y.Y.v 2 : ; o o o o y.n.M.M.N.M.N.l.C S Z Z Z B Q.^.eXtXiXaXaXsX2Xe - 4 !  .yXuXuXwX7 . . V IXIX",
"IXIXr.>.5X4X4X&X8 ;   ; . q q & j M A R.R.R.R.R.b > o X o o o ; p.M.M.M.M.M.M.l.M l s x v F.J.J.G.<X2XiXtXx.e 4 e 1 ^ 3XuXuXuXuX&X. . :XIXIX",
"IXIXr.;.;.} t - , X o & _ P P +.@.@.z b b b R.b v c o o % $ % 0 v.N.M.M.M.M.M.v.h.M v L.z.J.J.J.D.c.k.;Xe e 1 1 e 1 8 *XuXuXuXuXwX8 . V IXIX",
"IXIXr.;.;.$.; - - - ) Q :.:.*.@.@.@.@.* & q w w % % j * J $.#.P j.M.M.M.M.M.M.M.v.p.p.D.D.D.J.J.J.j.y t e 1 1 1 4 6 H  .4XsXuXuXuXwX4 y IXIX",
"IXIXr.;.;.U t f.f.f.%X} X.Q @.@.@.@.@.D F F F F $ * +.#.#.#.#.U _ f.n.A.A.J.A.n.v.v.v.v.b.B.D.x.;X} ` I 6 e 4 6 G Y T T T  .pXGXrXeXg.(.IXIX",
"IXIXr.;.;.} =XqX=X=X&X( ..W #.=.@.@.K D F F F F D L J #.U #.#.&.&.jXZXZXZXGXZXJ.v.v.v.v.v.v.l.] ` W W W W I H Y T T T T T } kX$X$X$XOXAXIXIX",
"IXVX7.*.%.%X=X=X=X(  .W W W K #.@.%.H F F F F G 5 6 & j j g g n V DXFXFXFXFXFXH.A.v.v.v.f.g.] ` I W W W W ) j.%XY T T T Y ).OX+X+X+X+XHXIXIX",
"IXIXNX>X>X&X&X(  .W W W W W ..6.hXbXBX>X} I 5 6 6 6 t > i c i c 2 (.ZXFXFXFXFXZXD.C.B.V.h.t _ ) I W W W ` j.C.C.l.j.!  .>X@XOX+X+X+X+XHXIXIX",
"IXIXNX0X0X6X| ` W W W W W ..6.zXJXIXJXJXzX:X6 6 6 6 4 > c c < , , y.l.jXFXFXFXZXXX}.}.}.h.{ ) { _ I W W g.C.Z.Z.C.B.v.D.OXOX+X+X+X+X].vXIXIX",
"IXIXNXpX0XgX4.4.3.~.~.~.dXfXzXJXIXJXJXJXJXdXe 8 8 6 4 9 c : < , y.y.y.g.>XSXFXXX}.}.|.}.^.y ) ) 9 4 4 t b.Z.Z.Z.Z.Z.Z.Z.}.OXOXOXOXOXE.fXIXIX",
"IXIXNX0X9X3.4.4.3.C ].].].].HXJXJXJXJXJXbXkX~.y 8 6 6 4 : < , y., y.e ! ` k.t t j.z.}.}.z.k.) e - = = u.C.Z.Z.Z.Z.Z.Z.C.z.^.(.(.(.).N fXIXIX",
"IXIXDXDXkX3.4.4.4.3.~._.].].).AXJXIXJXbXcXxXvX'.dXy 8 4 , 1 1 a.z.dXgXgXQ. Xh.t ^ t h.^.}.z.t - - = - v v I.V.Z.Z.Z.Z.V.k.k.!.!.!.Q._.vXIXIX",
"IXIXHX#X#X~.3.4.4.4.~.[.).).(.jXfX7.q.w.r.7.5.xXxX~.n o > !.kXbXCXCXCXHX X Xh.t q ^ 6 j.(.XX!.!.k.E.M s s s s K.a.V.l.k.:X!.Q.Q.T.T.T.vXIXIX",
"IXIXHX#X#X).5.4.4.4.~.(.(.(.(.(.gX0.0.0.:.0.2.w.5.B p s s 9.CXCXCXCXbX@X X Xz.t 6 6 q N vXKXKXKXKXJXcXZ Z s s d % & & w Q._._.T.T.T.T.[.IXIX",
"IXIXHX#X#X#X~.3.4.C (.(.(.(.!.t ) U 0.0.0.0.0.0.!.h.h.L.v ~.cXCXCXCX@X X X XI.e t 0 c b _.KXKXKXAXAXFXkXxXC %.$ O D D & W.T.Y.T.T.T.T.vXIXIX",
"IXIXJX#X#X#X).V n 0 N dXgX6.q O O O Q :.:.2.0.6.c.J.J.J.F.H.jXzXlXlX!.L.K.< 2 > c s x s b [.KXAXeXH.ZXDXDXDX:XD D D D L B Y.T.T.T.T.T.vXIXIX",
"IXIXHXoX+X].N > o o > ) X...H O O F F H Y R I ;XD.J.J.F.c.c.c.,X,X,Xj.e : o o h d d s v 1 x.-XG.G.G.eXFXDXDXlX` D D & w W.W.W._.T.T.T.[.IXIX",
"JXVX).h.h.0 0 0 0 % 0 _ X.X...G O F Y Y Y Y Y { 3.~.fX5.5.5.:X-X-X-X%Xj.j.6 j l l =.l k y f.f.A.G.G.G.FXFXFXlX) D D w W.W.W.Q./._._._.vXIXIX",
"IXDXjXg.! ` P P P U P U ..X.X...F F F Y F Y H 1.1.1.8.8.8.1.3.x.%X-X-X-X-X%X$.=.f =.f @.m t f.A.A.G.G.ZXSXDXlX{ L 0 W.Q.W.W.W.W.W.~.3.hXIXIX",
"IXIXjXg.j._ 2.U ' P &.U ' o.' { dXvXAXzXdXr r 8.1.8.8.8.8.1.{ f.f.f.x.-X-X%X$.@.=.l =.=.f f 8 G.G.G.G.eXZXSXDXfXV Q.Q.Q.Q.Q.Q.~.hXMX7XnXJXPX",
"IXIXjXl.g.gX6.2.$.' _ | | ;X!.E.Q.[.HX/.I.a.a.B 1.8.8.1.8.3.t d.d.d.d.d.f.1X| %.@.@.f +.+.+.P <XH.eXeXeXZXeXeXH.G.D.z.E.E.dX6.nX7Xt.O.nXIXJX",
"IXIXjXg.h.7.7.6.{ | ;X1X;X;X:XE.P.Q./.I.K.K.K.L.C 1.1.1.1.m e d.d.d.d.g.c.SXSX6._ P L J K L P <XZXeXXXZXZXH.eXS.S.S.S.A.<Xo.O.O.MX7XMXmXIXIX",
"IXIXdX0 & ) ;X-X&X*X;X;X2X;X1Xk.E.L.a.K.K.a.a.a.V j $.j j j * 9 d.f.c.AXHXHXHX(.:X[ [ [ [ [ [ !.C W.C C C ~.G.S.S.S.S.S.A.e.q.t.t.t.t.mXIXIX",
"JXPX3.0 0 ^ =X=X=X~ ( ` ( } } k.E.a.z.z.l.F.l.x.k.m j j j j j j w (.HXHX).XXF.l.j.[ [ [ [ ;X2XjXfXZ Z z Z S k.S.S.S.S.S.qX2.>.>.>.w.w.mXIXIX",
"BXPXdXt 9 f.=X=X=X%XH H H H ` _ V c.x.,X,X-X-X,X^.v g j j j j j j ~.XX^.s.p.i.i.u.j.[ ;X] ] tXiXzXC Z S 9.hX<XA.S.S.S.A.rXpXnXw.>.>.>.mXIXIX",
"bXIXdXe f.f.=X=X=X/ H H H H H U { ,XG.-X-X-X-XG.K.P.N w * * * * n a.p.y.i.i.i.i.u.g.[ t 6 [ iXiXiXNXhXBXVXLXLXtXqXA.rXiXsXsXaXNXO.q.X.nXIXIX",
"IXIXdXj.-XqXqX=X=X~ H H H H H H ( ,XqX-XrX-XG.^.P.P.a.u.- e 1 9 j 2 y.i.i.i.i.i.i.s.w L ) >XiXtXiXLXBXLXPXLXLXLXLXLXLXVXLXLXaXaX0XX.X.nXIXIX",
"IXIXzXlXDXSXSXlXlXlXNXgXgXmXgXgXNXzXDXlXDXlXDXkXkXkXzXjXjXlXkXzXhXkXkXjXjXjXjXjXjXjXzXhXzXBXPXPXDXBXPXIXIXIXPXIXIXVXVXVXPXPXLXPXLXNXmXBXIXIX",
"IXIXIXIXIXIXIXIXIXPXIXIXIXIXIXIXIXIXBXJXIXIXIXIXIXIXIXIXIXIXPXJXIXVXDXIXIXIXJXIXIXJXPXIXzXIXIXIXIXIXIXIXIXIXIXIXIXPXIXIXIXIXIXIXIXIXPXJXIXIX"
};
