/* XPM */
static char *_9630a6d1b1b4693e9320161379a919fJK0V1DMBn8k8qUxr[] = {
/* columns rows colors chars-per-pixel */
"70 70 256 2 ",
"   c #221A3B",
".  c #2A3335",
"X  c #511432",
"o  c #602626",
"O  c #643435",
"+  c #703530",
"@  c #1F691E",
"#  c #04593C",
"$  c #3B7A2C",
"%  c #256735",
"&  c #5D6232",
"*  c #716A37",
"=  c #231E57",
"-  c #2D2C52",
";  c #532C4D",
":  c #6B2845",
">  c #6E324C",
",  c #601C69",
"<  c #4F3370",
"1  c #335353",
"2  c #236058",
"3  c #317058",
"4  c #157275",
"5  c #35716A",
"6  c #4E554F",
"7  c #70524F",
"8  c #4E6C4C",
"9  c #6C6B4A",
"0  c #4C4F71",
"q  c #715472",
"w  c #4F716F",
"e  c #6B7872",
"r  c #911703",
"t  c #962924",
"y  c #86372F",
"u  c #D80410",
"i  c #D42528",
"p  c #B65514",
"a  c #915232",
"s  c #B04D2C",
"d  c #8C6F2E",
"f  c #927826",
"g  c #AF6C23",
"h  c #C9671E",
"j  c #D2562A",
"k  c #882D48",
"l  c #A0235F",
"z  c #D5325D",
"x  c #91524B",
"c  c #917752",
"v  c #AB674B",
"b  c #8F546F",
"n  c #AC516C",
"m  c #906D6F",
"M  c #AF6F6D",
"N  c #D1564A",
"B  c #D5516A",
"V  c #E15962",
"C  c #CD6C70",
"Z  c #2D920F",
"A  c #16A41A",
"S  c #1A9824",
"D  c #2FB030",
"F  c #758C0E",
"G  c #64AF15",
"H  c #518B2B",
"J  c #738F2F",
"K  c #50AE37",
"L  c #76A836",
"P  c #10C612",
"I  c #06EA1E",
"U  c #19D82A",
"Y  c #5DD501",
"T  c #66CB0E",
"R  c #49CB31",
"E  c #6FCB26",
"W  c #2F9656",
"Q  c #0A8170",
"!  c #158A75",
"~  c #2C9071",
"^  c #09AA71",
"/  c #2EA861",
"(  c #558E55",
")  c #6B934E",
"_  c #51AA4D",
"`  c #71AB4F",
"'  c #4F926C",
"]  c #588C7C",
"[  c #728F72",
"{  c #52AE6A",
"}  c #73AE76",
"|  c #32D362",
" . c #55DC5C",
".. c #6CD04F",
"X. c #6FCC71",
"o. c #7CF376",
"O. c #908A15",
"+. c #B28B12",
"@. c #8AA91E",
"#. c #8F8D2A",
"$. c #8CA82D",
"%. c #B0AC2F",
"&. c #CF8712",
"*. c #C9982B",
"=. c #B4CC07",
"-. c #91D233",
";. c #ACD136",
":. c #C9C92F",
">. c #8D8F51",
",. c #B69555",
"<. c #91AE50",
"1. c #AEB34A",
"2. c #938D6D",
"3. c #949264",
"4. c #AF8F73",
"5. c #8FAE74",
"6. c #ACAF72",
"7. c #C4995A",
"8. c #CD9769",
"9. c #96C847",
"0. c #97C953",
"q. c #AAD34B",
"w. c #99CF74",
"e. c #B0C771",
"r. c #84F168",
"t. c #310E8F",
"y. c #342C93",
"u. c #2808A4",
"i. c #3927B0",
"p. c #54299B",
"a. c #752D92",
"s. c #7037AF",
"d. c #144C9C",
"f. c #27689B",
"g. c #4C5191",
"h. c #715495",
"j. c #4E6D8A",
"k. c #756E8E",
"l. c #504FAE",
"z. c #724FA9",
"x. c #4F71B1",
"c. c #706AB1",
"v. c #292CCE",
"b. c #2D2BD2",
"n. c #2023DF",
"m. c #1406EE",
"M. c #0A1BED",
"N. c #1619E6",
"B. c #5032D0",
"V. c #6526D4",
"C. c #4E1DE1",
"Z. c #5311EB",
"A. c #2C5ED6",
"S. c #0956F5",
"D. c #534FD2",
"F. c #6B4FCE",
"G. c #5068D1",
"H. c #656CD9",
"J. c #5C4FE3",
"K. c #851F96",
"L. c #8D2D8F",
"P. c #AD2E90",
"I. c #A026AB",
"U. c #CE2D8B",
"Y. c #D83992",
"T. c #E22595",
"R. c #CF2EB8",
"E. c #914C93",
"W. c #AD5392",
"Q. c #B05190",
"!. c #907393",
"~. c #AD718E",
"^. c #8C52AE",
"/. c #B555B5",
"(. c #9374AD",
"). c #AF70B3",
"_. c #C74E91",
"`. c #ED5E94",
"'. c #D07095",
"]. c #E76C9C",
"[. c #C855AA",
"{. c #CF6DB1",
"}. c #8D30D3",
"|. c #9F16E3",
" X c #DA29C3",
".X c #995DD1",
"XX c #AE70CB",
"oX c #DD5BC6",
"OX c #CB54D8",
"+X c #D553DE",
"@X c #D26ECE",
"#X c #E76AD5",
"$X c #19968E",
"%X c #2D908F",
"&X c #30AA8E",
"*X c #0A86AC",
"=X c #3B8BAF",
"-X c #38B0A4",
";X c #569291",
":X c #71938D",
">X c #4AB396",
",X c #75AE91",
"<X c #4F8BB0",
"1X c #758CAE",
"2X c #4AAAAC",
"3X c #6FACB0",
"4X c #33D291",
"5X c #1ED9A9",
"6X c #4DD493",
"7X c #72D18B",
"8X c #6FEB8C",
"9X c #5ED6A5",
"0X c #6AE6B5",
"qX c #2D89D4",
"wX c #36B9CD",
"eX c #7788D7",
"rX c #55A9D7",
"tX c #73B6C8",
"yX c #23DBCC",
"uX c #2BD2F1",
"iX c #70CDD1",
"pX c #6BE3C6",
"aX c #72E3C3",
"sX c #6DE6DC",
"dX c #61DEE9",
"fX c #918E92",
"gX c #AD8E8F",
"hX c #8DB18B",
"jX c #AFAD91",
"kX c #8E88B1",
"lX c #AF8CAD",
"zX c #8CADB3",
"xX c #AFB1AE",
"cX c #CE8993",
"vX c #CA88AB",
"bX c #CFAFB3",
"nX c #8BCE8D",
"mX c #B0C996",
"MX c #90F187",
"NX c #90CEB1",
"BX c #AECDAE",
"VX c #B5E9B2",
"CX c #CDCCAD",
"ZX c #E3CFB0",
"AX c #8A8CD2",
"SX c #90ADCE",
"DX c #A5ADCC",
"FX c #A1A3DC",
"GX c #A4AED9",
"HX c #CF91CD",
"JX c #CDB5D0",
"KX c #E4A6E4",
"LX c #93CCCD",
"PX c #AED5C5",
"IX c #A1DDD4",
"UX c #C0C0C0",
/* pixels */
"UXUXUXUXJXUXUXUXUXUXUXUXUXUXUXUXUXUXUXUXUXUXUXUXUXUXUXUXUXUXUXUXUXUXUXUXUXUXUXUXUXUXUXUXUXUXDXUXUXUXUXUXBXJXUXUXUXUXUXUXUXUXUXUXUXUXUXUXUXUX",
"UXUXUXUXBXJXUXUXUXUXUXUXUXUXUXUXUXUXUXUXUXUXUXUXUXUXUXUXJXPXUXUXUXUXUXUXUXUXUXUXUXUXUXUXUXUXJXBXUXUXUXUXJXPXUXUXUXUXJXPXUXUXUXUXUXUXUXUXUXUX",
"UXUXjX5.} [ fXfX!.).!.h.c.l.k.!.Q.Q.Q.Q.M M 4.gX4.4.fX(..X.X.XXXXX.XXXXXxXjXkXfXfXhXhXhX5.nXzXzX3XzXzXzXlXC C V C C C C bXUXBXBXmX4.4.jXUXUX",
"UXBX5.K $ 8 7 , , , , = = = = , k l l l l s s g s x 0 y.|.|.|.|.|.|.}.E.M 3.( ( ( _ L E E { -X>X2X-X>X3Xn i u u u u u i 4.jXBXBXjXh p 4.UXUX",
"UXUXw.L c R. XR.I., , = = = = , l l l l t i p p g 7 0 y.|.|.|.Z.|.I.n x f T T E E E E T E _ >X2X-X2X1XkX!.z u u u u u u i jXmXmX6.p p ,.UXUX",
"UXUX5.>./.R. X XR.K., , = = = X : l l t i j p p j a k.H.|.Z.|.I.L.k x f G Y T T T E E E E E { &X-X1XAX(.).B z i u u u i j 6.jXhX>.v p 4.UXUX",
"UXUXjXM R. X X XR., X =     - 6 9 b l l k j p h p M zXeXFX.X.Xb x a d G Y Y Y E L E E $.<.4.(.kX1XkX(.lX).`.B B z z N ,.w.w.w.5.c * + m UXUX",
"UXUXlXP.R. X X XI.X         6 8 { ( q k t p p p v xXLXIXIXFXkXx x d F T Y Y T J >.<.6.gX).{.oX@X).).lX).].`.`.`.`.V 4.r.MXMXw.5.9 o o m UXUX",
"UXJX).R.R.R. XR.I.X       . 2 W W W W 1 * p s s k.1XSXiXGXLXzXm a O.T Y Y Y T J m {.{.oXoXoX#XoX].cXcXcX`.`.`.`.`.].jXMXMXMXMXw.' . X m UXUX",
"UXPXlXE._.[.[.W.q -       # # # # # # # # W W 2 y.u.i.i.G.x.c.:X#.T Y Y Y Y T J M [.oXoXoXoXoXoX#XcX8.8.].`.`.`.`.].mXr.MXMX7X{ / & o b UXUX",
"UXUXmX<.1.<.<.` W S 3 ;Xk.5 # # # # # # % W W 3 y.t.u.y.i.y.y.g.$ T Y Y Y Y <.jX~.[.oXoXoXoXoXoX].8.:.:.8.V `.`.`.cXe.MXMX7X{ $X~ 1 X b UXUX",
"UXUXe.-.-.-.-.L L K ` 3XtX;X# # # # # # W / ^ W 2 y.t.t.t.u.u.t.0 K L K L ` [ [ e !.{./././././.8.:.:.:.:.8.C '.'.'.jXmXnX~ 4 4 4 2 X m UXUX",
"UXUXe.-.-.-.;.1.1.$.5.zXSXtX5 # # # # # W W / W 5 0 u.t.t.t.t.t.< e [ e e e 8 % % 8 !.c.z.z.z.z.,.:.:.:.:.1.3.e k.gXjXmX,X~ 4 4 4 2   m UXUX",
"UXUXmX-.-.-.;.%.*.%.6.zXSXAX1X5 # # # W W / W / / 5 d.t.t.t.y.< < k.k.k.k.8 % % % 3 w g.g.g.g.g.3.:.:.:.:.` ( Q Q ;XlXbXNX&X4 4 4 4 1 :XUXUX",
"UXUXe.-.-.-.;.%.7.1.X.3XSXSXSXj.2 # # W W ^ W W _ W 3 < ; : + + a q k.!.k.1 % @ % % 2 g.g.l.g.g.>.O.O.%.$.( ! Q Q ] lXbXNX6X&X$X4 4 4 1XUXUX",
"UXUXw.-.-.-.;.0...| 4X4XiXSXSX1Xz.a.s.5 W W / W W W 3 6 + + a r t x k.k.w % % % @ % 2 g.g.y.g.w d #.O.O.) W Q Q 4 ~ jXbXzX6X4X4X&X4 ~ hXUXUX",
"UXUXjX,.-.-... .| 5X| 5X5X>X3XeX^.}.V.i.f.f.W W ) ) #.d t y p + + a x b O @ % % % @ 2 0 q q b v d O.#.f ( 4 Q Q 4 ! hXbXNX6X6X6X>X' 8 fXUXUX",
"UXUXgXn ` X. .4X4X4X5X| ^ ^ >X<XB.Z.m.m.m.v.f.( <.*.*.g + + + + y y y y + & o % % % 8 x v j j h g #.O.#.( ! Q Q Q ! fXbXzX6X6X6X} 3.>.jXUXUX",
"UXUX'.P.2XwXrXiXtXiX2X&X^ ^ ^ $Xv.m.m.m.m.m.n.b &.&.&.*.. . . . o y r r r r o o . 8 L.s j j j j h g #.` / ! Q 4 Q Q :XbXNX9X6X[ c c c gXUXUX",
"UXUXlXc.wXwXwXrXSXiX>X^ ^ ^ ^ 4X*Xn.m.m.m.m.n.b *.*.&.&.& . .   . o o r r r r r + l I.n j j j j j v w.8X7X6X&X-X&X%X:XvXgX2.m m c >.c jXUXUX",
"UXUXSX2XwXwXiXrXtXtX-X^ ^ $X4X .>XA.m.m.m.m.N.a.h *.&.&.& . #       o r r r r r k I.I.P.N *.h h h ,.8X9X8X9X9X9X9X9X3XlXB n n n c c c jXUXUX",
"UXUXSXwXwXwXwX2X3X3X&X^ ^ / | 6X .<XN.m.m.m.n.a.*.&.&.*.a . =   # X r r r r r r l P.I.P.v *.*.*.*.0.8X8X9X0XaX0XsXaXNXfXV B n 2.>.c >.gXUXUX",
"UXUXtXwXwXwX2X;X[ :X~ ~ { [ X.7X6X6XA.m.m.m.N.p.v h h g a ;   -   X o r r t o t l I.I.l #.@.%.=.;.9.8X9X0XaXaXaXaXaXNXjXz V ,.5.<.<.<.jXUXUX",
"UXUXLXwXwX2X;X] w e e m B C gXhX,X3X<XN.m.m.m.i.q 7 + : O : : : ; p.i.i.i.i.b.b.B.[./.v F F F F F L X.8X0XaXaXaXaXaXNXlXV 8.0.r.r.r.r.mXUXUX",
"UXUXmX,X3X] ] e w w c n z V B ~.lX).).}.s.V.a.p.< , > > : : : : : i.i.b.b.b.b.C.F.@X{.4.#.O.F F F J } aXaXaXaXaXaXaXNXzXV e.r.r.r.o.r.MXUXUX",
"UXUXmXw.5.[ e e e e m C V B V `.[.{.[.P.P.P.K., < < , > : : : : : i.b.b.n.b.b.b..X#X#X{.M f F F F ` 0XsXsXsXpXpXpXLXLXNX6.r.r.r.r.r.r.w.UXUX",
"JXBXxXe.e.5.' ;X] ] m B V B B B _.R.U.U.U.U.l p.0 a.< , > : : : : i.b.b.b.n.b.C.}.#X#X#XcXv O.O.$.7XsXsXsXsXpX9X9XLXLXPXr.r.r.o.r.r.r.mXUXUX",
"UXJXmXe.w.5.>X-X-X-X:XM B B B B B z P.U.U.U.P., < < < < , : + : : i.b.b.b.v.v.B./.KX].HX].C g g hXsXsXsXsXsXdX9X' { 3XNXMXr.r...o.r...nXUXUX",
"UXUXjXe.w.9XyX5X5XyX2Xw 9 8 9 7 b U.z U.U.U.P.K.a.< < < < > O O ; i.n.v.b.b.b.V.XX#X].V V N j N hXsXsXsXsXsXpX6X% @ W | 6X0X8X .` _ % 2.UXUX",
"UXUXmXnX7XyX5XyX5XyX%X3 8 & & 6 b l U.U.U.T.T.P., < > ; : O O ; < v.M.n.N.N.n.F.W.C V N j N C W.eXiXsXsXdXpXtXj.1 1 D | 5XuXuX-X( . . e UXUX",
"UXUXmX0.6XyXyXyX5X%X1 6 1 6 $ 8 7 n U.U.T.T.T.T.l > > O O O o O y.N.M.M.M.M.N.l.M j N N N n E.c.H.rXsXsXpXiX<X0 < 6 W 4XyXuXuXwX4 . . !.UXUX",
"UXUXe.=.6X5X5X$Xf.- ; - 1 & 8 & * v B T.T.T.T.T.P.k O O O O O ; u.N.M.M.M.M.M.p.v h i i L.^.J.J.c.1X3XiXrX;X0 < < < ' 4XuXuXuXuX$X. . e UXUX",
"UXUX7.=.=.4Xj.; X X X ; 8 8 8 #.+.+.h z T.T.T.T.l k O o O + + > n.M.M.M.M.M.M.b.q h i l s.J.J.J.G.x.k.;Xg.0 < 0 < < 5 =XuXuXuXuXwX2   e UXUX",
"UXZXe.=.=.J ; X X X & L $.-.@.+.+.+.+.v b n B P.l k + & * * @.9 d.M.M.M.M.M.M.N.v.g.a.z.J.J.J.J.D.c.k.k.0 < - < < 1 ! &XuXuXuXuXuX=X. [ UXUX",
"UXUXe.=.=.O.6 - < - ( 9.-.-.+.+.+.+.+.J $ H $ 9 a a f F F @.@.J w n.M.N.M.M.M.n.v.v.i.D.D.J.J.J.D.c.' w 0 < < < 1 W A U | yXdXuXuXwX1 e UXUX",
"UXUXe.=.=.L w f.f.f.%X ...-.+.+.+.+.+.Z A S A S $ * O.@.@.@.@.L ) b.b.S.n.A.n.v.v.v.v.v.b.D.D.D.x.' _ ( 8 0 1 5 W U I I I 6XiXiXrXrXg.!.UXUX",
"UXUXe.=.=.` %X*Xf.*X*X-X .E @.+.+.+.@.Z S A A A @ F @.@.@.@.@.@.<.<XG.H.eXeXH.J.v.v.v.v.v.v.D.j._ R R R K 8 8 D I I I I I  .kX@XXXOX.XFXUXUX",
"UXUXe.=.=.' *X*X*X*X$X/ R R @.+.&.O.G A A A A A Z H J @.L $.@.@.<.SXGXFXFXGXFXJ.v.v.v.v.v.v.g._ R R R R R R U I I I I I I ,XXX+X+X+X+XHXUXUX",
"UXUXe.%.$.%X*X*X$X/ | R R R K @.+.#.H A A A S S % 3 & d a d a a m DXGXGXGXGXGXeXb.v.v.v.d.j.w _ R R R T R _ j.f.U U I I U ).OX+X+X+X+XHXUXUX",
"UXDXjX` ,X-X*X$X/ | R U R R R <.6.jXhX{ W S S W 3 3 6 7 y k y k q kXFXGXGXGXFXeXD.b.B.D.g.e ( ) K R R R R w B.b.f.! | U { XX+X+X+X+X+XHXUXUX",
"UXUXNX9X9X-X&X{ R R R R R R ..xXJXJXJXPXhX( 3 3 5 2 1 > k k k , , p.(.FXGXGXGXAXF.V.V.}.k.( ( ( K K R R ' p.Z.Z.Z.b.%X{ (.OX+X+X+X+XOXHXUXUX",
"UXUXNXpXpX7X} ` R R R _ R  .nXxXJXJXJXJXDX:X3 2 2 5 6 6 k k : , t.t.l.c.GXGXGXAX.X|.}.}.z.( [ ( ( K K R l.C.Z.Z.Z.Z.C.V..X+X+X+X+X+X[.lXUXUX",
"UXUXNX0X0XhX3.3.3.~.~.~.fXgXbXJXJXUXKXJXJXzX5 2 2 2 3 6 k k , t.t.t.t.p.:XDXSXXX}.}.}.}.^.e ( ( 6 1 3 w B.Z.Z.Z.Z.Z.Z.V.}.OX+X+X+X+XW.gXUXUX",
"UXUXPX0X0X} 3.3.3.~.'.[.[.~.HXJXUXKXUXJXbXlXm 5 3 5 2 6 + , , , t.= < W | } ] j.c.}.|.}.^.k.( w 1 - - y.C.Z.Z.Z.Z.Z.Z.Z.V..X).)./..Xb gXUXUX",
"JXBXBXaX7X5.2.2.3.M [.[.[.[.{.JXUXJXJXUXbXvXgXm w 3 2 1 : , = < t., w _ _ h.w 5 w z.}.}.z.h.( 6 = = = p.Z.Z.Z.Z.Z.Z.Z.V.z.!.!.(.(.~.b gXUXUX",
"BXJXDXSXlX2.3.3.3.2.~.[.[.[.{.DXJXJXUXbXvXcXcXvX!.e w 1 , t.p.p.^.gXw.jX).|.0 w 5 5 z.s.}.^.w - = = - l l P.V.Z.Z.Z.Z.D.c.k.:Xk.!.W.Q.vXUXUX",
"JXBXHX#X@XgX3.3.3.3.~./.[.).(.XXlXmXe.0.6.4.cXcXcXgXe 6 , a.gXbXZXZXZXHX|. Xz.w w 3 ( j.z.F.0 < < < k i j i l V.Z.Z.V.h.k.k.!.Q.Y.Y.Y.vXUXUX",
"UXJXHX#X#X'.2.3.3.3.M ).).(.(.(.gX0.0.9.q.0.6.6.cXB s t s cXZXZXZXZXbX@X|.|.s.w W 3 5 e lXKXHXHXJXbX8.i u i i i l 0 j.k.!.Q.Q.Y.Y.Y.Y.vXUXUX",
"UXUXHX#X#X{.~.3.3.3.!.).(.(.(.(.2.9.9.9.9.9.9.<.4.n t i i 8.CXZXZXZXJXOX|.|.^.w W w 6 E.lXKXKXKXKXJXvXC N i i p * $ H 9 Q.U.Y.Y.Y.Y.T.vXJXUX",
"UXUXHX#X#X#XgX2.3.3.!.(.(.(.(.k.) E 9.9.9.9.9.9.:XE.a.l l C cXZXZXZX@X X|.|.K.0 w 9 k l [.KXKXKXHXDXDXlXgXM h * Z Z Z & _.Y.Y.Y.Y.Y.Y.vXUXUX",
"JXPXHX#X#X#X~.m c c !.(.(.fXk.% @ Z 9.-.9.9.9.0.c.J.J.J.F.^.lXCXCXCX/.|.|. XK.q 6 k l i B HXKXKXAXeXSXDXDXDX,XZ Z Z Z H n B Y.Y.Y.Y.Y.vXUXUX",
"bXJXHX#X#X#X/.b x > q m ,X[ S @ @ Z L -.9.9.9.5.H.J.J.J.J.H.c.3X3X1Xb , : : O + l i i i z [.KXFXH.H.AXDXGXGXfXZ Z Z Z $ E._.Y.Y.Y.Y.Y.vXUXUX",
"BXJXvX+XoX[.b : O O 7 )  ...D @ @ A A P R R K ;XD.J.J.F.(.c.c.;X;X<Xj.0 6 o + a p j i k h.g.x.G.G.H.eXDXDXDXzXH Z Z H 9 Q.Q.Q.Y.Y.Y.Y.{.UXUX",
"JXBXlXI.E.E.7 7 > 6 O )  . .R A @ @ A P P P D [ !.(.!.gX4.gX:X<X<X=X<X%Xj.6 d h h h h s w f.f.A.G.G.G.DXDXDXzX_ Z Z 9 E.Q.Q.Q.Q._.Y.Y.vXUXUX",
"PXBX(.g.w 8 * * * * * ) .. . .D S A P P P P P >.,.,.7.,.,.,.:X%X=X;X%X<X<X~ O.h &.h &.g e f.d.x.G.G.G.SXDXDXzX) Z 9 b W.W.Q.Q.Q.Q._._.lXUXUX",
"bXJXkXj.^ K L L #.L L E .... . .D A P P P P D 1.,.7.7.7.7.,.fX=X=Xf.=X=X%X%X#.+.&.+.&.&.#.w f.A.A.G.G.AXSXDXzXfXH m W.Q.W.Q.Q.Q.Q.~.5.mXUXUX",
"JXBXkXg.j.) ` L ` L ) $.`  . .` fXvXxXgX:Xe q ,.7.7.7.,.7.7.[ f.f.f.=X=X%X&X>.g &.h &.h &.O.j.A.G.A.H.eXSXGXkX4.M n W.W.W.W.W.~.fXnXo.mXBXUX",
"UXJXkXl.g.5.<.<.` #.$.` ` ,Xk.b ).@XHXHX^.L.E.M ,.,.7.7.7.3.k.d.d.f.d.d.f.$X>.+.&.h +.+.+.O.) x.H.eXeXeXAXAXAXAXc.z.E.W.W.W.gXhXMXr.8XBXUXUX",
"UXUXkXl.c.hXe.<.>.` ` } :X;X!.L.E.[.@X/.L.K.K.E.M 7.,.,.,.3.w d.d.d.d.d.x.2X,X$.+.O.O.O.O.F F 1XeXeXAXeXeXeXeXH.A.D.D.z.!.fXhXo.o.8Xo.BXUXUX",
"UXUXkXg.q 4.hX5.` ] ;X;X>X;X:XE.P././.K.K.a.K.K.M ,.,.,.,.c 0 d.d.d.d.l.1XSXDXhX#.J J H F H H kXeXeXH.AXAXeXH.S.S.S.S.A.c.7Xo.o.8Xr.8XMXUXUX",
"UXUXfX7 9 ) :X;X=X;X;X;X;X2X;XE.L.P.a.a.K.K.K.K.b c #.f f f * 0 d.d.l.(.HXHXHXlX:X] ] ] ] ] ' ~.~.~.~.~.~.(.c.S.S.S.S.S.qXX.o.o.o.8Xr.VXUXUX",
"UXUXfX9 & w %X*X*X%X&X>X>X;X2Xk.E.L.K.K.a.a.s.s.>.d f f f f d * 0 c.AXHXHXHXXX(.:X] ] ] ] ;X;XfXM N N N N n c.S.S.S.S.S.x.0.;.q.q.q.e.mXUXUX",
"UXUXfX& 9 f.*X*X*X! W _ / _ } [ b h.z.l.l.c.x.x.E.c f f f f f d * kXHXHXXX^.s.l.g.] ;X] ] ] 3XzX4.N N N j C c.S.S.S.S.S.qX0.;.;.;.q.:.mXUXUX",
"UXUXfX8 8 f.*X*X*X^ D D D D _ [ !.k.x.x.G.=XqX<Xh.b v f f f f f f lXXX^.s.i.u.u.y.] ] ] ' ] 3XtXzX8.N N C jX1XS.S.S.S.S.rXnXw.q.;.:.1.mXUXUX",
"UXUX:X0 j.*X*X*X*X! D D D D D >.[ ;X=XqX=XqX<XG.E.P.x d d d d d d ^.s.i.u.u.u.u.y.j.;X] ' 5 iXiXSXgXC 8.xXVXLXqXS.S.A.qXdXdXLXnXq.;.r.mXCXUX",
"UXUXkX0 j.f.*X*X*X! D D D D D K [ <X=X<X<XqX=Xc.I.I.L.7 7 9 9 9 x t.u.u.u.u.u.u.u.y.] w 3 ' iXiXiXLXBXPXPXPXIXLXA.qXiXIXdXdXdXsXNXr. .nXPXbX",
"UXUXkXj.=XqX*X*X*X$XD D D D D D ' <XqX<X=X<X<Xz.P.L., < 0 0 < 6 d q t.u.u.u.u.u.u.p.9 $ ) ,XtXiXiXLXLXPXIXVXIXPXIXVXVXVXIXIXdXdX0X . .nXUXUX",
"UXUXxXfXSXtXtXrX3X,X,X} X.} X.} ,X3XSXSXeXzXSXlX).).(.kXk.c.1XfX4.fX(.c.c.c.c.^.(.(.gX5.hXzXLXLXLXPXPXPXUXPXPXUXUXVXZXVXVXPXIXIXLX8X0XBXUXUX",
"UXUXUXUXPXJXUXUXUXUXUXUXUXUXUXUXUXUXUXUXUXUXUXUXUXUXUXUXUXUXUXUXUXUXUXUXUXUXUXUXUXUXUXUXUXUXUXUXUXUXUXUXUXUXUXUXUXUXUXUXUXUXUXUXUXUXUXUXUXUX",
"UXUXUXUXbXPXUXUXUXUXUXUXUXUXUXUXUXUXUXUXUXUXUXUXUXUXUXUXUXUXUXUXUXUXUXUXUXUXUXUXUXUXUXUXUXUXUXUXUXUXUXUXUXUXUXUXUXUXUXUXUXUXUXUXUXUXUXUXUXUX"
};
