/* XPM */
static char *_d16cd950b8141d6ecc36993a4e390cb1C5VLr7OhUb61XYy[] = {
/* columns rows colors chars-per-pixel */
"70 50 124 2 ",
"   c #2C2C2C",
".  c #343434",
"X  c #3A3A3A",
"o  c gray24",
"O  c #414141",
"+  c #474746",
"@  c #494949",
"#  c #4C4C4C",
"$  c gray30",
"%  c gray31",
"&  c gray32",
"*  c gray33",
"=  c gray34",
"-  c #585858",
";  c #5A5A5A",
":  c #5B5B5B",
">  c gray36",
",  c #5F5F5F",
"<  c #606060",
"1  c gray38",
"2  c gray39",
"3  c #646464",
"4  c #676767",
"5  c #686868",
"6  c gray42",
"7  c #6C6C6C",
"8  c #6D6D6D",
"9  c #6F6F6F",
"0  c #6E6D71",
"q  c gray44",
"w  c #727272",
"e  c #747474",
"r  c #767676",
"t  c #777777",
"y  c gray47",
"u  c gray48",
"i  c #7B7B7B",
"p  c #7C7C7C",
"a  c gray50",
"s  c #7F7F82",
"d  c #808080",
"f  c #838383",
"g  c #848484",
"h  c gray53",
"j  c #888888",
"k  c #89888B",
"l  c #8B8B8B",
"z  c gray55",
"x  c #8D8D8E",
"c  c gray56",
"v  c #8E8E90",
"b  c #909090",
"n  c #909092",
"m  c #929292",
"M  c #939393",
"N  c #939295",
"B  c gray58",
"V  c gray59",
"C  c #979797",
"Z  c #989898",
"A  c #9A9A9A",
"S  c #9B9B9B",
"D  c gray61",
"F  c #9D9D9D",
"G  c #9F9F9F",
"H  c #A0A0A0",
"J  c gray63",
"K  c gray64",
"L  c #A2A2A4",
"P  c #A4A4A4",
"I  c #A5A5A5",
"U  c #A7A7A6",
"Y  c #A7A7A7",
"T  c #A7A6A8",
"R  c gray66",
"E  c #A9A9A9",
"W  c gray67",
"Q  c #ABAAAC",
"!  c #ACACAC",
"~  c #AEAEAE",
"^  c #AFAFAF",
"/  c gray69",
"(  c gray70",
")  c #B4B4B4",
"_  c #B7B7B7",
"`  c gray72",
"'  c #BBBBBB",
"]  c #BCBCBC",
"[  c gray74",
"{  c gray75",
"}  c #C0C0C0",
"|  c #C3C3C3",
" . c gray77",
".. c gray78",
"X. c #C8C8C8",
"o. c gray79",
"O. c #CBCBCB",
"+. c #CACACC",
"@. c gray80",
"#. c #CDCCCF",
"$. c gray81",
"%. c #D0D0D0",
"&. c gray82",
"*. c LightGray",
"=. c gray83",
"-. c #D7D7D7",
";. c #D8D8D8",
":. c #DADADA",
">. c gray86",
",. c #DCDCDB",
"<. c #DFDFDF",
"1. c gray88",
"2. c gray89",
"3. c #E4E4E4",
"4. c gray90",
"5. c #E7E7E7",
"6. c gray91",
"7. c gray92",
"8. c #ECECEC",
"9. c #EFEFEF",
"0. c gray94",
"q. c gray95",
"w. c #F6F6F6",
"e. c gray97",
/* pixels */
"-.` [ @.w  .( w m m E F E ( ~ 4.[ w u o r ' F V -.h  .@ A } @.` 5 4  .o.l h c m F c :.Y  .V I ` ~ )  .c 5 l 8.-.[ &.[ J ` p F l 4 &.J V V r ",
"h ) ) ( h [ ( > } @.` f ( } } I M c ( M ( I I E C ~ @.` [ o.m K I o.o.H [ } c V S O.o.@.} V J ~ h ) m ) ) A } A ) V } m ( ( ) V ` ( E _ ) } ",
"( 2.` ~ A ~ E . E  .} F A  .o.@ r V _ K V A -.o.[ A ) J o.[ &.A q.A [ I / ( } [ 1 $.8 ) } c ) c 2.1 >.-.` o.` )  .) <.o.<.~ I c ) 8 w [ A u ",
"p E I A E o.o.[ ( o.f f 4.( X ` I z ` p F c & 7.[ ( o.2.-.<.:./ } J ) -.<.! ) I <.u K m E o.E V I } :.r 5.7.J ) I ) I @.-.2.S ( 8. .[ ~ ( ] ",
"` F } A ( A m F <.[ ~ J J ~ ` p o.o.I <.5.<._ <.[ M ` I ( ~ o.( / E V o.` c } ~ E -.>.t 7.c ~ l } ` ) V E o.2.J I E ) ( E V p 2.V 8  .) 4 F ",
"E ) V I ` &. .m J ) ( A V ) [ &.&.@.( o.@.} o.&. .I m o. .f f -.o.1 h J  .:.c ~ f |  .c J C ) >.-.l h O.` } u c V / o.( ) l ~ I E ) @.F c E ",
"E ) &.[ ~ c ( ` u 1 1 ~ V o.p <.E @.@.:.} [ z V ` } > &.` q.} l E E I h O./ h ~ *  .K } [ ~ o.5 } h ~ E ~ ) M c [ } r ` o.} ! [ V E 8 ( 0 J ",
"` [ @.~ I J h F 4.J ) ( <.~ u 8 A f I @.o. .J V o.,.) ) 8.) J :.[ ~ C t c ) o.` A Y @.u l ) f ( A c c ) -.E E l $.>.F } J <.( A { [ ~ ( Q y ",
"E I J E E -.p } ( ` J A @.} J E I ~ F (  .<.h -.' Y  .` o.o.J _ }  .m Y F @.2.| O.) A 8 ~ ) h ( } @.) Y ) [ E V } 4.-.V r ` 2.I I &.I [ V * ",
"&.} h ) ` ) :.J 2.} )  .:.( m m ( c :.[ _  .H &.m ~ J ..:./ z $.` J 5...) Y ~ J t ) 4.A J 5 p ) p } 5 7.~ [ :.@.) &.V [ r c m u ~ 4.E g r u ",
"8 f [ 5 5 ~ [ 7.A 1 [ [ F @.o.A ) &.( E K [ c A C Y ~ } ` J m c V c ( u w o.) p ) 2. .h ) -.| F V :.| [ c ` } } -.} [ } <.A r o.( :.o.@.I J ",
"[ F ` & ( ) J @.h 4 2. .) ) ~ ) :.@.[ E ( Y J l &.I I J c V V [ A H :.c u A J ) I V ) o.~ V  .H ) m [ ` F ( ) [ c Y [ / } V 8 @.( o.-.I }  .",
"@.o.) [ ~ ) I V >  .F  .-.F  .@.-.' I l } ) p _ p A  .z p _ :.I ) ~ ~ [ J A m ` ( [  .@.F m m ) / & 2.e ~ }  .Y &.p -.o.q.M o.K ~ J [ E [ J ",
"@.) E l -.&.h -. .` m -.( m J f F M } 2.f [ 2.c F ( c m 8.o.' A l p c ! ` / } ~ 2.~ [ w F f o.& u r <.c 5 I &.I h % u <.E E w.h @.} :.) F  .",
"J m A @.` ` -.A c F ( ) V } J 2.K p ) ` A K } <.V F m } &.I [ F } ( ~ ( [ ~ J | I 8 :.} [ ( o.` @.[ ` I } } =.~ : ~ ( f :.~ F V ( ( F -.:.I ",
"m ~ c ` I c <.A &.I [ ~ ) m I V (  .E } h ( -.l e  .r } :.~ J u ) ` J ` h l l ~ I c o.I :.A J  .E ` J m ( ( o.F r F ` &.~ 7.J F g -.( o.E E ",
"F ) o.J ~ } I ( m I } :.&.) J ) -.J I ` :.F 2.r [ '  .c ) I ~ @...7 ( O...|  .J 1 c c 5 | F * ( ..) c J A =.J 2.c ) J = 7.( c r <.4.E J -.} ",
"I l ` ` F } I <.[ ) l J ( h E  .F } F &.f r ` c V E _ ~ m p F E t =.o.o.} ~ E ) o.c C K K o.) l } 1 h J 1 [ F ~ Y c ` A % J $.O.J } F  .-.m ",
"V &.A m } ) [ [ } A E F ` :.J F m ) J [ f V w o.l  .l ~ ( )  .E ) d W O.) ( } l @.-.K F I } ` <.-.} ~ [ E J l } O.:.E w ) > ( F A :.[ } J V ",
"m E [ p ) <.m ~ J o.( F E } 5 p m A m J : J [ 5 @. .m 7.o.2.p <.5 h h D A 4 -.( ~ 2.V  .c A D -.<.F m o.} -.-.E J <.| ) [ ) I } c :.( m @.` ",
"V w J A c > o ( > F E -.} ` l l o...<.&.h p <.V @.h ) V p F J ) p &.@.c   J t -. .E c A Y :.h ) -.o.<.I q.u <.& F m 2.A Y E 7.[ F  .l I } 8.",
"5 c J 5 h c } ) ) J  .) l c u I T  .( p ( L ~ c _ z r c [ r V ~ J f w o.p  .o.Y I &.[ S ..8.V E <.| ~ c J u f :.@.:.) o. .| | S  .F I E J I ",
"` l Q @.~ 2.[ 2.<.( ` :.E c p V _ = _ u N T J &.) V A ( J &.[ p J J @.-.m f 4.I M m ] ..) } A r S = F J E E ~ >.) :.O.-.:.E 2.Y  .l A @.4 J ",
"~ ( E A ( + A c &.( J I 8 c ` ) ` ` &.( v #.m J [ } ` } ~ ) w D =.1 E } V H p F F } F @.<.<.J @ + A A ~ -.m I ~ ) ( K [ 1 } E :.F V F g [ c ",
"E o.~ J } :.[ ~ c r E ( } A @. .}  .r :.( ( 0 ` o.2.( o.A ` u _ M ( m J ' f I E F ( /  .m E  .~ &.E O.&.K ) ~ J l A [ S @.8 c E h o.( h } J ",
"~ [ ( I m p h m F E  . .) ` ` )  .E o. .o.m z  .F J ( M @.} A h (  .K J ' z z m } h &.m c h $.( <.u ) [ ! ~ M Y [ J ) F o.c I w ( &.J [ E  .",
" .} f ) w A * F c <.2.h ~ ` m o.} a N , ( o.@.)  .` w.<.[ 7.I ,.` e ,.7.-.2.J c =. .K o.o.V ( c F ` Y I / K I ( J 4.` :.m M ) ..h f @.V p 7.",
"E J ~ F m ) A h F c c I I  .[  .A ) 8 2.o.} ~ ) V F r [ c 8 } 4 ( A I ) m @. .} } ` A / ( K O.4.O./ <.Y F $._ H w ` c ) o.> :.h o.J @.E E V ",
"J I [ [  .[ O I :.` J [ m E &.o.V ~ o.} r h `  .J [ ( I ( J I [ / ' ( ] } @. .I _ I :.[ ( @.@.( @.} ( A p H z m A F V D m N ! C } c I ` o.u ",
") ) J :.V 7.o.w w.c J V ` E E <.@.) m ` ~ : ( J 8 V &.( } 4 r ~ ` f ) K } 7.&.A 7.W ) ,.c 8 7.* } <.4._ I w _  .K @.c :.V @.) o.( A ~ m 8.u ",
"} ( & E J  .8.I [ <.o.r 8.m ~ :.o.) V u 8 2.) 8 h 9 E $.F -.~ u ` 2.A S ` [ V | [ p I E C 4 F E A E :...h w A @.l m -.` -.I 2.O.&.m ` [ V r ",
":.c E f J ) ) [ } 2.( ( o.m h ) @.~ m &.} F _ c o.p V ( } ` ( D O.` ` | Y 5 ] @.@.A p h E  .p ) > J f E K c m F ~ @.[ a Y J <.S l  .I ( [ m ",
":.@.( g  .E 4 F r :.( X.2.J [ ~ %.J V ` m U ` E ]  .( c ( :.) } } w h :.~ h  . .~ I h F ^ O.L D ( ( o.( c I m } :.I F ( 7.} -.[ 2.m p E 8.F ",
"o.8 h 5 J @.@.~ r q. .J &.o.E 1 2.) 8  .w  .) 8.E I ` 5 f ( E E ..F [ 5 @.J o.o.I V l ) -.7.I :.7.<.z 8.p &.~ @.( -.m I  .) @.h 4.&.:.V ( l ",
"( ` ) ` ` ,.A ( [ ( } l ! -. .m  .[ ..~ c I o. .@.m E F m ` ) I 5 ~ S ) E H ` `  .) ( m $.&.` I ) r ( J @.}  .~ ( } ) ~ ) V ` [ ( ~ ) ~ c @.",
"( <.) ( :.:.g o.K -.c F A ` I h n ` { l o.4.A [ c I F <.V o.I I 1 } c } -.I F @.7.J O.:.I :.| ) } [ 2.m ( ~ [ o.A o.) F ) w ~  .) > [ ) (  .",
"I o.V o.2.[ c +  .( r A p ( ` @.D A ) 2.w 1 @.f l [ f 7.-.` [ &.-.A &.f % :.! e.-.4.[ O.V I +.c / F ( L [ ) ` ` u -.2.1 w > o.:.l l m h -.E ",
"A <.I 8 F -.( ( u u &.E J } F [ : u &.o.E c  .:.} @.@.} ) ) I E ! -.&.-.4 4 }  .m o.V 6 h A +.c I H E V m E ~ [ ~ : I ` [ o.(  .h c ( m u c ",
"I E u 1 ` J [ J Z Z ~ J ) c l [ u } V ( ( A J ` ) 4.A 4.} @.} ~ D @.5.' | ` z E ` ..o.w e l Q +.l A G ) J I :. .~ o :.) &.J [ [ J A h ( ( m ",
"~ g @.J l -.h H J l m I } @.} u  .-.D &.) h ( > ~ c ` I  .f ` f C u _ I ) > *.u ` [ G L s ~ +.L 1 l = <.:.8 7.5 } F o.:.@.E J w o.8.2.J I [ ",
"( J g } h m h } ) ` :. .<.q I m 8 l h m V E U J ( ( ( &.~ } r ( o.* F ( $.Y I } h ~ ( 2.p e c e # J 8.J @.^ ~ } F [ J ) ` 4.` &.~ f } p } -.",
"-.I F r <.@.F ~ R c J c ~ ~ c E B } l Z K ] ( F I [ U [ @.A ` 4 c D E | H I I Y } ) o.E D } ( h l @.` ^ 2.l E ( @.V I [ l [  .o.l :.@.~ ~ m ",
"` ~ [ h } ~ l ` -.c ( c w ^ E o.~ ^ %.J p u f ( [ ~ :.:.~ J V A t J ` ) <.f 1 ] 3 _ ) f ) } o.V :.w ( 5 F r o.I } V @.( &.l > E ~ h @.g r -.",
"}  .m [ 2.8.@.( o.( l } D g 4 &.n 1 J ..,.) @.E I -.8 I D ^ m p h 2.( 7./ Y & K K ( h m ) ~ V m :. .-.E J V m G ` u ~ ( E 5 ) } 8 } J A E u ",
"F J E A V E I ( J ` m &.@.` p &.<.%.&.) J 8.F E P [ } I J ~ m ` 2.o.I c V c E  . .:.( I o.` K F  .-.m [ m A m ( o.f o.m [ m I } J F m V ` f ",
"@.w [ c [  .&.m [ ` ] <.( &.w K ( [ 4.[ ` 9.E ` u ( ) V  .F u } ~ h =.4 h c |  .m u } Y | [ O.E [ ` ..h } h l *.c F o.8 4.h } ) p p -.J E } ",
"2.[ A ( 2. .p & J m 8.I I J V m c ) E <.. m p h o.c h -.U E :.c ~ ` ( 5.V E K l 9 ~ / f M p  .I ( F u o.:.( J ( 4 J D : 4.8 o.( 2.) ~ A m J ",
"} ` ~ -.<.I F -.( ( @.@.q } m > [ 1 l -.J I  .} @.V u -.} } c 1 ) ` K e } m ~ / } =.F Y ~ I K [ p ` @.} l J ~ J I 2.[ E A 4.m ( &.` r ( m E ",
"J J o.` <.F m c E A ` I m ) ~ I @.A o.W } [  .( *.( b p b J F l E ` I E P f ( } I A ~ E A m ( m c ~ [ [ ^ f W ( I E l 2.@.} [ } E ( I [ ) g ",
"E J A E ` E ` h p c F 2.I J ` F } A & ~ } 2.E I I &.J E E I I J [ 8  .( <.A V ` ` ` -.`  .( l ( J F r E :.` @.[ p I &.` &.` o.} @.4.&.E ~ ( "
};
