/* XPM */
static char *_5cabb177eff44a0bd05bcd0f1b5f8d8chrmdv6ko7HR6heL[] = {
/* columns rows colors chars-per-pixel */
"70 50 139 2 ",
"   c #282B2D",
".  c #2C2E31",
"X  c #2F3134",
"o  c #303336",
"O  c #333639",
"+  c #35393C",
"@  c #383C3F",
"#  c #3A3D41",
"$  c #3E4245",
"%  c #404447",
"&  c #424649",
"*  c #464A4E",
"=  c #474C50",
"-  c #4A4E52",
";  c #4E5256",
":  c #4F5458",
">  c #51565A",
",  c #54595D",
"<  c #5A5C5F",
"1  c #565B60",
"2  c #5A5F64",
"3  c #5B6165",
"4  c #5F646A",
"5  c #61666C",
"6  c #64696E",
"7  c #656B71",
"8  c #686E74",
"9  c #6B7176",
"0  c #6D7379",
"q  c #727477",
"w  c #70767C",
"e  c #73797F",
"r  c #787D7F",
"t  c #757C82",
"y  c #787F85",
"u  c #798087",
"i  c #7D848B",
"p  c #838586",
"a  c #80878E",
"s  c #81888F",
"d  c #848C93",
"f  c #888F96",
"g  c #879097",
"h  c #889097",
"j  c #8D959C",
"k  c #90979F",
"l  c #91999F",
"z  c #9A9C9D",
"x  c #949DA5",
"c  c #96A0A7",
"v  c #9BA2A6",
"b  c #9CA5AD",
"n  c #9FA8AF",
"m  c #9FA7B0",
"M  c #9FA8B1",
"N  c #A3AAAE",
"B  c #A2ABB4",
"V  c #A6AFB8",
"C  c #A7B0B8",
"Z  c #ABB4BD",
"A  c #B3B9BC",
"S  c #B9BBBD",
"D  c #ADB7C0",
"F  c #AEB8C1",
"G  c #B1BBC4",
"H  c #BABEC1",
"J  c #B5BFC8",
"K  c #B9C0C6",
"L  c #B7C1CA",
"P  c #B9C3CC",
"I  c #BCC6D0",
"U  c #BFC9D3",
"Y  c #C1C2C2",
"T  c #C1C7CD",
"R  c #C3C9CD",
"E  c #CACCCE",
"W  c #C2CDD6",
"Q  c #C9CED4",
"!  c #C4CED9",
"~  c #C5D0D7",
"^  c #CAD5D6",
"/  c #C6D1DB",
"(  c #CAD4DE",
")  c #CED8DD",
"_  c #D1D2D2",
"`  c #D1D6DB",
"'  c #D1DADD",
"]  c #CBD6E1",
"[  c #CED9E2",
"{  c #D1DDE6",
"}  c #D3DEE9",
"|  c #D7E2E7",
" . c #DCE1E4",
".. c #D6E2ED",
"X. c #D8E4EF",
"o. c #DAE6F1",
"O. c #DEEBF6",
"+. c #E3E6E8",
"@. c #E4EBEC",
"#. c #EAECED",
"$. c #E0EBF3",
"%. c #E0ECF4",
"&. c #E0ECF5",
"*. c #E1EDF9",
"=. c #E2EFFA",
"-. c #E2EFFB",
";. c #E5F1F6",
":. c #ECF2F3",
">. c #EBF3F4",
",. c #EBF4F4",
"<. c #E5F1F9",
"1. c #E4F0FC",
"2. c #E4F1FD",
"3. c #E5F1FD",
"4. c #E6F1FD",
"5. c #E7F2FD",
"6. c #E7F4FE",
"7. c #EEF7F8",
"8. c #EAF3FD",
"9. c #EBF4FD",
"0. c #E8F5FF",
"q. c #EAF7FE",
"w. c #EDF5FD",
"e. c #EBF8FF",
"r. c #EEFAFD",
"t. c #ECF9FF",
"y. c #F4F4F5",
"u. c #F5F5F6",
"i. c #F7F7F8",
"p. c #F0F7FE",
"a. c #F4F9FE",
"s. c #F1FDFD",
"d. c #F3FDFF",
"f. c #F4FDFE",
"g. c #F5FEFE",
"h. c #F9FCFF",
"j. c #FCFDFF",
"k. c #FEFEFF",
"l. c #FEFFFF",
/* pixels */
"9 9 9 9 i P / ! G B B B B V o.o.o.o.o.o...B B B B B V ( X.X.X.X.{ Z b B B B n M M L L L L F F L F j 0 0 0 0 9 0 0 0 0 7 $ + + + + q S d p u ",
"9 8 9 8 i P / / ! J B B B B o.o.o.o.o.o.Z B B B B B B B ! X.X.^ Z b B B b n n B P { P F F L L F L C 0 0 0 0 0 0 0 0 0 > # + + + > _ j.' N u ",
"9 8 9 9 i L / / / ! J B v y X.o.o.o...i 8 t B B B B B B V o.{ G B B b b B M M W X.X.X.I L L F L L i $ = = = 1 9 0 0 8 ; + + @ $ i.j.j.j.l.8.",
"9 9 9 9 i P ! / ! G 4 o X . + x / I i 8 8 8 e g b B V B ) h.g.w.) Z N B n Z / X.X.X.X.X.{ { ] ] 4 = = = * * * * b I { F d u 3 K j.j.j.j.7.3.",
"9 9 9 9 i L / / N % X X . X X o 1 e 8 8 8 8 8 8 w x B ' d.g.f.f.g.>.' B Z } X.X.X.X.X.o.6.6.6.6.Z * * * * * * * 1.2.2.2.3.3.} j.j.j.j.d.1.6.",
"0 x ^ d.d.O.o.X.x o X X o . X . @ 3 8 7 6 6 6 3 , , , >.h.d.h.f.f.h.g.d.X.X.X.X.X.X.X.o.e.6.e.6.6.- * * * * = 8 1.2.2.1.3.3.3.9.h.j.a.3.2.1.",
"x d.d.d.d.;.o.o.{ y X . X . . X o * 3 1 , , , > > , , #.g.g.h.h.h.f.d.g.X.X.X.X.X.X.X.O.6.6.6.e.e.n * * * * * ] 1.1.1.1.1.8.3.3.q.h.6.1.6.2.",
"N d.d.d.d.r.o.o.o.X.a o . X X . X & , , , , , , , 3 ^ w.d.h.f.f.h.f.g.g.O.X.X.X.X.X...M D ..e.e.6.o.$ $ X X X / 2.2.1.1.1.1.3.3.1.1.1.6.6.2.",
"N d.d.d.d.g.o.o.o.o./ 7 o . . O # 8 9 1 1 1 0 k U q.e.e.d.d.d.e.f.g.h.>.A L } X.X.] B M B M B B P * . .   X   5 u M L P / *.1.1.1.O.o.1.2.2.",
"N d.d.d.d.g.O.o.o.o.$.! > O O + ; j M x g ( o.r.q.e.e.e.O.4 8 4 t A H q 1 4 0 k / C B M B M B M N X . . X   X 4 e t e t i g k d : = - k g t ",
"~ d.d.d.d.d.&.o.o.o.! 5 + O + + ; h B B B G *.w.e.e.r.e.> # # # # # , , 1 1 1 i [ [ D M M B M M x . . .   X   9 e e e e t 0 -         + : 1 ",
"P | d.d.d.d.;.&.<.` 7 + + + + + * i B B B B I *.e.e.e.j # # # # # # > 3 1 1 1 Z o.o.X.U B B B M 6 . X   X   X 9 e e e e 3 #           O : 1 ",
"P U $.d.g.h.j.j.j.j.z O + + + O # y B B B B B P q.e.O.* # # # # # # , 3 , , 1 D o.o.o.o.] C M M $   X     X   9 e e e ;               + : 1 ",
"P P { r.h.j.j.j.j.j.u.p # O + + $ y B B M x x x Z ) c r t t t t , & , 1 , 3 u U o.o.o.o.X.] u $ $ $ $ # + o + 6 e 0 *                 . $ , ",
"P L | q.r.j.j.j.j.j.j.#.< + + + # 9 f h d d i d j C P ^ / / / / P Z 4 , , , c o.o.o.o.} C 0 - $ # % $ $ $ $ @ + @ +               X + X   O ",
"L U @.q.r.g.j.j.j.j.j.j.#.& + O : s s s s s d d M Z Z W / / / / ( / g , 3 , j U P t 4 4 4 3 = $ % # % # $ $ X X   X           X 6 / N $ . X ",
"L U 3.r.r.e.r.j.j.j.j.j.j.S + % 0 s a s s s d b D V D D J / / / / / / 3 1 1 4 4 5 4 4 4 4 4 = $ $ % $ $ $ +   X             i M ..X...8 . . ",
"L ~ e.r.e.r.r.h.j.j.j.j.j.j.Y * s s a d g F } Z D D D V D / / ! ] / / G 2 4 4 4 4 4 4 4 4 4 = $ $ # $ # $ o X     X o   o A ..........0 X . ",
"L U r.r.,.{ C N Y j.j.h.i.E S i G / *.1.1.1.O.G B D D D D D U ! Z M m 9 4 6 4 4 4 4 4 4 4 3 & # @ @ @ @ o   X   X   X   X F X.....X.X.( : . ",
"L C 6 > ; % X   O 6 t t q 3 < u <.3.3.1.1.3.} d g m V F D Z c t 8 4 6 4 8 i 0 4 4 4 4 , & $ # O X X o o X X   X   o     . F ............0 , ",
"T . .         . o 1 1 1 1 , 1 8 ] 2.2.2.1.1.I d g i M F F k 5 5 4 6 4 6 i i d i 8 ; @ @ # # # + X o X X X X X   X X o @ & 3 U [ ] U F F F e.",
"i.5           . * > 1 > , , , 1 g O.2.2.1.O.g d g g g x g 5 5 5 6 4 5 6 d i d d u $ # @ # # # @ o X o X X o o # $ & * * * 6 g F F F F F F e.",
"E 5 .   .     . 1 1 1 , , 1 1 , 4 F 2.2.1...d d g i g i 4 5 5 5 5 5 5 t d d s d s $ # # # # # # o X X X X X o & * * * = 8 d g Z F F F Z F e.",
"e e 7 $ . . O O # ; , 1 , , , , 3 c / o.1.j d d i i t > : 3 5 5 5 5 5 i d i d s d $ $ @ # # # # + X X X o X O * * * - 4 i g g g Z b i t ; 1 ",
"e 0 t 2 # o O o O $ ; , , , , 2 u x c m V j i d 8 - $ # # $ , 5 5 5 8 i i g i g g $ $ # $ # # # o X X o X X O $ * * 3 i g d g s 3 : $ $ $ $ ",
"e e t > O O O O O O 1 9 5 5 5 t c c c x c x x 9 # # # # # # # : 3 4 i i g i g i i 8 6 8 8 8 0 8 # o X X X o X $ * 4 d g g g g u $ $ $ $ $ $ ",
"t 0 0 > O O O O + 2 d j x j x x x c c x x x x t # # # # # # # # $ - 1 , , 3 t i u 0 0 9 9 0 9 9 , X o X o X X o 0 d g g g g e 6 7 , * $ = $ ",
"t t t : O X O O > k j x j x j c v c x c x x x t # # # # # # # # $ $ $ O o X 2 ] 3.t 9 9 0 9 0 9 8 # X X o X o X g g d g u 8 6 6 6 7 6 ; $ $ ",
"3.6.3.j O O O 4 k k k k k k x x x c m x x x x y # # # # # # # $ $ $ $ O O ; G e.e.b 8 9 9 9 9 t t x t 5 # o X 5 P L L P Z e 6 6 8 6 7 7 C U ",
"6.6.6.( x 0 u x j k j x k k x x c x x x x x x t # # # # # # # $ $ $ @ O $ j 6.q.e.3.0 0 t 9 9 M U o.X.[ P J M J P P P L P V 8 6 6 6 7 m ..O.",
"6.q.3.U m M B M x x x j j k x b c x x x b x x u : $ $ $ $ # # # $ $ @ O t e.e.e.e.6.[ 9 9 y L X.X.X.X.X.X.X./ P L P P P L P u 3 3 3 u U O.*.",
"q.6.[ V M M M M m m b b b b F W ] ! ] ! / / F 3 2 2 4 2 1 : 1 > ; $ + : O.e.6.e.e.r.*.j k m D I ..X.X.X.X.o.[ P P L L P P P 3 + + @ u X.O.O.",
"6.O.F M M M M B B V B V B B +.3.1.1.2.2.1.1./ 2 2 3 2 2 2 3 5 5 4 4 6 L e.e.e.e.e.q.3.b b b b b N ....o.o.....P L P P P L J $ # @ + u } O.*.",
"F Z M M B B M M B V V C Z ) j.r.q.-.q.2.1.1.! 2 2 2 2 3 2 4 5 4 4 6 4 8 P q.e.6.w.7.f.} R A N b x k x h i u u G L P P P P m # O + + & F &.O.",
"3 3 i m M M B M B B C B { j.j.a.-.1.2.2.2.2.] 4 2 3 2 2 2 3 7 4 6 4 6 4 8 B e.6.s.h.j.j.j.u.@.z u t y y y y i B D L P P L 3 # # + + * F &.1.",
"3 3 4 f M B m B C B B Q i.j.j.j.8.1.2.2.2.2.U 9 4 2 2 3 2 5 u u i M Z ] ( M 8 u +.j.j.j.j.j.j.S i y y t y i b B B V D J L : # $ - 4 j B U 1.",
"3 3 3 6 x m B B V V T u.j.j.j.j.f.-.-.] I P D U F Z C M d C ..........} M 3 > , d i.j.j.j.j.j.j.S u u t d b B B V M M V M i y c n M B M N ;.",
"3 3 3 3 7 G *.-.<.3.g.j.j.j.j.j.+.V m N M M Z } O.O.O.O.O.o.o.........M , , , , , #.j.j.j.j.j.j.j.i y f B B B B M M V V C M M M M n n M n ,.",
"3 3 3 3 x ..3.3.3.3.*.f.j.j.j.i.W M m m M M B ! O.O.*.O.O...J G L L x > , : , > > r j.j.j.j.j.j.j.u.j B B B B B V M B F J F D M M B n N B q.",
"n M c k ] 1.1.8.3.9.*.-.,.j.j.g.( M M M M M B ! 1.O.*.O.O.] s d i i i , , , , , , , i.j.j.j.j.j.j.i.B B B B B B M V P *.! D D D n B M n N q.",
"A F F F ..6.6.1.3.3.3.3.h.j.h.j.:.S B b B M B L *.O.O.O.o.G f i i i g < > , , > , , 0 j j j j j j x G B B B B B J X.r.e./ F G A Z B B n K q.",
"F F F F P O.1.6.6.3.6.r.h.h.j.j.j.#.G J W ( ] } J d d s i 7 i s g i i 0 , > , , > 9 j j j j j j j A w. .P B C ) 6.e.e.r.W G F F Z Z j w i h ",
"G F F b i j O.6.3.3.e.g.j.j.j.h.j.j.w.*.1.6.*.*.j * * * * * 3 d i i e : ; : : > 8 t j j j j j j j ,.h.g.d.7.e.e.e.e.r.e.! G F G F b 4 : : ; ",
"F M l i i i O.6.6.3.3.e.#.#.#.u.h.g.w.8.1.1.1.1.x * * * * * > u i 3 : : > : > > e t u g j g j j j g.d.h.h.g.d.e.e.r.e.e.~ F G F K j : ; : : ",
"j d i i i i O.6.1.6.1./ b l l x c Z X.1.1.1.1.1.x * * * * - 0 b c 4 : > : > : 7 t t y i j j g j N h.g.h.g.h.g.r.e.e.e.r.~ G F F c : = : : : ",
"i i i i i i [ 6.6.1.6.F g d d d d d / 1.1.1.1.X.Z y 2 1 - 8 b b b x 1 : : : , 0 y y t y s j j j ,.g.g.h.h.g.h.d.r.r.e.r./ F M t $ & $ & - > ",
"i i i i i i x -.1.6.6.C s d d d d j F U U ( ..F V V V B j b B b b n d : > > 5 u t t t t y d j j ,.g.d.@.' R S A d d s s t 0 ; $ $ $ $ $ $ : ",
"i i i i i i i 6.6.1.6.B d d i d g b B C C C C B V B V V B b b b M n n g : 1 0 t t t t t t t d d d s i i i s i t $ $ % % % % $ $ $ $ $ $ $ : ",
"i i i i i i i 6.6.O.] b g g g g c C B B C V V V B V V V Q R A B n n b b w 7 t t t t t r u u a a a a a a a a a - % % % % % % % % $ $ $ & $ ; ",
"i i d i i i i o.] M x k k k x k b B C V B V V V V M t 7 h.h.u.#.T M n n c e t t t e u l B C V h a a a a a a i * % % % % % % % $ $ $ $ $ $ * "
};
