/* XPM */
static char *_57fafe110ae4b27896ce634f0f8483eeJuRJxE0OUECFiKQ[] = {
/* columns rows colors chars-per-pixel */
"70 70 161 2 ",
"   c None",
".  c black",
"X  c #010101",
"o  c #020202",
"O  c gray1",
"+  c gray2",
"@  c #060606",
"#  c #070707",
"$  c gray3",
"%  c #090909",
"&  c gray4",
"*  c #0B0B0B",
"=  c #0C0C0C",
"-  c gray6",
";  c #101010",
":  c #111111",
">  c gray7",
",  c #131313",
"<  c gray9",
"1  c #181818",
"2  c gray10",
"3  c #1B1B1B",
"4  c #1E1E1E",
"5  c #202020",
"6  c #252525",
"7  c #373737",
"8  c gray22",
"9  c #3A3A3A",
"0  c #3C3C3C",
"q  c gray24",
"w  c #3F3F3F",
"e  c gray25",
"r  c gray26",
"t  c #464646",
"y  c gray28",
"u  c #494949",
"i  c gray29",
"p  c #4B4B4B",
"a  c #4C4C4C",
"s  c gray30",
"d  c #4E4E4E",
"f  c gray31",
"g  c #505050",
"h  c #515151",
"j  c #535353",
"k  c gray33",
"l  c #555555",
"z  c #565656",
"x  c gray34",
"c  c #5A5A5A",
"v  c gray37",
"b  c #5F5F5F",
"n  c #606060",
"m  c #626262",
"M  c gray39",
"N  c #646464",
"B  c #656565",
"V  c gray40",
"C  c #676767",
"Z  c #686868",
"A  c DimGray",
"S  c #6A6A6A",
"D  c gray42",
"F  c #6C6C6C",
"G  c #6D6D6D",
"H  c gray43",
"J  c #6F6F6F",
"K  c #717171",
"L  c #727272",
"P  c gray45",
"I  c #747474",
"U  c gray46",
"Y  c #767676",
"T  c #777777",
"R  c gray47",
"E  c gray48",
"W  c #7B7B7B",
"Q  c #7C7C7C",
"!  c gray49",
"~  c #7E7E7E",
"^  c gray50",
"/  c #808080",
"(  c #818181",
")  c gray51",
"_  c #838383",
"`  c #848484",
"'  c gray52",
"]  c #868686",
"[  c gray53",
"{  c #888888",
"}  c #898989",
"|  c gray54",
" . c #8B8B8B",
".. c gray55",
"X. c gray56",
"o. c #909090",
"O. c gray57",
"+. c #929292",
"@. c #939393",
"#. c gray58",
"$. c #959595",
"%. c gray59",
"&. c #979797",
"*. c gray60",
"=. c #9A9A9A",
"-. c #9B9B9B",
";. c gray61",
":. c #9D9D9D",
">. c gray62",
",. c #9F9F9F",
"<. c #A0A0A0",
"1. c #A5A5A5",
"2. c #A7A7A7",
"3. c gray66",
"4. c #A9A9A9",
"5. c #AAAAAA",
"6. c gray67",
"7. c #ACACAC",
"8. c gray68",
"9. c #AEAEAE",
"0. c #AFAFAF",
"q. c gray69",
"w. c #B1B1B1",
"e. c #B2B2B2",
"r. c #B4B4B4",
"t. c gray71",
"y. c #B7B7B7",
"u. c gray72",
"i. c #B9B9B9",
"p. c gray74",
"a. c #C1C1C1",
"s. c gray76",
"d. c gray77",
"f. c gray78",
"g. c #C8C8C8",
"h. c #D7D7D7",
"j. c #DFDFDF",
"k. c gray88",
"l. c #E4E4E4",
"z. c #E6E6E6",
"x. c #E7E7E7",
"c. c #EAEAEA",
"v. c gray92",
"b. c #ECECEC",
"n. c gray93",
"m. c #EEEEEE",
"M. c #EFEFEF",
"N. c #F1F1F1",
"B. c #F3F3F3",
"V. c #F4F4F4",
"C. c gray96",
"Z. c #F6F6F6",
"A. c gray97",
"S. c #F8F8F8",
"D. c #F9F9F9",
"F. c gray98",
"G. c #FBFBFB",
"H. c gray99",
"J. c #FDFDFD",
"K. c #FEFEFE",
"L. c white",
/* pixels */
"    L.L.L.L.D @ X X X X X X $ b s.L.L.L.L.L.L.L.L.Q ; X X X X X X X a w.L.L.L.L.L.L.L.c.W X X X X X X X X a w.Z.L.L.L.L.L.L.Z.+.X X X X X X ",
"  L.L.L.L.L.D @ X X X X X X $ b s.L.L.L.L.L.L.L.L.) ; X X X X X X X a w.L.L.L.L.L.L.L.c.W X X X X X X X X u w.G.L.L.L.L.L.L.G.+.X X X X X X ",
"  L.L.L.L.L.D @ X X X X X X $ b s.L.L.L.L.L.L.L.L.) ; X X X X X X X a w.L.L.L.L.L.L.L.b.W X X X X X X X X a w.Z.L.L.L.L.L.L.Z.+.X X X X X X ",
"  L.L.L.L.L.D @ X X X X X X $ b s.L.L.L.L.L.L.L.L.) ; X X X X X X X a w.L.L.L.L.L.L.G.b.W X X X X X X X X a w.G.L.L.L.L.L.L.G.#.X X X X X X ",
"  L.L.L.L.L.D @ X X X X X X $ b s.L.L.L.L.L.L.L.L.) ; X X X X X X X a w.L.L.L.L.L.L.L.b.W X X X X X X X X u w.Z.L.L.L.L.L.L.Z.#.X X X X X X ",
"  L.L.L.L.L.D @ X X X X X X @ b s.L.L.L.L.L.L.L.L.Q = X X X X X X X a w.L.L.L.L.L.L.G.b.W X X X X X X X X a w.G.L.L.L.L.L.L.G.#.X X X X X X ",
"  i.i.i.i.i.Y u y y y y y y u L *.i.i.i.i.i.i.i.i.) a y y y y u y y D #.i.i.i.i.i.i.i.7.Q y u y y y y u y D +.r.i.i.i.i.i.i.w.| y y y y y y ",
"  l l j l j ] 3.3.3.7.3.3.3.2.| D j l j l j l j l Q 2.3.3.3.3.3.3.3.+.F j l j l l l l c ) 3.3.3.3.3.3.3.3.+.F c l j l l l l l Y 7.3.3.3.3.3.",
"  X X X X X +.G.L.L.L.L.L.L.Z.<.0 X X X X X X X X Q b.L.L.L.L.L.L.L.w.a X X X X X X X ; ) L.L.L.L.L.L.L.L.w.a $ X X X X X X @ D L.L.L.L.L.L.",
"  X X X X X +.Z.L.L.L.L.L.L.Z.<.0 X X X X X X X X Q N.L.L.L.L.L.L.L.w.a X X X X X X @ ; ) L.L.L.L.L.L.L.L.w.a @ X X X X X X @ D L.L.L.L.L.L.",
"  X X X X X +.G.L.L.L.L.L.L.Z.<.0 X X X X X X X X Q b.L.L.L.L.L.L.L.w.a X X X X X X X ; ) L.L.L.L.L.L.L.L.w.a $ X X X X X X @ D L.L.L.L.L.L.",
"  X X X X X +.G.L.L.L.L.L.L.Z.<.0 X X X X X X X X Q b.L.L.L.L.L.L.L.w.a X X X X X X @ ; ) L.L.L.L.L.L.L.L.w.a @ X X X X X X @ D L.L.L.L.L.L.",
"  X X X X X +.Z.L.L.L.L.L.L.Z.<.0 X X X X X X X X Q b.L.L.L.L.L.L.L.w.a X X X X X X X ; ] L.L.L.L.L.L.L.L.w.a $ X X X X X X @ D L.L.L.L.L.L.",
"  X X X X X #.G.L.L.L.L.L.L.Z.<.0 X X X X X X X X Q b.L.L.L.L.L.L.L.w.a X X X X X X @ ; ) L.L.L.L.L.L.L.L.w.a @ X X X X X X @ D L.L.L.L.L.L.",
"  X X X X X #.Z.G.L.L.L.L.L.Z.,.0 X X X X X X X X Q N.L.L.L.L.L.L.L.w.a X X X X X X X , ] L.L.L.L.L.L.L.L.w.a $ X X X X X X @ D L.L.G.L.L.L.",
"  $ $ @ $ $ +.b.Z.Z.Z.Z.Z.Z.b.,.e $ $ $ $ @ $ $ $ Q c.N.Z.Z.Z.Z.Z.Z.7.j @ $ $ $ @ $ $ 3 ) Z.Z.Z.Z.Z.Z.Z.G.7.j = $ @ $ $ $ $ = F Z.Z.Z.Z.Z.Z.",
"  Q Q Q Q Q Q ] ) ) ) ) ) ] ) ) Q Q Q Q Q Q Q Q W Q ) ] ) ) ) ) ) ] ) Q Q Q W W Q W Q Q Q ) ) ) ) ) ) ) ) ) Q Q Q Q Q Q Q Q Q Q ) ) ) ) ) ] ",
"  L.L.L.L.L.D @ X X X X X X @ b s.L.L.L.L.L.L.L.L.) ; X X X X X X X a w.L.L.L.L.L.L.L.c.Q X X X X X X X X a w.G.L.L.L.L.L.L.G.#.X X X X X X ",
"  L.L.L.L.L.D @ X X X X X X $ b s.L.L.L.L.L.L.L.L.) = X X X X X X X a w.L.L.L.L.L.L.L.c.Q X X X X X X X X u w.G.L.L.L.L.L.L.G.+.X X X X X X ",
"  L.L.L.L.L.D @ X X X X X X $ b s.L.L.L.L.L.L.L.L.) ; X X X X X X X a w.L.L.L.L.L.L.L.c.W X X X X X X X X a w.Z.L.L.L.L.L.L.G.+.X X X X X X ",
"  L.L.L.L.L.D @ X X X X X X @ b s.L.L.L.L.L.L.L.L.Q ; X X X X X X X a w.L.L.L.L.L.L.L.c.W X X X X X X X X u w.G.L.L.L.L.L.L.Z.#.X X X X X X ",
"  L.L.L.L.L.D @ X X X X X X $ b s.L.L.L.L.L.L.L.L.) ; X X X X X X X a w.L.L.L.L.L.L.L.b.W X X X X X X X X a w.Z.L.L.L.L.L.L.G.#.X X X X X X ",
"  L.L.L.L.L.D @ X X X X X X $ b s.L.L.L.L.L.L.L.L.) = X X X X X X X a w.L.L.L.L.L.L.L.c.W X X X X X X X X a w.G.L.L.L.L.L.L.Z.+.X X X X X X ",
"  L.L.L.L.L.D @ X X X X X X $ b s.L.L.L.L.L.L.L.L.) ; X X X X X X X a w.L.L.L.L.L.L.L.c.W X X X X X X X X u w.G.L.L.L.L.L.L.G.#.X X X X X X ",
"  L.L.L.L.L.D @ X X X X X X $ b s.L.L.L.L.L.L.L.L.Q ; X X X X X X X a w.L.L.L.L.L.L.L.b.Q X X X X X X X X u w.Z.L.L.L.L.L.L.G.+.X X X X X X ",
"  f.g.g.g.f.L 9 7 7 7 7 7 7 0 F 2.f.g.f.g.f.g.g.g.) 0 9 7 9 7 7 7 7 n ,.g.g.g.g.g.f.f.i.Q 7 7 7 7 7 7 9 7 n ,.f.f.f.g.g.g.g.f.| 7 9 7 7 7 7 ",
"  D C C D C ] #.#.#.#.*.#.*.#.] L D C C D C C C D Q #.*.#.*.#.#.#.#.| Y C D C C D C D F ) #.*.#.#.*.*.#.#.| Y C C D C D C D C W #.*.#.#.#.#.",
"  = $ $ $ $ +.b.Z.Z.Z.Z.Z.Z.b.,.e = $ $ = $ $ $ $ Q z.Z.Z.Z.Z.Z.Z.Z.7.j $ = $ $ = $ $ 3 ) Z.Z.Z.Z.Z.Z.Z.Z.7.j ; $ $ $ $ $ = = F Z.Z.Z.Z.Z.Z.",
"  X X X X X +.G.L.L.L.L.L.L.Z.<.0 X X X X X X X X Q N.L.L.L.L.L.L.L.w.a X X X X X X X ; ) L.L.L.L.L.L.L.L.w.a @ X X X X X X @ D L.L.L.L.L.L.",
"  X X X X X +.G.L.L.L.L.L.L.Z.<.0 X X X X X X X X Q b.L.L.L.L.L.L.L.w.a X X X X X X X ; ) L.L.L.L.L.L.L.L.w.a $ X X X X X X @ D L.L.L.L.L.L.",
"  X X X X X +.Z.L.L.L.L.L.L.Z.<.0 X X X X X X X X Q b.L.L.L.L.L.L.L.w.a X X X X X X X , ) L.L.L.L.L.L.L.L.w.a @ X X X X X X @ D L.L.L.L.L.L.",
"  X X X X X #.G.L.L.L.L.L.L.Z.<.0 X X X X X X X X Q N.L.L.L.L.L.L.L.w.a X X X X X X @ ; ) L.L.L.L.L.L.L.L.w.a @ X X X X X X @ D L.L.L.L.L.L.",
"  X X X X X +.G.L.L.L.L.L.L.Z.<.0 X X X X X X X X Q b.L.L.L.L.L.L.L.w.a X X X X X X X ; ] L.L.L.L.L.L.L.L.w.a @ X X X X X X @ D L.L.L.L.L.L.",
"  X X X X X +.Z.L.L.L.L.L.L.Z.<.0 X X X X X X X X Q b.L.L.L.L.L.L.L.w.a X X X X X X X ; ) L.L.L.L.L.L.L.L.w.a $ X X X X X X @ D L.L.L.L.L.L.",
"  X X X X X #.G.L.L.L.L.L.L.Z.,.0 X X X X X X X X Q N.L.L.L.L.L.L.L.w.a X X X X X X X ; ] L.L.L.L.L.L.L.L.w.u @ X X X X X X @ D L.L.L.L.L.L.",
"  n n C C n ) *.,.*.*.*.,.*.*.] F C n C C n C n C ) #.*.,.*.*.*.*.,.| L n C C n C n C D Q ,.*.*.*.*.,.*.*.| Y C n C n C C n C W *.,.*.*.*.,.",
"  L.L.L.L.L.D @ X X X X X X $ b s.L.L.L.L.L.L.L.L.) ; X X X X X X X a w.L.L.L.L.L.L.G.c.W X X X X X X X X u w.G.L.L.L.L.L.L.Z.+.X X X X X X ",
"  L.L.L.L.L.D @ X X X X X X $ b s.L.L.L.L.L.L.L.L.Q = X X X X X X X a w.L.L.L.L.L.L.L.c.W X X X X X X X X a w.Z.L.L.L.L.L.L.G.#.X X X X X X ",
"  L.L.L.L.L.D @ X X X X X X @ b s.L.L.L.L.L.L.L.L.) ; X X X X X X X a w.L.L.L.L.L.L.L.b.W X X X X X X X X a w.G.L.L.L.L.L.L.Z.#.X X X X X X ",
"  L.L.L.L.L.D @ X X X X X X $ b s.L.L.L.L.L.L.L.L.) ; X X X X X X X a w.L.L.L.L.L.L.L.c.W X X X X X X X X u w.G.L.L.L.L.L.L.G.#.X X X X X X ",
"  L.L.L.L.L.D @ X X X X X X $ b s.L.L.L.L.L.L.L.L.Q ; X X X X X X X a w.L.L.L.L.L.L.G.c.W X X X X X X X X a w.G.L.L.L.L.L.L.Z.+.X X X X X X ",
"  L.L.L.L.L.D @ X X X X X X $ b s.L.L.L.L.L.L.L.L.) ; X X X X X X X a w.L.L.L.L.L.L.L.b.W X X X X X X X X a w.Z.L.L.L.L.L.L.G.#.X X X X X X ",
"  L.L.L.L.L.D @ X X X X X X $ b s.L.L.L.L.L.L.L.L.) = X X X X X X X a w.L.L.L.L.L.L.G.b.W X X X X X X X X u r.G.L.L.L.L.L.L.Z.#.X X X X X X ",
"  L.L.L.L.L.D @ X X X X X X $ n s.L.L.L.L.L.G.L.L.) ; @ X X X X X X a w.L.L.L.L.L.L.L.c.W X X X X X X X X a w.Z.L.G.L.L.L.L.Z.+.X X X X X X ",
"  r.i.i.r.i.Y u y y y y y y u F ,.i.i.i.r.i.r.i.i.) a u y y y y y y C #.i.i.i.i.r.i.i.w.Q y y y y y y y y D #.r.r.i.i.i.r.i.r.| y y y y y y ",
"  a a a a a | 7.w.7.w.w.w.w.w.X.n a u a a a a a a ) 3.w.w.w.7.w.w.w.+.D a a a u a u a l ) w.w.w.7.w.w.w.w.+.D a a a a a a a a W w.7.w.w.w.w.",
"  @ @ X @ @ +.N.G.G.Z.G.G.G.N.,.e @ @ X @ @ @ @ @ Q c.Z.G.G.G.G.G.G.7.j @ @ X @ @ @ @ , ) G.G.G.G.G.G.G.G.w.a = @ @ @ X @ @ $ F G.G.Z.G.G.G.",
"  X X X X X +.G.L.L.L.L.L.L.Z.<.0 X X X X X X X X Q b.L.L.L.L.L.L.L.w.a X X X X X X X ; ) L.L.L.L.L.L.L.L.w.a @ X X X X X X @ F L.L.L.L.L.L.",
"  X X X X X +.Z.L.L.L.L.L.L.Z.<.0 X X X X X X X X Q b.L.L.L.L.L.L.L.w.a X X X X X X @ , ) L.L.L.L.L.L.L.L.w.a @ X X X X X X @ D L.L.L.L.L.L.",
"  X X X X X #.G.L.L.L.L.L.L.Z.<.0 X X X X X X X X Q b.L.L.L.L.L.L.L.w.a X X X X X X X ; ) L.L.L.L.L.L.L.L.w.a $ X X X X X X @ D L.L.L.L.L.L.",
"  X X X X X +.G.L.L.L.L.L.L.Z.<.0 X X X X X X X X Q N.L.L.L.L.L.L.L.w.a X X X X X X X ; ) L.L.L.L.L.L.L.L.w.a $ X X X X X X @ D L.L.L.L.L.L.",
"  X X X X X +.Z.L.L.L.L.L.L.Z.<.0 X X X X X X X X Q b.L.L.L.L.L.L.L.w.a X X X X X X @ ; ) L.L.L.L.L.L.L.L.w.a @ X X X X X X @ D L.L.L.L.L.L.",
"  X X X X X #.G.L.L.L.L.L.L.Z.<.0 X X X X X X X X Q N.L.L.L.L.L.L.L.w.a X X X X X X X ; ] L.L.L.L.L.L.L.L.w.a $ X X X X X X @ D L.L.L.L.L.L.",
"  X X X X X #.G.L.L.L.L.L.L.Z.<.0 X X X X X X X X Q b.L.L.L.L.L.L.L.w.a X X X X X X @ ; ) L.L.L.L.L.L.L.L.w.a @ X X X X X X @ D L.L.L.L.L.L.",
"  j j a j a | 7.7.7.7.w.w.7.3.X.C j j j j a j a j Q 3.w.7.7.w.7.7.w.+.F a j j j j a j l ) w.7.7.3.7.w.7.7.+.D j j a a j j j j Y 7.w.w.7.7.7.",
"  z.z.z.z.z.F 3 1 1 1 1 1 1 5 n w.z.z.z.z.z.z.z.z.) 6 1 1 1 1 1 1 , c 3.z.z.z.z.z.z.z.h.Q 1 1 1 1 1 1 1 1 c 2.j.z.z.z.z.z.z.k.X.1 1 1 1 1 1 ",
"  L.G.L.G.L.D $ @ X X X X X $ n s.G.L.G.L.G.L.G.L.) ; X X X X X X @ a w.L.L.L.G.L.G.G.c.W X X X X X X X X a w.Z.L.L.G.L.G.L.Z.+.X X X X X X ",
"  L.L.L.L.L.D @ X X X X X X $ b s.L.L.L.L.L.L.L.L.) ; X X X X X X X a w.L.L.L.L.L.L.L.c.W X X X X X X X X a w.Z.L.L.L.L.L.L.G.+.X X X X X X ",
"  L.L.L.L.L.D @ X X X X X X $ n s.L.L.L.L.L.L.L.L.) ; X X X X X X X a w.L.L.L.L.L.L.L.b.W X X X X X X X X a w.G.L.L.L.L.L.L.Z.#.X X X X X X ",
"  L.L.L.L.L.D @ X X X X X X $ b s.L.L.L.L.L.L.L.L.) = X X X X X X X a w.L.L.L.L.L.L.G.b.W X X X X X X X X a w.G.L.L.L.L.L.L.G.#.X X X X X X ",
"  L.L.L.L.L.D @ X X X X X X $ b s.L.L.L.L.L.L.L.L.) = X X X X X X X a w.L.L.L.L.L.L.L.b.W X X X X X X X X a w.Z.L.L.L.L.L.L.Z.+.X X X X X X ",
"  L.L.L.L.L.D @ X X X X X X @ b s.L.L.L.L.L.L.L.L.Q ; X X X X X X X a w.L.L.L.L.L.L.G.b.W X X X X X X X X a w.G.L.L.L.L.L.L.G.#.X X X X X X ",
"  L.L.L.L.L.D @ X X X X X X $ b s.L.L.L.L.L.L.L.L.) ; X X X X X X X a w.L.L.L.L.L.L.L.b.W X X X X X X X X u w.Z.L.L.L.L.L.L.Z.#.X X X X X X ",
"  f.g.g.g.g.L 9 7 7 7 7 7 9 0 F 2.g.g.g.g.g.g.g.g.) 0 9 7 7 7 7 7 7 n ,.g.g.g.f.f.f.f.p.W 7 7 7 7 7 7 7 7 n ,.f.g.g.g.g.f.f.f.| 7 7 7 7 7 7 ",
"  b b b b n ] ,.,.,.,.,.,.<.,.] F n b b b b b n b Q *.<.<.,.,.<.,.<.X.L b b b b b n n n Q <.<.<.<.<.<.<.<.X.L b b b b n b b n W ,.<.<.<.<.,.",
"  $ $ $ $ $ +.b.Z.Z.Z.Z.Z.Z.b.,.e $ $ $ $ $ $ $ = Q z.Z.Z.Z.Z.Z.Z.Z.3.j $ $ $ $ $ $ = 3 ) Z.Z.Z.Z.Z.N.Z.Z.7.j ; $ $ $ $ $ $ ; F Z.Z.Z.N.Z.Z.",
"  X X X X X #.G.L.L.L.L.L.L.Z.,.0 X X X X X X X X Q N.L.L.L.L.L.L.L.w.a X X X X X X X , ] L.L.L.L.L.L.L.L.w.u @ X X X X X X @ D L.L.L.L.L.L.",
"  X X X X X #.Z.L.L.L.L.L.L.Z.,.0 X X X X X X X X Q b.L.L.L.L.L.L.L.w.a X X X X X X @ ; ) L.L.L.L.L.L.L.L.w.a $ X X X X X X @ D L.L.L.L.L.L.",
"  X X X X X +.Z.L.L.L.L.L.L.Z.<.0 X X X X X X X X Q b.G.L.L.L.L.L.L.w.a X X X X X X X ; ] L.L.L.L.L.L.L.L.w.a $ X X X X X X @ D L.L.L.L.L.L.",
"  X X X X X #.Z.L.L.L.L.L.L.Z.<.0 X X X X X X X X Q N.L.L.L.L.L.L.L.w.a X X X X X X X ; ) L.L.L.L.L.L.L.L.w.a $ X X X X X X @ D L.L.L.L.L.L."
};
