/* XPM */
static char *_91e1db2cc1e4184f685797dce8ed49bjMP2xO6lRupredTS[] = {
/* columns rows colors chars-per-pixel */
"70 66 183 2 ",
"   c #057BBF",
".  c #0B7ABF",
"X  c #037DC2",
"o  c #0A7AC0",
"O  c #117BC2",
"+  c #0283BF",
"@  c #1785BA",
"#  c #0181C5",
"$  c #0A82C4",
"%  c #0489C6",
"&  c #0D8BC7",
"*  c #0185CB",
"=  c #0A87CA",
"-  c #0189CE",
";  c #0B8BCC",
":  c #1284C5",
">  c #1B8DC5",
",  c #128BCC",
"<  c #1B8DCA",
"1  c #0292CD",
"2  c #1491CC",
"3  c #1D94CC",
"4  c #159ACE",
"5  c #018DD2",
"6  c #098ED1",
"7  c #138ED0",
"8  c #0192D5",
"9  c #0A93D4",
"0  c #039CD5",
"q  c #0C99D4",
"w  c #0095D9",
"e  c #0C95D8",
"r  c #0199DC",
"t  c #0B9BDB",
"y  c #1091D6",
"u  c #1896D3",
"i  c #1399D5",
"p  c #1C9CD5",
"a  c #1296D9",
"s  c #149CDA",
"d  c #1B9CD9",
"f  c #218FCA",
"g  c #2393CA",
"h  c #2A96CD",
"j  c #2C9DCF",
"k  c #2497D2",
"l  c #259CD3",
"z  c #2C9BD4",
"x  c #259FD8",
"c  c #309FD4",
"v  c #3B9ED4",
"b  c #01A2DE",
"n  c #0DA1DC",
"m  c #00A8DE",
"M  c #1BA0D3",
"N  c #10A2D8",
"B  c #1AA2DA",
"V  c #2EA0D6",
"C  c #25A5DD",
"Z  c #2CA5DE",
"A  c #35A2D4",
"S  c #3CA3D5",
"D  c #37ABD5",
"F  c #34A3D9",
"G  c #3CA3DB",
"H  c #3DACDF",
"J  c #009EE0",
"K  c #0E9CE0",
"L  c #01A3E4",
"P  c #0BA6E4",
"I  c #04AAE6",
"U  c #02A5E8",
"Y  c #0EA7E9",
"T  c #01AAEA",
"R  c #0CACEA",
"E  c #12ADE3",
"W  c #11ABEB",
"Q  c #1BAFEF",
"!  c #0CB0ED",
"~  c #2BA4E0",
"^  c #24ADE2",
"/  c #2DADE3",
"(  c #21ACEA",
")  c #31ACE6",
"_  c #3CACE2",
"`  c #25B4E7",
"'  c #2DB1E1",
"]  c #34B1E4",
"[  c #3EB3E3",
"{  c #49A0CF",
"}  c #41A6D6",
"|  c #4CA2D2",
" . c #45AED4",
".. c #41A6DB",
"X. c #44ACDC",
"o. c #4CACDB",
"O. c #54A3D4",
"+. c #48B1DD",
"@. c #51B1DB",
"#. c #5FB0D8",
"$. c #45ACE2",
"%. c #41B4E5",
"&. c #4CB3E6",
"*. c #4CBAE3",
"=. c #40B6E8",
"-. c #50B4E0",
";. c #53B9E4",
":. c #61B7E0",
">. c #64BDE5",
",. c #6BBBE3",
"<. c #6FBDE9",
"1. c #7BBFE5",
"2. c #50C0EB",
"3. c #59C3EF",
"4. c #63C2E5",
"5. c #6CC0E7",
"6. c #6BCAEB",
"7. c #7CC5EB",
"8. c #6ECFF0",
"9. c #70C3F2",
"0. c #75CCF2",
"q. c #7ED1F0",
"w. c #86C8E5",
"e. c #86C7E8",
"r. c #85CEED",
"t. c #8CCEEC",
"y. c #91CFE4",
"u. c #8CD2EE",
"i. c #93D3EE",
"p. c #9ED2EA",
"a. c #82D2F3",
"s. c #91D7F4",
"d. c #9ED7F3",
"f. c #9DDAF3",
"g. c #9CDCF9",
"h. c #A9CEE2",
"j. c #AAD7E4",
"k. c #ADD9E5",
"l. c #A4D3ED",
"z. c #AEDEEE",
"x. c #B4DAED",
"c. c #A5DFF4",
"v. c #A0DFF8",
"b. c #B3DDF1",
"n. c #BDDEF6",
"m. c #BFE3EC",
"M. c #AAE0F7",
"N. c #A5E3F8",
"B. c #B4E3F5",
"V. c #B5E7F8",
"C. c #C5E0EB",
"Z. c #DAEAEE",
"A. c #C5E5F4",
"S. c #C7E9F7",
"D. c #CAEBF9",
"F. c #D3E6F5",
"G. c #D5EAF5",
"H. c #DCECF6",
"J. c #D7EAF8",
"K. c #DEF2F7",
"L. c #DCF3FB",
"P. c #DDF8FA",
"I. c #E7E9EA",
"U. c #E4ECF5",
"Y. c #E4F3F6",
"T. c #E9F1F6",
"R. c #ECF8F3",
"E. c #E4F3FC",
"W. c #EDF6FA",
"Q. c #E5F9FD",
"!. c #ECF8FB",
"~. c #F3F5F5",
"^. c #FAF2F4",
"/. c #F5FAF6",
"(. c #FBFCF6",
"). c #F3F6FA",
"_. c #F4FBFC",
"`. c #FAFDFA",
"'. c #FEFEFA",
"]. c #F9FBFD",
"[. c #FDFDFC",
"{. c #FFFEFF",
"}. c white",
/* pixels */
"T ! T T T T T T T T T ! T T T T T T T T T T T T T T T ! T T T T T T T T T T T T T T T T T T T T T T T T T T I T T T T T T T T T T I T T ` '.",
"T T ! T T T T T T T ! T T T T T T T T T T T T T T T T T R T T T T T T T T ! T T T T T T T T T T T T T T T T T R T T T T T T T T T T T T I g.",
"T T T Q T T T T T ! T T T T T T T T T T T T T T T T T T T ! T T T T T T T T T T T T T T T T T T T T T T T T T T I T T T T T T I T T T T T T ",
"T T T T R T T T R T T T T T T T T T T T T T T T T T T T T T R T T T T T T T T T T T T T T T T T T T T T T T T T T I T T T T I T T T T T T T ",
"T T T T T R T R T T T T T T T T T T T T T T T T T T T T T T T R T T T T T T T T T T T T T T T T T T T T T T T T T T I T I T T T T T T T T T ",
"T T T T T T Q T T T T T T T T T T T T T T T T T T T T T T T T T Y T U T T T T T T T T T T T T T T T T T T T T T U T T I I T T T T T T T U T ",
"U U U U U Y T W U U U U U U T U U U U U U U U U T T U U L L U U Y Y T T U U T U U U U U U U U U T U U U U U U T L U L I I L U U U U U U U U ",
"U L L U R U L L Y L L L L U L U L L U L L L L L U L L L L R 8.Y.[.[.[.[.[.[.R.s.E U L L L L U L U L L U L L L L L L I L L I L U L U L L L U ",
"U L U R U L L L L E U L L U L L U L L U L L U L T T L =._.[.[.[.[.[.[.[.[.[.[.[.[.[.0.L U U L L L U L L L L L L U T L L L L L U L L L U U L ",
"L L Y L L L L L L U P L L L L L L L L L L L L L L ( ].[.[.[.[.'.!.M.a.a.c.L.].[.[.[.[.].3.L L L L L L L L L L L P L L L L L U L L L L L L L ",
"L R b L L L L L L L L Y L L L L L L L L L L L L V.(.].[.[.b.P L L L L b L R m L 9.[.[.[.[.Q.L L L L L L L L L b U L L L L L L L P L L L L L ",
"P L L L L L L L L L L L P L L L J L L L L L L /.[.[.[.u.T L L P 6.6.L L L J E L L L 2.[.[.'.[.P L L L L L L b L L L L L L L L L L L J L L L ",
"L L L J L L L L L L L L L Y L L L L L L L L /.[.[.'.P L L R /.[.[.[.v.L L L L P L L L J E.[.[.].b L L L r L L L L L L L L L L L L L P L J J ",
"J L L L J L J L J L J L L L L b L L J L L /.[.].E.L r b D.[.[.[.[.[.) L J L J L J L L L J N.[.[.'.L L b L L L L J L L L L L L r J L J J U J ",
"J L r L J L J J J J r L L r r L L r L r u.[.[.I.J b L (.[.[.[.'.' L L J J J J J J r L r J t N.[.[.P.J J L J J L J J L r r L r L J L J J J J ",
"J J J J L r L L r L L J J L J J L L r L [.[././ b L '.[.[.].Z J r L J L J L J L J L J L L J n L.'.[.[ J r L J r L J J J L J J L J J L J J J ",
"r J J J J J J J J J J r J J J J J J J (.[./.C q r [.[.].N.r J J J J J J J J J J J J J J U ) J J ~.'.[.r J r J J J J J J r J J J J J J J J J ",
"J J J J J r J J J J J J J J J J J J K [.^.U.C w E.[.[.] L r J J J J J J J J J J J J J J / J s r ;./.].4.J J J J J J J J J J J J J J J w J J ",
"J J J J J J J J J J r L J J J J t J S.^.].~ r &.[.[.N J J L r J w J J J J J J J J J J / J ] %.=.b [.~.].J J J J r J J J J J J r J J J J J J ",
"r r r J J r r r r J r J r r J r J r ^.].T.b r (.[.^ r J r r J r w J J w J w t J r r r Z J ) =.%.d M.[.[.T r r J r J t J J r J r J w J r J w ",
"r J J r t r J w r r r r r r r r r M /.~.*.r *.[.r.r r r r r r r J J K w J r J r J J w ) r J 0 B %.t [.[.4.r r r J J w J w J J w r J r J J J ",
"r r r r r J r J r r r r r r r r q >./.'.r r _.[.r r r r r r r r J w w J r r r r t r r r Z r r %.0 r [.[.].r r r w w J r J w w J r r r r 8 a ",
"r r w r r r w r w r r r r r r B %.D.[.[.r r [.K r r r r r r r r r r w w r w r r r r r r r ~ a 0 r r '.[.].r r r w r r r r w w t r r r r J d ",
"r w r r w r w r r r r r r r r 8 8 [.[.[.w 0 !.r w r r r r r r w w w w J r w r w r w r w r r w r r w /.[.[.r r w w r w J w w J w r r w r w a ",
"w r r w r r w r r r r w r w r r w [.[.].r :.%.r r t r r r r w r r w r r w r w r r r w r w r r 8 r r Y.[.'.w r r r r r w r r r r w w J e J w ",
"r w r w w r w w w w r w w r w r w [.[.].r v.r w w w t r r w w r w r w r r w r 0 w w r w r w r w r 8 Q.[.[.r w w w w w r w w w w w J J 8 J w ",
"K w w w r r w w r w w w w w w w w '.[.[.w k.w w w w r t w r w r w r r w w w t w r w w w w r w r r w '.[.].t r w w w r w w r w w w w w w w w ",
"w K w w 8 w w w w w w w w w w w w V.[.[.w >.w w w w w w t 8 w w w J.;.].r t w w w w w w w w w w w w '.[.[.r t 8 w r w w w w w w e w w w w w ",
"w w t w w w w w w w 8 w w w w w w c [.[.s w w w w w w w w t w w 8 '.r E.s 8 w w r w w w w w w w w r ].[.Q.8 w t w w w w w w w w w w w w w w ",
"w w w t w w w w 8 w w w 8 w w w w 8 [.[.i.8 w w w w w F C.C t w 8 [.w /.w w w 9 U.W.8 w w 8 w w 8 p [.[.S w w w e w 8 w w w e 8 5 w w w w w ",
"w w 8 8 e 8 8 w 8 w w w w w w w w w `.[.[.8 8 w w w d A.8 ).r.q w w.D.T.8 w 5 /.8 /.8 w w 8 w 8 8 A.[.[.8 w w w 8 e w w w 8 8 w w w w w w w ",
"5 w 8 w w t 8 8 8 8 8 8 8 8 8 8 8 8 5.'.[.$.8 8 8 8 e [.8 w ].e t q _.>.8 w X.,.w ~.8 w 5 w 8 r 1 [.[.!.8 8 8 8 8 8 e 8 q 8 8 8 8 w 5 8 w 5 ",
"w w w w w T Y X X w X J J J J X 8 8 8 ].[.[.5 8 w 8 r V ].$.5.n.8 b.d U.E._ Q.f.j.8 8 8 8 8 8 w _.[.[.s 8 8 8 8 8 8 w i 8 w 8 8 8 r 5 8 r 8 ",
"w w X w X X w K J w J J X X w J 8 8 8 _ [.[.E.8 8 5 8 8 8 @.F.'.H 8 e 8 8 q ].5 8 8 8 8 8 8 8 7.[.[.R.8 8 5 8 8 8 8 8 5 q 5 8 5 8 5 5 8 5 8 ",
"X J X J J w X J K X w X J w X J 8 8 5 8 Y.[.[.y.5 8 8 5 8 8 9 /.s 8 8 q 8 s A.8 5 8 8 8 5 8 D ].[.[.5 8 8 8 5 8 5 9 5 8 w e 8 5 8 8 5 8 8 8 ",
"X w w w w X J J X Y J X J X J X 5 5 8 5 5 [.[.].<.5 8 5 5 9 5 u.t.5 5 5 9 :.>.5 8 5 5 5 5 X.[.[.[.u 8 5 5 8 5 8 e 8 5 8 5 5 e 8 5 8 5 8 5 5 ",
"w w w w J X J X J w K X w X J w 8 5 5 8 8 1 '.[.[.@.8 5 8 5 8 u T.8 5 8 5 A.u 8 8 5 5 8 _ [.[.'.d 5 5 5 5 5 5 e 5 5 5 5 5 5 8 9 5 5 5 5 w 5 ",
"w X w X X J X J X J X K J X X J 5 5 5 5 5 5 4 [.[.[.+.8 5 8 5 5 `.5 5 5 5 W.9 5 5 5 5  .[.[.'.v 5 5 5 5 5 8 5 5 5 5 5 5 5 5 5 5 y 5 5 5 5 5 ",
"w X X J J X J X J X J X K X J X 5 5 5 5 5 5 5 3 [.[.[.C - - 5 - [.5 5 5 5 /.- 9 - 1 x [.[.[.h 5 5 5 5 5 5 ; 5 5 5 5 5 5 5 5 5 5 5 7 5 5 5 5 ",
"w w w X X J X J X J X w w K X J 5 5 5 5 5 5 - - C '.[.[.9 5 5 5 /.6 - 8 5 [.5 - 9 8 '.[.[.z 5 5 5 5 5 5 9 5 5 5 5 5 5 5 5 5 5 5 5 5 6 5 w X ",
"X w J X J X w X X J X J X J X X 5 5 5 - 5 - 5 5 5 $.[.[.^.5 5 5 L.p - 5 5 [.5 5 - W.[.[.o.- - - J X w X J X X J 5 5 5 * 5 5 5 5 5 5 5 5 5 X ",
"X w X w X J X J X J J X J X J X 5 5 5 5 5 5 - 5 5 5 l.[.[.e.5 - A.G 5 5 1 W.5 5 +.[.[.B.5 5 5 5 X ( X J X X J X 5 5 5 5 5 5 * 5 5 5 5 5 5 5 ",
"w X w X J X J X J X w X X X X J * 5 - k z z - - - - 5 /.[.[.5 * l.o.- - ; _.- 5 '.[.[.5 * 5 - 5 y ~ J X J X X J * 5 * 5 - - 5 * 5 5 5 X 5 w ",
"X w X w X X J X X w X w X J J X * 5 k - - 5 g % - 5 * k ].[.7.- l.o.- - ; /.- u [.[.1.- 5 5 * A y O X X J X J X 5 * 5 * - 5 * 5 X 5 5 5 5 X ",
"X J X J J J X X w X w X - - * 5 - k - S F * 5 g 5 5 5 5 [.[.!.5 x.G 5 * 6 [.5 b.[.[.* 5 * 5 c h G 5 5 X X J X X X r w X - - - - - - - 5 - - ",
"X X X X X X J X X w X w - - - - , % 2 ....% % < X - X 5 A.[.[.% H., * * * ].* ).[._.5 * * z = % X 5 X 5 X J X J X X X w - - 5 X - - X 5 - * ",
"J X X J X X X X X X X 5 X 5 * * * * * S v k } * - - * * #.[.[.* Y.- * * * /.5 [.[._.% * 3 , % = w X 5 X X X X X J X w X X 5 X 5 * - * 5 * * ",
"X X X X J X J X w X 5 X 5 X * * * < * * h } * * - * * * F [.[.; `.* - - 7 F.E.[.[.[./.% * f : * X w X 5 X J X J X X X X w X 5 X * * * * * * ",
"J X X J w X X X w X w X X X X J * * > * S * * * * * * * G [.[.../.E.[.[.[.[.[.[.[.[.U.g & * * * X X X w X 5 X 5 X 5 X 5 X 5 X 5 * * * * * * ",
"X X X X X X w X X X X X w X X X * # % j * * * # * # * #.[.[.[.[.[.[.[.[.[.[.[.[.[.C.$ @ $ * # * X w X X X 5 5 X X X 5 X 5 X X X * # * * # * ",
"J X X J w X X X w w X X J X X J * * * # # % * * # * * Z.[.[.[.[.[.[.[.[.[.[.[.[.[.[.H.% # # * * X X X w 5 X 5 X 5 X 5 X 5 X 5 X # * # * * # ",
"X X X X X X w w X X X w X X X X * # * * * # * # * * % + E.[.[.[.[.[.[.[.[.[.[.[.[.[.(.# * * # * w w X X X 5 X 5 X 5 X 5 X 5 X 5 * * * * # * ",
"X X X X w X X X X X X X X w X X * # # # # # # * # # % : Y.[.[.[.[.[.[.[.[.[.[.[.].j.< X * # # # X X X X w O X X - X X - X X X 5 # # % # # # ",
"X X X X X X X X X X w 5 X X X X # # # # # # # # # # # I.[.[.[.[.[.[.[.[.[.[.[.[.J.# # # X # # # X X X X 5 X y X X X - X X 5 X X X % X * # * ",
"J X X X X X X w X w X X X X X w # X # # # X # # # + # v [.!.].[.[.[.[.[.[.[.[.[.h # # # # # # X X X X w X 5 X e X * - X X X X 5 $ # X # # # ",
"X X X w w X X X X X X X w X X X # # # # # # # # # # # # X $ | [.[.[.[.[.[.[.[.b.X # X # # # # * w X X X X X X X , X X X - - X X * # # # # # ",
"X * X X * X X X X X X X X X X X X X X X * X # X X # X # # X $ < W.[.[.[.[.[.| X X X X X X * X # X # X # # X X X X ; X * X X # # X * X X # X ",
"X X # # X * X * X X X 5 X 5 X X X X X X X X X X #   # # X # X # X X 6 ; # X X # X X X X X X # # # X # X X # X X * X , X X # # X X X X # X # ",
"X X X X X X O X X X X X X X X X X X X X X X X X X X X X X X X X o X X X # X X X X X X X X X X X X X X # X X X X X X X = $ X X X X X X X X X ",
"X X X X X $ X X X X X X X X X X X X X X X X X * X X X X X X X X $ $ X X X X X X X X X X X X X X X X X X X X X X X X X X : X X X X X X X X X ",
"X X X X o X X X X X X X X X X X X X X X X X X X   X X   X X X o X X $ X X X   X X X X X X X X X X X X X X X X X X X X X X $ X X X X X X X X ",
"X X X o o X X o o O X X X X X X X o o X o X o o X X X X o X o X X o X o   X o X X o o X o   X o X X o   o o o X   o X o X X : o o o o o o o ",
"X o o o X o o X X o O X O X X O o X o X X X o X . X o X X o o o   X o X o   X X o X X o X o o X o o X X o X X   o X o o X o X : X X o X o O.",
"o o . X X o X o X X X O X X X X     X o     o   X X o   o o o   X . X o o O       X o   X   X o X   X .   X . O X o X . X X o X O X o o o ].",
"o o o o   o o o o o .   . o o . o o o o o o o o o o o o . o o o o o o . o o o . o o o . o o .   . .   o o o o o o o o o o o o o o . O O ^.[.",
"`.O o o o o o . o o o o . O o o o o o . o o . o . o o . o o o o o . o o o o . . . o o o o o o   o . o o . . o o o o o o o o o o . o O ^.^.]."
};
