/* XPM */
static char *_f94c00ee35b4d04b0c8eb3a9c6e109393Wk4kINoPVDl5sd[] = {
/* columns rows colors chars-per-pixel */
"80 70 129 2 ",
"   c #282B2D",
".  c #2C2E31",
"X  c #2E3134",
"o  c #313336",
"O  c #323538",
"+  c #35393C",
"@  c #383B3E",
"#  c #3A3D41",
"$  c #3E4245",
"%  c #404447",
"&  c #424649",
"*  c #464A4E",
"=  c #494D51",
"-  c #4E5256",
";  c #4F5458",
":  c #52565B",
">  c #54595D",
",  c #565B60",
"<  c #5A5F64",
"1  c #5B6065",
"2  c #5F646A",
"3  c #61666C",
"4  c #646A6F",
"5  c #656B71",
"6  c #686E74",
"7  c #6B7176",
"8  c #6D7379",
"9  c #70777D",
"0  c #72797F",
"q  c #767C83",
"w  c #787F85",
"e  c #798086",
"r  c #7E858C",
"t  c #80878E",
"y  c #81888F",
"u  c #848C93",
"i  c #889097",
"p  c #8D959D",
"a  c #929597",
"s  c #90989F",
"d  c #8F98A0",
"f  c #959EA6",
"g  c #97A0A4",
"h  c #97A0A8",
"j  c #9DA6AE",
"k  c #9EA7B0",
"l  c #9FA8B1",
"z  c #ABACAD",
"x  c #A2ABB4",
"c  c #A6AFB8",
"v  c #A7B0B7",
"b  c #AEB3B6",
"n  c #A7B0B9",
"m  c #ABB5BD",
"M  c #AEB8BF",
"N  c #B2BABD",
"B  c #ADB7C0",
"V  c #AEB8C1",
"C  c #B1BBC4",
"Z  c #B5BFC9",
"A  c #B9C1C7",
"S  c #B7C1CA",
"D  c #B8C2CC",
"F  c #BDC7D1",
"G  c #BFC9D3",
"H  c #C1C9CC",
"J  c #CCCDCE",
"K  c #C2CCD5",
"L  c #C4CED8",
"P  c #CFD1D3",
"I  c #C6D1DB",
"U  c #C9D4DF",
"Y  c #D0D5D7",
"T  c #D3DADC",
"R  c #DBDCDE",
"E  c #CBD6E0",
"W  c #CEDAE4",
"Q  c #D1DCE5",
"!  c #D3DEEA",
"~  c #D7E3E6",
"^  c #DBE4E7",
"/  c #D6E2ED",
"(  c #D8E4EF",
")  c #DCE8EF",
"_  c #DAE6F1",
"`  c #DFECF6",
"'  c #DFECF8",
"]  c #E3E3E4",
"[  c #E3ECEE",
"{  c #E1ECF6",
"}  c #E0ECF8",
"|  c #E1EDF9",
" . c #E2EDF9",
".. c #E2EFFA",
"X. c #E3F0F6",
"o. c #EDF2F3",
"O. c #ECF5F5",
"+. c #E5F2F9",
"@. c #E7F3FB",
"#. c #E3F0FC",
"$. c #E4F1FD",
"%. c #E5F1FD",
"&. c #E7F4FE",
"*. c #EBF7FA",
"=. c #E9F3FD",
"-. c #E8F5FC",
";. c #E9F6FD",
":. c #E8F5FF",
">. c #EAF7FE",
",. c #ECF4FD",
"<. c #EFF9FB",
"1. c #EBF8FF",
"2. c #EDF9FC",
"3. c #ECF9FF",
"4. c #EFFBFF",
"5. c #EFFCFF",
"6. c #F1F1F2",
"7. c #F3F3F4",
"8. c #F0F5FA",
"9. c #F3F8FE",
"0. c #F0FCFC",
"q. c #F0FCFD",
"w. c #F5FEFE",
"e. c #F6FEFF",
"r. c #F9FCFE",
"t. c #FBFFFF",
"y. c #FEFEFE",
"u. c #FEFEFF",
"i. c white",
/* pixels */
"7 7 6 7 7 i L L L C x x x x x x _ _ _ _ _ _ _ _ c x c x x x v ) ( ( _ / _ _ l x l x l x j x l V S C C S S V S C i 8 8 8 8 8 8 8 8 0 8 8 4 @ + + + + @ J w e e e ",
"6 7 6 7 6 i L E I L C x c x x x _ _ _ _ _ _ _ I x x x x x x x x ( ( / _ / x x j l l x j x l l U C S C C V S V S n 8 8 8 8 8 8 8 8 8 8 8 @ + @ + + + = y.y.r e e ",
"6 7 7 7 7 i I I I I I n x x c x _ _ _ _ _ _ / d x x x x x v x x C ) ( / v x l x l x x l j l / ( G S S C V S C S S 8 8 8 8 8 8 8 8 8 8 8 + + + + @ + y.y.y.y.b w ",
"7 7 7 7 7 i I I L I I I c x f q ( _ _ _ _ ! 6 6 q x c x x x x x x _ _ K x k x j x j l l x ~ ) ( _ G V S S V S V r * * * * * 1 8 8 8 8 2 + @ + + + 6.y.y.y.y.y...",
"7 7 7 7 7 i I L I L L L O . X X X L _ _ W 6 6 6 5 6 j x x x x x M e.e.e.^ k x k x l l x ( ( ( ( ( ( I I G S S 1 * * * * * * * * 7 f L G 2 + + # y y.y.y.y.y...=.",
"7 6 7 7 7 u I I I L K X X X X . X . f I 6 6 6 6 6 6 6 q x x x x e.e.e.e.e.e.v x l l x ( ( ( ( ( ( ( &.>.&.%.&.- * = * * * * * * ' #.#.%.%.%.` i y.y.y.y.y.9.%.%.",
"7 7 7 6 7 i I L I Z X X . X . X X X . 6 6 6 6 6 6 6 6 6 6 x x [ e.e.e.e.e.e.e.^ l v ( ( ( ( ( ( ( ( +.&.&.&.>.G * * * * * * * * #.%.%.%.%.%.%.%.y.y.y.y.y.%.%.%.",
"7 8 x 4.q.q._ _ _ b X X X X X X . X . ; 6 6 6 6 6 6 3 , > > > r.e.e.e.e.e.e.e.e.9.( ( ( ( ( ( ( ( ( >.&.>.&.&.&.* * * * * * * 1 %.#.%.%.%.%.%.%.#.y.y.y.>.%.%.%.",
"r e.q.e.q.e.` _ _ _ = X X . X . . X X # 6 6 < < > : > > > : : e.e.e.e.e.e.e.e.e.e./ ( ( ( ( ( ( ( ( >.@.@.>.>.%.2 * * * * = * K %.#.%.#.%.%.%.%.%.1.y.r.#.#.#.%.",
"j q.e.q.e.q.X._ _ _ ( o X X X X X X . X ; , , : : > : : : > : O.e.e.e.e.e.e.e.e.e.) ( ( ( ( ( ( ( _ @.@.>.%.>.>./ * * * * * * X.#.%.#.%.#.%.%.%.%.%.y.&.&.#.&.#.",
"g e.q.e.q.e.4._ _ _ _ ! X . . X X . . O , ; , : > : > > > 5 +.5.e.e.e.e.e.e.e.e.e.{ ( ( ( ( ( ( ( x x L %.@.,.-.&.$ $ +   X X / %.%.%.%.%.%.%.%.%.%.#.#.+.&.#.%.",
"j q.e.q.e.q.q._ _ _ _ _ l X X . X . X - ; , ; , : > > 1 >.1.1.1.e.e.e.e.e.e.e.e.e.q.( ( ( ( ( ( m x x x x x x I 2 . . . X   X 2 q Z ..=.%.#.%.%.%.%.&.#.&.#.%.&.",
"j q.0.q.e.q.q._ _ _ _ _ _ = . X o O # q x u , : > y >.>.1.1.1.1.4.e.e.e.e.e.r.e.[ , 3 F ( ( ( S x x x x x x x x . . X     X   4 0 0 0 0 r S %.%.%.%.%.D #.+.>.#.",
"z <.q.e.q.e.e._ _ _ _ _ _ ! + + + + O q x x x f @.,.>.4.1.1.1.*.@.# = = = 3 N z , , , , > f W x j k x x x x x j . . . X X   X 4 0 q 0 0 9 8 w 9 9 .       v 1 > ",
"K e.e.q.r.e.r._ _ _ _ _ W + + + + O o q x x x x V 4.>.>.1.1.1.5.1 # # @ @ # # > , , , , > p _ U k x j x x x x f X . X   X     0 0 0 0 0 0 0 9 ;           # , , ",
"D q.q.e.9.9.r._ _ _ _ / + + + + O # O q x x x x x K >.4.1.*.1.#.# + @ $ @ @ # > , , , , , ! _ _ ( x k x x x x e . .   X   X   8 0 0 0 0 q 0 :             $ , , ",
"D D <.e.5.e.q.<.{ 8.y.6 + + + + O + + = x x x x x x / 1.4.>.>.& $ @ $ + # # # , , , , , , _ _ _ _ _ x x j x x : . . . . X X   9 q 8 q q 0 +               # , , ",
"D D ^ 4.e.0.r.y.y.y.y.y.+ + + + + + + - x x x x x x x #.1.1.` # @ # + $ # # # , , , , , 1 _ _ _ _ _ _ m x x k + X . . . .     9 0 0 q 8 X                 # , , ",
"D D D 4.5.y.y.y.y.y.y.y.] + + + + + + - x x x x x x x x >.>.< $ $ @ $ $ # # $ 1 , , , , 9 ( _ _ _ _ _ _ D 1 $ $ $ # $ O     X 0 e 8 8 .                   . ; , ",
"D S L 4.4.y.y.y.y.y.y.y.y.3 + + O + O = x x x h u u u r u V I I I I G G F 2 $ , , , > 1 W ( _ _ _ _ _ _ S $ $ @ $ $ $ # $ $ $ 3 q 8 X                   . . . ; ",
"S S K 4.4.1.y.y.y.y.y.y.y.r.+ + + + + = u y y y r u r r l m G I I I I I I I G 1 , , , , / _ _ ( _ _ D 6 = $ $ $ $ $ # $ $ $ @   . .                   $ O . . . ",
"S S ) 1.1.1.q.y.y.y.y.y.y.y.R + + + + y t y y y u r u i B B B L I I U I I I E 9 , , , , ) ) W q 2 3 2 2 > $ $ $ # $ $ $ $ $ X     X .               S / ; . X . ",
"S S ) 1.1.1.>.y.y.y.y.y.y.y.y.& + + # y y y y y u u r m B B m B I I I I E E E G , , , , 5 2 2 2 2 2 2 2 3 $ $ $ $ $ # $ $ $   X X   .           $ / / / / . . . ",
"S S >.1.4.4.>.q.y.y.y.y.y.y.y.r.+ + t y y y y y r r l B m m m B S I U I G E E G 1 , , 2 2 2 2 2 2 2 2 2 1 $ $ $ # $ $ $ $ . .     X           G ~ / / / / . . . ",
"S S 1.4.9.>.4.1.r.y.y.y.y.y.y.y.J + y y r u r i V ' V m m B m m m G I I I I U I D , 2 2 2 2 2 2 2 2 2 2 3 $ # $ $ $ $ $ @ . . . . . . . . . / / / / / _ / + . . ",
"S S 1.1.q.,.4.1.q.y.y.y.y.y.y.y.y.6 u f / #.%.%.#.#./ m B B m m m M U I U I U G e 2 2 2 2 2 2 2 2 2 2 2 2 $ $ $ $ $ $ $ . . . . . . . . . . / / / / / / / D X . ",
"S S 1.1.8. .f O . + y.y.y.y.] 0 , q =.%.#.#.%.#.%.#.f i B B m m m m V I S 7 2 2 4 2 9 2 2 2 2 2 2 2 2 2 $ # + O X X o X . . . . . . . . . . / / / / / / / / X X ",
"S S = X             o 1 > , > > > , %.%.#.&.#.%.#...u u r m m B m M n 2 2 2 2 4 2 6 r r 2 2 2 2 2 1 # # # # O X X X X X X . . . . . . . .   ! / / / / / / Q 1 2 ",
"D o                 : , > , > , > > ! %.%.%.%.#.#._ u u u i m B B m 4 2 2 2 2 5 2 e u u y q 2 - # # # # # # O X O X X O X X . . . . . X $ $ 2 / / / I S V B V 4.",
"y.X             . . > > > > > , > , 1 %.%.%.#.%.#.f u u u u u B m 5 2 5 2 5 2 2 2 u r u u u 6 # # # # # # # # X X X X X X X X . X $ $ = = = = g V V B M V V V 1.",
"y.z               : > > , > , > > > > } %.#.%.#...u u u u u u u e 2 2 2 2 4 5 2 2 u u u u r e # # # @ # # # # X X X X X X X X * * * * * * = u i V V B B V B B 1.",
"Y 9 X       .   . > > , : , > > , > , q #.%.#.%.` u u u u u u u 5 2 4 2 4 2 2 4 9 u r r u u r # # # # # # # # X O X X X X X O * * = * * $ r u u m V V V V V V &.",
"q 8 q         O O # > > > > > > > > > : %.#.%.#.f u u u u u u 3 1 2 2 3 3 3 3 3 u r i r r i r $ $ $ # # + $ + + X X o X X o O $ - $ - $ 8 r r f r B V V Z d $ q ",
"8 q 8 q % O O O O O # , , , > , > > > q h h / #.u u u u u r # # # - 2 5 3 3 2 5 r u r i i r r $ $ $ # # $ @ $ X X X X o o X O = - $ $ , r f i u p B h $ $ $ $ $ ",
"q 8 q 8 = O o O O O o = > > > > , > q f h f f h f u u u # # # # # # $ 2 3 3 3 6 u r u r r r i $ $ $ # # @ $ $ X X o X X X o o $ $ - : r p r d r r ; $ $ * $ $ * ",
"8 q 8 q # O O O o O O o 9 , > , > 5 f h f g h f f f u # # # # # # # # # 3 3 3 r u r u u i r r 0 1 6 5 5 7 8 5 X X X o X o O + $ ; $ i u r d r d d $ $ $ $ $ $ $ ",
"q 8 q 8 O O o O O O o < d d p p p f f f f h f h f f u # # # # # # # # # # < < w r u r r r r r 7 6 7 7 7 7 8 7 + X X X X X o X O - r d r u r i r 5 5 $ $ $ $ $ $ ",
"8 q 8 q O O O O O O , s d p d d f f f f f h h f f f f # # # # # # # # # # $ # $ O + $ - r f 8 7 8 7 7 0 7 7 7 7 X X O X X X o X r d r d u f r 5 5 5 5 1 $ $ $ $ ",
"q q q 6 O O O o o $ s s s s p s f f f f h f h f f f f + # # # # # # # # $ $ $ $ O O O O r >.@.8 7 8 7 7 8 7 7 8 $ X X X X X X X r r d r f q 5 3 5 4 5 4 6 $ $ $ ",
"=.%.%./ o O O o # s s s d d d s f h f h f h f f f f f # # # # # # # # # $ $ $ # O O O $ >.>.>.8 7 7 7 7 7 8 8 7 7 X X O X X X O D D D S S f 5 5 4 4 5 5 5 5 k B ",
"=.=.@.@.* O O @ p d d s p d d s f f h f h f h f h f h # # # # # # # # # $ # $ # # . # _ >.>.>.Q 7 6 7 7 7 7 7 r ( ( ( 1 $ X X S D D D D D S 5 5 5 2 4 5 5 6 ' ' ",
",.=.>.@.L h w d d d d d d d d d f f f f f h f h f h f # # # # # # # # $ $ $ $ # # # 3 #.>.>.>.>.8 q 7 7 q 7 U ( ( ( ( ( ! ! S S S D D D D D C 3 5 5 5 5 5 ^ ' ' ",
"%.%.>.%.l x l l j p i f p d d d f f f h f h h f h f f , & # # # # # $ $ $ $ # # O + %.>.>.>.>.>.W 7 6 7 e ! ( ( ( ( ( ( ( ( F S D D D D D D D q 5 5 5 4 u ' ' ' ",
"1.>.@.Z l l l l x x k j d d d d f f h f h f f h f l 1 < < < < , ; # $ $ # # # # O Q 1.&.>.>.>.>.>.8 e h l ! ( ( ( ( ( ( ( / U D D D S D D D D q + + + + G ' ' ` ",
"4.@.@.l x x l l x k x c v x x v F %.%.%.%.%.%.%.#.%.< < 1 < < < < < 3 3 < < $ # : 1.>.>.>.>.>.>.&.x j j j j B ( ( ( ( _ ( ( U D D D D D D D S $ + + + + K ` ` ` ",
"@.@.D x l l l x k j x x x v v x ^ %.%.%.%.%.%.%.%...< < < < < < < < 3 3 3 3 3 3 S 1.1.1.>.>.>.>.&.j j j l j j j ! ( _ _ ( ( ! D D S D S D D S + + + + + F ` ` ..",
">.#.l l l l l x x x n x n v n D y.%.%.%.%.%.%.%.%.%.< 1 < < < 1 < < 4 3 3 3 3 3 2 ` 1.&.>.>.>.>.4.T l j j j l l l l l r e e e D D D D D D S B # + + + + > ` ` ` ",
"1 1 f l x x l l x x c v v x x y.y.=.%.%.%.%.%.%.%.%.< < < < < < < < 3 3 3 3 3 3 2 2 >.>.>.>.>.1.y.r.e.O.l l j r e e e e e e e S D D S D D D 6 + + + + + > ` { { ",
"1 1 1 l l l x l n l n n x v y.y.y.y.%.%.%.%.%.%.%...2 < 1 1 1 < 1 1 2 2 2 2 2 2 2 2 4 4.>.q.>.y.y.y.y.y.y.7.e e q e q e e e r x B Z D D D D # # O # O # > { ` ` ",
"< 1 1 8 l l l l l n x n n U y.y.y.y.%.%.%.%.%.%...=.3 < , 1 < < 1 1 5 5 6 6 l j I I / q 5 h y.y.y.y.y.y.y.y.a e q e e e q e x x x x B D D D O O # O # 8 j n / ` ",
"1 1 1 1 k k l l l n x x n y.y.y.y.y.9.%.%.%.%.%...B F 6 < 1 , < 1 1 / / _ / / / ( / 6 : : > 7.y.y.y.y.y.y.y.y.e e q e q e x x x x x x x Z c # # p k k k x l x O.",
"1 1 1 1 2 l l l n n n n y.y.y.y.y.y.y.%.%...B k x k W ..} { { U j L / / / / / / / j > : > : > y.y.y.y.y.y.y.y.T e e e e x x x x x x x x x l k k k l l k j x k -.",
"1 1 1 1 1 8 I +.%.%.%.%.y.y.y.y.y.y.y.m l l l l k k W ' ' ' ' ' ` ` / / / / / / n : > > : > > e.y.y.y.y.y.y.y.y.r w e l x x x x x x x x x x k x k l x k x k l 5.",
"1 , 1 1 1 u %.%.%.%.%.%.@.y.y.y.y.y.r.j l l l l x k Z ' ` ' ' ' ` ` / / / / / j > > > : > > > a y.y.y.y.y.y.y.y.9.e l x x x x x x x x x x V V x l l k x x l x 5.",
"1 1 1 1 1 @.#.%.>.%.%.%.%.%.y.y.y.y.x l l l l l k k C ' ' ' ` ' ` ..r r t y r r > : : > : > > > y.y.y.y.y.y.y.y.y.x x x x x x x x x x x >.m C V l l l l k x x q.",
"V V V k l @.#.%.@.%.%.%.%.%.%.y.y.y.r.l l l l l k k C ' ` ` ' ' ` ..r u r r u r : > > > > : > : o.y.y.y.y.y.y.y.y.x x x x x x x x x n q.,.V V V V l x l x j x q.",
"V S V S V &.#.#.%.%.%.%.%.%.r.r.y.r.y.J l l l l k k x ' ` ` ' ` ` E u r u r u r > > : > > : : > 3 p a p p s p p p x x x x x x x x W 1.1.1.V M V M M x k k x M <.",
"V V V V V #.&.&.@.%.%.#.&.5.r.y.r.y.y.r.x l k l k x x ' ` ` ` _ _ u r u r u r u 3 : > : : > > > p p p p p i p p p e.C x x x x x X.1.1.5.5.C C C C M M k k k ~ <.",
"V V V V S x %.%.#.%.%.@.%.y.y.y.r.y.r.y.e.x E ` %.%.%...: * * * * * r r t r u t w > > > > : > r p p p p p i p p H e.y.e.x x m 5.1.5.1.1.1.M C V C M C v > ; ; - ",
"V S V S r r g %.@.#.%.%.e.r.y.r.y.y.r.y.r.+.#.%.#.%...` * * * & * * = r u u r 9 : - : - : ; 8 q p i i p p p p i o.e.e.e.r.` 4.1.1.1.5.1.1.C N V M A V q ; ; - ; ",
"V S n r r r r &.%.%.@.%.%.y.r.y.y.r.y.r.e.%.%.#.#.#.%.' * * * * * * * , t r : ; - : - : : : q q e p p i p i p p e.y.e.e.y.e.5.1.1.5.1.5.5.V V S V S V ; - ; - - ",
"V u r r r r r &.&.%.#.%.%.{ P Y Y P r.r.%.+.#.%.@.#.#.{ & * * * * * * i k < ; ; : - : - : 1 q w q i p p p p p s e.e.e.r.e.e.5.4.1.1.1.1.1.V V V V V M ; ; ; - ; ",
"r r r r r r r #.%.%.#.%.%.m u u u r u u C %.#.+.#.#.%.' * * * * * * , j j j ; : - : - : : q w q w e p i i p p b e.e.e.e.e.e.e.4.1.5.1.1.5.V V V V v $ $ ; ; - ; ",
"r r r r r r r ` &.%.@.%.%.j u u u u u u i %.#.%.#.@.#.I f < & * * * j k j j s ; : - : : : q q w q q r p p p p O.e.e.e.e.r.e.e.4.1.1.5.1.5.V V V i $ $ $ $ % - ; ",
"r r r r r r r c %.&.#.&.%.u i r i r i r r #.#.#.#.%.( n n n n j 3 j k j k j j 2 ; ; ; : 9 e q e q q e i p p p q.e.e.e.y.e.e.r.r.<.>.4.*.&.C C 1 $ % $ % % $ % ; ",
"r r r r r r r p %.%.&.#.&.u i r r i r i x x n n S ( x n n x n x x j k k j k j j ; ; ; : e 0 q 0 q q q q p i p e.e.e.Y T j j u y $ $ $ & $ $ & $ % $ % $ $ % $ - ",
"r r r r r r r r #.&.%.#.#.i r i r i i g n c c n n x n n c n n x v k j k k k j l a ; ; 6 0 e 0 0 q 0 e 0 e p r y r y y y r y r 0 % % % % % % & $ $ % % $ % $ % ; ",
"r r r r r r r r &.#.&.&.#.r i r i r r n x n x x x n n x x x c n x x k l k j l j k 1 : 0 e 0 e e q q 0 e 0 r y r y y r r y y y = % % % % % % % $ % % $ % $ % % ; ",
"r r r r r r r r &.#.%.G s s d s f d n c c c n c c c n x n x c n y.y.o.l j l l l k k 9 0 q 0 e 0 q q 0 e p y y y y y y y r y y % % % & $ % % % % $ $ % $ & $ $ ; ",
"r r r r r r r r W W d d d d d f d d d n c x x c x x n n c j 1 > r.r.y.y.e.V j l k k e 0 0 e 0 e e s M C C M t y r y r y y r r $ & & $ & % % % % & $ $ % $ $ $ & "
};
